<?xml version="1.0" encoding="UTF-8"?><svg id="artwork" xmlns="http://www.w3.org/2000/svg" xmlns:xlink="http://www.w3.org/1999/xlink" viewBox="0 0 450 400"><defs><style>.cls-1{fill:#786ccd;stroke:#786ccd;}.cls-1,.cls-2{stroke-width:.33px;}.cls-1,.cls-2,.cls-3,.cls-4,.cls-5{stroke-miterlimit:10;}.cls-2{fill:#4e43a4;stroke:#4e43a4;}.cls-6{clip-path:url(#clippath);}.cls-7{opacity:.05;}.cls-8{fill:#f8a68f;}.cls-9{fill:#005f91;}.cls-10{fill:#009639;}.cls-11{fill:#f06970;}.cls-12{fill:#f5f5f5;}.cls-13{fill:#e93c3c;}.cls-14{fill:#fff;}.cls-15{fill:#f3704b;}.cls-16{fill:#edbb1c;}.cls-17{fill:#7cc0eb;}.cls-18{fill:#999;}.cls-19{fill:#ac7349;}.cls-20{fill:#bd7421;}.cls-21{fill:#a4e171;}.cls-22{fill:#1d9cd3;}.cls-23{fill:#1c6333;}.cls-24{fill:#0c5c8d;}.cls-25{fill:#955e3a;}.cls-26{fill:#62bd26;}.cls-27{fill:#62c026;}.cls-28{fill:#491b62;}.cls-3{stroke:#005f91;stroke-width:.33px;}.cls-3,.cls-4,.cls-5{fill:none;}.cls-29{clip-path:url(#clippath-1);}.cls-30{clip-path:url(#clippath-4);}.cls-31{clip-path:url(#clippath-3);}.cls-32{clip-path:url(#clippath-2);}.cls-33,.cls-34{opacity:.45;}.cls-35{opacity:.35;}.cls-4{stroke-dasharray:0 0 .01 5.1;stroke-width:1.77px;}.cls-4,.cls-5{stroke:#fff;stroke-linecap:round;}.cls-5{stroke-width:.32px;}.cls-36{isolation:isolate;}.cls-34{fill:#003963;}</style><clipPath id="clippath"><path class="cls-23" d="M349.15,75.54l5.52-3.91c.41-.29,.89-.4,1.42-.36l-5.52,3.91c-.53-.04-1.01,.07-1.42,.36Z"/></clipPath><clipPath id="clippath-1"><path class="cls-16" d="M409.32,169.17l-5.52,3.91c7.43-5.26,7.1-14.77,7.08-15.39l5.52-3.91c.02,.62,.35,10.13-7.08,15.39Z"/></clipPath><clipPath id="clippath-2"><path class="cls-16" d="M350.57,75.18l5.52-3.91c2.5,.19,6.26,3.65,10.57,6.8,1.35,.99,2.69,1.96,4.03,2.92l-5.52,3.91c-1.34-.95-2.68-1.93-4.03-2.92-4.31-3.15-8.06-6.61-10.57-6.8Z"/></clipPath><clipPath id="clippath-3"><path class="cls-23" d="M375.77,82.93l5.52-3.91c.45-.08,.9-.11,1.37-.07,2.94,.23,6.18,2.79,8.88,7.15l-5.52,3.91c-2.71-4.35-5.94-6.92-8.88-7.15-.46-.04-.92-.01-1.37,.07Z"/></clipPath><clipPath id="clippath-4"><path class="cls-23" d="M395.5,105.25l5.52-3.91c1.35,.86,2.7,1.7,4.05,2.52,7.64,4.68,13.66,6.13,13.4,18.48-.25,12.35-1.99,30.48-2.08,31.43l-5.52,3.91c.09-.95,1.83-19.08,2.08-31.43,.25-12.34-5.76-13.79-13.4-18.48-1.35-.83-2.7-1.67-4.05-2.52Z"/></clipPath></defs><g><g id="Floor"><path id="Floor-2" class="cls-35" d="M338.87,392.46c10.99,0,21.32-2.45,29.09-6.9l65.39-37.45c7.77-4.45,12.05-10.37,12.05-16.66s-4.28-12.21-12.05-16.66l-65.39-37.45c-7.77-4.45-18.1-6.9-29.09-6.9-10.99,0-21.32,2.45-29.09,6.9l-65.39,37.45c-16.04,9.19-16.04,24.14,0,33.33l65.39,37.45c7.77,4.45,18.1,6.9,29.09,6.9Z"/></g><path id="Depth" class="cls-18" d="M236.88,329.67c-.1-.11-.2-.21-.29-.32-.17-.19-.34-.39-.5-.59,0,0,0,0,0,0-2.26-2.76-3.56-5.76-3.82-8.88,0-.03,0-.06,0-.09-.01-.17-.02-.34-.03-.52,0-.08,0-.15,0-.23,0-.09,0-.19,0-.28v-5.61c0-.09,0-.19,0-.28,0-.08,0-.15,0-.23,0-.17,.02-.35,.03-.52,0-.03,0-.06,0-.09,.25-3.11,1.56-6.12,3.82-8.88,0,0,0,0,0,0,.16-.2,.33-.39,.5-.59,.09-.11,.19-.21,.29-.32,.06-.07,.12-.13,.18-.2,.15-.16,.31-.33,.47-.49,0,0,0,0,0,0,1.79-1.82,4.03-3.52,6.73-5.07l65.42-37.47c7.77-4.45,18.11-6.91,29.11-6.91,0,0,0,0,0,0s0,0,0,0c11,0,21.33,2.45,29.11,6.91l65.42,37.47c2.7,1.54,4.94,3.25,6.73,5.07,0,0,0,0,0,0,.16,.16,.32,.33,.47,.49,.06,.07,.12,.13,.18,.2,.1,.11,.2,.21,.29,.32,.17,.19,.34,.39,.5,.59,0,0,0,0,0,0,2.26,2.76,3.56,5.76,3.82,8.88,0,.03,0,.06,0,.09,.01,.17,.02,.34,.03,.52,0,.08,0,.15,0,.23,0,.09,0,.19,0,.28v5.61c0,.09,0,.19,0,.28,0,.08,0,.15,0,.23,0,.17-.02,.34-.03,.52,0,.03,0,.06,0,.09-.25,3.11-1.56,6.12-3.82,8.88,0,0,0,0,0,0-.16,.2-.33,.39-.5,.59-.09,.11-.19,.22-.29,.32-.06,.06-.12,.13-.18,.19-.15,.16-.31,.33-.47,.49,0,0,0,0,0,0-1.79,1.82-4.03,3.52-6.73,5.07l-65.42,37.47c-7.77,4.45-18.11,6.91-29.11,6.91,0,0,0,0,0,0s0,0,0,0c-11,0-21.33-2.45-29.11-6.91l-65.42-37.47c-2.7-1.54-4.94-3.25-6.73-5.07,0,0,0,0,0,0-.16-.16-.32-.33-.47-.49-.06-.06-.12-.13-.18-.19Z"/><path id="Floor-3" class="cls-12" d="M338.86,366.28c11,0,21.33-2.45,29.11-6.91l65.42-37.47c7.77-4.45,12.06-10.37,12.06-16.67s-4.28-12.22-12.06-16.67l-65.42-37.47c-7.77-4.45-18.11-6.91-29.11-6.91s-21.33,2.45-29.11,6.91l-65.42,37.47c-16.05,9.19-16.05,24.15,0,33.34l65.42,37.47c7.77,4.45,18.11,6.91,29.11,6.91Z"/></g><g><g><polygon class="cls-2" points="363.13 270.27 363.13 274.67 309.02 274.43 309.02 270.06 363.13 270.27"/><path class="cls-2" d="M361.74,276.82l-22.02,12.71c-2.06,1.19-5.69,1.04-8.06-.33l-20.68-11.94c-2.38-1.37-2.64-3.47-.58-4.66l22.02-12.71c2.06-1.19,5.69-1.04,8.06,.33l20.68,11.94c2.38,1.37,2.64,3.47,.58,4.66Z"/><path class="cls-1" d="M361.74,272.06l-22.02,12.71c-2.06,1.19-5.69,1.04-8.06-.33l-20.68-11.94c-2.38-1.37-2.64-3.47-.58-4.66l22.02-12.71c2.06-1.19,5.69-1.04,8.06,.33l20.68,11.94c2.38,1.37,2.64,3.47,.58,4.66Z"/><g><path class="cls-14" d="M330.29,270.56c-.75-.43-1.38-.77-1.96-1.07l1.06-.61,1.06,.55,.03-.02c-.23-.69,.11-1.38,1.18-1.99,1.57-.91,3.95-.9,5.72,.13,2.1,1.21,1.72,2.63,.18,3.52-.86,.5-1.95,.74-2.92,.63l-.03,.02,3.18,1.83-1.17,.67-6.33-3.65Zm2.73,.22c.16,.09,.33,.16,.49,.22,.95,.3,2.17,.18,3.02-.31,1.25-.72,1.06-1.67-.28-2.44-1.17-.68-2.86-.86-4.11-.14-.81,.47-1.04,1.2-.47,1.79,.09,.1,.21,.21,.35,.3l1,.58Z"/><path class="cls-14" d="M337.48,266.42c-.75-.43-1.38-.77-1.96-1.07l1.06-.61,1.06,.55,.03-.02c-.23-.69,.11-1.38,1.18-1.99,1.57-.91,3.95-.9,5.72,.13,2.1,1.21,1.72,2.64,.18,3.52-.86,.5-1.95,.74-2.92,.63l-.03,.02,3.18,1.83-1.17,.67-6.33-3.65Zm2.73,.23c.16,.09,.33,.16,.49,.22,.95,.3,2.17,.18,3.02-.31,1.25-.72,1.06-1.67-.28-2.44-1.17-.68-2.86-.86-4.11-.14-.81,.47-1.04,1.2-.47,1.79,.09,.1,.21,.21,.35,.3l1,.58Z"/></g></g><g><polygon class="cls-2" points="363.13 256.63 363.13 261.03 309.02 260.8 309.02 256.43 363.13 256.63"/><path class="cls-2" d="M361.74,263.18l-22.02,12.71c-2.06,1.19-5.69,1.04-8.06-.33l-20.68-11.94c-2.38-1.37-2.64-3.47-.58-4.66l22.02-12.71c2.06-1.19,5.69-1.04,8.06,.33l20.68,11.94c2.38,1.37,2.64,3.47,.58,4.66Z"/><path class="cls-1" d="M361.74,258.42l-22.02,12.71c-2.06,1.19-5.69,1.04-8.06-.33l-20.68-11.94c-2.38-1.37-2.64-3.47-.58-4.66l22.02-12.71c2.06-1.19,5.69-1.04,8.06,.33l20.68,11.94c2.38,1.37,2.64,3.47,.58,4.66Z"/></g><g><polygon class="cls-2" points="363.13 243.39 363.13 247.79 309.02 247.55 309.02 243.18 363.13 243.39"/><path class="cls-2" d="M361.74,249.94l-22.02,12.71c-2.06,1.19-5.69,1.04-8.06-.33l-20.68-11.94c-2.38-1.37-2.64-3.47-.58-4.66l22.02-12.71c2.06-1.19,5.69-1.04,8.06,.33l20.68,11.94c2.38,1.37,2.64,3.47,.58,4.66Z"/><path class="cls-1" d="M361.74,245.18l-22.02,12.71c-2.06,1.19-5.69,1.04-8.06-.33l-20.68-11.94c-2.38-1.37-2.64-3.47-.58-4.66l22.02-12.71c2.06-1.19,5.69-1.04,8.06,.33l20.68,11.94c2.38,1.37,2.64,3.47,.58,4.66Z"/></g></g><g><g><polygon class="cls-2" points="316.8 300.82 316.8 305.22 262.69 304.98 262.69 300.61 316.8 300.82"/><path class="cls-2" d="M315.41,307.37l-22.02,12.71c-2.06,1.19-5.69,1.04-8.06-.33l-20.68-11.94c-2.38-1.37-2.64-3.47-.58-4.66l22.02-12.71c2.06-1.19,5.69-1.04,8.06,.33l20.68,11.94c2.38,1.37,2.64,3.47,.58,4.66Z"/><path class="cls-1" d="M315.41,302.61l-22.02,12.71c-2.06,1.19-5.69,1.04-8.06-.33l-20.68-11.94c-2.38-1.37-2.64-3.47-.58-4.66l22.02-12.71c2.06-1.19,5.69-1.04,8.06,.33l20.68,11.94c2.38,1.37,2.64,3.47,.58,4.66Z"/><g><path class="cls-14" d="M283.96,301.11c-.75-.43-1.38-.77-1.96-1.07l1.06-.61,1.06,.55,.03-.02c-.23-.69,.11-1.38,1.18-1.99,1.57-.91,3.95-.9,5.72,.13,2.1,1.21,1.72,2.63,.18,3.52-.86,.5-1.95,.74-2.92,.63l-.03,.02,3.18,1.83-1.17,.67-6.33-3.65Zm2.73,.22c.16,.09,.33,.16,.49,.22,.95,.3,2.17,.18,3.02-.31,1.25-.72,1.06-1.67-.28-2.44-1.17-.68-2.86-.86-4.11-.14-.81,.47-1.04,1.2-.47,1.79,.09,.1,.21,.21,.35,.3l1,.58Z"/><path class="cls-14" d="M291.15,296.96c-.75-.43-1.38-.77-1.96-1.07l1.06-.61,1.06,.55,.03-.02c-.23-.69,.11-1.38,1.18-1.99,1.57-.91,3.95-.9,5.72,.13,2.1,1.21,1.72,2.64,.18,3.52-.86,.5-1.95,.74-2.92,.63l-.03,.02,3.18,1.83-1.17,.67-6.33-3.65Zm2.73,.23c.16,.09,.33,.16,.49,.22,.95,.3,2.17,.18,3.02-.31,1.25-.72,1.06-1.67-.28-2.44-1.17-.68-2.86-.86-4.11-.14-.81,.47-1.04,1.2-.47,1.79,.09,.1,.21,.21,.35,.3l1,.58Z"/></g></g><g><polygon class="cls-2" points="316.8 287.18 316.8 291.58 262.69 291.35 262.69 286.98 316.8 287.18"/><path class="cls-2" d="M315.41,293.73l-22.02,12.71c-2.06,1.19-5.69,1.04-8.06-.33l-20.68-11.94c-2.38-1.37-2.64-3.47-.58-4.66l22.02-12.71c2.06-1.19,5.69-1.04,8.06,.33l20.68,11.94c2.38,1.37,2.64,3.47,.58,4.66Z"/><path class="cls-1" d="M315.41,288.97l-22.02,12.71c-2.06,1.19-5.69,1.04-8.06-.33l-20.68-11.94c-2.38-1.37-2.64-3.47-.58-4.66l22.02-12.71c2.06-1.19,5.69-1.04,8.06,.33l20.68,11.94c2.38,1.37,2.64,3.47,.58,4.66Z"/></g><g><polygon class="cls-2" points="316.8 273.94 316.8 278.34 262.69 278.1 262.69 273.73 316.8 273.94"/><path class="cls-2" d="M315.41,280.49l-22.02,12.71c-2.06,1.19-5.69,1.04-8.06-.33l-20.68-11.94c-2.38-1.37-2.64-3.47-.58-4.66l22.02-12.71c2.06-1.19,5.69-1.04,8.06,.33l20.68,11.94c2.38,1.37,2.64,3.47,.58,4.66Z"/><path class="cls-1" d="M315.41,275.73l-22.02,12.71c-2.06,1.19-5.69,1.04-8.06-.33l-20.68-11.94c-2.38-1.37-2.64-3.47-.58-4.66l22.02-12.71c2.06-1.19,5.69-1.04,8.06,.33l20.68,11.94c2.38,1.37,2.64,3.47,.58,4.66Z"/></g></g><g><g><polygon class="cls-2" points="364.85 333.15 364.85 337.55 310.74 337.31 310.74 332.94 364.85 333.15"/><path class="cls-2" d="M363.46,339.69l-22.02,12.71c-2.06,1.19-5.69,1.04-8.06-.33l-20.68-11.94c-2.38-1.37-2.64-3.47-.58-4.66l22.02-12.71c2.06-1.19,5.69-1.04,8.06,.33l20.68,11.94c2.38,1.37,2.64,3.47,.58,4.66Z"/><path class="cls-1" d="M363.46,334.94l-22.02,12.71c-2.06,1.19-5.69,1.04-8.06-.33l-20.68-11.94c-2.38-1.37-2.64-3.47-.58-4.66l22.02-12.71c2.06-1.19,5.69-1.04,8.06,.33l20.68,11.94c2.38,1.37,2.64,3.47,.58,4.66Z"/><g><path class="cls-14" d="M332.01,333.44c-.75-.43-1.38-.77-1.96-1.07l1.06-.61,1.06,.55,.03-.02c-.23-.69,.11-1.38,1.18-1.99,1.57-.91,3.95-.9,5.72,.13,2.1,1.21,1.72,2.63,.18,3.52-.86,.5-1.95,.74-2.92,.63l-.03,.02,3.18,1.83-1.17,.67-6.33-3.65Zm2.73,.22c.16,.09,.33,.16,.49,.22,.95,.3,2.17,.18,3.02-.31,1.25-.72,1.06-1.67-.28-2.44-1.17-.68-2.86-.86-4.11-.14-.81,.47-1.04,1.2-.47,1.79,.09,.1,.21,.21,.35,.3l1,.58Z"/><path class="cls-14" d="M339.19,329.29c-.75-.43-1.38-.77-1.96-1.07l1.06-.61,1.06,.55,.03-.02c-.23-.69,.11-1.38,1.18-1.99,1.57-.91,3.95-.9,5.72,.13,2.1,1.21,1.72,2.64,.18,3.52-.86,.5-1.95,.74-2.92,.63l-.03,.02,3.18,1.83-1.17,.67-6.33-3.65Zm2.73,.23c.16,.09,.33,.16,.49,.22,.95,.3,2.17,.18,3.02-.31,1.25-.72,1.06-1.67-.28-2.44-1.17-.68-2.86-.86-4.11-.14-.81,.47-1.04,1.2-.47,1.79,.09,.1,.21,.21,.35,.3l1,.58Z"/></g></g><g><polygon class="cls-2" points="364.85 319.51 364.85 323.91 310.74 323.67 310.74 319.3 364.85 319.51"/><path class="cls-2" d="M363.46,326.06l-22.02,12.71c-2.06,1.19-5.69,1.04-8.06-.33l-20.68-11.94c-2.38-1.37-2.64-3.47-.58-4.66l22.02-12.71c2.06-1.19,5.69-1.04,8.06,.33l20.68,11.94c2.38,1.37,2.64,3.47,.58,4.66Z"/><path class="cls-1" d="M363.46,321.3l-22.02,12.71c-2.06,1.19-5.69,1.04-8.06-.33l-20.68-11.94c-2.38-1.37-2.64-3.47-.58-4.66l22.02-12.71c2.06-1.19,5.69-1.04,8.06,.33l20.68,11.94c2.38,1.37,2.64,3.47,.58,4.66Z"/></g></g><g><g id="Your_Icon"><path class="cls-35" d="M89.65,143.28c.06,.04,.11,.08,.18,.12,.59-.39,1.05-.83,1.7-1.2,20.43-11.8,53.66-11.73,74.22,.14,9.88,5.7,14.92,13.1,15.34,20.55,.34-.21,.63-.43,.98-.63,33.88-19.56,89.01-19.47,123.12,.23,34.1,19.69,34.28,51.52,.39,71.08-1.45,.84-2.99,1.59-4.51,2.36,9.19,1.93,17.83,4.99,25.2,9.25,26.93,15.54,25.56,41.54-1.2,56.98-26.75,15.45-71.75,16.23-98.68,.68L19.85,183.58c-18.57-10.72-17.18-28.91,1.27-39.56,18.46-10.66,49.96-11.46,68.53-.74Z"/></g><path class="cls-18" d="M342.64,221.39l-8.11,6.38c-2.38-2.06-5.13-4.02-8.27-5.83-7.37-4.26-16.02-7.31-25.2-9.25,1.53-.76,3.06-1.52,4.51-2.36,11.12-6.42,18.57-14.16,22.36-22.37h0c9.12-15.96,1.9-37.64,1.9-37.64l-5.17,5.99c-4.28-6.21-10.77-12.03-19.49-17.06-34.11-19.69-89.23-19.79-123.12-.23-.35,.2-.64,.42-.98,.63-.42-7.45-5.46-14.85-15.34-20.55-20.56-11.87-53.78-11.93-74.22-.14-.65,.37-1.1,.81-1.7,1.2-.07-.04-.12-.08-.18-.12-18.57-10.72-50.08-9.92-68.53,.74-2.1,1.21-3.97,2.52-5.62,3.9l-8.06-5.65s-9.07,28.66,10.17,39.92c.71,.48,1.45,.94,2.23,1.39l206.54,119.25c26.92,15.54,71.92,14.76,98.68-.68,9.88-5.7,16.29-12.84,19.1-20.36h0c8.77-22.34-1.53-37.16-1.53-37.16Z"/><g id="Your_Icon-2"><path class="cls-12" d="M89.65,103.11c.06,.04,.11,.08,.18,.12,.59-.39,1.05-.83,1.7-1.2,20.43-11.8,53.66-11.73,74.22,.14,9.88,5.7,14.92,13.1,15.34,20.55,.34-.21,.63-.43,.98-.63,33.88-19.56,89.01-19.47,123.12,.23,34.1,19.69,34.28,51.52,.39,71.08-1.45,.84-2.99,1.59-4.51,2.36,9.19,1.93,17.83,4.99,25.2,9.25,26.93,15.54,25.56,41.54-1.2,56.98-26.75,15.45-71.75,16.23-98.68,.68L19.85,143.41c-18.57-10.72-17.18-28.91,1.27-39.56,18.46-10.66,49.96-11.46,68.53-.74Z"/></g></g><g><g id="Analytics"><path class="cls-21" d="M281.35,224.26l-153.12-88.4c-3.44-1.99-6.26-7.37-6.26-11.96V16.44c0-4.59,2.82-6.72,6.26-4.73l153.12,88.4c3.44,1.99,6.26,7.37,6.26,11.96v107.46c0,4.59-2.82,6.72-6.26,4.73Z"/></g><g><path class="cls-27" d="M121.91,21.23l165.76,95.7v-4.98c0-4.59-2.81-9.97-6.26-11.95L128.16,11.52c-3.44-1.99-6.26,.14-6.26,4.73v4.98Z"/><g><ellipse class="cls-11" cx="128.86" cy="19.07" rx="1.48" ry="2.56" transform="translate(7.99 67.64) rotate(-30.31)"/><ellipse class="cls-10" cx="134.11" cy="22.1" rx="1.48" ry="2.56" transform="translate(7.18 70.71) rotate(-30.31)"/><line class="cls-5" x1="138.59" y1="24.68" x2="143.32" y2="27.41"/></g></g></g><g><g class="cls-36"><g><path class="cls-23" d="M349.15,75.54l5.52-3.91c.41-.29,.89-.4,1.42-.36l-5.52,3.91c-.53-.04-1.01,.07-1.42,.36Z"/><g class="cls-6"><g class="cls-36"><path class="cls-23" d="M349.15,75.54l5.52-3.91c.12-.08,.24-.15,.37-.21l-5.52,3.91c-.13,.05-.25,.12-.37,.21"/><path class="cls-23" d="M349.52,75.33l5.52-3.91c.07-.03,.15-.06,.22-.08l-5.52,3.91c-.07,.02-.15,.05-.22,.08"/><path class="cls-23" d="M349.74,75.25l5.52-3.91c.06-.02,.12-.03,.19-.04l-5.52,3.91c-.06,.01-.13,.03-.19,.04"/><path class="cls-23" d="M349.93,75.21l5.52-3.91c.06-.01,.12-.02,.18-.03l-5.52,3.91c-.06,0-.12,.02-.18,.03"/><path class="cls-23" d="M350.11,75.18l5.52-3.91c.06,0,.12-.01,.18-.01l-5.52,3.91c-.06,0-.12,0-.18,.01"/><path class="cls-23" d="M350.29,75.17l5.52-3.91c.06,0,.13,0,.19,0l-5.52,3.91c-.07,0-.13,0-.19,0"/></g></g></g><g><path class="cls-16" d="M409.32,169.17l-5.52,3.91c7.43-5.26,7.1-14.77,7.08-15.39l5.52-3.91c.02,.62,.35,10.13-7.08,15.39Z"/><g class="cls-29"><g class="cls-36"><path class="cls-23" d="M410.88,157.68l5.52-3.91s0,.05,0,.08l-5.52,3.91s0-.06,0-.08"/><path class="cls-23" d="M410.88,157.76l5.52-3.91c0,.18,.01,.56-.01,1.11l-5.52,3.91c.02-.54,.02-.93,.01-1.11"/><path class="cls-23" d="M410.87,158.87l5.52-3.91c-.02,.39-.05,.87-.11,1.41l-5.52,3.91c.06-.54,.09-1.02,.11-1.41"/><path class="cls-23" d="M410.76,160.28l5.52-3.91c-.05,.46-.12,.96-.22,1.5l-5.52,3.91c.1-.54,.17-1.04,.22-1.5"/><path class="cls-23" d="M410.55,161.78l5.52-3.91c-.08,.48-.19,.98-.32,1.5l-5.52,3.91c.13-.52,.24-1.02,.32-1.5"/><path class="cls-23" d="M410.23,163.28l5.52-3.91c-.12,.48-.26,.98-.43,1.48l-5.52,3.91c.17-.5,.31-1,.43-1.48"/><path class="cls-23" d="M409.79,164.76l5.52-3.91c-.16,.48-.35,.97-.56,1.47l-5.52,3.91c.21-.49,.4-.99,.56-1.47"/><path class="cls-23" d="M409.24,166.23l5.52-3.91c-.21,.5-.46,1.01-.73,1.51l-5.52,3.91c.27-.5,.52-1.01,.73-1.51"/><path class="cls-23" d="M408.51,167.74l5.52-3.91c-.31,.57-.66,1.13-1.05,1.68l-5.52,3.91c.39-.55,.74-1.12,1.05-1.68"/><path class="cls-23" d="M407.46,169.42l5.52-3.91c-.94,1.32-2.14,2.58-3.66,3.65l-5.52,3.91c1.52-1.08,2.72-2.33,3.66-3.65"/></g></g></g><g><path class="cls-16" d="M350.57,75.18l5.52-3.91c2.5,.19,6.26,3.65,10.57,6.8,1.35,.99,2.69,1.96,4.03,2.92l-5.52,3.91c-1.34-.95-2.68-1.93-4.03-2.92-4.31-3.15-8.06-6.61-10.57-6.8Z"/><g class="cls-32"><g class="cls-36"><path class="cls-23" d="M350.57,75.18l5.52-3.91s.08,0,.12,.01l-5.52,3.91s-.08,0-.12-.01"/><path class="cls-23" d="M350.7,75.19l5.52-3.91c.08,0,.15,.02,.23,.03l-5.52,3.91c-.08-.01-.15-.03-.23-.03"/><path class="cls-23" d="M350.92,75.22l5.52-3.91c.09,.02,.19,.04,.28,.06l-5.52,3.91c-.1-.02-.19-.05-.28-.06"/><path class="cls-23" d="M351.21,75.29l5.52-3.91c.11,.03,.22,.06,.34,.1l-5.52,3.91c-.11-.04-.23-.07-.34-.1"/><path class="cls-23" d="M351.54,75.39l5.52-3.91c.14,.05,.29,.1,.44,.17l-5.52,3.91c-.15-.06-.3-.12-.44-.17"/><path class="cls-23" d="M351.99,75.56l5.52-3.91c.21,.09,.42,.19,.64,.3l-5.52,3.91c-.22-.11-.43-.21-.64-.3"/><path class="cls-23" d="M352.63,75.85l5.52-3.91c.38,.2,.78,.43,1.19,.69l-5.52,3.91c-.41-.26-.81-.49-1.19-.69"/><path class="cls-23" d="M353.82,76.55l5.52-3.91c2.1,1.34,4.6,3.45,7.32,5.43,1.35,.99,2.69,1.96,4.03,2.92l-5.52,3.91c-1.34-.95-2.68-1.93-4.03-2.92-2.72-1.99-5.22-4.1-7.32-5.43"/></g></g></g><polygon class="cls-23" points="365.17 84.9 370.69 80.99 381.29 79.02 375.77 82.93 365.17 84.9"/><polygon class="cls-23" points="386.02 90.01 391.54 86.1 401.02 101.35 395.5 105.25 386.02 90.01"/><g><path class="cls-23" d="M375.77,82.93l5.52-3.91c.45-.08,.9-.11,1.37-.07,2.94,.23,6.18,2.79,8.88,7.15l-5.52,3.91c-2.71-4.35-5.94-6.92-8.88-7.15-.46-.04-.92-.01-1.37,.07Z"/><g class="cls-31"><g class="cls-36"><path class="cls-23" d="M375.77,82.93l5.52-3.91c.14-.03,.27-.05,.41-.06l-5.52,3.91c-.14,.01-.28,.03-.41,.06"/><path class="cls-23" d="M376.18,82.87l5.52-3.91c.13-.01,.26-.02,.39-.03l-5.52,3.91c-.13,0-.26,.01-.39,.03"/><path class="cls-23" d="M376.58,82.84l5.52-3.91c.13,0,.26,0,.39,0l-5.52,3.91c-.13,0-.26,0-.39,0"/><path class="cls-23" d="M376.97,82.85l5.52-3.91c.06,0,.12,0,.17,.01,.07,0,.15,.01,.22,.02l-5.52,3.91c-.07,0-.15-.02-.22-.02-.06,0-.12,0-.17-.01"/><path class="cls-23" d="M377.36,82.88l5.52-3.91c.13,.02,.27,.04,.41,.06l-5.52,3.91c-.14-.03-.27-.05-.41-.06"/><path class="cls-23" d="M377.76,82.94l5.52-3.91c.14,.03,.29,.06,.43,.1l-5.52,3.91c-.14-.04-.29-.07-.43-.1"/><path class="cls-23" d="M378.19,83.03l5.52-3.91c.16,.04,.31,.09,.47,.14l-5.52,3.91c-.16-.05-.31-.1-.47-.14"/><path class="cls-23" d="M378.66,83.17l5.52-3.91c.18,.06,.35,.12,.53,.2l-5.52,3.91c-.18-.07-.35-.14-.53-.2"/><path class="cls-23" d="M379.19,83.37l5.52-3.91c.21,.09,.41,.18,.62,.29l-5.52,3.91c-.21-.11-.41-.2-.62-.29"/><path class="cls-23" d="M379.81,83.66l5.52-3.91c.26,.14,.53,.29,.79,.46l-5.52,3.91c-.26-.17-.53-.32-.79-.46"/><path class="cls-23" d="M380.6,84.11l5.52-3.91c.39,.25,.77,.53,1.16,.84l-5.52,3.91c-.38-.31-.77-.59-1.16-.84"/><path class="cls-23" d="M381.76,84.95l5.52-3.91c1.48,1.21,2.94,2.92,4.27,5.05l-5.52,3.91c-1.33-2.14-2.78-3.84-4.27-5.05"/></g></g></g><g><path class="cls-23" d="M395.5,105.25l5.52-3.91c1.35,.86,2.7,1.7,4.05,2.52,7.64,4.68,13.66,6.13,13.4,18.48-.25,12.35-1.99,30.48-2.08,31.43l-5.52,3.91c.09-.95,1.83-19.08,2.08-31.43,.25-12.34-5.76-13.79-13.4-18.48-1.35-.83-2.7-1.67-4.05-2.52Z"/><g class="cls-30"><g class="cls-36"><path class="cls-23" d="M395.5,105.25l5.52-3.91c.05,.03,.1,.06,.15,.1l-5.52,3.91c-.05-.03-.1-.06-.15-.1"/><path class="cls-23" d="M395.65,105.35l5.52-3.91c1.3,.83,2.6,1.63,3.9,2.43,2.21,1.35,4.28,2.44,6.11,3.59l-5.52,3.91c-1.82-1.15-3.9-2.24-6.11-3.59-1.3-.8-2.6-1.6-3.9-2.43"/><path class="cls-23" d="M405.66,111.37l5.52-3.91c.82,.52,1.59,1.05,2.3,1.63l-5.52,3.91c-.71-.58-1.48-1.11-2.3-1.63"/><path class="cls-23" d="M407.96,113l5.52-3.91c1.4,1.14,2.56,2.45,3.41,4.18l-5.52,3.91c-.85-1.73-2.02-3.04-3.41-4.18"/><path class="cls-23" d="M411.38,117.18l5.52-3.91c.22,.45,.42,.92,.6,1.42l-5.52,3.91c-.18-.5-.38-.98-.6-1.42"/><path class="cls-23" d="M411.97,118.6l5.52-3.91c.14,.41,.27,.84,.39,1.29l-5.52,3.91c-.11-.45-.24-.88-.39-1.29"/><path class="cls-23" d="M412.36,119.89l5.52-3.91c.11,.43,.2,.88,.28,1.36l-5.52,3.91c-.08-.48-.18-.93-.28-1.36"/><path class="cls-23" d="M412.64,121.25l5.52-3.91c.08,.49,.15,1,.2,1.54l-5.52,3.91c-.05-.54-.12-1.05-.2-1.54"/><path class="cls-23" d="M412.85,122.8l5.52-3.91c.06,.59,.09,1.22,.11,1.88l-5.52,3.91c-.02-.66-.05-1.28-.11-1.88"/><path class="cls-23" d="M412.96,124.68l5.52-3.91c.01,.51,.01,1.03,0,1.58-.03,1.44-.08,2.96-.14,4.52l-5.52,3.91c.06-1.56,.11-3.08,.14-4.52,.01-.55,.01-1.07,0-1.58"/><path class="cls-23" d="M412.82,130.77l5.52-3.91c-.49,11.83-1.86,26.07-1.94,26.91l-5.52,3.91c.08-.84,1.45-15.09,1.94-26.91"/></g></g></g><path class="cls-10" d="M350.57,75.18c2.5,.19,6.26,3.65,10.57,6.8,1.35,.99,2.69,1.96,4.03,2.92l10.6-1.97c.45-.08,.9-.11,1.37-.07,2.94,.23,6.18,2.79,8.88,7.15l9.48,15.25c1.35,.86,2.7,1.7,4.05,2.52,7.64,4.68,13.66,6.13,13.4,18.48-.25,12.35-1.99,30.48-2.08,31.43,.03,.78,.54,15.59-14.44,18.38-12.9,2.41-17.62,3.04-17.87,3.07-.24-.36-4.71-7.17-17.15-26.59-14.47-22.57-13.37-36.3-13.31-37.03-.05-1.05-1-20.98-.75-33.32,.11-5.38,1.29-7.17,3.22-7.02Z"/></g><g class="cls-36"><g><path class="cls-13" d="M378.76,111.35c-8.39-4.84-15.2-.96-15.23,8.68-.03,9.63,6.75,21.36,15.13,26.21,8.38,4.84,15.2,.96,15.23-8.68,.03-9.64-6.75-21.37-15.13-26.21Z"/><path class="cls-14" d="M383.08,127.87c.42,.24,.83,.66,1.15,1.21,.63,1.1,.63,2.28,0,2.65l-10.97,6.25c-.32,.18-.74,.12-1.16-.12-.42-.24-.83-.66-1.15-1.21l-5.81-10.05c-.63-1.1-.63-2.29,0-2.65,.32-.18,.74-.12,1.15,.12,.42,.24,.83,.66,1.15,1.21l4.66,8.06,9.82-5.59c.32-.18,.74-.12,1.15,.12Z"/><path class="cls-27" d="M393.55,140.97c.04-.18,.06-.38,.09-.57,.04-.25,.09-.49,.12-.75,0-.05,0-.11,0-.16,.07-.62,.11-1.25,.11-1.93,0-.2,0-.41,0-.61,0-.32-.03-.64-.06-.97,0-.11,0-.21-.02-.32-.04-.49-.1-.99-.17-1.49,0-.06-.02-.11-.03-.17-.03-.18-.06-.35-.09-.53-.07-.41-.15-.81-.24-1.22-.05-.21-.1-.42-.15-.63-.04-.18-.08-.36-.13-.54-.04-.16-.1-.32-.14-.48-.1-.35-.2-.69-.31-1.03-.1-.3-.2-.6-.3-.9-.12-.34-.25-.69-.38-1.03-.06-.17-.12-.33-.19-.5-.07-.16-.14-.33-.21-.49-.09-.21-.18-.42-.27-.63-.17-.39-.36-.77-.54-1.15-.09-.19-.18-.37-.27-.56-.26-.5-.53-1-.81-1.49-.03-.06-.06-.12-.1-.17-.32-.55-.65-1.08-.99-1.61-.1-.16-.21-.31-.32-.47-.25-.37-.5-.73-.76-1.09-.13-.18-.27-.36-.41-.54-.25-.33-.5-.65-.76-.97-.14-.17-.28-.35-.42-.52-.29-.34-.58-.67-.88-.99-.12-.13-.24-.26-.36-.39-.03-.04-.07-.08-.1-.11-.18-.19-.36-.35-.54-.53-.26-.26-.52-.52-.78-.77-.22-.2-.45-.39-.67-.59-.27-.23-.53-.47-.81-.69-.05-.04-.09-.08-.14-.12-.4-.32-.81-.62-1.22-.9,0,0-.02,0-.02-.01-.4-.28-.81-.54-1.22-.79-.1-.06-.21-.12-.31-.18-.47-.27-.93-.51-1.39-.72-.11-.05-.21-.1-.32-.15-.1-.04-.2-.1-.3-.14-.29-.12-.57-.22-.86-.33-.08-.03-.17-.07-.25-.1-.41-.14-.81-.25-1.2-.35-.04,0-.08-.01-.11-.02-.18-.04-.36-.06-.54-.1-.28-.05-.55-.1-.82-.13-.19-.02-.37-.02-.55-.03-.18,0-.36-.03-.53-.03-.08,0-.15,.01-.23,.02-.15,0-.29,.02-.43,.03-.26,.02-.51,.05-.76,.1-.14,.02-.28,.05-.42,.08-.26,.06-.5,.13-.75,.21-.11,.04-.23,.07-.34,.11-.35,.14-.68,.29-1,.48l-4.03,2.34c.32-.19,.65-.34,1-.48,.11-.04,.23-.08,.34-.11,.24-.08,.49-.16,.75-.22,.14-.03,.28-.06,.42-.08,.25-.04,.5-.07,.76-.1,.14-.01,.29-.02,.43-.03,.25,0,.51,0,.76,.02,.18,0,.36,.01,.55,.03,.27,.03,.54,.08,.82,.13,.18,.03,.36,.05,.54,.1,.43,.1,.87,.22,1.31,.37,.08,.03,.17,.07,.25,.1,.38,.14,.77,.29,1.16,.47,.11,.05,.21,.1,.32,.15,.46,.22,.92,.45,1.39,.72,.52,.3,1.03,.62,1.53,.97,0,0,.02,0,.02,.01,.46,.32,.91,.67,1.36,1.02,.27,.22,.54,.45,.81,.69,.23,.2,.45,.38,.67,.59,.27,.25,.52,.51,.78,.77,.22,.21,.43,.42,.65,.64,.12,.13,.24,.26,.36,.4,.3,.32,.59,.65,.87,.99,.14,.17,.28,.34,.42,.52,.26,.32,.51,.64,.76,.97,.14,.18,.27,.36,.4,.54,.26,.36,.51,.72,.76,1.09,.11,.16,.21,.31,.32,.47,.34,.53,.67,1.06,.99,1.61,.03,.06,.07,.12,.1,.18,.28,.49,.55,.98,.8,1.48,.09,.18,.18,.37,.27,.55,.19,.38,.37,.77,.55,1.16,.09,.21,.18,.42,.27,.63,.14,.33,.27,.66,.4,.99,.13,.34,.26,.68,.38,1.03,.11,.3,.21,.6,.3,.91,.11,.34,.21,.69,.31,1.03,.1,.34,.19,.68,.27,1.02,.05,.21,.1,.42,.15,.63,.09,.41,.17,.82,.24,1.22,.03,.18,.07,.35,.09,.53,.09,.56,.15,1.11,.2,1.67,0,.11,.01,.21,.02,.32,.04,.53,.06,1.06,.06,1.58,0,.67-.04,1.31-.11,1.93-.03,.32-.08,.62-.13,.92-.03,.19-.06,.39-.09,.57-.07,.35-.16,.67-.26,1-.04,.13-.06,.26-.1,.39-.03,.08-.06,.16-.09,.24-.15,.43-.32,.84-.51,1.22-.07,.15-.16,.29-.24,.43-.17,.29-.34,.58-.53,.84-.1,.14-.2,.27-.3,.4-.21,.25-.42,.49-.65,.71-.1,.1-.2,.21-.31,.3-.34,.29-.7,.56-1.09,.79l4.03-2.34c.39-.22,.75-.49,1.09-.79,.11-.09,.21-.2,.31-.3,.23-.22,.45-.45,.65-.71,.11-.13,.21-.26,.31-.4,.19-.26,.36-.55,.53-.84,.08-.14,.17-.28,.24-.44,.19-.38,.36-.79,.51-1.22,.02-.07,.06-.13,.08-.2,0-.01,0-.03,.01-.04,.04-.13,.07-.26,.11-.39,.09-.32,.19-.65,.26-.99Z"/><path class="cls-21" d="M374.73,113.69c8.38,4.84,15.16,16.57,15.13,26.21-.03,9.63-6.85,13.52-15.23,8.68-8.39-4.84-15.16-16.57-15.13-26.21,.03-9.64,6.85-13.52,15.23-8.68Zm9.5,18.04c.64-.36,.64-1.55,0-2.65-.32-.55-.73-.97-1.15-1.21-.42-.24-.83-.3-1.15-.12l-9.82,5.59-4.66-8.06c-.32-.55-.73-.97-1.15-1.21-.42-.24-.83-.3-1.15-.12-.64,.36-.64,1.55,0,2.65l5.81,10.05c.32,.55,.73,.97,1.15,1.21,.42,.24,.84,.3,1.16,.12l10.97-6.25"/></g></g></g><line class="cls-4" x1="279.02" y1="94.7" x2="278.98" y2="78.56"/><line class="cls-4" x1="279.06" y1="73.84" x2="344.08" y2="107.52"/><line class="cls-4" x1="378.71" y1="184.09" x2="378.71" y2="251.4"/><g><g><polygon class="cls-2" points="411.67 298.21 411.67 302.61 357.56 302.37 357.56 298 411.67 298.21"/><path class="cls-2" d="M410.28,304.75l-22.02,12.71c-2.06,1.19-5.69,1.04-8.06-.33l-20.68-11.94c-2.38-1.37-2.64-3.47-.58-4.66l22.02-12.71c2.06-1.19,5.69-1.04,8.06,.33l20.68,11.94c2.38,1.37,2.64,3.47,.58,4.66Z"/><path class="cls-1" d="M410.28,300l-22.02,12.71c-2.06,1.19-5.69,1.04-8.06-.33l-20.68-11.94c-2.38-1.37-2.64-3.47-.58-4.66l22.02-12.71c2.06-1.19,5.69-1.04,8.06,.33l20.68,11.94c2.38,1.37,2.64,3.47,.58,4.66Z"/><g><path class="cls-14" d="M378.83,298.5c-.75-.43-1.38-.77-1.96-1.07l1.06-.61,1.06,.55,.03-.02c-.23-.69,.11-1.38,1.18-1.99,1.57-.91,3.95-.9,5.72,.13,2.1,1.21,1.72,2.63,.18,3.52-.86,.5-1.95,.74-2.92,.63l-.03,.02,3.18,1.83-1.17,.67-6.33-3.65Zm2.73,.22c.16,.09,.33,.16,.49,.22,.95,.3,2.17,.18,3.02-.31,1.25-.72,1.06-1.67-.28-2.44-1.17-.68-2.86-.86-4.11-.14-.81,.47-1.04,1.2-.47,1.79,.09,.1,.21,.21,.35,.3l1,.58Z"/><path class="cls-14" d="M386.02,294.35c-.75-.43-1.38-.77-1.96-1.07l1.06-.61,1.06,.55,.03-.02c-.23-.69,.11-1.38,1.18-1.99,1.57-.91,3.95-.9,5.72,.13,2.1,1.21,1.72,2.64,.18,3.52-.86,.5-1.95,.74-2.92,.63l-.03,.02,3.18,1.83-1.17,.67-6.33-3.65Zm2.73,.23c.16,.09,.33,.16,.49,.22,.95,.3,2.17,.18,3.02-.31,1.25-.72,1.06-1.67-.28-2.44-1.17-.68-2.86-.86-4.11-.14-.81,.47-1.04,1.2-.47,1.79,.09,.1,.21,.21,.35,.3l1,.58Z"/></g></g><g><polygon class="cls-2" points="411.67 284.57 411.67 288.97 357.56 288.73 357.56 284.36 411.67 284.57"/><path class="cls-2" d="M410.28,291.12l-22.02,12.71c-2.06,1.19-5.69,1.04-8.06-.33l-20.68-11.94c-2.38-1.37-2.64-3.47-.58-4.66l22.02-12.71c2.06-1.19,5.69-1.04,8.06,.33l20.68,11.94c2.38,1.37,2.64,3.47,.58,4.66Z"/><path class="cls-1" d="M410.28,286.36l-22.02,12.71c-2.06,1.19-5.69,1.04-8.06-.33l-20.68-11.94c-2.38-1.37-2.64-3.47-.58-4.66l22.02-12.71c2.06-1.19,5.69-1.04,8.06,.33l20.68,11.94c2.38,1.37,2.64,3.47,.58,4.66Z"/></g><g><polygon class="cls-2" points="411.67 271.33 411.67 275.73 357.56 275.49 357.56 271.12 411.67 271.33"/><path class="cls-2" d="M410.28,277.87l-22.02,12.71c-2.06,1.19-5.69,1.04-8.06-.33l-20.68-11.94c-2.38-1.37-2.64-3.47-.58-4.66l22.02-12.71c2.06-1.19,5.69-1.04,8.06,.33l20.68,11.94c2.38,1.37,2.64,3.47,.58,4.66Z"/><path class="cls-1" d="M410.28,273.12l-22.02,12.71c-2.06,1.19-5.69,1.04-8.06-.33l-20.68-11.94c-2.38-1.37-2.64-3.47-.58-4.66l22.02-12.71c2.06-1.19,5.69-1.04,8.06,.33l20.68,11.94c2.38,1.37,2.64,3.47,.58,4.66Z"/></g></g><g><g><polygon class="cls-2" points="104 116.39 104 120.79 49.89 120.55 49.89 116.18 104 116.39"/><path class="cls-2" d="M102.62,122.94l-22.02,12.71c-2.06,1.19-5.69,1.04-8.06-.33l-20.68-11.94c-2.38-1.37-2.64-3.47-.58-4.66l22.02-12.71c2.06-1.19,5.69-1.04,8.06,.33l20.68,11.94c2.38,1.37,2.64,3.47,.58,4.66Z"/><path class="cls-1" d="M102.62,118.18l-22.02,12.71c-2.06,1.19-5.69,1.04-8.06-.33l-20.68-11.94c-2.38-1.37-2.64-3.47-.58-4.66l22.02-12.71c2.06-1.19,5.69-1.04,8.06,.33l20.68,11.94c2.38,1.37,2.64,3.47,.58,4.66Z"/><g><path class="cls-14" d="M71.17,116.68c-.75-.43-1.38-.77-1.96-1.07l1.06-.61,1.06,.55,.03-.02c-.23-.69,.11-1.38,1.18-1.99,1.57-.91,3.95-.9,5.72,.13,2.1,1.21,1.72,2.63,.18,3.52-.86,.5-1.95,.74-2.92,.63l-.03,.02,3.18,1.83-1.17,.67-6.33-3.65Zm2.73,.22c.16,.09,.33,.16,.49,.22,.95,.3,2.17,.18,3.02-.31,1.25-.72,1.06-1.67-.28-2.44-1.17-.68-2.86-.86-4.11-.14-.81,.47-1.04,1.2-.47,1.79,.09,.1,.21,.21,.35,.3l1,.58Z"/><path class="cls-14" d="M78.35,112.53c-.75-.43-1.38-.77-1.96-1.07l1.06-.61,1.06,.55,.03-.02c-.23-.69,.11-1.38,1.18-1.99,1.57-.91,3.95-.9,5.72,.13,2.1,1.21,1.72,2.64,.18,3.52-.86,.5-1.95,.74-2.92,.63l-.03,.02,3.18,1.83-1.17,.67-6.33-3.65Zm2.73,.23c.16,.09,.33,.16,.49,.22,.95,.3,2.17,.18,3.02-.31,1.25-.72,1.06-1.67-.28-2.44-1.17-.68-2.86-.86-4.11-.14-.81,.47-1.04,1.2-.47,1.79,.09,.1,.21,.21,.35,.3l1,.58Z"/></g></g><g><polygon class="cls-2" points="104 102.75 104 107.15 49.89 106.91 49.89 102.54 104 102.75"/><path class="cls-2" d="M102.62,109.3l-22.02,12.71c-2.06,1.19-5.69,1.04-8.06-.33l-20.68-11.94c-2.38-1.37-2.64-3.47-.58-4.66l22.02-12.71c2.06-1.19,5.69-1.04,8.06,.33l20.68,11.94c2.38,1.37,2.64,3.47,.58,4.66Z"/><path class="cls-1" d="M102.62,104.54l-22.02,12.71c-2.06,1.19-5.69,1.04-8.06-.33l-20.68-11.94c-2.38-1.37-2.64-3.47-.58-4.66l22.02-12.71c2.06-1.19,5.69-1.04,8.06,.33l20.68,11.94c2.38,1.37,2.64,3.47,.58,4.66Z"/></g><g><polygon class="cls-2" points="104 89.51 104 93.91 49.89 93.67 49.89 89.3 104 89.51"/><path class="cls-2" d="M102.62,96.06l-22.02,12.71c-2.06,1.19-5.69,1.04-8.06-.33l-20.68-11.94c-2.38-1.37-2.64-3.47-.58-4.66l22.02-12.71c2.06-1.19,5.69-1.04,8.06,.33l20.68,11.94c2.38,1.37,2.64,3.47,.58,4.66Z"/><path class="cls-1" d="M102.62,91.3l-22.02,12.71c-2.06,1.19-5.69,1.04-8.06-.33l-20.68-11.94c-2.38-1.37-2.64-3.47-.58-4.66l22.02-12.71c2.06-1.19,5.69-1.04,8.06,.33l20.68,11.94c2.38,1.37,2.64,3.47,.58,4.66Z"/></g></g><g><polygon class="cls-27" points="149.81 56.1 131.21 45.36 131.21 48.14 186.67 80.04 186.67 77.26 149.81 56.1"/><polygon class="cls-27" points="149.81 60.97 131.21 50.23 131.21 53.02 164.11 71.91 164.11 69.12 149.81 60.97"/></g><g><polygon class="cls-14" points="175.85 121.57 130.92 95.63 130.92 64.62 175.85 90.56 175.85 121.57"/><polygon class="cls-14" points="225.05 149.98 180.12 124.04 180.12 93.02 225.05 118.97 225.05 149.98"/><polygon class="cls-14" points="274.26 178.39 229.33 152.45 229.33 121.43 274.26 147.37 274.26 178.39"/></g><g><g><g><path class="cls-19" d="M168.6,196.36s-.16,2.95,.16,7.55c0,0-2.3,2.46-6.89-.49,0,0,2.42-5.94,1.7-9.12l5.03,2.07Z"/><path class="cls-19" d="M171.2,186.95s1.1,5.98,.33,8.15c0,0,4.75,.67,6.8-2.79,0,0-2.64-2.07-2.18-6.15l-4.95,.78Z"/></g><ellipse class="cls-7" cx="180.71" cy="196.01" rx="10.33" ry="2.31" transform="translate(-66.96 97.35) rotate(-25.6)"/><ellipse class="cls-7" cx="170.78" cy="209.44" rx="10.33" ry="2.31" transform="translate(-18.1 16.16) rotate(-5.15)"/><path class="cls-18" d="M161.85,203.06s-1.12,2.1-.94,4.64c.1,1.36,1.25,2.34,2.52,2.15,1.38-.2,3.37-.4,5.5-.3,1.91,.09,3.82-.08,5.67-.58,1.38-.37,2.86-.9,3.92-1.62,1.05-.71,1.16-2.29,.22-3.15-.6-.54-1.47-1.04-2.83-1-1.77,.05-3.53-.3-5.18-.97-.65-.26-1.38-.55-2.13-.85,0,0-3.61,2.14-6.75,1.66Z"/><path class="cls-18" d="M171.2,194.73s-1.13,3.9,1.46,4.98c1.01,.42,2.18,.21,3.03-.48l.34-.28c1.35-1.11,2.92-1.92,4.61-2.37l2.46-.67c1.39-.38,2.59-1.25,3.38-2.45l1.32-2.02s.11-2.32-4.03-.88c-1.76,.61-3.65,.71-5.45,.24l-.98-.26s-2.24,4.19-6.13,4.19Z"/><path class="cls-14" d="M171.29,198.42s2.39,2.12,4.75-.42c.45-.48,.97-.89,1.56-1.18,.97-.49,2.51-1.12,4.32-1.32,.64-.07,1.27-.27,1.82-.6,1.44-.86,3.93-2.62,3.64-4.44,0,0,3.02,3.12-4.38,5.72,0,0-4.68,1.23-5.3,1.64,0,0-4.42,4.47-6.41,.6Z"/><path class="cls-14" d="M160.94,207.93s1.83,2.74,4.92,1.17c.59-.3,1.22-.5,1.87-.57,1.04-.12,2.51-.03,4.21,.35,.84,.19,1.71,.2,2.55,.02,1.68-.36,4.49-1.48,4.82-3.14,0,0,.58,3.65-6.21,3.95,0,0-4.11-.36-5.19,.05,0,0-6.3,2.39-6.96-1.84Z"/></g><g><path class="cls-19" d="M155.81,105.18l-5.66,17.39c-.32,.98-.03,2.13,.78,2.91,1.35,1.3,3.94,1.35,7.94-8.42l4.44-11.11c.58-1.46,.16-3.25-1.11-4.41-1.08-.98-2.61-1.42-4.52,.51-.86,.87-1.48,1.94-1.86,3.12Z"/><path class="cls-19" d="M151.96,128.13l10.01,11.73c.56,.66,1.38,.96,2.08,.71,1.16-.41,1.8-2.27-3.63-9.45l-6.2-8.09c-.81-1.06-2.08-1.54-3.13-1.12-.89,.35-1.54,1.27-.72,3.51,.36,1,.92,1.92,1.59,2.72Z"/></g><polyline class="cls-3" points="173.86 131.31 173.92 136.73 175.48 151.58"/><g><path class="cls-9" d="M163.23,194.48l-.04,1.21c-.02,.59,.36,1.11,.93,1.27,1.1,.3,3.42,.72,4.7,.22,.52-.21,.44-.63,.69-1.19l-6.28-1.5Z"/><path class="cls-9" d="M176.7,186.98l.4,1.54s-3.09,3.13-7.57-.2l-.78-2.74s4.41,2.53,7.95,1.4Z"/><path class="cls-24" d="M175.69,141.39l2.82,11.87c.38,1.6,.88,3.17,1.41,4.73,.47,1.37,.54,2.86,.19,4.29-1.44,5.77-5.11,16.33-3.31,25.19,0,0-4.67,1.74-7.95-1.4l6.84-44.67Z"/><polygon class="cls-34" points="171.39 189.29 172.51 172.74 177.19 147.77 175.54 139.84 167.26 181.35 169.53 188.32 171.39 189.29"/><path class="cls-24" d="M161.09,128.53s-3.43,6.45-2.97,14.02c.12,1.89,.74,3.72,1.82,5.28l1.47,2.13,.89,20.03s-1.23,15.08,.91,25.06l6.27,.97,1.65-22.67c.42-1.69,.75-3.41,.97-5.14l3.38-16.63c.14-.68,.25-1.37,.34-2.07l2.52-19.25-5.37-.07c-2.99,.09-5.99-.22-8.9-.93l-3-.73Z"/></g><path class="cls-17" d="M157.15,140.65l2.31-27.76s11.41,1.22,15.44-5.03c0,0,8.13,6.96,5.63,17.08l-2.51,17.57c-.15,1.78-15.22,3.55-20.87-1.87Z"/><polygon class="cls-22" points="172.22 116.23 179.87 128.8 179.55 131.49 172.22 116.23"/><g><path class="cls-19" d="M185.58,128.22l11.83-8.18c.69-.45,1.85-.6,1.71-1.32-.24-1.21,2.61-4.68-4.83-.45l-13.24,6.12c-1.1,.64-1.7,2.62-1.43,3.72,.22,.93,1,1.71,3.21,1.26,.99-.2,1.93-.6,2.76-1.15Z"/><g><path class="cls-19" d="M200.68,115.12s1.65-2.78,2.45-1.85c.2,.23-.05,.81-.47,1.48,.27-.13,.55-.15,.81,.03,0,0-.22,.43-.53,.93,.16-.02,.39,.12,.55,.23,0,0-.77,1.27-1.46,1.98-.22,.26-.77,.81-1.65,1.31-.91,.51-1.47,.46-4.2,1.11,0,0,0-.11,.01-.27-.47,.15-1.01,.04-1.36-.31l-.04-.04c-.5-.5-.63-1.19-.36-1.78,.21-.46,.38-.94,.52-1.43h0c.07-.27,.25-.49,.5-.63l2.02-1.14s.98-1.07,1.53-.73c.61,.38-.86,1.37-.86,1.37l-1.04,.75c-.26,.25,.4,.15,.87,.18,.21,.01,.44,.03,.48,.05,.09,.05,2.25-1.24,2.25-1.24Z"/><g class="cls-33"><polygon class="cls-25" points="198.64 117.74 201.65 116.25 202.6 114.73 202.71 114.78 201.75 116.33 198.7 117.84 198.64 117.74"/></g><g class="cls-33"><path class="cls-25" d="M198.96,118.78l3.01-1.5c.34-.56,.89-1.47,.9-1.57h.12c0,.14-.77,1.39-.92,1.64h0s-3.04,1.52-3.04,1.52l-.06-.09Z"/></g></g></g><path class="cls-19" d="M169.01,111.95l10.53,16.26c.59,.92,1.7,1.44,2.83,1.28,1.88-.26,4.13-3.56-1.28-13.38l-6.82-9.9c-.82-1.46-2.52-2.29-4.24-1.99-1.45,.25-2.76,1.23-2.38,4.11,.17,1.29,.65,2.52,1.36,3.62Z"/><g><path class="cls-17" d="M174.99,120.09l6.62-4.84s-2.81-10.12-9.65-10.21l-14.28-2.98s-4.76,1.25-5.42,13.86l21.86,4.36c.3,.06,.62,0,.87-.19Z"/><g><ellipse class="cls-19" cx="170.99" cy="94.41" rx="6.53" ry="8.63"/><path class="cls-28" d="M174.34,85.57s2.13,1.04,.56,3.74c-.37,.64-.5,1.33-.4,2.01,.21,1.34,.25,3.77-1.38,6.22,0,0-4,4.07-3.33,8.85,.22,1.54-.63,3.07-2.41,4.11-1.68,.98-4.36,1.74-8.56,1.35,0,0-5.39-.37-5.97-3.66-.14-.82,.13-1.65,.71-2.39,.4-.51,.84-1.32,.73-2.34-.14-1.35,.09-2.7,.77-3.99,.73-1.39,1.8-3.12,3.22-4.65,1.13-1.23,1.87-2.6,2.14-4.02,.47-2.45,2.01-6.1,7.05-6.61,0,0,5.58-.17,6.89,1.39Z"/><path class="cls-28" d="M163.92,87.27s-1.99,.07-1.77,2.73c.05,.63-.1,1.21-.42,1.71-.64,.98-1.54,2.86-1.19,5.35,0,0,1.57,4.58-.66,8.09-.72,1.13-4.06,4.64-3.08,6.07,.92,1.35,4.67,3.5,9.43,2.02,0,0,4.22,1.59,5.84-.79,.4-.59,.5-1.33,.32-2.12-.12-.54-.16-1.32,.29-2.09,.59-1.01,.91-2.15,.85-3.39-.06-1.34-.25-3.07-.76-4.76-.42-1.36-.48-2.68-.17-3.89,.53-2.08,.67-5.48-2.96-7.63,0,0-4.17-2.08-5.72-1.31Z"/></g></g></g><g id="Plant"><ellipse class="cls-7" cx="266.77" cy="228.3" rx="6.27" ry="2.57"/><g><path class="cls-8" d="M263.76,227.57c-3.53-3.91-4.52-19-4.52-19h18.09s-.99,15.1-4.52,19c-.76,.84-2.93,1.51-4.52,1.51-1.59,0-3.76-.67-4.52-1.51Z"/><path class="cls-15" d="M261.9,205.59c3.54-1.65,9.26-1.65,12.78,0,3.52,1.65,3.5,4.33-.04,5.99-3.54,1.65-9.26,1.65-12.78,0-3.52-1.65-3.5-4.33,.04-5.99h0Z"/><path class="cls-20" d="M262.94,206.08c2.96-1.38,7.75-1.38,10.69,0,2.94,1.38,2.93,3.62-.04,5.01-2.96,1.38-7.75,1.38-10.69,0-2.94-1.38-2.93-3.62,.03-5.01h0Z"/><path class="cls-20" d="M268.29,209.39s8.25,2.77,5-8.8c0,0-.97,8.3-5,8.8Z"/><path class="cls-10" d="M264.78,208.93s-7.55-5.25-7.63-16.89c0,0,4.39,10.15,6.23,10.65l1.4,6.25Z"/><path class="cls-26" d="M281.42,193.38s-6.98,10.42-8.39,11.06l-2.46,4.97s5.49,2.56,10.84-16.03Z"/><path class="cls-10" d="M271.28,182.92s4.39,10.22,0,17.18l-1.67-.71,.09-4.12s1.58-5.75,1.58-12.35Z"/><path class="cls-10" d="M266.54,198.75s-2.81-5.82-2.81-8.87c0,0-.35,10.58,1.32,12.7l1.84,.43-.35-4.26Z"/><path class="cls-10" d="M273.38,200.03s1.88-4.9,6.24-4.65l-3.17,4.84c-.38,.48-.99,1.45-1.26,1.97l-4.26,7.18-2.75-.12,5.21-9.21Z"/><path class="cls-26" d="M276.45,185.83s-.79,7.67-6.58,14.76l.09,6.81s9.83-13.56,6.49-21.58Z"/><path class="cls-26" d="M265.57,202.08s2.54-12.78,1.76-15.61c0,0,6.58,12.56,.79,20.37l-2.54-4.76Z"/><path class="cls-26" d="M257.5,201.66s4.56,6.03,7.28,5.89l1.67,1.85s-7.11,2.27-8.95-7.74Z"/><path class="cls-26" d="M268.96,207.92s-6.89-12.86-7.33-16.34c0,0-1.14,13.27,4.83,17.81,0,0,2.51,.86,2.51-1.48Z"/><path class="cls-26" d="M270.52,209.33s-1.08-3.48,1.2-8.66c0,0-3.6,3.05-3.6,6.17l.17,2.43s.63,.3,2.23,.06Z"/></g></g></svg>