<svg width="1280" height="720" xmlns="http://www.w3.org/2000/svg" xmlns:xlink="http://www.w3.org/1999/xlink" overflow="hidden"><defs><clipPath id="clip0"><rect x="0" y="0" width="1280" height="720"/></clipPath><clipPath id="clip1"><rect x="20" y="175" width="87" height="87"/></clipPath><clipPath id="clip2"><rect x="20" y="175" width="87" height="87"/></clipPath><clipPath id="clip3"><rect x="20" y="175" width="87" height="87"/></clipPath><clipPath id="clip4"><rect x="20" y="508" width="87" height="87"/></clipPath><clipPath id="clip5"><rect x="20" y="508" width="87" height="87"/></clipPath><clipPath id="clip6"><rect x="20" y="508" width="87" height="87"/></clipPath><clipPath id="clip7"><rect x="404" y="200" width="51" height="51"/></clipPath><clipPath id="clip8"><rect x="404" y="200" width="51" height="51"/></clipPath><clipPath id="clip9"><rect x="404" y="200" width="51" height="51"/></clipPath><clipPath id="clip10"><rect x="491" y="171" width="42" height="42"/></clipPath><clipPath id="clip11"><rect x="491" y="171" width="42" height="42"/></clipPath><clipPath id="clip12"><rect x="491" y="171" width="42" height="42"/></clipPath><clipPath id="clip13"><rect x="491" y="204" width="42" height="42"/></clipPath><clipPath id="clip14"><rect x="491" y="204" width="42" height="42"/></clipPath><clipPath id="clip15"><rect x="491" y="204" width="42" height="42"/></clipPath><clipPath id="clip16"><rect x="491" y="238" width="42" height="41"/></clipPath><clipPath id="clip17"><rect x="491" y="238" width="42" height="41"/></clipPath><clipPath id="clip18"><rect x="491" y="238" width="42" height="41"/></clipPath><clipPath id="clip19"><rect x="230" y="371" width="51" height="51"/></clipPath><clipPath id="clip20"><rect x="230" y="371" width="51" height="51"/></clipPath><clipPath id="clip21"><rect x="230" y="371" width="51" height="51"/></clipPath><clipPath id="clip22"><rect x="637" y="371" width="51" height="51"/></clipPath><clipPath id="clip23"><rect x="637" y="371" width="51" height="51"/></clipPath><clipPath id="clip24"><rect x="637" y="371" width="51" height="51"/></clipPath><clipPath id="clip25"><rect x="810" y="346" width="100" height="100"/></clipPath><clipPath id="clip26"><rect x="810" y="346" width="100" height="100"/></clipPath><clipPath id="clip27"><rect x="810" y="346" width="100" height="100"/></clipPath><clipPath id="clip28"><rect x="491" y="504" width="42" height="41"/></clipPath><clipPath id="clip29"><rect x="491" y="504" width="42" height="41"/></clipPath><clipPath id="clip30"><rect x="491" y="504" width="42" height="41"/></clipPath><clipPath id="clip31"><rect x="491" y="537" width="42" height="42"/></clipPath><clipPath id="clip32"><rect x="491" y="537" width="42" height="42"/></clipPath><clipPath id="clip33"><rect x="491" y="537" width="42" height="42"/></clipPath><clipPath id="clip34"><rect x="491" y="571" width="42" height="41"/></clipPath><clipPath id="clip35"><rect x="491" y="571" width="42" height="41"/></clipPath><clipPath id="clip36"><rect x="491" y="571" width="42" height="41"/></clipPath><clipPath id="clip37"><rect x="14" y="51" width="98" height="99"/></clipPath><clipPath id="clip38"><rect x="14" y="51" width="98" height="99"/></clipPath><clipPath id="clip39"><rect x="14" y="51" width="98" height="99"/></clipPath><clipPath id="clip40"><rect x="947" y="338" width="29" height="29"/></clipPath><clipPath id="clip41"><rect x="947" y="338" width="29" height="29"/></clipPath><clipPath id="clip42"><rect x="947" y="338" width="29" height="29"/></clipPath><clipPath id="clip43"><rect x="947" y="102" width="29" height="29"/></clipPath><clipPath id="clip44"><rect x="947" y="102" width="29" height="29"/></clipPath><clipPath id="clip45"><rect x="947" y="102" width="29" height="29"/></clipPath></defs><g clip-path="url(#clip0)"><rect x="0" y="0" width="1280" height="720" fill="#FFFFFF"/><rect x="961" y="0" width="319" height="720" fill="#16759E"/><path d="M1255.61 698.394C1255.77 698.557 1255.86 698.759 1255.86 698.997 1255.86 699.235 1255.77 699.443 1255.61 699.612 1255.44 699.78 1255.23 699.867 1255 699.867 1254.76 699.867 1254.56 699.78 1254.39 699.612 1254.22 699.443 1254.14 699.235 1254.14 698.997 1254.14 698.759 1254.22 698.557 1254.39 698.394 1254.56 698.22 1254.76 698.133 1255 698.133 1255.23 698.133 1255.44 698.22 1255.61 698.394ZM1255.71 698.29C1255.51 698.099 1255.28 698 1255 698 1254.72 698 1254.49 698.099 1254.3 698.29 1254.1 698.487 1254 698.725 1254 698.997 1254 699.275 1254.1 699.513 1254.29 699.71 1254.48 699.907 1254.72 700 1255 700 1255.28 700 1255.51 699.907 1255.71 699.71 1255.9 699.513 1256 699.275 1256 698.997 1256 698.719 1255.9 698.487 1255.71 698.29ZM1255.15 698.951C1255.11 698.968 1255.04 698.974 1254.96 698.974 1254.79 698.974 1254.79 698.974 1254.79 698.974 1254.79 698.58 1254.79 698.58 1254.79 698.58 1254.95 698.58 1254.95 698.58 1254.95 698.58 1255.06 698.58 1255.14 698.591 1255.19 698.62 1255.23 698.649 1255.26 698.701 1255.26 698.777 1255.26 698.864 1255.22 698.922 1255.15 698.951ZM1254.6 699.542C1254.79 699.542 1254.79 699.542 1254.79 699.542 1254.79 699.113 1254.79 699.113 1254.79 699.113 1254.94 699.113 1254.94 699.113 1254.94 699.113 1255.04 699.113 1255.11 699.119 1255.16 699.148 1255.22 699.188 1255.26 699.27 1255.26 699.397 1255.26 699.484 1255.26 699.484 1255.26 699.484 1255.26 699.519 1255.26 699.519 1255.26 699.519 1255.26 699.525 1255.26 699.53 1255.26 699.536 1255.27 699.536 1255.27 699.542 1255.27 699.542 1255.45 699.542 1255.45 699.542 1255.45 699.542 1255.44 699.53 1255.44 699.53 1255.44 699.53 1255.44 699.525 1255.44 699.501 1255.43 699.472 1255.43 699.443 1255.43 699.414 1255.43 699.391 1255.43 699.31 1255.43 699.31 1255.43 699.31 1255.43 699.258 1255.41 699.2 1255.37 699.142 1255.33 699.084 1255.27 699.049 1255.18 699.032 1255.25 699.02 1255.3 699.003 1255.34 698.98 1255.41 698.933 1255.45 698.858 1255.45 698.765 1255.45 698.626 1255.39 698.533 1255.28 698.487 1255.22 698.458 1255.11 698.446 1254.98 698.446 1254.6 698.446 1254.6 698.446 1254.6 698.446L1254.6 699.542Z" fill="#FFFFFF" fill-rule="evenodd"/><path d="M1254.81 680.659C1254.66 681.318 1254.59 682 1254.43 682.699 1252.56 682.443 1250.36 682.261 1247.88 682.17 1247.69 682.824 1247.49 683.46 1247.28 684.159 1251.42 684.426 1253.43 685.557 1254.62 686.898 1255.79 688.25 1256.03 689.739 1255.96 691.131 1255.81 693.381 1254.86 694.807 1253.55 695.864 1252.23 696.903 1250.62 697.42 1249.33 697.534 1247.44 697.676 1244.9 697.21 1244.36 696.864 1244.04 696.097 1243.72 695.324 1243.37 694.483 1243.29 694.301 1243.24 694.119 1243.48 693.903 1243.84 693.534 1244.2 693.182 1244.57 692.801 1244.74 692.636 1244.92 692.477 1245.06 692.722 1245.57 693.534 1246.05 694.284 1246.53 695.034 1247.07 695.869 1247.9 696.625 1249.7 696.5 1251.23 696.358 1252.38 695.165 1252.5 693.852 1252.63 691.415 1250.27 689.688 1244.11 689.136 1245.29 685.426 1246.44 681.835 1247.36 678.983 1248.83 679.051 1250.18 679.176 1251.47 679.352 1252.43 679.477 1253.32 679.71 1254.21 679.818 1251.92 676.875 1248.42 675 1244.5 675 1237.59 675 1232 680.818 1232 688 1232 690.886 1232.9 693.545 1234.43 695.705 1234.96 695.71 1235.33 695.585 1235.37 695.347 1235.41 695.102 1235.38 694.716 1235.33 694.33 1235.08 691.778 1234.99 689.023 1235.09 686.261 1234.45 686.29 1233.88 686.318 1233.34 686.352 1233.36 685.841 1233.39 685.358 1233.43 684.858 1233.97 684.801 1234.54 684.756 1235.16 684.699 1235.19 684.261 1235.22 683.835 1235.26 683.403 1235.54 680.773 1238.21 679.159 1240.42 678.54 1241.41 678.29 1242.01 678.21 1242.49 678.188 1242.66 678.182 1242.84 678.17 1243.02 678.17 1243.48 678.17 1243.95 678.216 1244.25 678.426 1244.73 678.801 1245.2 679.17 1245.7 679.585 1245.76 679.653 1245.81 679.767 1245.69 679.96 1245.46 680.239 1245.23 680.506 1245 680.795 1244.86 680.966 1244.64 680.92 1244.45 680.869 1244.05 680.659 1243.67 680.466 1243.28 680.267 1242.58 679.943 1241.86 679.614 1241.05 679.648 1240.55 679.688 1240.06 680.222 1240.01 680.955 1239.94 682.068 1239.89 683.216 1239.86 684.455 1241.25 684.409 1242.65 684.386 1244.12 684.381 1244.12 684.727 1244.12 685.045 1244.12 685.403 1243.64 685.625 1243.18 685.852 1242.7 686.08 1241.71 686.091 1240.77 686.102 1239.82 686.119 1239.77 689.062 1239.81 692 1239.94 694.71 1239.97 695.119 1239.99 695.534 1240.1 695.812 1240.23 696.165 1241.01 696.432 1242.71 696.528 1242.72 696.841 1242.73 697.131 1242.74 697.426 1239.97 697.341 1237.32 697.068 1235.19 696.67 1237.47 699.33 1240.8 701 1244.5 701 1251.41 701 1257 695.182 1257 688 1257 685.278 1256.19 682.75 1254.81 680.659Z" fill="#FFFFFF" fill-rule="evenodd"/><text fill="#71C6EB" font-family="Calibri,Calibri_MSFontService,sans-serif" font-weight="700" font-size="107" transform="translate(973.326 110)">“<tspan fill="#FFFFFF" font-size="19" x="34.0893" y="-44">Components</tspan><tspan fill="#FFFFFF" font-family="Arial,Arial_MSFontService,sans-serif" font-weight="400" font-size="12" x="9.14612" y="512">Key:</tspan></text><path d="M982.392 623.024 988.142 623.024 993.892 623.024 999.642 623.024 1005.39 623.024 1005.39 624.024 999.642 624.024 993.892 624.024 988.142 624.024 982.392 624.024Z" fill="#FFFFFF" fill-rule="evenodd"/><path d="M1031.5 658.833 1035.5 658.833 1035.5 660.167 1031.5 660.167ZM1036.83 658.833 1040.83 658.833 1040.83 660.167 1036.83 660.167ZM1042.17 658.833 1046.17 658.833 1046.17 660.167 1042.17 660.167ZM1047.5 658.833 1051.5 658.833 1051.5 660.167 1047.5 660.167ZM1050.88 655.5 1058.88 659.5 1050.88 663.5Z" fill="#FFFFFF"/><path d="M1031 630 1051.71 630 1051.71 632 1031 632ZM1050.38 627 1058.38 631 1050.38 635Z" fill="#FFFFFF"/><text fill="#FFFFFF" font-family="Arial,Arial_MSFontService,sans-serif" font-weight="400" font-size="12" transform="translate(1069.72 663)">Egress<tspan font-size="12" x="40.6666" y="0">flow</tspan><tspan font-size="12" x="0" y="-28">Ingress</tspan><tspan font-size="12" x="42.6666" y="-28">flow</tspan><tspan font-family="Calibri,Calibri_MSFontService,sans-serif" font-size="22" x="-91.5209" y="-541">›</tspan><tspan font-family="Calibri,Calibri_MSFontService,sans-serif" font-weight="700" font-size="15" x="-73.5209" y="-541">Edge Proxy</tspan><tspan font-family="Wingdings 3,Wingdings 3_MSFontService,sans-serif" font-size="16" x="-71.7209" y="-518"></tspan><tspan font-family="Calibri,Calibri_MSFontService,sans-serif" font-size="15" x="-53.7209" y="-518">L7 Content Routing to Micro</tspan><tspan font-family="Calibri,Calibri_MSFontService,sans-serif" font-size="15" x="114.446" y="-518">-</tspan><tspan font-family="Calibri,Calibri_MSFontService,sans-serif" font-size="15" x="118.946" y="-518">Proxy</tspan><tspan font-family="Wingdings 3,Wingdings 3_MSFontService,sans-serif" font-size="16" x="-71.7209" y="-495"></tspan><tspan font-family="Calibri,Calibri_MSFontService,sans-serif" font-size="15" x="-53.7209" y="-495">WAF </tspan><tspan font-family="Calibri,Calibri_MSFontService,sans-serif" font-size="15" x="-22.2208" y="-495">–</tspan><tspan font-family="Calibri,Calibri_MSFontService,sans-serif" font-size="15" x="-11.5542" y="-495">negative policy</tspan><tspan font-family="Wingdings,Wingdings_MSFontService,sans-serif" font-size="15" x="-52.8542" y="-474"></tspan><tspan font-family="Calibri,Calibri_MSFontService,sans-serif" font-size="13" x="-34.8542" y="-474">OWASP top10</tspan><tspan font-family="Wingdings,Wingdings_MSFontService,sans-serif" font-size="15" x="-52.8542" y="-452"></tspan><tspan font-family="Calibri,Calibri_MSFontService,sans-serif" font-size="13" x="-34.8542" y="-452">Virtual Patching</tspan><tspan font-family="Wingdings 3,Wingdings 3_MSFontService,sans-serif" font-size="16" x="-71.7209" y="-430"></tspan><tspan font-family="Calibri,Calibri_MSFontService,sans-serif" font-size="15" x="-53.7209" y="-430">E</tspan><tspan font-family="Calibri,Calibri_MSFontService,sans-serif" font-size="15" x="-46.5542" y="-430">nterprise</tspan><tspan font-family="Calibri,Calibri_MSFontService,sans-serif" font-size="15" x="10.9458" y="-430">level security features</tspan><tspan font-family="Wingdings,Wingdings_MSFontService,sans-serif" font-size="15" x="-52.8542" y="-408"></tspan><tspan font-family="Calibri,Calibri_MSFontService,sans-serif" font-size="13" x="-34.8542" y="-408">Threat Campaign</tspan><tspan font-family="Wingdings,Wingdings_MSFontService,sans-serif" font-size="15" x="-52.8542" y="-387"></tspan><tspan font-family="Calibri,Calibri_MSFontService,sans-serif" font-size="13" x="-34.8542" y="-387">Bot Protection</tspan><tspan font-family="Wingdings,Wingdings_MSFontService,sans-serif" font-size="15" x="-52.8542" y="-365"></tspan><tspan font-family="Calibri,Calibri_MSFontService,sans-serif" font-size="13" x="-34.8542" y="-365">DeviceID</tspan><tspan font-family="Wingdings,Wingdings_MSFontService,sans-serif" font-size="15" x="-52.8542" y="-344"></tspan><tspan font-family="Calibri,Calibri_MSFontService,sans-serif" font-size="13" x="-34.8542" y="-344">IP blacklist</tspan><tspan font-family="Calibri,Calibri_MSFontService,sans-serif" font-size="22" x="-91.5209" y="-306">›</tspan><tspan font-family="Calibri,Calibri_MSFontService,sans-serif" font-weight="700" font-size="15" x="-73.5209" y="-306">Micro Proxy</tspan><tspan font-family="Wingdings 3,Wingdings 3_MSFontService,sans-serif" font-size="16" x="-71.7209" y="-283"></tspan><tspan font-family="Calibri,Calibri_MSFontService,sans-serif" font-size="15" x="-53.7209" y="-283">WAF </tspan><tspan font-family="Calibri,Calibri_MSFontService,sans-serif" font-size="15" x="-22.2208" y="-283">–</tspan><tspan font-family="Calibri,Calibri_MSFontService,sans-serif" font-size="15" x="-11.5542" y="-283">positive policy</tspan><tspan font-family="Wingdings,Wingdings_MSFontService,sans-serif" font-size="15" x="-52.8542" y="-261"></tspan><tspan font-family="Calibri,Calibri_MSFontService,sans-serif" font-size="13" x="-34.8542" y="-261">Auto</tspan><tspan font-family="Calibri,Calibri_MSFontService,sans-serif" font-size="13" x="-5.6875" y="-261">generated</tspan><tspan font-family="Calibri,Calibri_MSFontService,sans-serif" font-size="13" x="53.1458" y="-261">positive security policy </tspan><tspan font-family="Calibri,Calibri_MSFontService,sans-serif" font-size="13" x="-34.8542" y="-245">based on </tspan><tspan font-family="Calibri,Calibri_MSFontService,sans-serif" font-size="13" x="17.3125" y="-245">OpenAPI</tspan><tspan font-family="Calibri,Calibri_MSFontService,sans-serif" font-size="13" x="67.6458" y="-245">spec file (swagger) </tspan><tspan font-family="Calibri,Calibri_MSFontService,sans-serif" font-size="13" x="-34.8542" y="-229">hosted</tspan><tspan font-family="Calibri,Calibri_MSFontService,sans-serif" font-size="13" x="5.47913" y="-229">in</tspan><tspan font-family="Calibri,Calibri_MSFontService,sans-serif" font-size="13" x="18.4791" y="-229">a</tspan><tspan font-family="Calibri,Calibri_MSFontService,sans-serif" font-size="13" x="27.8125" y="-229">remote</tspan><tspan font-family="Calibri,Calibri_MSFontService,sans-serif" font-size="13" x="70.9791" y="-229">server (Git for example)</tspan><tspan font-family="Wingdings 3,Wingdings 3_MSFontService,sans-serif" font-size="16" x="-71.7209" y="-206"></tspan><tspan font-family="Calibri,Calibri_MSFontService,sans-serif" font-size="15" x="-53.7209" y="-206">API </tspan><tspan font-family="Calibri,Calibri_MSFontService,sans-serif" font-size="15" x="-30.7208" y="-206">GW</tspan><tspan font-family="Wingdings,Wingdings_MSFontService,sans-serif" font-size="15" x="-52.8542" y="-185"></tspan><tspan font-family="Calibri,Calibri_MSFontService,sans-serif" font-size="13" x="-34.8542" y="-185">L7 Content Routing to Micro</tspan><tspan font-family="Calibri,Calibri_MSFontService,sans-serif" font-size="13" x="118.646" y="-185">-</tspan><tspan font-family="Calibri,Calibri_MSFontService,sans-serif" font-size="13" x="122.646" y="-185">Services</tspan><tspan font-family="Wingdings,Wingdings_MSFontService,sans-serif" font-size="15" x="-52.8542" y="-163"></tspan><tspan font-family="Calibri,Calibri_MSFontService,sans-serif" font-size="13" x="-34.8542" y="-163">Authentication, Authorization</tspan><tspan font-family="Wingdings,Wingdings_MSFontService,sans-serif" font-size="15" x="-52.8542" y="-142"></tspan><tspan font-family="Calibri,Calibri_MSFontService,sans-serif" font-size="13" x="-34.8542" y="-142">Rate </tspan><tspan font-family="Calibri,Calibri_MSFontService,sans-serif" font-size="13" x="-7.1875" y="-142">limiting</tspan></text><path d="M165.5 133.142C165.5 116.771 178.771 103.5 195.142 103.5L722.858 103.5C739.229 103.5 752.5 116.771 752.5 133.142L752.5 620.858C752.5 637.229 739.229 650.5 722.858 650.5L195.142 650.5C178.771 650.5 165.5 637.229 165.5 620.858Z" stroke="#C6C6C6" stroke-width="1.33333" stroke-miterlimit="8" stroke-dasharray="1.33333 1.33333" fill="#555555" fill-rule="evenodd"/><text fill="#FFFFFF" font-family="Arial,Arial_MSFontService,sans-serif" font-weight="700" font-size="21" transform="translate(183.034 145)">Environment</text><g clip-path="url(#clip1)"><g clip-path="url(#clip2)"><g clip-path="url(#clip3)"><path d="M49.1485 206.997 77.8515 206.997C78.3318 206.997 78.7215 206.607 78.7215 206.127 78.7215 205.647 78.3318 205.257 77.8515 205.257L49.1485 205.257C48.6682 205.257 48.2785 205.647 48.2785 206.127 48.2785 206.607 48.6682 206.997 49.1485 206.997Z"/><path d="M49.1485 211.731 77.8515 211.731C78.3318 211.731 78.7215 211.342 78.7215 210.861 78.7215 210.381 78.3318 209.991 77.8515 209.991L49.1485 209.991C48.6682 209.991 48.2785 210.381 48.2785 210.861 48.2785 211.342 48.6682 211.731 49.1485 211.731Z"/><path d="M77.8515 214.728 61.245 214.728C60.7647 214.728 60.375 215.117 60.375 215.598 60.375 216.078 60.7647 216.468 61.245 216.468L77.8515 216.468C78.3318 216.468 78.7215 216.078 78.7215 215.598 78.7215 215.117 78.3318 214.728 77.8515 214.728Z"/><path d="M66.98 248.992 60.02 248.992C59.5398 248.992 59.15 249.382 59.15 249.862 59.15 250.342 59.5398 250.732 60.02 250.732L66.98 250.732C67.4602 250.732 67.85 250.342 67.85 249.862 67.85 249.382 67.4602 248.992 66.98 248.992Z"/><path d="M80.9 182.83 46.1 182.83C44.661 182.83 43.49 184.001 43.49 185.44L43.49 192.442 43.49 244.642 43.49 251.645C43.49 253.084 44.661 254.255 46.1 254.255L80.9 254.255C82.339 254.255 83.51 253.084 83.51 251.645L83.51 244.642 83.51 192.442 83.51 185.44C83.51 184.001 82.339 182.83 80.9 182.83ZM46.1 184.57 80.9 184.57C81.3785 184.57 81.77 184.962 81.77 185.44L81.77 189.994C81.4968 189.894 81.2062 189.832 80.9 189.832L46.1 189.832C45.7938 189.832 45.5032 189.894 45.23 189.992L45.23 185.44C45.23 184.962 45.6215 184.57 46.1 184.57ZM45.23 192.442C45.23 191.963 45.6215 191.572 46.1 191.572L80.9 191.572C81.3785 191.572 81.77 191.963 81.77 192.442L81.77 244.642C81.77 245.12 81.3785 245.512 80.9 245.512L46.1 245.512C45.6215 245.512 45.23 245.12 45.23 244.642L45.23 192.442ZM80.9 252.517 46.1 252.517C45.6215 252.517 45.23 252.126 45.23 251.647L45.23 247.093C45.5032 247.191 45.7938 247.254 46.1 247.254L80.9 247.254C81.2062 247.254 81.4968 247.191 81.77 247.093L81.77 251.647C81.77 252.126 81.3785 252.517 80.9 252.517Z"/><path d="M51.32 187.223C51.32 188.184 50.541 188.964 49.58 188.964 48.619 188.964 47.84 188.184 47.84 187.223 47.84 186.263 48.619 185.484 49.58 185.484 50.541 185.484 51.32 186.263 51.32 187.223Z"/></g></g></g><g clip-path="url(#clip4)"><g clip-path="url(#clip5)"><g clip-path="url(#clip6)"><path d="M65.3357 568.9C65.3357 569.861 64.5567 570.64 63.5957 570.64 62.6347 570.64 61.8557 569.861 61.8557 568.9 61.8557 567.939 62.6347 567.16 63.5957 567.16 64.5567 567.16 65.3357 567.939 65.3357 568.9Z"/><path d="M98.347 524.53 28.7 524.53C28.4686 524.53 28.2476 524.622 28.084 524.786 27.9205 524.949 27.83 525.17 27.83 525.402L27.924 565.187C27.9031 565.263 27.877 565.336 27.877 565.42 27.877 565.504 27.9031 565.58 27.924 565.657L27.924 572.38C27.924 572.86 28.3137 573.25 28.794 573.25L62.677 573.25 62.677 576.73 47.9914 576.73C47.5111 576.73 47.1214 577.12 47.1214 577.6 47.1214 578.08 47.5111 578.47 47.9914 578.47L79.3114 578.47C79.7916 578.47 80.1814 578.08 80.1814 577.6 80.1814 577.12 79.7916 576.73 79.3114 576.73L64.417 576.73 64.417 573.25 98.347 573.25C98.8272 573.25 99.217 572.86 99.217 572.38L99.217 525.4C99.217 524.92 98.829 524.53 98.347 524.53ZM97.477 526.27 97.477 564.55 29.664 564.55 29.5717 526.27 97.477 526.27ZM29.6657 571.51 29.6657 566.29 97.4787 566.29 97.4787 571.51 29.6657 571.51Z"/><path d="M49.8219 545.027C49.8219 547.601 50.5422 550.111 51.9029 552.286 53.8291 555.363 56.9576 557.585 60.4846 558.385 60.4933 558.387 60.502 558.387 60.5124 558.389 60.5437 558.397 60.5803 558.408 60.5959 558.411L60.8117 558.46C61.3685 558.571 61.9584 558.65 62.5639 558.693 62.8823 558.716 63.2007 558.731 63.5226 558.731 63.8428 558.731 64.1595 558.716 64.4727 558.693 64.4727 558.693 64.4727 558.693 64.4727 558.693 65.0921 558.648 65.7342 558.547 66.4667 558.376 66.4719 558.376 66.4771 558.382 66.4824 558.382 66.5346 558.382 66.5885 558.376 66.639 558.364 70.1329 557.55 73.2318 555.333 75.1441 552.285 76.5048 550.113 77.2251 547.606 77.2251 545.032 77.2251 542.459 76.5065 539.95 75.1493 537.778 75.1493 537.778 75.1493 537.777 75.1493 537.777 75.0623 537.637 74.9736 537.502 74.8831 537.369 72.8699 534.391 69.6979 532.285 66.1796 531.593 66.1744 531.593 66.0073 531.563 66.0021 531.561 66.0004 531.561 66.0004 531.561 66.0004 531.561 65.367 531.445 64.7319 531.372 64.1142 531.344 64.1142 531.344 64.1142 531.344 64.1125 531.344 64.1125 531.344 64.1125 531.344 64.1125 531.344 63.7488 531.328 63.4756 531.323 62.9328 531.347 62.9328 531.347 62.9328 531.347 62.931 531.347 62.931 531.347 62.931 531.347 62.931 531.347 62.3499 531.372 61.7774 531.44 61.151 531.554 61.1197 531.556 61.0884 531.547 61.0553 531.554 57.5422 532.196 54.4572 534.164 52.3675 537.096 52.2091 537.319 52.0595 537.549 51.9133 537.78 51.9133 537.78 51.9133 537.78 51.9116 537.78 50.544 539.957 49.8219 542.464 49.8219 545.027ZM52.7259 538.958C52.9887 539.069 53.2705 539.174 53.5629 539.276 53.575 539.28 53.5855 539.285 53.5977 539.289 53.9178 539.398 54.2554 539.503 54.6103 539.602 54.5877 539.682 54.5773 539.765 54.5547 539.845 54.365 540.522 54.1997 541.211 54.0866 541.918 54.0814 541.951 54.0796 541.984 54.0744 542.017 53.9683 542.697 53.9091 543.392 53.8761 544.095 53.8708 544.189 53.8534 544.279 53.85 544.373L51.1443 544.373C51.2452 542.473 51.7846 540.623 52.7259 538.958ZM57.6988 535.99C57.7302 535.944 57.7667 535.91 57.798 535.864 58.755 534.498 59.9121 533.496 61.1701 532.929 61.1684 532.932 61.1667 532.936 61.1649 532.939 60.9944 533.221 60.8378 533.524 60.6934 533.844 60.6621 533.914 60.636 533.989 60.6046 534.06 60.4933 534.323 60.3871 534.591 60.2914 534.867 60.2497 534.986 60.2131 535.101 60.1749 535.219 60.0948 535.468 60.02 535.715 59.9504 535.964 59.9191 536.073 59.8878 536.181 59.8599 536.291 59.7694 536.635 59.6877 536.976 59.6163 537.303 59.6163 537.303 59.6163 537.303 59.6163 537.303 59.4928 537.876 59.3832 538.483 59.2892 539.116 58.7446 539.057 58.1982 539 57.6884 538.92 57.6153 538.908 57.5475 538.894 57.4744 538.882 57.0794 538.815 56.7123 538.735 56.3399 538.657 56.4756 538.313 56.5992 537.956 56.754 537.634 57.0394 537.044 57.3561 536.494 57.6988 535.99ZM61.8731 534.424C61.927 534.302 61.981 534.177 62.0367 534.069 62.0854 533.973 62.1324 533.891 62.1811 533.804 62.2333 533.708 62.2872 533.611 62.3394 533.528 62.3881 533.451 62.4351 533.387 62.4821 533.319 62.5343 533.246 62.5848 533.171 62.637 533.108 62.6839 533.051 62.7292 533.004 62.7744 532.955 62.8231 532.903 62.8736 532.851 62.9206 532.807 62.9641 532.767 63.0076 532.736 63.0511 532.706 63.0859 532.682 63.1189 532.659 63.152 532.64 63.4026 532.63 63.6583 532.628 63.9106 532.638 63.9228 532.645 63.9367 532.652 63.9489 532.659 64.6032 533.084 65.2435 534.279 65.7533 535.977 65.7603 536 65.7672 536.028 65.7724 536.051 65.9343 536.599 66.0839 537.194 66.2144 537.836 66.3049 538.278 66.3745 538.767 66.4476 539.249L66.4476 539.249C64.6936 539.376 62.7535 539.39 60.9805 539.276 60.8535 539.27 60.7317 539.257 60.6081 539.249 60.6969 538.678 60.7804 538.1 60.8935 537.582 60.977 537.19 61.0657 536.827 61.158 536.486 61.1893 536.371 61.2223 536.273 61.2537 536.164 61.3146 535.951 61.3772 535.736 61.4398 535.542 61.4816 535.415 61.5251 535.308 61.5669 535.189 61.6225 535.036 61.6782 534.878 61.7339 534.739 61.7809 534.625 61.8279 534.528 61.8731 534.424ZM67.1192 533.635C67.3837 533.827 67.6308 534.07 67.8796 534.302 68.0431 534.453 68.2154 534.582 68.372 534.751 68.6313 535.031 68.8644 535.36 69.1028 535.683 69.2263 535.852 69.3638 535.997 69.4821 536.178 69.8197 536.696 70.1311 537.258 70.4078 537.864 70.4113 537.872 70.4165 537.878 70.42 537.886 70.5313 538.13 70.6201 538.396 70.7193 538.652 70.3347 538.732 69.9571 538.817 69.55 538.883 69.4873 538.894 69.4317 538.906 69.369 538.916 68.8557 538.996 68.3076 539.056 67.7613 539.115 67.6847 538.607 67.6012 538.114 67.5055 537.643 67.502 537.594 67.4916 537.543 67.4759 537.496 67.4655 537.446 67.4498 537.389 67.4394 537.338 67.3819 537.067 67.3176 536.788 67.2462 536.505 67.2166 536.386 67.1853 536.272 67.154 536.151 67.0809 535.877 66.9991 535.602 66.9121 535.327 66.8826 535.234 66.8582 535.144 66.8269 535.052 66.7086 534.7 66.5798 534.359 66.4389 534.029 66.4023 533.945 66.3623 533.869 66.3258 533.787 66.2109 533.534 66.0874 533.294 65.9551 533.066 65.9308 533.025 65.9116 532.976 65.8873 532.934 66.1135 533.037 66.3327 533.169 66.552 533.3 66.7399 533.413 66.9365 533.503 67.1192 533.635ZM70.507 552.065C70.4182 552.267 70.3278 552.466 70.2303 552.659 70.1712 552.779 70.1103 552.897 70.0494 553.014 69.9276 553.243 69.7988 553.47 69.6666 553.685 69.6283 553.748 69.59 553.812 69.55 553.875 68.6156 555.342 67.4568 556.469 66.1709 557.125 66.0996 557.141 66.03 557.157 65.9586 557.171 65.9917 557.112 66.0213 557.033 66.0543 556.971 66.1883 556.724 66.3171 556.456 66.4406 556.167 66.4911 556.05 66.5398 555.935 66.5885 555.812 66.7277 555.453 66.8617 555.072 66.9852 554.663 67.0026 554.604 67.0235 554.554 67.0409 554.493 67.1801 554.02 67.3054 553.508 67.422 552.972 67.455 552.821 67.4829 552.661 67.5142 552.506 67.596 552.099 67.669 551.677 67.7369 551.241 67.7526 551.136 67.7752 551.046 67.7908 550.94 68.3389 550.999 68.8888 551.058 69.4021 551.14 69.4647 551.15 69.5221 551.162 69.5848 551.173 70.0006 551.242 70.3834 551.328 70.7715 551.411 70.7454 551.481 70.721 551.552 70.6932 551.62 70.6357 551.771 70.5714 551.919 70.507 552.065ZM63.5244 549.395C63.4095 549.395 63.2982 549.407 63.1833 549.407 62.7553 549.41 62.3359 549.438 61.9062 549.454 61.405 549.473 60.8987 549.473 60.4045 549.509 60.3889 549.362 60.3767 549.208 60.3628 549.057 60.2706 548.105 60.2131 547.126 60.1905 546.123 60.187 545.976 60.1801 545.829 60.1766 545.68L66.8686 545.68C66.8669 545.829 66.8599 545.974 66.8547 546.123 66.8321 547.126 66.7729 548.107 66.6807 549.062 66.6668 549.212 66.6546 549.363 66.639 549.509 66.458 549.496 66.2753 549.483 66.0909 549.473 65.2626 549.421 64.4031 549.395 63.5244 549.395ZM60.0026 554.495C60.0235 554.566 60.0478 554.627 60.0687 554.696 60.1905 555.095 60.3193 555.467 60.455 555.815 60.5055 555.942 60.5559 556.062 60.6081 556.182 60.7299 556.466 60.8569 556.73 60.9892 556.974 61.024 557.038 61.0536 557.12 61.0884 557.181 61.0831 557.179 61.0762 557.179 61.0692 557.178L60.9196 557.164C60.6638 557.035 60.4132 556.887 60.1679 556.722 60.0931 556.671 60.02 556.61 59.9469 556.556 59.7799 556.435 59.6128 556.313 59.451 556.175 59.364 556.101 59.2805 556.017 59.1952 555.937 59.0526 555.805 58.9099 555.673 58.7724 555.528 58.6837 555.434 58.6002 555.333 58.5132 555.236 58.3861 555.091 58.2591 554.943 58.1373 554.789 58.0521 554.681 57.9703 554.566 57.8885 554.451 57.7737 554.291 57.6588 554.129 57.5492 553.96 57.4709 553.839 57.3943 553.713 57.3195 553.586 57.2151 553.411 57.1125 553.233 57.0133 553.049 56.9419 552.916 56.8741 552.782 56.808 552.647 56.714 552.455 56.6235 552.259 56.5365 552.06 56.4756 551.921 56.4147 551.78 56.3573 551.636 56.3277 551.563 56.3034 551.486 56.2738 551.413 56.6601 551.331 57.0394 551.244 57.4518 551.176 57.5179 551.166 57.577 551.152 57.6432 551.142 58.1565 551.06 58.7063 551.001 59.2544 550.94 59.2701 551.044 59.2909 551.135 59.3066 551.237 59.3745 551.676 59.4493 552.099 59.5311 552.507 59.5624 552.666 59.592 552.826 59.625 552.979 59.7399 553.513 59.8651 554.023 60.0026 554.495ZM57.4291 540.204C57.972 540.291 58.5358 540.366 59.1152 540.428 59.0961 540.59 59.0995 540.768 59.0839 540.931 58.9882 541.888 58.9255 542.868 58.896 543.872 58.8907 544.042 58.8664 544.202 58.8646 544.375L55.1706 544.375C55.1741 544.289 55.1776 544.204 55.1811 544.121 55.2159 543.439 55.2733 542.762 55.3794 542.102 55.3812 542.088 55.3864 542.074 55.3881 542.059 55.496 541.408 55.6474 540.775 55.8249 540.15 55.8475 540.072 55.8701 539.993 55.8927 539.915 56.3799 540.021 56.888 540.115 57.4135 540.199 57.4187 540.202 57.4239 540.204 57.4291 540.204ZM63.5244 540.662C63.5835 540.662 63.6375 540.656 63.6966 540.655 64.6623 540.649 65.6263 540.616 66.5398 540.55L66.6198 540.543C66.6372 540.7 66.6494 540.862 66.6668 541.02 66.7625 541.958 66.8234 542.922 66.8512 543.908 66.8565 544.065 66.8634 544.218 66.8669 544.375L60.1853 544.375C60.1888 544.216 60.1957 544.063 60.201 543.907 60.2288 542.92 60.2914 541.956 60.3871 541.016 60.4028 540.86 60.415 540.702 60.4324 540.547 60.5872 540.557 60.7438 540.569 60.9004 540.578 61.7478 540.632 62.6265 540.662 63.5244 540.662ZM69.637 540.197C70.1625 540.113 70.6688 540.018 71.1577 539.913 71.1804 539.992 71.2047 540.07 71.2256 540.148 71.4031 540.773 71.5562 541.41 71.6623 542.062 71.6641 542.074 71.6676 542.087 71.6693 542.099 71.7754 542.76 71.8329 543.437 71.8677 544.122 71.8711 544.206 71.8746 544.291 71.8781 544.375L68.1858 544.375C68.1823 544.202 68.158 544.044 68.1545 543.872 68.1267 542.87 68.064 541.892 67.9683 540.938 67.9509 540.771 67.9544 540.588 67.9353 540.423 68.5147 540.361 69.0767 540.286 69.6213 540.199 69.6248 540.199 69.63 540.199 69.637 540.197ZM71.6919 547.936C71.6902 547.947 71.6902 547.959 71.6884 547.97 71.5858 548.633 71.4344 549.278 71.2604 549.913 71.2395 549.991 71.2169 550.068 71.1943 550.145 70.7175 550.04 70.2216 549.948 69.7083 549.864 69.6892 549.861 69.67 549.857 69.6509 549.854 69.1045 549.767 68.5408 549.69 67.9579 549.628 67.9753 549.469 67.9718 549.297 67.9857 549.139 68.0745 548.199 68.1319 547.223 68.1562 546.21 68.1615 546.029 68.1858 545.861 68.1876 545.678L71.8833 545.678C71.8798 545.763 71.8781 545.849 71.8746 545.934 71.845 546.612 71.7911 547.282 71.6919 547.936ZM57.3491 549.866C56.8323 549.95 56.3329 550.044 55.8527 550.148 55.8301 550.071 55.8092 549.995 55.7883 549.917 55.4421 548.653 55.235 547.322 55.1741 545.925 55.1706 545.843 55.1671 545.761 55.1654 545.678L58.8594 545.678C58.8612 545.833 58.882 545.977 58.8855 546.13 58.9081 547.162 58.9673 548.17 59.0613 549.151 59.0752 549.306 59.0734 549.475 59.0891 549.628 58.5045 549.692 57.939 549.769 57.3909 549.856 57.3769 549.861 57.3648 549.864 57.3491 549.866ZM53.8447 545.68C53.8465 545.77 53.8656 545.857 53.8691 545.948 53.8987 546.652 53.9544 547.348 54.0553 548.03 54.0605 548.069 54.0622 548.109 54.0692 548.147 54.1771 548.853 54.3372 549.542 54.5216 550.221 54.5442 550.301 54.5529 550.386 54.5755 550.466 54.3981 550.517 54.238 550.571 54.0709 550.623 53.9648 550.656 53.8534 550.687 53.7508 550.722 53.3854 550.844 53.0374 550.969 52.7207 551.103 51.7846 549.442 51.2469 547.589 51.146 545.68L53.8447 545.68ZM53.4358 552.231C53.5211 552.196 53.6133 552.165 53.7021 552.132 54.0187 552.013 54.358 551.9 54.7217 551.794 54.807 551.77 54.8957 551.745 54.9827 551.721 55.0018 551.773 55.0297 551.817 55.0488 551.867 55.2976 552.518 55.5778 553.139 55.8927 553.72 55.9397 553.807 55.9902 553.889 56.0389 553.974 56.3712 554.559 56.7297 555.11 57.1212 555.61 57.1316 555.622 57.1386 555.639 57.149 555.652 55.7013 554.78 54.4294 553.616 53.4358 552.231ZM62.8858 557.404C62.844 557.366 62.8005 557.326 62.7588 557.279 62.7153 557.232 62.67 557.185 62.6248 557.129 62.5587 557.047 62.4908 556.95 62.4229 556.849 62.3794 556.783 62.3342 556.722 62.2907 556.649 62.2176 556.527 62.1428 556.386 62.0697 556.243 62.0314 556.168 61.9932 556.102 61.9531 556.022 61.8453 555.794 61.7374 555.546 61.633 555.269 61.6295 555.258 61.6243 555.251 61.6208 555.241 61.5112 554.954 61.405 554.635 61.3024 554.294 61.2693 554.187 61.2397 554.065 61.2084 553.952 61.1388 553.705 61.071 553.454 61.0048 553.183 60.9683 553.033 60.9352 552.868 60.9022 552.709 60.8448 552.448 60.7891 552.182 60.7369 551.898 60.7038 551.714 60.6725 551.517 60.6394 551.324 60.6133 551.164 60.589 550.995 60.5646 550.83 61.0988 550.792 61.6365 550.766 62.1759 550.748 62.4943 550.738 62.811 550.715 63.1294 550.712 64.1073 550.703 65.0817 550.72 66.0126 550.78 66.1709 550.788 66.324 550.804 66.4806 550.814 66.4545 550.987 66.4302 551.162 66.4041 551.329 66.3727 551.521 66.3414 551.716 66.3084 551.897 66.2562 552.182 66.2005 552.448 66.1431 552.711 66.1083 552.869 66.0752 553.033 66.0404 553.183 65.976 553.451 65.9082 553.696 65.8403 553.939 65.8072 554.058 65.7759 554.187 65.7411 554.298 65.6506 554.597 65.5567 554.87 65.4627 555.128 65.4453 555.177 65.4279 555.229 65.4105 555.276 65.3061 555.547 65.2017 555.794 65.0938 556.017 65.0469 556.116 64.9981 556.198 64.9512 556.287 64.8868 556.409 64.8224 556.534 64.758 556.64 64.7041 556.729 64.6501 556.802 64.5979 556.88 64.5405 556.964 64.4831 557.049 64.4257 557.118 64.3735 557.185 64.3213 557.239 64.2691 557.294 64.2291 557.336 64.1908 557.374 64.1508 557.409 63.7332 557.428 63.3069 557.428 62.8858 557.404ZM69.9049 555.631C69.9136 555.62 69.9189 555.606 69.9276 555.596 70.3208 555.095 70.6792 554.542 71.0116 553.955 71.0586 553.873 71.1073 553.793 71.1525 553.71 71.4657 553.132 71.7441 552.516 71.9912 551.871 72.0121 551.817 72.0417 551.771 72.0608 551.718 72.1687 551.747 72.2766 551.777 72.381 551.808 72.7098 551.905 73.0178 552.006 73.3066 552.114 73.4093 552.153 73.5085 552.191 73.6059 552.229 72.6211 553.602 71.3578 554.759 69.9049 555.631ZM74.3315 551.098C74.0357 550.973 73.7138 550.854 73.3745 550.741 73.3066 550.719 73.2318 550.698 73.1622 550.675 72.9378 550.604 72.7168 550.531 72.4749 550.463 72.4975 550.381 72.508 550.292 72.5306 550.211 72.7133 549.539 72.8716 548.857 72.9778 548.152 72.9813 548.128 72.983 548.102 72.9865 548.077 73.0891 547.387 73.1448 546.677 73.1761 545.953 73.1796 545.861 73.197 545.774 73.2005 545.681L75.9045 545.681C75.8035 547.589 75.2659 549.44 74.3315 551.098ZM73.197 544.375C73.1935 544.281 73.1744 544.19 73.1709 544.096 73.1361 543.388 73.077 542.687 72.9708 542.001 72.9673 541.974 72.9656 541.946 72.9604 541.92 72.8473 541.211 72.6837 540.521 72.4941 539.842 72.4714 539.762 72.4627 539.678 72.4401 539.598 72.7986 539.499 73.1379 539.393 73.4598 539.283 73.4789 539.276 73.4946 539.27 73.5137 539.263 73.8008 539.163 74.0775 539.061 74.3332 538.951 75.2694 540.611 75.8053 542.464 75.9045 544.375L73.197 544.375ZM73.6077 537.817C73.5137 537.855 73.4284 537.893 73.3293 537.93 73.0561 538.031 72.7585 538.126 72.4523 538.219 72.3114 538.26 72.1669 538.302 72.019 538.344 71.9164 538.072 71.8102 537.806 71.6971 537.547 71.6971 537.547 71.6971 537.545 71.6971 537.545 71.6971 537.385 71.6432 537.229 71.5284 537.112 71.511 537.095 71.4918 537.079 71.4744 537.063 71.4431 536.999 71.4048 536.943 71.3718 536.879 71.1821 536.499 70.9803 536.134 70.7645 535.786 70.7071 535.692 70.6531 535.596 70.594 535.504 70.3469 535.125 70.0859 534.766 69.811 534.429 69.7762 534.387 69.7483 534.335 69.7118 534.293 71.236 535.174 72.5741 536.376 73.6077 537.817ZM57.3682 534.267C57.3561 534.281 57.3456 534.3 57.3334 534.314 57.0376 534.669 56.761 535.054 56.4948 535.459 56.4356 535.549 56.3782 535.643 56.3208 535.736 56.058 536.16 55.8057 536.599 55.5795 537.07 55.3829 537.479 55.2002 537.907 55.0332 538.349 54.8905 538.309 54.7513 538.269 54.6156 538.229 54.3058 538.135 54.0066 538.039 53.7316 537.938 53.6325 537.902 53.5455 537.862 53.4498 537.824 54.5077 536.348 55.8423 535.142 57.3682 534.267Z"/></g></g></g><path d="M377 162.284C377 155.5 382.5 150 389.284 150L531.716 150C538.5 150 544 155.5 544 162.284L544 273.716C544 280.5 538.5 286 531.716 286L389.284 286C382.5 286 377 280.5 377 273.716Z" fill="#292929" fill-rule="evenodd"/><text fill="#FFFFFF" font-family="Arial,Arial_MSFontService,sans-serif" font-weight="700" font-size="21" transform="translate(417.253 177)">SPOKE<tspan fill="#292929" font-size="21" x="74.5" y="0">_</tspan></text><path d="M405 207.167C405 202.656 408.656 199 413.167 199L445.833 199C450.344 199 454 202.656 454 207.167L454 242.833C454 247.344 450.344 251 445.833 251L413.167 251C408.656 251 405 247.344 405 242.833Z" fill="#1DB14B" fill-rule="evenodd"/><g clip-path="url(#clip7)"><g clip-path="url(#clip8)"><g clip-path="url(#clip9)"><path d="M433.335 214.367C428.023 212.251 422.002 214.843 419.887 220.155 417.771 225.467 420.363 231.488 425.675 233.604 430.987 235.719 437.008 233.127 439.124 227.815 440.781 223.653 439.573 218.896 436.13 216.029L436.13 216.029 427.97 228.392 423.543 222.557" stroke="#FFFFFF" stroke-width="1.02" stroke-linejoin="round" fill="none"/><path d="M439.358 209.532 437.283 209.624 437.283 209.624 432.325 205.819C430.805 204.566 428.619 204.534 427.062 205.743L421.717 209.624 419.642 209.532C415.73 209.338 412.67 208.231 412.67 213.597 412.67 218.962 413.394 227.662 413.394 227.662 413.394 227.662 412.961 234.19 420.534 239.698 427.016 244.441 429.5 246.155 429.5 246.155L429.5 246.155C429.5 246.155 432.009 244.441 438.512 239.698 446.065 234.19 445.652 227.662 445.652 227.662 445.652 227.662 446.33 218.962 446.33 213.597 446.33 208.231 443.27 209.338 439.358 209.517" stroke="#FFFFFF" stroke-width="1.02" stroke-linejoin="round" fill="none"/></g></g></g><text fill="#FFFFFF" font-family="Arial,Arial_MSFontService,sans-serif" font-weight="400" font-size="14" transform="translate(391.707 265)">Micro Proxy</text><g clip-path="url(#clip10)"><g clip-path="url(#clip11)"><g clip-path="url(#clip12)"><path d="M510.32 203.117 521.45 203.117C524.727 203.12 527.386 200.468 527.393 197.191L527.393 181.231C527.386 177.954 524.723 175.302 521.446 175.309 521.444 175.309 521.443 175.309 521.442 175.309L505.402 175.309C502.122 175.3 499.455 177.951 499.446 181.231L499.446 196.141" stroke="#FFFFFF" stroke-width="0.84" stroke-linejoin="round" fill="none"/><path d="M508.724 190.249C508.29 190.71 507.677 190.961 507.044 190.937 506.117 190.977 505.333 190.258 505.294 189.331 505.293 189.316 505.293 189.301 505.293 189.287 505.288 188.384 506.016 187.649 506.918 187.645 506.96 187.644 507.002 187.646 507.044 187.649 507.678 187.61 508.296 187.86 508.724 188.329L508.724 187.43C508.724 186.763 508.182 186.38 507.464 186.38 506.876 186.374 506.315 186.627 505.931 187.073L505.561 186.54C506.076 185.985 506.804 185.679 507.561 185.7 508.619 185.7 509.501 186.17 509.501 187.38L509.501 190.803 508.724 190.803ZM508.724 188.825C508.386 188.417 507.875 188.193 507.346 188.22 506.747 188.136 506.193 188.555 506.109 189.154 506.026 189.754 506.444 190.308 507.044 190.391 507.144 190.405 507.246 190.405 507.346 190.391 507.877 190.415 508.388 190.186 508.724 189.774Z" stroke="#FFFFFF" stroke-width="0.42"/><path d="M510.971 192.71 510.971 185.834 511.748 185.834 511.748 186.578C512.139 186.039 512.763 185.719 513.428 185.713 514.743 185.713 515.654 186.7 515.654 188.321 515.654 189.942 514.743 190.937 513.428 190.937 512.758 190.938 512.13 190.61 511.748 190.06L511.748 192.71ZM513.239 186.41C512.643 186.419 512.088 186.715 511.748 187.204L511.748 189.451C512.093 189.946 512.657 190.243 513.26 190.249 514.264 190.249 514.869 189.409 514.869 188.321 514.869 187.233 514.243 186.401 513.26 186.401Z" stroke="#FFFFFF" stroke-width="0.42"/><path d="M516.834 192.71 516.834 185.834 517.611 185.834 517.611 186.578C518.002 186.039 518.626 185.719 519.291 185.713 520.606 185.713 521.521 186.7 521.521 188.321 521.521 189.942 520.606 190.937 519.291 190.937 518.621 190.938 517.994 190.61 517.611 190.06L517.611 192.71ZM519.102 186.41C518.506 186.419 517.952 186.715 517.611 187.204L517.611 189.451C517.95 189.943 518.505 190.243 519.102 190.257 520.11 190.257 520.711 189.417 520.711 188.329 520.711 187.241 520.11 186.401 519.102 186.401Z" stroke="#FFFFFF" stroke-width="0.42"/><path d="M499.803 205.499 502.987 202.311" stroke="#FFFFFF" stroke-width="0.63" stroke-linejoin="round" fill="none"/><path d="M504.054 204.445 504.054 201.24 500.853 201.24" stroke="#FFFFFF" stroke-width="0.63" stroke-linejoin="round" fill="none"/><path d="M503.52 194.864C499.7 194.863 496.602 197.959 496.6 201.779 496.6 203.32 497.114 204.817 498.06 206.032 496.452 203.76 496.99 200.615 499.261 199.007 501.533 197.398 504.679 197.936 506.287 200.208 507.895 202.48 507.358 205.625 505.086 207.233 503.341 208.469 501.006 208.469 499.261 207.233 502.272 209.585 506.619 209.051 508.971 206.04 511.323 203.029 510.788 198.682 507.777 196.33 506.561 195.381 505.063 194.865 503.52 194.864Z" stroke="#FFFFFF" stroke-width="0.84" stroke-linejoin="round" fill="none"/></g></g></g><g clip-path="url(#clip13)"><g clip-path="url(#clip14)"><g clip-path="url(#clip15)"><path d="M510.32 236.117 521.45 236.117C524.727 236.12 527.386 233.468 527.393 230.191L527.393 214.231C527.386 210.954 524.723 208.302 521.446 208.309 521.444 208.309 521.443 208.309 521.442 208.309L505.402 208.309C502.122 208.3 499.455 210.951 499.446 214.231L499.446 229.141" stroke="#FFFFFF" stroke-width="0.84" stroke-linejoin="round" fill="none"/><path d="M508.724 223.249C508.29 223.71 507.677 223.961 507.044 223.937 506.117 223.977 505.333 223.258 505.294 222.331 505.293 222.316 505.293 222.301 505.293 222.287 505.288 221.384 506.016 220.649 506.918 220.645 506.96 220.644 507.002 220.646 507.044 220.649 507.678 220.61 508.296 220.86 508.724 221.329L508.724 220.43C508.724 219.763 508.182 219.38 507.464 219.38 506.876 219.374 506.315 219.627 505.931 220.073L505.561 219.54C506.076 218.985 506.804 218.679 507.561 218.7 508.619 218.7 509.501 219.17 509.501 220.38L509.501 223.803 508.724 223.803ZM508.724 221.825C508.386 221.417 507.875 221.193 507.346 221.22 506.747 221.136 506.193 221.555 506.109 222.154 506.026 222.754 506.444 223.308 507.044 223.391 507.144 223.405 507.246 223.405 507.346 223.391 507.877 223.415 508.388 223.186 508.724 222.774Z" stroke="#FFFFFF" stroke-width="0.42"/><path d="M510.971 225.71 510.971 218.834 511.748 218.834 511.748 219.578C512.139 219.039 512.763 218.719 513.428 218.713 514.743 218.713 515.654 219.7 515.654 221.321 515.654 222.942 514.743 223.937 513.428 223.937 512.758 223.938 512.13 223.61 511.748 223.06L511.748 225.71ZM513.239 219.41C512.643 219.419 512.088 219.715 511.748 220.204L511.748 222.451C512.093 222.946 512.657 223.243 513.26 223.249 514.264 223.249 514.869 222.409 514.869 221.321 514.869 220.233 514.243 219.401 513.26 219.401Z" stroke="#FFFFFF" stroke-width="0.42"/><path d="M516.834 225.71 516.834 218.834 517.611 218.834 517.611 219.578C518.002 219.039 518.626 218.719 519.291 218.713 520.606 218.713 521.521 219.7 521.521 221.321 521.521 222.942 520.606 223.937 519.291 223.937 518.621 223.938 517.994 223.61 517.611 223.06L517.611 225.71ZM519.102 219.41C518.506 219.419 517.952 219.715 517.611 220.204L517.611 222.451C517.95 222.943 518.505 223.243 519.102 223.257 520.11 223.257 520.711 222.417 520.711 221.329 520.711 220.241 520.11 219.401 519.102 219.401Z" stroke="#FFFFFF" stroke-width="0.42"/><path d="M499.803 238.499 502.987 235.311" stroke="#FFFFFF" stroke-width="0.63" stroke-linejoin="round" fill="none"/><path d="M504.054 237.445 504.054 234.24 500.853 234.24" stroke="#FFFFFF" stroke-width="0.63" stroke-linejoin="round" fill="none"/><path d="M503.52 227.864C499.7 227.863 496.602 230.959 496.6 234.779 496.6 236.32 497.114 237.817 498.06 239.032 496.452 236.76 496.99 233.615 499.261 232.007 501.533 230.398 504.679 230.936 506.287 233.208 507.895 235.48 507.358 238.625 505.086 240.233 503.341 241.469 501.006 241.469 499.261 240.233 502.272 242.585 506.619 242.051 508.971 239.04 511.323 236.029 510.788 231.682 507.777 229.33 506.561 228.381 505.063 227.865 503.52 227.864Z" stroke="#FFFFFF" stroke-width="0.84" stroke-linejoin="round" fill="none"/></g></g></g><g clip-path="url(#clip16)"><g clip-path="url(#clip17)"><g clip-path="url(#clip18)"><path d="M18.86 31.3527 29.725 31.3527C32.9236 31.355 35.5197 28.7662 35.5265 25.5676L35.5265 9.9876C35.5197 6.78804 32.9205 4.19979 29.7209 4.2066 29.7195 4.2066 29.7182 4.2066 29.7168 4.2066L14.0589 4.2066C10.8571 4.19754 8.25416 6.78575 8.2451 9.98756L8.2451 24.5426" stroke="#FFFFFF" stroke-width="0.82" stroke-linejoin="round" fill="none" transform="matrix(1.02439 0 0 1 491 238)"/><path d="M17.302 18.7903C16.8782 19.2409 16.2802 19.4861 15.662 19.4627 14.7571 19.5013 13.9922 18.799 13.9536 17.8941 13.953 17.8799 13.9525 17.8656 13.9523 17.8514 13.9478 16.9706 14.6581 16.2529 15.539 16.2483 15.58 16.2481 15.621 16.2494 15.662 16.2524 16.281 16.2144 16.8839 16.4585 17.302 16.9166L17.302 16.0392C17.302 15.3873 16.7731 15.0142 16.072 15.0142 15.4977 15.0075 14.9499 15.2552 14.5755 15.6907L14.2147 15.17C14.717 14.6286 15.4281 14.3298 16.1663 14.35 17.1995 14.35 18.0605 14.8092 18.0605 15.99L18.0605 19.3315 17.302 19.3315ZM17.302 17.4004C16.9718 17.0027 16.4735 16.7839 15.9572 16.81 15.3718 16.7284 14.8312 17.1368 14.7496 17.7221 14.668 18.3074 15.0764 18.8481 15.6617 18.9297 15.7597 18.9434 15.8592 18.9434 15.9572 18.9297 16.4756 18.9529 16.9743 18.7293 17.302 18.327Z" stroke="#FFFFFF" stroke-width="0.41" transform="matrix(1.02439 0 0 1 491 238)"/><path d="M19.4955 21.1929 19.4955 14.4812 20.254 14.4812 20.254 15.2069C20.636 14.6814 21.2444 14.3681 21.894 14.3623 23.1773 14.3623 24.067 15.3258 24.067 16.9084 24.067 18.491 23.1773 19.4627 21.894 19.4627 21.24 19.4629 20.6273 19.1428 20.254 18.6058L20.254 21.1929ZM21.7095 15.0429C21.128 15.052 20.5863 15.3404 20.254 15.8178L20.254 18.0113C20.591 18.4945 21.141 18.7848 21.73 18.7903 22.7099 18.7903 23.3003 17.9703 23.3003 16.9084 23.3003 15.8465 22.6894 15.0347 21.73 15.0347Z" stroke="#FFFFFF" stroke-width="0.41" transform="matrix(1.02439 0 0 1 491 238)"/><path d="M25.2191 21.1929 25.2191 14.4812 25.9776 14.4812 25.9776 15.2069C26.3596 14.6814 26.968 14.3681 27.6176 14.3623 28.9009 14.3623 29.7947 15.3258 29.7947 16.9084 29.7947 18.491 28.9009 19.4627 27.6176 19.4627 26.9636 19.4629 26.3509 19.1428 25.9776 18.6058L25.9776 21.1929ZM27.4331 15.0429C26.8516 15.052 26.3099 15.3404 25.9776 15.8178L25.9776 18.0113C26.3086 18.4918 26.8498 18.7845 27.4331 18.7985 28.4171 18.7985 29.0034 17.9785 29.0034 16.9166 29.0034 15.8547 28.4171 15.0347 27.4331 15.0347Z" stroke="#FFFFFF" stroke-width="0.41" transform="matrix(1.02439 0 0 1 491 238)"/><path d="M8.5936 33.6774 11.7014 30.5655" stroke="#FFFFFF" stroke-width="0.615" stroke-linejoin="round" fill="none" transform="matrix(1.02439 0 0 1 491 238)"/><path d="M12.7428 32.6483 12.7428 29.52 9.6186 29.52" stroke="#FFFFFF" stroke-width="0.615" stroke-linejoin="round" fill="none" transform="matrix(1.02439 0 0 1 491 238)"/><path d="M12.2221 23.2962C8.4927 23.2948 5.46833 26.3171 5.46698 30.0465 5.46645 31.5504 5.968 33.0116 6.8921 34.1981 5.32201 31.9804 5.84701 28.9098 8.0647 27.3397 10.2824 25.7696 13.353 26.2946 14.9231 28.5123 16.4932 30.73 15.9682 33.8006 13.7505 35.3707 12.0471 36.5767 9.76813 36.5767 8.0647 35.3707 11.0039 37.6663 15.2475 37.1446 17.5431 34.2055 19.8388 31.2664 19.3171 27.0227 16.3779 24.7271 15.191 23.8 13.7282 23.2964 12.2221 23.2962Z" stroke="#FFFFFF" stroke-width="0.82" stroke-linejoin="round" fill="none" transform="matrix(1.02439 0 0 1 491 238)"/></g></g></g><path d="M180 335.283C180 328.499 185.499 323 192.283 323L317.717 323C324.5 323 330 328.499 330 335.283L330 446.717C330 453.5 324.5 459 317.717 459L192.283 459C185.499 459 180 453.5 180 446.717Z" fill="#292929" fill-rule="evenodd"/><text fill="#FFFFFF" font-family="Arial,Arial_MSFontService,sans-serif" font-weight="700" font-size="21" transform="translate(232.112 349)">HUB</text><path d="M231 378C231 373.582 234.582 370 239 370L271 370C275.418 370 279 373.582 279 378L279 415C279 419.418 275.418 423 271 423L239 423C234.582 423 231 419.418 231 415Z" fill="#1D9CD3" fill-rule="evenodd"/><g clip-path="url(#clip19)"><g clip-path="url(#clip20)"><g clip-path="url(#clip21)"><path d="M259.335 385.367C254.023 383.251 248.002 385.843 245.887 391.155 243.771 396.467 246.363 402.488 251.675 404.604 256.987 406.719 263.008 404.127 265.124 398.815 266.781 394.653 265.573 389.896 262.13 387.029L262.13 387.029 253.97 399.392 249.543 393.557" stroke="#FFFFFF" stroke-width="1.02" stroke-linejoin="round" fill="none"/><path d="M265.358 380.532 263.283 380.624 263.283 380.624 258.325 376.819C256.805 375.566 254.619 375.534 253.062 376.743L247.717 380.624 245.642 380.532C241.73 380.338 238.67 379.231 238.67 384.597 238.67 389.962 239.394 398.662 239.394 398.662 239.394 398.662 238.961 405.19 246.534 410.698 253.016 415.441 255.5 417.155 255.5 417.155L255.5 417.155C255.5 417.155 258.009 415.441 264.512 410.698 272.065 405.19 271.652 398.662 271.652 398.662 271.652 398.662 272.33 389.962 272.33 384.597 272.33 379.231 269.27 380.338 265.358 380.517" stroke="#FFFFFF" stroke-width="1.02" stroke-linejoin="round" fill="none"/></g></g></g><path d="M587 335.283C587 328.499 592.5 323 599.283 323L724.717 323C731.5 323 737 328.499 737 335.283L737 446.717C737 453.5 731.5 459 724.717 459L599.283 459C592.5 459 587 453.5 587 446.717Z" fill="#292929" fill-rule="evenodd"/><text fill="#FFFFFF" font-family="Arial,Arial_MSFontService,sans-serif" font-weight="700" font-size="21" transform="translate(639.223 349)">HUB</text><path d="M638 378C638 373.582 641.582 370 646 370L678 370C682.418 370 686 373.582 686 378L686 415C686 419.418 682.418 423 678 423L646 423C641.582 423 638 419.418 638 415Z" fill="#878787" fill-rule="evenodd"/><g clip-path="url(#clip22)"><g clip-path="url(#clip23)"><g clip-path="url(#clip24)"><path d="M666.335 385.367C661.023 383.251 655.002 385.843 652.887 391.155 650.771 396.467 653.363 402.488 658.675 404.604 663.987 406.719 670.008 404.127 672.124 398.815 673.781 394.653 672.573 389.896 669.13 387.029L669.13 387.029 660.97 399.392 656.543 393.557" stroke="#FFFFFF" stroke-width="1.02" stroke-linejoin="round" fill="none"/><path d="M672.358 380.532 670.283 380.624 670.283 380.624 665.325 376.819C663.805 375.566 661.619 375.534 660.062 376.743L654.717 380.624 652.642 380.532C648.73 380.338 645.67 379.231 645.67 384.597 645.67 389.962 646.394 398.662 646.394 398.662 646.394 398.662 645.961 405.19 653.534 410.698 660.016 415.441 662.5 417.155 662.5 417.155L662.5 417.155C662.5 417.155 665.009 415.441 671.512 410.698 679.065 405.19 678.652 398.662 678.652 398.662 678.652 398.662 679.33 389.962 679.33 384.597 679.33 379.231 676.27 380.338 672.358 380.517" stroke="#FFFFFF" stroke-width="1.02" stroke-linejoin="round" fill="none"/></g></g></g><path d="M800.5 281.057C800.5 277.436 803.436 274.5 807.057 274.5L914.943 274.5C918.564 274.5 921.5 277.436 921.5 281.057L921.5 462.943C921.5 466.564 918.564 469.5 914.943 469.5L807.057 469.5C803.436 469.5 800.5 466.564 800.5 462.943Z" stroke="#C6C6C6" stroke-width="1.33333" stroke-miterlimit="8" stroke-dasharray="1.33333 1.33333" fill="#AFAFAF" fill-rule="evenodd"/><text fill="#FFFFFF" font-family="Arial,Arial_MSFontService,sans-serif" font-weight="700" font-size="21" transform="translate(818.385 308)">External<tspan font-size="21" x="-1.7533" y="25">Services</tspan></text><g clip-path="url(#clip25)"><g clip-path="url(#clip26)"><g clip-path="url(#clip27)"><path d="M893.6 434 826.4 434C824 434 822 432 822 429.6L822 362.4C822 360 824 358 826.4 358L893.6 358C896 358 898 360 898 362.4L898 429.6C898 432 896 434 893.6 434Z" stroke="#FFFFFF" stroke-width="2" stroke-miterlimit="10" fill="none"/><path d="M878.5 394.2 878.5 397.9" stroke="#FFFFFF" stroke-width="1.5" stroke-linejoin="round" stroke-miterlimit="10" fill="none"/><path d="M873.5 394.2 873.5 397.9" stroke="#FFFFFF" stroke-width="1.5" stroke-linejoin="round" stroke-miterlimit="10" fill="none"/><path d="M868.4 394.2 868.4 397.9" stroke="#FFFFFF" stroke-width="1.5" stroke-linejoin="round" stroke-miterlimit="10" fill="none"/><path d="M841 394.9C841.5 394.9 841.8 395.3 841.8 395.7 841.8 396.1 841.4 396.5 841 396.5 840.5 396.5 840.2 396.1 840.2 395.7 840.2 395.3 840.6 394.9 841 394.9M841 393.4C839.7 393.4 838.7 394.5 838.7 395.7 838.7 396.9 839.8 398 841 398 842.3 398 843.3 396.9 843.3 395.7 843.3 394.5 842.3 393.4 841 393.4L841 393.4Z" stroke="#FFFFFF"/><path d="M881.9 391.5 838.1 391.5C837.2 391.5 836.4 392.3 836.4 393.2L836.4 398.7C836.4 399.6 837.2 400.4 838.1 400.4L881.9 400.4C882.8 400.4 883.6 399.6 883.6 398.7L883.6 393.2C883.6 392.3 882.8 391.5 881.9 391.5Z" stroke="#FFFFFF" stroke-width="1.5" stroke-miterlimit="10" fill="none"/><path d="M870.7 422.3 870.7 424.4C870.7 427.2 866.1 429.4 860.1 429.4 854.1 429.4 849.4 427.1 849.4 424.4L849.4 420 849.4 418.3C849.4 419.5 850.3 420.3 851.9 421.2 853.9 422.3 856.7 423 860.1 423 863.5 423 866.2 422.3 868.2 421.2 869.8 420.3 870.7 419.2 870.7 418L870.7 416.6 870.7 414.3C870.7 414.9 870.4 415.6 869.9 416.1 868.3 418 864.7 419.3 860 419.3 855.3 419.3 851.6 418 850 416.1 849.5 415.5 849.2 414.9 849.2 414.3L849.2 413.4 849.2 410.3 849.2 409.2C849.2 410.2 849.9 410.7 851 411.5 852.1 412.3 853.7 412.9 855.6 413.3 857 413.6 858.3 413.8 859.9 413.8 861.5 413.8 862.7 413.6 864.1 413.3 866 412.9 867.6 412.3 868.7 411.5 869.8 410.7 870.5 409.8 870.5 408.8 870.5 406 865.9 403.8 859.9 403.8 855.2 403.8 851.5 405.1 849.9 407" stroke="#FFFFFF" stroke-width="1.5" stroke-linejoin="round" stroke-miterlimit="10" fill="none"/><path d="M853 387.4 867 387.4C869.9 387.4 872.2 385.1 872.2 382.2L872.2 368.4C872.2 365.5 869.9 363.2 867 363.2L853 363.2C850.1 363.2 847.8 365.5 847.8 368.4L847.8 382.3C847.9 385.1 850.2 387.4 853 387.4Z" stroke="#FFFFFF" stroke-width="1.5" stroke-linejoin="round" stroke-miterlimit="10" fill="none"/><path d="M852.1 373.4C852.2 372.2 853 371.7 854.1 371.7 855 371.7 855.9 372 855.9 373.3L855.9 375.9C855.9 376.1 856 376.3 856.3 376.3 856.4 376.3 856.4 376.3 856.5 376.3L856.5 376.8C856.4 376.8 856.3 376.8 856.1 376.8 855.5 376.8 855.4 376.5 855.4 375.9L855.4 375.9C855 376.5 854.5 376.9 853.6 376.9 852.7 376.9 851.9 376.4 851.9 375.4 851.9 374 853.3 374 854.6 373.8 855.1 373.7 855.4 373.7 855.4 373.1 855.4 372.3 854.8 372.1 854.1 372.1 853.3 372.1 852.8 372.4 852.8 373.3L852.1 373.3ZM855.3 374.1 855.3 374.1C855.2 374.2 854.9 374.3 854.8 374.3 853.8 374.5 852.5 374.5 852.5 375.4 852.5 376 853 376.4 853.6 376.4 854.5 376.4 855.3 375.8 855.3 374.8L855.3 374.1Z" stroke="#FFFFFF" stroke-width="0.5" stroke-miterlimit="10"/><path d="M857.6 371.8 858.2 371.8 858.2 372.7 858.2 372.7C858.5 372 859.2 371.6 860 371.6 861.5 371.6 862.2 372.8 862.2 374.2 862.2 375.6 861.5 376.8 860 376.8 859.3 376.8 858.5 376.4 858.3 375.7L858.3 375.7 858.3 378.5 857.7 378.5 857.7 371.8ZM860 372.2C858.7 372.2 858.3 373.2 858.3 374.3 858.3 375.3 858.8 376.4 860 376.4 861.2 376.4 861.6 375.3 861.6 374.3 861.6 373.3 861.1 372.2 860 372.2Z" stroke="#FFFFFF" stroke-width="0.5" stroke-miterlimit="10"/><path d="M863.4 371.8 864 371.8 864 372.7 864 372.7C864.3 372 865 371.6 865.8 371.6 867.3 371.6 868 372.8 868 374.2 868 375.6 867.3 376.8 865.8 376.8 865.1 376.8 864.3 376.4 864.1 375.7L864.1 375.7 864.1 378.5 863.5 378.5 863.5 371.8ZM865.7 372.2C864.4 372.2 864 373.2 864 374.3 864 375.3 864.5 376.4 865.7 376.4 866.9 376.4 867.3 375.3 867.3 374.3 867.3 373.3 866.9 372.2 865.7 372.2Z" stroke="#FFFFFF" stroke-width="0.5" stroke-miterlimit="10"/></g></g></g><path d="M107.5 217.833 134.102 217.833 134.102 396.792 133.435 396.126 223.813 396.126 223.813 397.459 132.769 397.459 132.769 218.5 133.435 219.167 107.5 219.167ZM222.48 392.792 230.48 396.792 222.48 400.792Z" fill="#DCDCDC"/><path d="M0-0.666667 26.6007-0.666667 26.6007 154.618 25.9341 153.951 116.313 153.951 116.313 155.285 25.2674 155.285 25.2674 0 25.9341 0.666667 0 0.666667ZM114.98 150.618 122.98 154.618 114.98 158.618Z" fill="#DCDCDC" transform="matrix(1 0 0 -1 107.5 551.118)"/><path d="M0-0.666667 62.4346-0.666667 62.4346 171.286 61.768 170.619 116.869 170.619 116.869 171.952 61.1013 171.952 61.1013 0 61.768 0.666667 0 0.666667ZM115.536 167.286 123.536 171.286 115.536 175.286Z" fill="#DCDCDC" transform="matrix(1 0 0 -1 281.5 396.786)"/><path d="M0-0.666667 18.8321-0.666667 18.8321 33.3407 18.1654 32.674 29.6641 32.674 29.6641 34.0073 17.4987 34.0073 17.4987 0 18.1654 0.666667 0 0.666667ZM28.3308 29.3407 36.3308 33.3407 28.3308 37.3407Z" fill="#DCDCDC" transform="matrix(1 0 0 -1 455.5 225.841)"/><path d="M0-0.666667 18.8321-0.666667 18.8321 0.0616273 18.1655-0.605039 29.6641-0.605039 29.6641 0.728294 17.4988 0.728294 17.4988 0 18.1655 0.666667 0 0.666667ZM28.3308-3.93837 36.3308 0.0616273 28.3308 4.06163Z" fill="#DCDCDC" transform="matrix(1 0 0 -1 455.5 225.562)"/><path d="M455.5 224.833 474.332 224.833 474.332 258.717 473.665 258.051 485.164 258.051 485.164 259.384 472.999 259.384 472.999 225.5 473.665 226.167 455.5 226.167ZM483.831 254.717 491.831 258.717 483.831 262.717Z" fill="#DCDCDC"/><path d="M377 495.284C377 488.5 382.5 483 389.284 483L531.716 483C538.5 483 544 488.5 544 495.284L544 606.716C544 613.5 538.5 619 531.716 619L389.284 619C382.5 619 377 613.5 377 606.716Z" fill="#292929" fill-rule="evenodd"/><text fill="#FFFFFF" font-family="Arial,Arial_MSFontService,sans-serif" font-weight="700" font-size="21" transform="translate(417.253 510)">SPOKE<tspan fill="#292929" font-size="21" x="74.5" y="0">_</tspan></text><g clip-path="url(#clip28)"><g clip-path="url(#clip29)"><g clip-path="url(#clip30)"><path d="M18.86 31.3527 29.725 31.3527C32.9236 31.355 35.5197 28.7662 35.5265 25.5676L35.5265 9.9876C35.5197 6.78804 32.9205 4.19979 29.7209 4.2066 29.7195 4.2066 29.7182 4.2066 29.7168 4.2066L14.0589 4.2066C10.8571 4.19754 8.25416 6.78575 8.2451 9.98756L8.2451 24.5426" stroke="#FFFFFF" stroke-width="0.82" stroke-linejoin="round" fill="none" transform="matrix(1.02439 0 0 1 491 504)"/><path d="M17.302 18.7903C16.8782 19.2409 16.2802 19.4861 15.662 19.4627 14.7571 19.5013 13.9922 18.799 13.9536 17.8941 13.953 17.8799 13.9525 17.8656 13.9523 17.8514 13.9478 16.9706 14.6581 16.2529 15.539 16.2483 15.58 16.2481 15.621 16.2494 15.662 16.2524 16.281 16.2144 16.8839 16.4585 17.302 16.9166L17.302 16.0392C17.302 15.3873 16.7731 15.0142 16.072 15.0142 15.4977 15.0075 14.9499 15.2552 14.5755 15.6907L14.2147 15.17C14.717 14.6286 15.4281 14.3298 16.1663 14.35 17.1995 14.35 18.0605 14.8092 18.0605 15.99L18.0605 19.3315 17.302 19.3315ZM17.302 17.4004C16.9718 17.0027 16.4735 16.7839 15.9572 16.81 15.3718 16.7284 14.8312 17.1368 14.7496 17.7221 14.668 18.3074 15.0764 18.8481 15.6617 18.9297 15.7597 18.9434 15.8592 18.9434 15.9572 18.9297 16.4756 18.9529 16.9743 18.7293 17.302 18.327Z" stroke="#FFFFFF" stroke-width="0.41" transform="matrix(1.02439 0 0 1 491 504)"/><path d="M19.4955 21.1929 19.4955 14.4812 20.254 14.4812 20.254 15.2069C20.636 14.6814 21.2444 14.3681 21.894 14.3623 23.1773 14.3623 24.067 15.3258 24.067 16.9084 24.067 18.491 23.1773 19.4627 21.894 19.4627 21.24 19.4629 20.6273 19.1428 20.254 18.6058L20.254 21.1929ZM21.7095 15.0429C21.128 15.052 20.5863 15.3404 20.254 15.8178L20.254 18.0113C20.591 18.4945 21.141 18.7848 21.73 18.7903 22.7099 18.7903 23.3003 17.9703 23.3003 16.9084 23.3003 15.8465 22.6894 15.0347 21.73 15.0347Z" stroke="#FFFFFF" stroke-width="0.41" transform="matrix(1.02439 0 0 1 491 504)"/><path d="M25.2191 21.1929 25.2191 14.4812 25.9776 14.4812 25.9776 15.2069C26.3596 14.6814 26.968 14.3681 27.6176 14.3623 28.9009 14.3623 29.7947 15.3258 29.7947 16.9084 29.7947 18.491 28.9009 19.4627 27.6176 19.4627 26.9636 19.4629 26.3509 19.1428 25.9776 18.6058L25.9776 21.1929ZM27.4331 15.0429C26.8516 15.052 26.3099 15.3404 25.9776 15.8178L25.9776 18.0113C26.3086 18.4918 26.8498 18.7845 27.4331 18.7985 28.4171 18.7985 29.0034 17.9785 29.0034 16.9166 29.0034 15.8547 28.4171 15.0347 27.4331 15.0347Z" stroke="#FFFFFF" stroke-width="0.41" transform="matrix(1.02439 0 0 1 491 504)"/><path d="M8.5936 33.6774 11.7014 30.5655" stroke="#FFFFFF" stroke-width="0.615" stroke-linejoin="round" fill="none" transform="matrix(1.02439 0 0 1 491 504)"/><path d="M12.7428 32.6483 12.7428 29.52 9.6186 29.52" stroke="#FFFFFF" stroke-width="0.615" stroke-linejoin="round" fill="none" transform="matrix(1.02439 0 0 1 491 504)"/><path d="M12.2221 23.2962C8.4927 23.2948 5.46833 26.3171 5.46698 30.0465 5.46645 31.5504 5.968 33.0116 6.8921 34.1981 5.32201 31.9804 5.84701 28.9098 8.0647 27.3397 10.2824 25.7696 13.353 26.2946 14.9231 28.5123 16.4932 30.73 15.9682 33.8006 13.7505 35.3707 12.0471 36.5767 9.76813 36.5767 8.0647 35.3707 11.0039 37.6663 15.2475 37.1446 17.5431 34.2055 19.8388 31.2664 19.3171 27.0227 16.3779 24.7271 15.191 23.8 13.7282 23.2964 12.2221 23.2962Z" stroke="#FFFFFF" stroke-width="0.82" stroke-linejoin="round" fill="none" transform="matrix(1.02439 0 0 1 491 504)"/></g></g></g><g clip-path="url(#clip31)"><g clip-path="url(#clip32)"><g clip-path="url(#clip33)"><path d="M510.32 569.117 521.45 569.117C524.727 569.12 527.386 566.468 527.393 563.191L527.393 547.231C527.386 543.954 524.723 541.302 521.446 541.309 521.444 541.309 521.443 541.309 521.442 541.309L505.402 541.309C502.122 541.3 499.455 543.951 499.446 547.231L499.446 562.141" stroke="#FFFFFF" stroke-width="0.84" stroke-linejoin="round" fill="none"/><path d="M508.724 556.249C508.29 556.71 507.677 556.961 507.044 556.937 506.117 556.977 505.333 556.258 505.294 555.331 505.293 555.316 505.293 555.301 505.293 555.287 505.288 554.384 506.016 553.649 506.918 553.645 506.96 553.644 507.002 553.646 507.044 553.649 507.678 553.61 508.296 553.86 508.724 554.329L508.724 553.43C508.724 552.763 508.182 552.38 507.464 552.38 506.876 552.374 506.315 552.627 505.931 553.073L505.561 552.54C506.076 551.985 506.804 551.679 507.561 551.7 508.619 551.7 509.501 552.17 509.501 553.38L509.501 556.803 508.724 556.803ZM508.724 554.825C508.386 554.417 507.875 554.193 507.346 554.22 506.747 554.136 506.193 554.555 506.109 555.154 506.026 555.754 506.444 556.308 507.044 556.391 507.144 556.405 507.246 556.405 507.346 556.391 507.877 556.415 508.388 556.186 508.724 555.774Z" stroke="#FFFFFF" stroke-width="0.42"/><path d="M510.971 558.71 510.971 551.834 511.748 551.834 511.748 552.578C512.139 552.039 512.763 551.719 513.428 551.713 514.743 551.713 515.654 552.7 515.654 554.321 515.654 555.942 514.743 556.937 513.428 556.937 512.758 556.938 512.13 556.61 511.748 556.06L511.748 558.71ZM513.239 552.41C512.643 552.419 512.088 552.715 511.748 553.204L511.748 555.451C512.093 555.946 512.657 556.243 513.26 556.249 514.264 556.249 514.869 555.409 514.869 554.321 514.869 553.233 514.243 552.401 513.26 552.401Z" stroke="#FFFFFF" stroke-width="0.42"/><path d="M516.834 558.71 516.834 551.834 517.611 551.834 517.611 552.578C518.002 552.039 518.626 551.719 519.291 551.713 520.606 551.713 521.521 552.7 521.521 554.321 521.521 555.942 520.606 556.937 519.291 556.937 518.621 556.938 517.994 556.61 517.611 556.06L517.611 558.71ZM519.102 552.41C518.506 552.419 517.952 552.715 517.611 553.204L517.611 555.451C517.95 555.943 518.505 556.243 519.102 556.257 520.11 556.257 520.711 555.417 520.711 554.329 520.711 553.241 520.11 552.401 519.102 552.401Z" stroke="#FFFFFF" stroke-width="0.42"/><path d="M499.803 571.499 502.987 568.311" stroke="#FFFFFF" stroke-width="0.63" stroke-linejoin="round" fill="none"/><path d="M504.054 570.445 504.054 567.24 500.853 567.24" stroke="#FFFFFF" stroke-width="0.63" stroke-linejoin="round" fill="none"/><path d="M503.52 560.864C499.7 560.863 496.602 563.959 496.6 567.779 496.6 569.32 497.114 570.817 498.06 572.032 496.452 569.76 496.99 566.615 499.261 565.007 501.533 563.398 504.679 563.936 506.287 566.208 507.895 568.479 507.358 571.625 505.086 573.233 503.341 574.469 501.006 574.469 499.261 573.233 502.272 575.585 506.619 575.051 508.971 572.04 511.323 569.029 510.788 564.682 507.777 562.33 506.561 561.381 505.063 560.865 503.52 560.864Z" stroke="#FFFFFF" stroke-width="0.84" stroke-linejoin="round" fill="none"/></g></g></g><g clip-path="url(#clip34)"><g clip-path="url(#clip35)"><g clip-path="url(#clip36)"><path d="M18.86 31.3527 29.725 31.3527C32.9236 31.355 35.5197 28.7662 35.5265 25.5676L35.5265 9.9876C35.5197 6.78804 32.9205 4.19979 29.7209 4.2066 29.7195 4.2066 29.7182 4.2066 29.7168 4.2066L14.0589 4.2066C10.8571 4.19754 8.25416 6.78575 8.2451 9.98756L8.2451 24.5426" stroke="#FFFFFF" stroke-width="0.82" stroke-linejoin="round" fill="none" transform="matrix(1.02439 0 0 1 491 571)"/><path d="M17.302 18.7903C16.8782 19.2409 16.2802 19.4861 15.662 19.4627 14.7571 19.5013 13.9922 18.799 13.9536 17.8941 13.953 17.8799 13.9525 17.8656 13.9523 17.8514 13.9478 16.9706 14.6581 16.2529 15.539 16.2483 15.58 16.2481 15.621 16.2494 15.662 16.2524 16.281 16.2144 16.8839 16.4585 17.302 16.9166L17.302 16.0392C17.302 15.3873 16.7731 15.0142 16.072 15.0142 15.4977 15.0075 14.9499 15.2552 14.5755 15.6907L14.2147 15.17C14.717 14.6286 15.4281 14.3298 16.1663 14.35 17.1995 14.35 18.0605 14.8092 18.0605 15.99L18.0605 19.3315 17.302 19.3315ZM17.302 17.4004C16.9718 17.0027 16.4735 16.7839 15.9572 16.81 15.3718 16.7284 14.8312 17.1368 14.7496 17.7221 14.668 18.3074 15.0764 18.8481 15.6617 18.9297 15.7597 18.9434 15.8592 18.9434 15.9572 18.9297 16.4756 18.9529 16.9743 18.7293 17.302 18.327Z" stroke="#FFFFFF" stroke-width="0.41" transform="matrix(1.02439 0 0 1 491 571)"/><path d="M19.4955 21.1929 19.4955 14.4812 20.254 14.4812 20.254 15.2069C20.636 14.6814 21.2444 14.3681 21.894 14.3623 23.1773 14.3623 24.067 15.3258 24.067 16.9084 24.067 18.491 23.1773 19.4627 21.894 19.4627 21.24 19.4629 20.6273 19.1428 20.254 18.6058L20.254 21.1929ZM21.7095 15.0429C21.128 15.052 20.5863 15.3404 20.254 15.8178L20.254 18.0113C20.591 18.4945 21.141 18.7848 21.73 18.7903 22.7099 18.7903 23.3003 17.9703 23.3003 16.9084 23.3003 15.8465 22.6894 15.0347 21.73 15.0347Z" stroke="#FFFFFF" stroke-width="0.41" transform="matrix(1.02439 0 0 1 491 571)"/><path d="M25.2191 21.1929 25.2191 14.4812 25.9776 14.4812 25.9776 15.2069C26.3596 14.6814 26.968 14.3681 27.6176 14.3623 28.9009 14.3623 29.7947 15.3258 29.7947 16.9084 29.7947 18.491 28.9009 19.4627 27.6176 19.4627 26.9636 19.4629 26.3509 19.1428 25.9776 18.6058L25.9776 21.1929ZM27.4331 15.0429C26.8516 15.052 26.3099 15.3404 25.9776 15.8178L25.9776 18.0113C26.3086 18.4918 26.8498 18.7845 27.4331 18.7985 28.4171 18.7985 29.0034 17.9785 29.0034 16.9166 29.0034 15.8547 28.4171 15.0347 27.4331 15.0347Z" stroke="#FFFFFF" stroke-width="0.41" transform="matrix(1.02439 0 0 1 491 571)"/><path d="M8.5936 33.6774 11.7014 30.5655" stroke="#FFFFFF" stroke-width="0.615" stroke-linejoin="round" fill="none" transform="matrix(1.02439 0 0 1 491 571)"/><path d="M12.7428 32.6483 12.7428 29.52 9.6186 29.52" stroke="#FFFFFF" stroke-width="0.615" stroke-linejoin="round" fill="none" transform="matrix(1.02439 0 0 1 491 571)"/><path d="M12.2221 23.2962C8.4927 23.2948 5.46833 26.3171 5.46698 30.0465 5.46645 31.5504 5.968 33.0116 6.8921 34.1981 5.32201 31.9804 5.84701 28.9098 8.0647 27.3397 10.2824 25.7696 13.353 26.2946 14.9231 28.5123 16.4932 30.73 15.9682 33.8006 13.7505 35.3707 12.0471 36.5767 9.76813 36.5767 8.0647 35.3707 11.0039 37.6663 15.2475 37.1446 17.5431 34.2055 19.8388 31.2664 19.3171 27.0227 16.3779 24.7271 15.191 23.8 13.7282 23.2964 12.2221 23.2962Z" stroke="#FFFFFF" stroke-width="0.82" stroke-linejoin="round" fill="none" transform="matrix(1.02439 0 0 1 491 571)"/></g></g></g><path d="M0-0.666667 18.8321-0.666667 18.8321 33.3407 18.1654 32.674 29.6641 32.674 29.6641 34.0073 17.4987 34.0073 17.4987 0 18.1654 0.666667 0 0.666667ZM28.3308 29.3407 36.3308 33.3407 28.3308 37.3407Z" fill="#DCDCDC" transform="matrix(1 0 0 -1 455.5 558.841)"/><path d="M-0.001385 0.666665-54.0566 0.666667-53.3899 0-53.3899 0.0616273-54.0566-0.605039 29.6642-0.605039 29.6642 0.728294-54.7233 0.728294-54.7233-0.666667 0.001385-0.666665ZM28.3308-3.93837 36.3308 0.0616273 28.3308 4.06163Z" fill="#DCDCDC" transform="matrix(1 0 0 -1 455.5 558.562)"/><path d="M455.5 557.833 474.332 557.833 474.332 591.717 473.665 591.051 485.164 591.051 485.164 592.384 472.999 592.384 472.999 558.5 473.665 559.167 455.5 559.167ZM483.831 587.717 491.831 591.717 483.831 595.717Z" fill="#DCDCDC"/><path d="M281.5 396.5 343.268 396.5 343.268 558.125 405.036 558.125" stroke="#DCDCDC" stroke-width="1.33333" stroke-miterlimit="8" fill="none" fill-rule="evenodd"/><path d="M0-0.666667 5.33333-0.666667 5.33333 0.666667 0 0.666667ZM9.33333-0.666667 14.6667-0.666667 14.6667 0.666667 9.33333 0.666667ZM18.6667-0.666667 24-0.666667 24 0.666667 18.6667 0.666667ZM28-0.666667 33.3333-0.666667 33.3333 0.666667 28 0.666667ZM37.3333-0.666667 42.6667-0.666667 42.6667 0.666667 37.3333 0.666667ZM46.6667-0.666667 52-0.666667 52 0.666667 46.6667 0.666667ZM56-0.666667 61.3333-0.666667 61.3333 0.666667 56 0.666667ZM65.3333-0.666667 70.6667-0.666667 70.6667 0.666667 65.3333 0.666667ZM74.6667-0.666667 80-0.666667 80 0.666667 74.6667 0.666667ZM84-0.666667 89.3333-0.666667 89.3333 0.666667 84 0.666667ZM93.3333-0.666667 98.6667-0.666667 98.6667 0.666667 93.3333 0.666667ZM102.667-0.666667 108-0.666667 108 0.666667 102.667 0.666667ZM112-0.666667 117.989-0.666667 117.989 0.0106037 116.656 0.0106037 116.656 0 117.323 0.666667 112 0.666667ZM117.989 4.0106 117.989 9.34394 116.656 9.34394 116.656 4.0106ZM117.989 13.3439 117.989 18.6773 116.656 18.6773 116.656 13.3439ZM117.989 22.6773 117.989 28.0106 116.656 28.0106 116.656 22.6773ZM117.989 32.0106 117.989 37.3439 116.656 37.3439 116.656 32.0106ZM117.989 41.3439 117.989 46.6773 116.656 46.6773 116.656 41.3439ZM117.989 50.6773 117.989 56.0106 116.656 56.0106 116.656 50.6773ZM117.989 60.0106 117.989 65.3439 116.656 65.3439 116.656 60.0106ZM117.989 69.3439 117.989 74.6773 116.656 74.6773 116.656 69.3439ZM117.989 78.6773 117.989 84.0106 116.656 84.0106 116.656 78.6773ZM117.989 88.0106 117.989 93.3439 116.656 93.3439 116.656 88.0106ZM117.989 97.3439 117.989 102.677 116.656 102.677 116.656 97.3439ZM117.989 106.677 117.989 112.011 116.656 112.011 116.656 106.677ZM117.989 116.011 117.989 117.829 116.656 117.829 116.656 116.011ZM121.323 116.496 117.323 124.496 113.323 116.496Z" fill="#DCDCDC" transform="matrix(1.83697e-16 1 1 -1.83697e-16 512.5 279.5)"/><path d="M511.833 504.039 511.833 498.705 513.167 498.705 513.167 504.039ZM511.833 494.705 511.833 489.372 513.167 489.372 513.167 494.705ZM511.833 485.372 511.833 480.039 513.167 480.039 513.167 485.372ZM511.833 476.039 511.833 470.705 513.167 470.705 513.167 476.039ZM511.833 466.705 511.833 461.372 513.167 461.372 513.167 466.705ZM511.833 457.372 511.833 452.039 513.167 452.039 513.167 457.372ZM511.833 448.039 511.833 442.705 513.167 442.705 513.167 448.039ZM511.833 438.705 511.833 433.372 513.167 433.372 513.167 438.705ZM511.833 429.372 511.833 424.039 513.167 424.039 513.167 429.372ZM511.833 420.039 511.833 414.705 513.167 414.705 513.167 420.039ZM511.833 410.705 511.833 405.372 513.167 405.372 513.167 410.705ZM511.833 401.372 511.833 395.833 512.961 395.833 512.961 397.167 512.5 397.167 513.167 396.5 513.167 401.372ZM516.961 395.833 522.295 395.833 522.295 397.167 516.961 397.167ZM526.295 395.833 531.628 395.833 531.628 397.167 526.295 397.167ZM535.628 395.833 540.961 395.833 540.961 397.167 535.628 397.167ZM544.961 395.833 550.295 395.833 550.295 397.167 544.961 397.167ZM554.295 395.833 559.628 395.833 559.628 397.167 554.295 397.167ZM563.628 395.833 568.961 395.833 568.961 397.167 563.628 397.167ZM572.961 395.833 578.295 395.833 578.295 397.167 572.961 397.167ZM582.295 395.833 587.628 395.833 587.628 397.167 582.295 397.167ZM591.628 395.833 596.961 395.833 596.961 397.167 591.628 397.167ZM600.961 395.833 606.295 395.833 606.295 397.167 600.961 397.167ZM610.295 395.833 615.628 395.833 615.628 397.167 610.295 397.167ZM619.628 395.833 624.961 395.833 624.961 397.167 619.628 397.167ZM628.961 395.833 630.329 395.833 630.329 397.167 628.961 397.167ZM628.996 392.5 636.996 396.5 628.996 400.5Z" fill="#DCDCDC"/><path d="M0.000267789-0.666667 5.3336-0.664524 5.33307 0.668809-0.000267789 0.666667ZM9.3336-0.662918 14.6669-0.660775 14.6664 0.672558 9.33307 0.670416ZM18.6669-0.659168 24.0003-0.657026 23.9997 0.676307 18.6664 0.674165ZM28.0003-0.655419 33.3336-0.653277 33.3331 0.680056 27.9997 0.677914ZM37.3336-0.65167 42.6669-0.649528 42.6664 0.683805 37.3331 0.681663ZM46.6669-0.647921 52.0003-0.645779 51.9997 0.687554 46.6664 0.685412ZM56.0003-0.644172 61.3336-0.64203 61.3331 0.691303 55.9997 0.689161ZM65.3336-0.640423 70.6669-0.638281 70.6664 0.695052 65.3331 0.69291ZM74.6669-0.636674 80.0003-0.634532 79.9997 0.698801 74.6664 0.696659ZM84.0003-0.632925 89.3336-0.630783 89.3331 0.70255 83.9997 0.700408ZM93.3336-0.629176 98.6669-0.627034 98.6664 0.706299 93.3331 0.704157ZM102.667-0.625427 108-0.623285 108 0.710048 102.666 0.707906ZM112-0.621678 116.176-0.620001 116.175 0.713332 112 0.711655ZM114.844-3.95387 122.842 0.0493438 114.841 4.04613Z" fill="#DCDCDC" transform="matrix(1 0 0 -1 688.5 396.549)"/><g clip-path="url(#clip37)"><g clip-path="url(#clip38)"><g clip-path="url(#clip39)"><path d="M32.977 59.2312C33.7596 60.167 34.9226 60.6999 36.1424 60.6816 37.7888 60.6816 38.759 59.8682 38.759 58.7216 38.759 57.575 37.4164 57.0752 36.0248 56.7028 34.3784 56.301 32.5752 55.8698 32.5752 53.9392 32.5752 52.4202 33.8492 51.1854 36.064 51.1854 37.3922 51.1273 38.6777 51.6623 39.5724 52.6456L38.9844 53.4002C38.2679 52.5212 37.1772 52.034 36.0444 52.087 34.5156 52.087 33.5846 52.8514 33.5846 53.8804 33.5846 54.9094 34.8684 55.3112 36.26 55.664 37.9456 56.0952 39.837 56.5656 39.837 58.6726 39.837 60.2798 38.612 61.6126 36.162 61.6126 34.7135 61.7003 33.3048 61.1188 32.34 60.0348Z" stroke="#373737" stroke-width="0.49" stroke-miterlimit="10" transform="matrix(1 0 0 1.0102 14 51)"/><path d="M48.7452 60.172C47.9035 61.1209 46.6806 61.6424 45.4132 61.593 43.5906 61.6634 42.056 60.2429 41.9856 58.4202 41.984 58.377 41.9832 58.3337 41.9832 58.2904 41.9643 56.4936 43.4056 55.0217 45.2024 55.0028 45.2727 55.002 45.343 55.0036 45.4132 55.0074 46.6791 54.9556 47.9016 55.4733 48.7452 56.4186L48.7452 54.4586C48.7452 52.9788 47.5692 52.185 46.109 52.185 44.9156 52.1602 43.7797 52.6972 43.0416 53.6354L42.4536 52.9004C43.3914 51.7987 44.7807 51.1853 46.2266 51.2344 48.1866 51.2344 49.8036 52.2144 49.8036 54.4194L49.8036 61.3872 48.7452 61.3872ZM48.7452 57.232C48.034 56.3385 46.947 55.8277 45.8052 55.8502 44.4521 55.6787 43.2161 56.6366 43.0446 57.9896 42.8731 59.3428 43.8311 60.5787 45.1842 60.7502 45.3904 60.7764 45.599 60.7764 45.8052 60.7502 46.9429 60.7844 48.0309 60.2839 48.7452 59.3978Z" stroke="#373737" stroke-width="0.49" stroke-miterlimit="10" transform="matrix(1 0 0 1.0102 14 51)"/><path d="M59.3194 60.172C58.4777 61.1209 57.2548 61.6424 55.9874 61.593 54.1648 61.6634 52.6302 60.2429 52.5599 58.4202 52.5582 58.377 52.5574 58.3337 52.5574 58.2904 52.5385 56.4936 53.9798 55.0217 55.7766 55.0028 55.8469 55.002 55.9172 55.0036 55.9874 55.0074 57.2533 54.9556 58.4758 55.4733 59.3194 56.4186L59.3194 54.4586C59.3194 52.9788 58.1434 52.185 56.6832 52.185 55.4898 52.1602 54.3539 52.6972 53.6158 53.6354L53.0278 52.9004C53.9626 51.7669 55.3717 51.1331 56.84 51.1854 58.8 51.1854 60.4072 52.1654 60.4072 54.3704L60.4072 61.3382 59.3194 61.3382ZM59.3194 57.232C58.6063 56.341 57.5205 55.8307 56.3794 55.8502 55.0263 55.7291 53.8312 56.7278 53.7101 58.0809 53.5888 59.434 54.5876 60.6291 55.9407 60.7502 56.0867 60.7632 56.2335 60.7632 56.3794 60.7502 57.5164 60.7814 58.6032 60.2815 59.3194 59.3978Z" stroke="#373737" stroke-width="0.49" stroke-miterlimit="10" transform="matrix(1 0 0 1.0102 14 51)"/><path d="M63.4354 59.2312C64.2267 60.1779 65.4066 60.7119 66.64 60.6816 68.2864 60.6816 69.2566 59.8682 69.2566 58.7216 69.2566 57.575 67.9238 57.0752 66.5224 56.7028 64.876 56.301 63.0728 55.8698 63.0728 53.9392 63.0728 52.4202 64.3468 51.1854 66.5616 51.1854 67.8903 51.1245 69.1768 51.6599 70.07 52.6456L69.482 53.4002C68.7655 52.5212 67.6748 52.034 66.542 52.087 65.023 52.087 64.0822 52.8514 64.0822 53.8804 64.0822 54.9094 65.3268 55.3112 66.64 55.664 68.3256 56.0952 70.217 56.5656 70.217 58.6726 70.217 60.2798 69.0018 61.6126 66.542 61.6126 65.1139 61.6872 63.7282 61.115 62.769 60.0544Z" stroke="#373737" stroke-width="0.49" stroke-miterlimit="10" transform="matrix(1 0 0 1.0102 14 51)"/><path d="M66.395 75.46 20.0116 75.46C13.4923 75.4735 8.19653 70.1997 8.183 63.6804 8.16947 57.1611 13.4433 51.8653 19.9626 51.8518L19.9626 51.8518C19.9029 42.2179 27.6644 34.3598 37.2982 34.3001 37.305 34.3001 37.3116 34.3 37.3184 34.3 39.7877 34.2962 42.2284 34.8278 44.4724 35.8582 48.3184 25.3411 59.9621 19.9332 70.479 23.7793 78.5564 26.7331 83.8914 34.4613 83.79 43.0612 83.7901 44.8673 83.5563 46.6659 83.0942 48.412 89.8767 52.9426 91.7021 62.1137 87.1715 68.8961 84.47 72.9403 79.9507 75.3952 75.0876 75.46L72.1476 75.46" stroke="#373737" stroke-width="2.0188" stroke-linejoin="round" fill="none" transform="matrix(1 0 0 1.0102 14 51)"/></g></g></g><path d="M0.666667-2.85742e-06 0.666743 17.8279-0.66659 17.8279-0.666667 2.85742e-06ZM4.00007 16.4946 0.000104987 24.4946-3.99993 16.4946Z" fill="#DCDCDC" transform="matrix(1 0 0 -1 63.5001 174.995)"/><path d="M947 341.667C947 339.089 949.089 337 951.667 337L970.333 337C972.911 337 975 339.089 975 341.667L975 363.333C975 365.911 972.911 368 970.333 368L951.667 368C949.089 368 947 365.911 947 363.333Z" fill="#1DB14B" fill-rule="evenodd"/><g clip-path="url(#clip40)"><g clip-path="url(#clip41)"><g clip-path="url(#clip42)"><path d="M963.681 346.169C960.66 344.966 957.236 346.44 956.034 349.461 954.831 352.481 956.304 355.905 959.325 357.108 962.346 358.311 965.769 356.837 966.972 353.816 967.915 351.45 967.228 348.745 965.27 347.115L965.27 347.115 960.63 354.144 958.113 350.827" stroke="#FFFFFF" stroke-width="0.58" stroke-linejoin="round" fill="none"/><path d="M967.106 343.42 965.925 343.472 965.925 343.472 963.107 341.309C962.242 340.596 960.999 340.578 960.114 341.265L957.075 343.472 955.894 343.42C953.67 343.31 951.93 342.681 951.93 345.731 951.93 348.782 952.342 353.73 952.342 353.73 952.342 353.73 952.095 357.442 956.402 360.574 960.088 363.271 961.5 364.245 961.5 364.245L961.5 364.245C961.5 364.245 962.927 363.271 966.624 360.574 970.919 357.442 970.684 353.73 970.684 353.73 970.684 353.73 971.07 348.782 971.07 345.731 971.07 342.681 969.33 343.31 967.106 343.411" stroke="#FFFFFF" stroke-width="0.58" stroke-linejoin="round" fill="none"/></g></g></g><path d="M947 105.667C947 103.089 949.089 101 951.667 101L970.333 101C972.911 101 975 103.089 975 105.667L975 126.333C975 128.911 972.911 131 970.333 131L951.667 131C949.089 131 947 128.911 947 126.333Z" fill="#1D9CD3" fill-rule="evenodd"/><g clip-path="url(#clip43)"><g clip-path="url(#clip44)"><g clip-path="url(#clip45)"><path d="M963.681 110.169C960.66 108.966 957.236 110.44 956.034 113.461 954.831 116.481 956.304 119.905 959.325 121.108 962.346 122.311 965.769 120.837 966.972 117.817 967.915 115.45 967.228 112.745 965.27 111.115L965.27 111.115 960.63 118.144 958.113 114.827" stroke="#FFFFFF" stroke-width="0.58" stroke-linejoin="round" fill="none"/><path d="M967.106 107.42 965.925 107.472 965.925 107.472 963.107 105.309C962.242 104.596 960.999 104.578 960.114 105.265L957.075 107.472 955.894 107.42C953.67 107.31 951.93 106.681 951.93 109.731 951.93 112.782 952.342 117.73 952.342 117.73 952.342 117.73 952.095 121.442 956.402 124.574 960.088 127.271 961.5 128.245 961.5 128.245L961.5 128.245C961.5 128.245 962.927 127.271 966.624 124.574 970.919 121.442 970.684 117.73 970.684 117.73 970.684 117.73 971.07 112.782 971.07 109.731 971.07 106.681 969.33 107.31 967.106 107.411" stroke="#FFFFFF" stroke-width="0.58" stroke-linejoin="round" fill="none"/></g></g></g><path d="M461.167 293.167 461.167 483.525 459.833 483.525 459.833 293.167ZM456.5 294.5 460.5 286.5 464.5 294.5Z" fill="#DCDCDC"/><path d="M417 390C417 388.343 418.343 387 420 387L501 387C502.657 387 504 388.343 504 390L504 402C504 403.657 502.657 405 501 405L420 405C418.343 405 417 403.657 417 402Z" fill="#FFFFFF" fill-rule="evenodd"/><text fill="#373737" font-family="Arial,Arial_MSFontService,sans-serif" font-weight="400" font-size="19" transform="translate(438.17 402)">cross</text><path d="M1011 683.167C1011 681.97 1011.97 681 1013.17 681L1041.83 681C1043.03 681 1044 681.97 1044 683.167L1044 691.833C1044 693.03 1043.03 694 1041.83 694L1013.17 694C1011.97 694 1011 693.03 1011 691.833Z" fill="#FFFFFF" fill-rule="evenodd"/><text fill="#16759E" font-family="Arial,Arial_MSFontService,sans-serif" font-weight="400" font-size="12" transform="translate(1013.46 691)">cross<tspan fill="#FFFFFF" font-size="12" x="56.2593" y="0">Cross services flow</tspan><tspan fill="#FFFFFF" font-size="14" x="-794.698" y="-247">Edge Proxy</tspan><tspan fill="#FFFFFF" font-size="14" x="-393.003" y="-247">Egress</tspan><tspan fill="#FFFFFF" font-size="14" x="-345.503" y="-247">Proxy</tspan></text><path d="M1044 686 1051.02 686 1051.02 688 1044 688ZM1049.69 683 1057.69 687 1049.69 691Z" fill="#FFFFFF"/><path d="M1004 687 1010.78 687" stroke="#FFFFFF" stroke-width="2" stroke-miterlimit="8" fill="none" fill-rule="evenodd"/><path d="M148 539 289 539 289 520 327 558 289 596 289 577 148 577Z" fill="#8B5BA5" fill-rule="evenodd"/><text fill="#FFFFFF" font-family="Arial,Arial_MSFontService,sans-serif" font-weight="400" font-size="16" transform="translate(157.289 563)">Web App <tspan font-size="16" x="69" y="0">access</tspan></text><path d="M148 207.75 289.5 207.75 289.5 189 327 226.5 289.5 264 289.5 245.25 148 245.25Z" fill="#1DB14B" fill-rule="evenodd"/><text fill="#FFFFFF" font-family="Arial,Arial_MSFontService,sans-serif" font-weight="400" font-size="16" transform="translate(157.289 232)">AP<tspan font-size="16" x="21.3333" y="0">I</tspan><tspan font-size="16" x="30.3333" y="0">access</tspan></text></g></svg>