<svg xmlns="http://www.w3.org/2000/svg" xmlns:xlink="http://www.w3.org/1999/xlink" viewBox="0 0 1024 533"><defs><style>.cls-1,.cls-12,.cls-15,.cls-16,.cls-18,.cls-2,.cls-21,.cls-23{fill:#fff;}.cls-1,.cls-16,.cls-17,.cls-18,.cls-19,.cls-22,.cls-23,.cls-24,.cls-27,.cls-28,.cls-31,.cls-7,.cls-8{stroke:#00953b;}.cls-1,.cls-12,.cls-19,.cls-2,.cls-27,.cls-28,.cls-3,.cls-4,.cls-7,.cls-8,.cls-9{stroke-miterlimit:10;}.cls-1,.cls-17,.cls-19,.cls-23,.cls-28,.cls-3,.cls-4,.cls-5{stroke-width:2.25px;}.cls-12,.cls-2,.cls-3,.cls-4,.cls-5{stroke:#666;}.cls-16,.cls-18,.cls-2,.cls-22,.cls-27{stroke-width:3px;}.cls-10,.cls-11,.cls-17,.cls-19,.cls-22,.cls-24,.cls-26,.cls-27,.cls-28,.cls-3,.cls-31,.cls-4,.cls-5,.cls-7,.cls-8,.cls-9{fill:none;}.cls-10,.cls-17,.cls-18,.cls-22,.cls-23,.cls-24,.cls-27,.cls-28,.cls-3,.cls-31,.cls-5,.cls-7,.cls-8,.cls-9{stroke-linecap:round;}.cls-10,.cls-11,.cls-16,.cls-17,.cls-18,.cls-21,.cls-22,.cls-23,.cls-24,.cls-31,.cls-5{stroke-linejoin:round;}.cls-6{fill:#e6e6e6;}.cls-7,.cls-8{stroke-width:6px;}.cls-8{stroke-dasharray:0.03529 12.10037;}.cls-10,.cls-11,.cls-9{stroke:#c03c27;}.cls-10,.cls-11,.cls-31,.cls-9{stroke-width:2.5px;}.cls-12{stroke-width:2.77779px;}.cls-13{fill:#666;}.cls-14{fill:#222;}.cls-20{fill:#00953b;}.cls-21{stroke:#fff;stroke-width:2.99941px;}.cls-24{stroke-width:2.00672px;}.cls-25{clip-path:url(#clip-path);}.cls-29{fill:#999;}.cls-30{fill:#009639;}</style><clipPath id="clip-path"><circle class="cls-1" cx="933.74547" cy="100.66736" r="24.44487"/></clipPath></defs><g id="Layer_1" data-name="Layer 1"><circle class="cls-2" cx="89.99999" cy="400.6455" r="50"/><path class="cls-3" d="M83.95742,406.12984c-4.77634-2.91675-8.07769-9.17515-8.07769-16.42559v-9.69334c0-10.5009,7.44471-14.53975,14.136-14.53975h0c6.69137,0,14.136,4.03885,14.136,14.53975v9.69334"/><path class="cls-4" d="M81.938,404.62073v3.25834c0,2.01942,1.00971,5.04856-10.09712,7.068a14.69688,14.69688,0,0,0-11.722,11.10683h59.76233A14.76428,14.76428,0,0,0,108.159,414.94705c-10.8229-2.015-10.09712-5.04856-10.09712-7.068l.0315-3.18243"/><polyline class="cls-5" points="79.919 412.355 90.016 426.054 100.113 412.293"/><path class="cls-5" d="M75.87973,381.62413c12.11654,0,12.11654-8.0777,20.19424-8.0777,7.53144,0,8.07769,7.10444,8.07769,7.10444"/><path class="cls-3" d="M96.07374,406.12984c4.77634-2.91675,8.0777-9.17515,8.0777-16.42559"/><rect class="cls-6" x="683.29359" y="30" width="305.0236" height="473.2907" rx="10"/><line class="cls-7" x1="410.87051" y1="30.07526" x2="410.87051" y2="30.09283"/><line class="cls-8" x1="410.87051" y1="42.19318" x2="410.87051" y2="497.29816"/><line class="cls-7" x1="410.87051" y1="503.34845" x2="410.87051" y2="503.36603"/><line class="cls-9" x1="390.87049" y1="137.79573" x2="150.00002" y2="137.7957"/><polyline class="cls-10" points="375.591 113.844 379.089 95.046 359.966 94.945 363.464 76.147 344.338 76.043 347.831 57.238"/><line class="cls-10" x1="347.77845" y1="57.21175" x2="328.03683" y2="30.07525"/><line class="cls-11" x1="390.87049" y1="137.79573" x2="375.53903" y2="113.7125"/><circle class="cls-12" cx="90.00001" cy="137.7957" r="50.00001"/><path class="cls-13" d="M81.62069,152.156a1.32616,1.32616,0,0,1,2.65232,0v9.10672h11.455V152.156a1.32616,1.32616,0,0,1,2.65232,0v9.10672h27.28851c-1.52549-12.77632-4.14739-16.81406-18.11547-20.09878,3.26712-5.23735,4.11889-8.39273,4.11889-14.16941,0-10.92512-10.23355-27.32432-21.67212-27.32432-11.43778,0-21.67141,16.3992-21.67141,27.32432,0,5.77668.85177,8.93206,4.11888,14.16941-13.968,3.28472-16.58989,7.32246-18.11538,20.09878H81.62069Zm12.60358-27.63285a5.23323,5.23323,0,0,1,2.924-1.1759,4.01373,4.01373,0,0,1,2.73956,1.26515c.37.41486.3814.76243.1907,1.04865a4.23257,4.23257,0,0,1-2.80319,1.3157,5.69916,5.69916,0,0,1-3.1464-1.2777C93.65227,125.31763,93.84287,124.87279,94.22427,124.52312Zm-14.11093.08925a4.01355,4.01355,0,0,1,2.73956-1.26515,5.23324,5.23324,0,0,1,2.9239,1.1759c.38139.34967.57209.79451.09535,1.1759a5.69886,5.69886,0,0,1-3.14632,1.2777,4.23233,4.23233,0,0,1-2.80319-1.3157C79.732,125.3748,79.74328,125.02723,80.11334,124.61237Zm2.33272,5.466a9.55467,9.55467,0,0,0,5.26943-2.28174,4.89368,4.89368,0,0,1,2.28469-1.1759,4.89285,4.89285,0,0,1,2.28549,1.1759,9.55406,9.55406,0,0,0,5.26934,2.28174,10.07888,10.07888,0,0,0,5.85406-1.2648,16.39645,16.39645,0,0,1-3.69932,10.39243c-4.18355,4.99053-7.63073,7.11921-9.70957,7.11921-2.07813,0-5.52523-2.12868-9.70887-7.11921A16.397,16.397,0,0,1,76.592,128.81362,10.07907,10.07907,0,0,0,82.44606,130.07842Z"/><path class="cls-14" d="M905.84473,321.671h-6.32227l-.97949,2.56055h-2.56055l5.24121-13.34278h2.91992l5.24122,13.34278h-2.56055Zm-5.66211-2.06055h5.00195l-2.501-6.74121Z"/><path class="cls-14" d="M910.64258,310.88873h5.86133a4.18437,4.18437,0,1,1,0,8.36133h-3.52149v4.98145h-2.33984Zm5.541,2.06055h-3.20117v4.24023h3.20117a2.12574,2.12574,0,1,0,0-4.24023Z"/><path class="cls-14" d="M922.60254,310.88873h2.33984v13.34278h-2.33984Z"/><path class="cls-14" d="M880.36426,330.669a6.27257,6.27257,0,0,1,5.38086,2.78027l-1.9209,1.08008a4.24783,4.24783,0,0,0-3.46-1.78028,4.83678,4.83678,0,0,0,0,9.66211,4.89242,4.89242,0,0,0,3.16015-1.20019v-2.08106H879.544v-2.05957h6.32128v5.001a7.23829,7.23829,0,0,1-5.501,2.41992,6.91172,6.91172,0,1,1,0-13.82226Z"/><path class="cls-14" d="M893.94336,343.19147a4.07649,4.07649,0,0,1-3.12012,1.28027,3.20966,3.20966,0,0,1-3.36133-3.20117,3.11174,3.11174,0,0,1,3.36133-3.14063,3.993,3.993,0,0,1,3.12012,1.24024v-1.44043c0-1.12012-.91992-1.79981-2.26074-1.79981a3.95818,3.95818,0,0,0-2.86035,1.21973l-.86036-1.46a5.74478,5.74478,0,0,1,4.06153-1.56055c2.13965,0,4.02051.90039,4.02051,3.501v6.40137h-2.10059Zm0-2.6211a2.8283,2.8283,0,0,0-2.30078-1,1.75691,1.75691,0,1,0,0,3.46094,2.82828,2.82828,0,0,0,2.30078-1Z"/><path class="cls-14" d="M898.98242,341.99127v-5.58105h-1.60058V334.5694h1.60058v-2.64063H901.083v2.64063h1.96v1.84082h-1.96v5.06054c0,.66016.31933,1.14063.91992,1.14063a1.35788,1.35788,0,0,0,.94043-.33985l.5,1.58008a2.76912,2.76912,0,0,1-1.98047.62012A2.22811,2.22811,0,0,1,898.98242,341.99127Z"/><path class="cls-14" d="M909.043,334.32916c2.90039,0,4.76074,2.2207,4.76074,5.26172v.5H906.3418a2.927,2.927,0,0,0,3.08105,2.66016,4.085,4.085,0,0,0,2.74024-1.06055l.96093,1.38086a5.63525,5.63525,0,0,1-3.9209,1.40039,5.07274,5.07274,0,0,1-.16015-10.14258Zm-2.7207,4.28125h5.4414a2.58427,2.58427,0,0,0-2.7207-2.56055A2.66456,2.66456,0,0,0,906.32227,338.61041Z"/><path class="cls-14" d="M921.86328,337.15045l-2.24023,7.08106h-2.20117l-3-9.66211h2.17968l2.041,7.02148,2.30078-7.02148h1.83984l2.30078,7.02148,2.04-7.02148h2.18067l-3.001,9.66211h-2.20019Z"/><path class="cls-14" d="M936.46289,343.19147a4.07649,4.07649,0,0,1-3.12012,1.28027,3.20965,3.20965,0,0,1-3.36132-3.20117,3.11174,3.11174,0,0,1,3.36132-3.14063,3.993,3.993,0,0,1,3.12012,1.24024v-1.44043c0-1.12012-.91992-1.79981-2.26074-1.79981a3.95818,3.95818,0,0,0-2.86035,1.21973l-.86035-1.46a5.74474,5.74474,0,0,1,4.06152-1.56055c2.13965,0,4.02051.90039,4.02051,3.501v6.40137h-2.10059Zm0-2.6211a2.8283,2.8283,0,0,0-2.30078-1,1.75691,1.75691,0,1,0,0,3.46094,2.82828,2.82828,0,0,0,2.30078-1Z"/><path class="cls-14" d="M941.78125,346.29205a1.30991,1.30991,0,0,0,1.38086-.83984l.47949-1.10059-3.96094-9.78222h2.24122l2.82031,7.24121,2.82031-7.24121h2.26074l-4.66113,11.40234a3.23517,3.23517,0,0,1-3.32031,2.18066,6.00393,6.00393,0,0,1-1.18067-.13964l.32032-1.88086A2.1998,2.1998,0,0,0,941.78125,346.29205Z"/><path class="cls-14" d="M761.87012,165.92975h-6.32129l-.98047,2.56054h-2.56055L757.249,155.1485h2.9209l5.24121,13.34179h-2.56054ZM756.209,163.8692h5.001l-2.501-6.74023Z"/><path class="cls-14" d="M766.6084,172.17194V158.82819H768.709v1.32031a3.85756,3.85756,0,0,1,3.10059-1.56055c2.5,0,4.28027,1.88086,4.28027,5.0625,0,3.17969-1.78027,5.08008-4.28027,5.08008a3.78944,3.78944,0,0,1-3.10059-1.58008v5.02149Zm4.58105-11.72266a3.13348,3.13348,0,0,0-2.48047,1.30078v3.82031a3.195,3.195,0,0,0,2.48047,1.30078c1.66016,0,2.71973-1.34179,2.71973-3.2207C773.90918,161.78912,772.84961,160.44928,771.18945,160.44928Z"/><path class="cls-14" d="M778.00781,172.17194V158.82819h2.10059v1.32031A3.85892,3.85892,0,0,1,783.209,158.588c2.501,0,4.28125,1.88086,4.28125,5.0625,0,3.17969-1.78027,5.08008-4.28125,5.08008a3.792,3.792,0,0,1-3.10058-1.58008v5.02149Zm4.58106-11.72266a3.13347,3.13347,0,0,0-2.48047,1.30078v3.82031a3.195,3.195,0,0,0,2.48047,1.30078c1.66015,0,2.7207-1.34179,2.7207-3.2207C785.30957,161.78912,784.249,160.44928,782.58887,160.44928Z"/><path class="cls-14" d="M743.42871,184.81061a5.75328,5.75328,0,0,0,4.2207,1.83984c1.91993,0,2.68067-.93945,2.68067-1.82031,0-1.20117-1.41992-1.56055-3.041-1.98047-2.18066-.541-4.74121-1.17969-4.74121-4,0-2.20117,1.94043-3.90234,4.86133-3.90234a6.93821,6.93821,0,0,1,5.001,1.86132l-1.33985,1.74024a5.42258,5.42258,0,0,0-3.86133-1.52149c-1.37988,0-2.25976.66016-2.25976,1.66211,0,1.03907,1.36035,1.37891,2.94043,1.7793,2.20019.56055,4.82129,1.24023,4.82129,4.14063,0,2.2207-1.56055,4.12109-5.16114,4.12109a7.13513,7.13513,0,0,1-5.42187-2.12109Z"/><path class="cls-14" d="M758.90918,178.588c2.90039,0,4.76074,2.2207,4.76074,5.26172v.5H756.208a2.92627,2.92627,0,0,0,3.08105,2.66016,4.08023,4.08023,0,0,0,2.74024-1.06055l.96093,1.38086a5.63522,5.63522,0,0,1-3.92089,1.40039,5.07274,5.07274,0,0,1-.16016-10.14258Zm-2.7207,4.28125h5.4414a2.58427,2.58427,0,0,0-2.7207-2.56055A2.66518,2.66518,0,0,0,756.18848,182.8692Z"/><path class="cls-14" d="M765.54785,178.82819h2.10059v1.41992a4.12548,4.12548,0,0,1,3.14062-1.63867v2.08007a3.02888,3.02888,0,0,0-.66015-.06054,3.3324,3.3324,0,0,0-2.48047,1.28125v6.58007h-2.10059Z"/><path class="cls-14" d="M770.8877,178.82819h2.24023l2.82031,7.24218,2.82129-7.24218h2.25977l-3.94043,9.6621h-2.26075Z"/><path class="cls-14" d="M786.44824,178.588c2.90137,0,4.76172,2.2207,4.76172,5.26172v.5h-7.46191a2.92562,2.92562,0,0,0,3.08105,2.66016,4.08392,4.08392,0,0,0,2.74024-1.06055l.96,1.38086a5.63357,5.63357,0,0,1-3.9209,1.40039,5.07276,5.07276,0,0,1-.16016-10.14258Zm-2.7207,4.28125H789.169a2.58428,2.58428,0,0,0-2.72071-2.56055A2.66652,2.66652,0,0,0,783.72754,182.8692Z"/><path class="cls-14" d="M793.08691,178.82819h2.10059v1.41992a4.1255,4.1255,0,0,1,3.14062-1.63867v2.08007a3.02888,3.02888,0,0,0-.66015-.06054,3.33242,3.33242,0,0,0-2.48047,1.28125v6.58007h-2.10059Z"/><path class="cls-14" d="M723.61133,321.67194h-6.32227l-.97949,2.56054H713.749l5.24121-13.34277h2.91993l5.24121,13.34277h-2.56055Zm-5.66211-2.06055h5.002l-2.501-6.74121Z"/><path class="cls-14" d="M728.34863,327.91315V314.57037h2.10059v1.32032a3.8562,3.8562,0,0,1,3.10058-1.56055c2.501,0,4.28125,1.88086,4.28125,5.06152s-1.78027,5.08106-4.28125,5.08106a3.79465,3.79465,0,0,1-3.10058-1.58008v5.02051Zm4.58106-11.72266a3.13347,3.13347,0,0,0-2.48047,1.30078v3.82031a3.19209,3.19209,0,0,0,2.48047,1.30078c1.66015,0,2.7207-1.34082,2.7207-3.2207C735.65039,317.53131,734.58984,316.19049,732.92969,316.19049Z"/><path class="cls-14" d="M739.749,327.91315V314.57037h2.10059v1.32032a3.85481,3.85481,0,0,1,3.10059-1.56055c2.5,0,4.28027,1.88086,4.28027,5.06152s-1.78027,5.08106-4.28027,5.08106a3.792,3.792,0,0,1-3.10059-1.58008v5.02051Zm4.58106-11.72266a3.13347,3.13347,0,0,0-2.48047,1.30078v3.82031a3.19209,3.19209,0,0,0,2.48047,1.30078c1.66015,0,2.71972-1.34082,2.71972-3.2207C747.0498,317.53131,745.99023,316.19049,744.33008,316.19049Z"/><path class="cls-14" d="M756.14844,310.88971h4.96094c4.16113,0,6.98144,2.76074,6.98144,6.68164s-2.82031,6.66113-6.98144,6.66113h-4.96094Zm4.96094,11.28223a4.38157,4.38157,0,0,0,4.58105-4.60059,4.32314,4.32314,0,0,0-4.58105-4.62109h-2.6211v9.22168Z"/><path class="cls-14" d="M774.38867,314.33014c2.90039,0,4.76074,2.2207,4.76074,5.26172v.5H771.6875a2.927,2.927,0,0,0,3.08105,2.66015,4.085,4.085,0,0,0,2.74024-1.06054l.96094,1.38086a5.63526,5.63526,0,0,1-3.9209,1.40039,5.07274,5.07274,0,0,1-.16016-10.14258Zm-2.7207,4.28125h5.44141a2.58427,2.58427,0,0,0-2.72071-2.56055A2.66455,2.66455,0,0,0,771.668,318.61139Z"/><path class="cls-14" d="M781.02734,310.88971h2.10059v13.34277h-2.10059Z"/><path class="cls-14" d="M785.38672,311.67a1.31107,1.31107,0,0,1,1.30078-1.30078,1.3003,1.3003,0,0,1,0,2.60059A1.31087,1.31087,0,0,1,785.38672,311.67Zm.26074,2.90039h2.10059v9.66211h-2.10059Z"/><path class="cls-14" d="M788.86621,314.57037h2.24121l2.82031,7.24121,2.82032-7.24121h2.26074l-3.94141,9.66211h-2.25976Z"/><path class="cls-14" d="M804.42773,314.33014c2.90137,0,4.76172,2.2207,4.76172,5.26172v.5h-7.46191a2.92631,2.92631,0,0,0,3.08105,2.66015,4.08867,4.08867,0,0,0,2.74024-1.06054l.96,1.38086a5.63357,5.63357,0,0,1-3.9209,1.40039,5.07276,5.07276,0,0,1-.16016-10.14258Zm-2.7207,4.28125h5.44141a2.58427,2.58427,0,0,0-2.72071-2.56055A2.66589,2.66589,0,0,0,801.707,318.61139Z"/><path class="cls-14" d="M811.06641,314.57037H813.167v1.41992a4.12645,4.12645,0,0,1,3.14063-1.63964v2.08007a3.09758,3.09758,0,0,0-.66016-.05957,3.33468,3.33468,0,0,0-2.48047,1.28028v6.58105h-2.10058Z"/><path class="cls-14" d="M818.50586,326.293a1.30992,1.30992,0,0,0,1.38086-.83984l.47949-1.10059-3.96094-9.78223h2.24121l2.82032,7.24121,2.82031-7.24121h2.26074l-4.66113,11.40235a3.23518,3.23518,0,0,1-3.32031,2.18066,6.00386,6.00386,0,0,1-1.18067-.13965l.32031-1.88086A2.19986,2.19986,0,0,0,818.50586,326.293Z"/><path class="cls-14" d="M727.36816,337.57135a6.70608,6.70608,0,0,1,6.90137-6.90137,6.08218,6.08218,0,0,1,5.46094,3l-2,1.02051a4.00176,4.00176,0,0,0-3.46094-1.94043,4.83216,4.83216,0,0,0,0,9.6416,3.95854,3.95854,0,0,0,3.46094-1.94043l2,1.02051a6.10456,6.10456,0,0,1-5.46094,3.001A6.70665,6.70665,0,0,1,727.36816,337.57135Z"/><path class="cls-14" d="M740.74805,339.39166a4.9719,4.9719,0,1,1,4.96093,5.08106A4.83695,4.83695,0,0,1,740.74805,339.39166Zm7.76172,0c0-1.70019-1.001-3.20117-2.80079-3.20117-1.78027,0-2.78125,1.501-2.78125,3.20117,0,1.71973,1.001,3.2207,2.78125,3.2207C747.50879,342.61236,748.50977,341.11139,748.50977,339.39166Z"/><path class="cls-14" d="M759.12988,338.19147c0-1.501-.76074-2.001-1.94043-2.001a3.17849,3.17849,0,0,0-2.48047,1.30078v6.74121H752.6084v-9.66211H754.709v1.32032a4.571,4.571,0,0,1,3.4004-1.56055,2.78451,2.78451,0,0,1,3.12011,3.10058v6.80176h-2.09961Z"/><path class="cls-14" d="M764.168,341.99225v-5.58106h-1.60059v-1.84082H764.168v-2.64062h2.10058v2.64062h1.96v1.84082h-1.96v5.06055c0,.66016.31934,1.14062.91993,1.14062a1.35788,1.35788,0,0,0,.94043-.33984l.5,1.58008a2.76913,2.76913,0,0,1-1.98047.62012A2.22853,2.22853,0,0,1,764.168,341.99225Z"/><path class="cls-14" d="M769.92773,334.57037h2.10059v1.41992a4.12645,4.12645,0,0,1,3.14063-1.63964v2.08007a3.09765,3.09765,0,0,0-.66016-.05957,3.33468,3.33468,0,0,0-2.48047,1.28028v6.58105h-2.10059Z"/><path class="cls-14" d="M776.06738,339.39166a4.9719,4.9719,0,1,1,4.96094,5.08106A4.83695,4.83695,0,0,1,776.06738,339.39166Zm7.76172,0c0-1.70019-1.001-3.20117-2.80078-3.20117-1.78027,0-2.78125,1.501-2.78125,3.20117,0,1.71973,1.001,3.2207,2.78125,3.2207C782.82812,342.61236,783.8291,341.11139,783.8291,339.39166Z"/><path class="cls-14" d="M787.92676,330.88971h2.10058v13.34277h-2.10058Z"/><path class="cls-14" d="M792.54688,330.88971h2.10058v13.34277h-2.10058Z"/><path class="cls-14" d="M801.46777,334.33014c2.90039,0,4.76075,2.2207,4.76075,5.26172v.5H798.7666a2.927,2.927,0,0,0,3.08106,2.66015,4.085,4.085,0,0,0,2.74023-1.06054l.96094,1.38086a5.63526,5.63526,0,0,1-3.9209,1.40039,5.07274,5.07274,0,0,1-.16016-10.14258Zm-2.7207,4.28125h5.44141a2.58427,2.58427,0,0,0-2.72071-2.56055A2.66455,2.66455,0,0,0,798.74707,338.61139Z"/><path class="cls-14" d="M808.10645,334.57037H810.207v1.41992a4.12645,4.12645,0,0,1,3.14063-1.63964v2.08007a3.09758,3.09758,0,0,0-.66016-.05957,3.33468,3.33468,0,0,0-2.48047,1.28028v6.58105h-2.10058Z"/><path class="cls-14" d="M863.916,463.02936l-4.10157,10.10351h-1l-4.08105-10.10351v10.10351h-2.33985V459.78912h3.30079l3.62011,8.98242,3.64063-8.98242h3.30078v13.34375H863.916Z"/><path class="cls-14" d="M868.57227,460.57037a1.31107,1.31107,0,0,1,1.30078-1.30078,1.29981,1.29981,0,1,1-1.30078,1.30078Zm.26074,2.90039h2.10058v9.66211H868.833Z"/><path class="cls-14" d="M877.85352,463.23053a4.33428,4.33428,0,0,1,3.70117,1.7207l-1.38086,1.2793a2.57969,2.57969,0,0,0-2.21973-1.14063,3.22534,3.22534,0,0,0,0,6.42188,2.62635,2.62635,0,0,0,2.21973-1.14063l1.38086,1.28125a4.33426,4.33426,0,0,1-3.70117,1.72071,5.07178,5.07178,0,0,1,0-10.14258Z"/><path class="cls-14" d="M883.19238,463.47076H885.293v1.41993a4.12739,4.12739,0,0,1,3.14062-1.64063v2.08008a3.1687,3.1687,0,0,0-.66015-.0586,3.337,3.337,0,0,0-2.48047,1.2793v6.582h-2.10059Z"/><path class="cls-14" d="M889.332,468.29108a4.9724,4.9724,0,1,1,4.96094,5.082A4.8367,4.8367,0,0,1,889.332,468.29108Zm7.76172,0c0-1.69922-1-3.20118-2.80078-3.20118-1.78027,0-2.78027,1.502-2.78027,3.20118,0,1.7207,1,3.2207,2.78027,3.2207C896.09375,471.51178,897.09375,470.01178,897.09375,468.29108Z"/><path class="cls-14" d="M901.3125,470.35162a4.9817,4.9817,0,0,0,3.28027,1.36133c1.26075,0,1.90039-.46094,1.90039-1.18164,0-.83984-1.0205-1.14062-2.20019-1.40039-1.66016-.35938-3.64063-.79883-3.64063-2.96094,0-1.58008,1.36036-2.93945,3.80078-2.93945a5.53,5.53,0,0,1,3.76075,1.35937l-.88086,1.48047a3.89587,3.89587,0,0,0-2.86035-1.16015c-1.10059,0-1.79981.40039-1.79981,1.08007,0,.74024.96,1,2.09961,1.26172,1.68066.35938,3.74121.83985,3.74121,3.11914,0,1.70118-1.41992,3.002-4.02051,3.002a5.8789,5.8789,0,0,1-4.1416-1.502Z"/><path class="cls-14" d="M914.73242,463.23053c2.90039,0,4.76074,2.2207,4.76074,5.26172v.5h-7.46191a2.92764,2.92764,0,0,0,3.08105,2.66015,4.08978,4.08978,0,0,0,2.74024-1.06054l.96094,1.38086a5.63526,5.63526,0,0,1-3.9209,1.40039,5.07274,5.07274,0,0,1-.16016-10.14258Zm-2.7207,4.28125h5.4414a2.58426,2.58426,0,0,0-2.7207-2.56055A2.66393,2.66393,0,0,0,912.01172,467.51178Z"/><path class="cls-14" d="M921.37109,463.47076h2.10059v1.41993a4.12739,4.12739,0,0,1,3.14062-1.64063v2.08008a3.1687,3.1687,0,0,0-.66015-.0586,3.337,3.337,0,0,0-2.48047,1.2793v6.582h-2.10059Z"/><path class="cls-14" d="M926.71,463.47076h2.24121l2.82031,7.24024,2.82032-7.24024h2.26074l-3.94141,9.66211h-2.25976Z"/><path class="cls-14" d="M937.71,460.57037a1.31108,1.31108,0,0,1,1.30078-1.30078,1.29981,1.29981,0,1,1-1.30078,1.30078Zm.26074,2.90039h2.10059v9.66211H937.9707Z"/><path class="cls-14" d="M946.99121,463.23053a4.33232,4.33232,0,0,1,3.7002,1.7207l-1.37989,1.2793a2.58019,2.58019,0,0,0-2.2207-1.14063,3.22534,3.22534,0,0,0,0,6.42188,2.62683,2.62683,0,0,0,2.2207-1.14063l1.37989,1.28125a4.3323,4.3323,0,0,1-3.7002,1.72071,5.07178,5.07178,0,0,1,0-10.14258Z"/><path class="cls-14" d="M956.63086,463.23053c2.90039,0,4.76074,2.2207,4.76074,5.26172v.5h-7.46191a2.92763,2.92763,0,0,0,3.08105,2.66015,4.08978,4.08978,0,0,0,2.74024-1.06054l.96093,1.38086a5.63524,5.63524,0,0,1-3.92089,1.40039,5.07274,5.07274,0,0,1-.16016-10.14258Zm-2.7207,4.28125h5.4414a2.58426,2.58426,0,0,0-2.7207-2.56055A2.66393,2.66393,0,0,0,953.91016,467.51178Z"/><path class="cls-14" d="M963.38965,470.35162a4.98428,4.98428,0,0,0,3.28125,1.36133c1.25976,0,1.90039-.46094,1.90039-1.18164,0-.83984-1.02051-1.14062-2.20117-1.40039-1.66016-.35938-3.64063-.79883-3.64063-2.96094,0-1.58008,1.36035-2.93945,3.80078-2.93945a5.52625,5.52625,0,0,1,3.76075,1.35937l-.87989,1.48047a3.89586,3.89586,0,0,0-2.86035-1.16015c-1.10058,0-1.80078.40039-1.80078,1.08007,0,.74024.96,1,2.10059,1.26172,1.68066.35938,3.74023.83985,3.74023,3.11914,0,1.70118-1.41992,3.002-4.02051,3.002a5.87476,5.87476,0,0,1-4.14062-1.502Z"/><path class="cls-14" d="M723.22852,466.47076a6.70527,6.70527,0,0,1,6.90136-6.90039,6.07836,6.07836,0,0,1,5.46094,3l-2,1.01953a4.00306,4.00306,0,0,0-3.46094-1.93945,4.83164,4.83164,0,0,0,0,9.64063,3.95777,3.95777,0,0,0,3.46094-1.93946l2,1.01953a6.10327,6.10327,0,0,1-5.46094,3.002A6.70688,6.70688,0,0,1,723.22852,466.47076Z"/><path class="cls-14" d="M736.6084,468.29108a4.97192,4.97192,0,1,1,4.96094,5.082A4.8367,4.8367,0,0,1,736.6084,468.29108Zm7.76172,0c0-1.69922-1.001-3.20118-2.80078-3.20118-1.78028,0-2.78125,1.502-2.78125,3.20118,0,1.7207,1.001,3.2207,2.78125,3.2207C743.36914,471.51178,744.37012,470.01178,744.37012,468.29108Z"/><path class="cls-14" d="M754.99023,467.09186c0-1.502-.76074-2.002-1.94043-2.002a3.17847,3.17847,0,0,0-2.48046,1.30079v6.74218h-2.10059v-9.66211h2.10059v1.32032a4.571,4.571,0,0,1,3.40039-1.56055,2.78382,2.78382,0,0,1,3.12011,3.09961v6.80273h-2.09961Z"/><path class="cls-14" d="M760.02832,470.89264v-5.582h-1.60059v-1.83985h1.60059v-2.64062h2.10059v2.64062h1.96v1.83985h-1.96v5.06054c0,.66016.31933,1.14063.91992,1.14063a1.35792,1.35792,0,0,0,.94043-.33984l.5,1.58007a2.76446,2.76446,0,0,1-1.98047.6211A2.22853,2.22853,0,0,1,760.02832,470.89264Z"/><path class="cls-14" d="M771.68945,472.09186a4.07714,4.07714,0,0,1-3.12011,1.28125,3.20965,3.20965,0,0,1-3.36133-3.20117,3.11116,3.11116,0,0,1,3.36133-3.14063,3.993,3.993,0,0,1,3.12011,1.24023v-1.4414c0-1.11914-.91992-1.79883-2.26074-1.79883a3.961,3.961,0,0,0-2.86035,1.21875l-.86035-1.459a5.74475,5.74475,0,0,1,4.06152-1.56055c2.13965,0,4.02051.90039,4.02051,3.5v6.40234h-2.10059Zm0-2.6211a2.8283,2.8283,0,0,0-2.30078-1,1.75691,1.75691,0,1,0,0,3.46094,2.82828,2.82828,0,0,0,2.30078-1Z"/><path class="cls-14" d="M776.04785,460.57037a1.3003,1.3003,0,1,1,1.29981,1.29883A1.31024,1.31024,0,0,1,776.04785,460.57037Zm.25977,2.90039h2.10058v9.66211h-2.10058Z"/><path class="cls-14" d="M787.44922,467.09186c0-1.502-.76074-2.002-1.94043-2.002a3.17847,3.17847,0,0,0-2.48047,1.30079v6.74218h-2.10059v-9.66211h2.10059v1.32032a4.571,4.571,0,0,1,3.40039-1.56055,2.78382,2.78382,0,0,1,3.12012,3.09961v6.80273h-2.09961Z"/><path class="cls-14" d="M796.36816,463.23053c2.90137,0,4.76172,2.2207,4.76172,5.26172v.5H793.668a2.927,2.927,0,0,0,3.08105,2.66015,4.09347,4.09347,0,0,0,2.74024-1.06054l.96,1.38086a5.63357,5.63357,0,0,1-3.9209,1.40039,5.07276,5.07276,0,0,1-.16016-10.14258Zm-2.7207,4.28125h5.44141a2.58427,2.58427,0,0,0-2.72071-2.56055A2.66527,2.66527,0,0,0,793.64746,467.51178Z"/><path class="cls-14" d="M803.00684,463.47076h2.10058v1.41993a4.1274,4.1274,0,0,1,3.14063-1.64063v2.08008a3.1688,3.1688,0,0,0-.66016-.0586,3.337,3.337,0,0,0-2.48047,1.2793v6.582h-2.10058Z"/><path class="cls-14" d="M809.86719,470.35162a4.98428,4.98428,0,0,0,3.28125,1.36133c1.25976,0,1.90039-.46094,1.90039-1.18164,0-.83984-1.02051-1.14062-2.20117-1.40039-1.66016-.35938-3.64063-.79883-3.64063-2.96094,0-1.58008,1.36035-2.93945,3.80078-2.93945a5.52621,5.52621,0,0,1,3.76074,1.35937l-.87988,1.48047a3.89586,3.89586,0,0,0-2.86035-1.16015c-1.10059,0-1.80078.40039-1.80078,1.08007,0,.74024.96,1,2.10058,1.26172,1.68067.35938,3.74024.83985,3.74024,3.11914,0,1.70118-1.41992,3.002-4.02051,3.002a5.87476,5.87476,0,0,1-4.14062-1.502Z"/><path class="cls-14" d="M900.374,158.6485l-2.58105,9.84179h-2.5l-3.82129-13.34375h2.62109l2.60059,10.28321,2.75976-10.28321h1.86036l2.76074,10.28321,2.58105-10.28321h2.62012l-3.80078,13.34375h-2.5Z"/><path class="cls-14" d="M914.07324,158.588c2.90039,0,4.76074,2.2207,4.76074,5.26172v.5h-7.46191a2.92765,2.92765,0,0,0,3.08105,2.66016,4.08974,4.08974,0,0,0,2.74024-1.06055l.96094,1.38086a5.63526,5.63526,0,0,1-3.9209,1.40039,5.07274,5.07274,0,0,1-.16016-10.14258Zm-2.7207,4.28125H916.794a2.58428,2.58428,0,0,0-2.72071-2.56055A2.66393,2.66393,0,0,0,911.35254,162.8692Z"/><path class="cls-14" d="M920.71191,155.14654h2.10059V160.168a3.82228,3.82228,0,0,1,3.10059-1.58008c2.48046,0,4.28125,1.96094,4.28125,5.08008,0,3.18164-1.82032,5.0625-4.28125,5.0625A3.88833,3.88833,0,0,1,922.8125,167.17v1.32031h-2.10059ZM925.293,166.8692c1.68066,0,2.74023-1.32031,2.74023-3.20117,0-1.87891-1.05957-3.2207-2.74023-3.2207a3.15615,3.15615,0,0,0-2.48047,1.32031v3.82226A3.12042,3.12042,0,0,0,925.293,166.8692Z"/><path class="cls-14" d="M884.47266,184.80865a5.75329,5.75329,0,0,0,4.2207,1.83985c1.9209,0,2.68066-.93946,2.68066-1.82031,0-1.19922-1.41992-1.5586-3.041-1.98047-2.18067-.53907-4.74121-1.17969-4.74121-4,0-2.20118,1.94043-3.90039,4.86132-3.90039a6.9452,6.9452,0,0,1,5.001,1.85937l-1.33984,1.74024a5.429,5.429,0,0,0-3.86133-1.51954c-1.37988,0-2.25977.66016-2.25977,1.66016,0,1.041,1.36036,1.38086,2.94043,1.78125,2.2002.55859,4.82129,1.24023,4.82129,4.14063,0,2.2207-1.56054,4.12109-5.16113,4.12109a7.14221,7.14221,0,0,1-5.42187-2.12109Z"/><path class="cls-14" d="M899.95312,178.588c2.9004,0,4.76075,2.2207,4.76075,5.26172v.5H897.252a2.92766,2.92766,0,0,0,3.08106,2.66016,4.08971,4.08971,0,0,0,2.74023-1.06055l.96094,1.38086a5.63526,5.63526,0,0,1-3.9209,1.40039,5.07274,5.07274,0,0,1-.16016-10.14258Zm-2.7207,4.28125h5.44141a2.58427,2.58427,0,0,0-2.72071-2.56055A2.66393,2.66393,0,0,0,897.23242,182.8692Z"/><path class="cls-14" d="M906.5918,178.82819h2.10058v1.41992a4.12743,4.12743,0,0,1,3.14063-1.64063v2.08008a3.16887,3.16887,0,0,0-.66016-.05859,3.337,3.337,0,0,0-2.48047,1.27929v6.582H906.5918Z"/><path class="cls-14" d="M911.93066,178.82819h2.24122l2.82031,7.24023,2.82031-7.24023h2.26074l-3.9414,9.6621h-2.25977Z"/><path class="cls-14" d="M927.49219,178.588c2.90039,0,4.76074,2.2207,4.76074,5.26172v.5H924.791a2.92764,2.92764,0,0,0,3.08105,2.66016,4.0897,4.0897,0,0,0,2.74023-1.06055l.96094,1.38086a5.63526,5.63526,0,0,1-3.9209,1.40039,5.07274,5.07274,0,0,1-.16015-10.14258Zm-2.72071,4.28125h5.44141a2.58427,2.58427,0,0,0-2.7207-2.56055A2.66394,2.66394,0,0,0,924.77148,182.8692Z"/><path class="cls-14" d="M934.13086,178.82819h2.10059v1.41992a4.12581,4.12581,0,0,1,3.14062-1.64063v2.08008a3.17536,3.17536,0,0,0-.66016-.05859,3.33527,3.33527,0,0,0-2.48046,1.27929v6.582h-2.10059Z"/><polygon class="cls-15" points="769.405 137.06 789.457 125.451 785.743 76.045 785.74 61.104 765.176 124.101 769.405 137.06"/><rect class="cls-16" x="719.44909" y="73.75454" width="40.85766" height="66.39598"/><polygon class="cls-16" points="783.898 60.151 743.04 60.151 719.449 73.755 760.307 73.755 783.898 60.151"/><line class="cls-17" x1="729.76516" y1="110.00002" x2="749.99054" y2="110.00002"/><line class="cls-17" x1="729.76516" y1="119.14584" x2="749.99054" y2="119.14584"/><line class="cls-17" x1="729.76516" y1="128.2917" x2="749.99054" y2="128.2917"/><polyline class="cls-18" points="783.898 68.668 783.898 60.151 760.307 73.755 760.307 140.151 774.32 132.07"/><rect class="cls-1" x="770.61704" y="75.58336" width="50.16796" height="50.16795" rx="8.01465"/><line class="cls-19" x1="770.61704" y1="89.05603" x2="820.785" y2="89.05603"/><circle class="cls-20" cx="780.27836" cy="82.3196" r="1.8813"/><circle class="cls-20" cx="791.44649" cy="82.3196" r="1.8813"/><circle class="cls-20" cx="785.86242" cy="82.3196" r="1.8813"/><path class="cls-20" d="M730.46432,96.8736a1.0981,1.0981,0,0,0,.41256.40941l8.44,4.87283.00026-.00027a1.10747,1.10747,0,0,0,1.12178,0l8.44025-4.87283a1.10681,1.10681,0,0,0,.56063-.97108V86.566l-.00026-.00026a1.10717,1.10717,0,0,0-.56089-.97135l-8.44025-4.87283v-.00027a1.106,1.106,0,0,0-1.121,0v.00027l-8.44,4.87283a1.10665,1.10665,0,0,0-.56115.97135l-.00027.00026v9.74566a1.10037,1.10037,0,0,0,.14806.56194"/><path class="cls-15" d="M738.24453,94.62185a1.50554,1.50554,0,0,0,1.154.51637.88355.88355,0,0,0,.96251-.82281v-5.8359a.82573.82573,0,0,0-.82319-.82356h-.024a.84857.84857,0,0,0-.84572.84609l-.00037,4.1486a.02224.02224,0,0,1-.03944.01427l-3.75353-4.49259a1.50719,1.50719,0,0,0-1.15441-.516.88322.88322,0,0,0-.96139.82319l-.00075,5.8359a.82558.82558,0,0,0,.82281.82319h.02441a.84818.84818,0,0,0,.84535-.84572v-4.149a.02288.02288,0,0,1,.04018-.01428Z"/><path class="cls-15" d="M746.8801,90.90009h-1.73463a.01987.01987,0,0,1-.0199-.02028V89.14557a.73043.73043,0,1,0-1.46086,0v1.66064a.09447.09447,0,0,1-.09426.09388H741.8362a.73043.73043,0,0,0-.00037,1.46086h1.809a.01979.01979,0,0,1,.0199.0199v1.73462a.73043.73043,0,1,0,1.46086,0V92.45483a.09392.09392,0,0,1,.09388-.09388h1.66065a.73043.73043,0,0,0,0-1.46086"/><rect class="cls-21" x="893.11824" y="219.76546" width="35.75987" height="76.5533"/><polyline class="cls-22" points="928.878 266.573 928.878 296.319 893.118 296.319 893.118 290.556"/><polyline class="cls-22" points="893.118 226.328 893.118 219.765 928.878 219.765 928.878 249.645"/><polyline class="cls-17" points="881.403 243.617 866.531 258.489 881.403 273.361"/><line class="cls-17" x1="867.80933" y1="258.4891" x2="948.10163" y2="258.4891"/><polyline class="cls-17" points="940.92 249.479 955.792 234.607 940.92 219.735"/><line class="cls-17" x1="954.51365" y1="234.60727" x2="876.89359" y2="234.60727"/><polyline class="cls-17" points="940.92 297.18 955.792 282.308 940.92 267.436"/><line class="cls-17" x1="954.51365" y1="282.3076" x2="876.89359" y2="282.3076"/><line class="cls-22" x1="893.11824" y1="273.79222" x2="893.11824" y2="243.62502"/><polyline class="cls-23" points="726.848 417.263 756.258 403.842 784.82 403.842 784.82 432.405 755.41 445.825"/><line class="cls-23" x1="755.41028" y1="417.26295" x2="784.82007" y2="403.84249"/><rect class="cls-23" x="726.84808" y="417.26295" width="28.5622" height="28.5622"/><polyline class="cls-23" points="726.848 388.701 756.258 375.28 784.82 375.28 784.82 403.842 755.41 417.263"/><line class="cls-23" x1="755.41028" y1="388.70075" x2="784.82007" y2="375.28029"/><rect class="cls-23" x="726.84808" y="388.70075" width="28.5622" height="28.5622"/><polyline class="cls-23" points="755.414 417.272 784.824 403.852 813.386 403.852 813.386 432.414 783.976 445.835"/><line class="cls-24" x1="788.22005" y1="420.88476" x2="788.22005" y2="438.88791"/><line class="cls-24" x1="792.33142" y1="418.98684" x2="792.33142" y2="436.98999"/><line class="cls-24" x1="796.44279" y1="417.12506" x2="796.44279" y2="435.12821"/><line class="cls-24" x1="800.55416" y1="415.25425" x2="800.55416" y2="433.25741"/><line class="cls-24" x1="804.66553" y1="413.37441" x2="804.66553" y2="431.37756"/><line class="cls-24" x1="808.7769" y1="411.49927" x2="808.7769" y2="429.50242"/><line class="cls-23" x1="783.97621" y1="417.27247" x2="813.386" y2="403.85201"/><rect class="cls-23" x="755.41401" y="417.27247" width="28.5622" height="28.5622"/><polyline class="cls-23" points="755.414 388.701 784.824 375.28 813.386 375.28 813.386 403.842 783.976 417.263"/><line class="cls-24" x1="788.22005" y1="392.31304" x2="788.22005" y2="410.31619"/><line class="cls-24" x1="792.33142" y1="390.41511" x2="792.33142" y2="408.41826"/><line class="cls-24" x1="796.44279" y1="388.55334" x2="796.44279" y2="406.55649"/><line class="cls-24" x1="800.55416" y1="386.68253" x2="800.55416" y2="404.68568"/><line class="cls-24" x1="804.66553" y1="384.80268" x2="804.66553" y2="402.80584"/><line class="cls-24" x1="808.7769" y1="382.92755" x2="808.7769" y2="400.9307"/><line class="cls-23" x1="783.97621" y1="388.70075" x2="813.386" y2="375.28029"/><rect class="cls-23" x="755.41401" y="388.70075" width="28.5622" height="28.5622"/><rect class="cls-18" x="938.99137" y="428.43275" width="16.36019" height="16.36019" rx="3.94222" transform="translate(510.55862 1383.78431) rotate(-90)"/><rect class="cls-18" x="938.99137" y="402.37738" width="16.36019" height="16.36019" rx="3.94222" transform="translate(536.61399 1357.72894) rotate(-90)"/><rect class="cls-18" x="938.99137" y="376.32201" width="16.36019" height="16.36019" rx="3.94222" transform="translate(562.66935 1331.67357) rotate(-90)"/><line class="cls-17" x1="924.60228" y1="410.55748" x2="938.99137" y2="410.55748"/><line class="cls-17" x1="923.83583" y1="417.3271" x2="940.17559" y2="429.77107"/><line class="cls-17" x1="923.83583" y1="403.78786" x2="940.17559" y2="391.34388"/><rect class="cls-15" x="866.97142" y="382.22366" width="56.66763" height="56.66763" rx="5.35125"/><rect class="cls-22" x="866.97142" y="382.22366" width="56.66763" height="56.66763" rx="5.35125"/><line class="cls-17" x1="871.44872" y1="128.29166" x2="891.6741" y2="128.29166"/><polygon class="cls-15" points="911.089 137.06 931.141 125.451 927.427 76.045 927.423 61.104 906.859 124.101 911.089 137.06"/><rect class="cls-16" x="861.13264" y="73.75453" width="40.85766" height="66.39599"/><polygon class="cls-16" points="925.582 60.151 884.724 60.151 861.133 73.755 901.99 73.755 925.582 60.151"/><line class="cls-17" x1="871.44872" y1="110.00002" x2="891.6741" y2="110.00002"/><line class="cls-17" x1="871.44872" y1="119.14584" x2="891.6741" y2="119.14584"/><line class="cls-17" x1="871.44872" y1="128.2917" x2="891.6741" y2="128.2917"/><polyline class="cls-18" points="925.582 68.668 925.582 60.151 901.99 73.755 901.99 140.151 916.004 132.07"/><path class="cls-20" d="M872.14787,96.8736a1.09819,1.09819,0,0,0,.41257.40941l8.44,4.87283.00027-.00027a1.10747,1.10747,0,0,0,1.12178,0l8.44025-4.87283a1.10681,1.10681,0,0,0,.56063-.97108V86.566l-.00027-.00026a1.10714,1.10714,0,0,0-.56089-.97136l-8.44025-4.87282v-.00027a1.106,1.106,0,0,0-1.121,0v.00027l-8.44,4.87282a1.10671,1.10671,0,0,0-.56116.97136l-.00026.00026v9.74566a1.10027,1.10027,0,0,0,.14806.56194"/><path class="cls-15" d="M879.92809,94.62185a1.50551,1.50551,0,0,0,1.154.51637.88355.88355,0,0,0,.96252-.82281v-5.8359a.82573.82573,0,0,0-.82319-.82356h-.024a.84857.84857,0,0,0-.84572.84609l-.00038,4.1486a.02223.02223,0,0,1-.03943.01427l-3.75353-4.4926a1.5072,1.5072,0,0,0-1.15441-.516.88321.88321,0,0,0-.96139.82319l-.00075,5.8359a.82557.82557,0,0,0,.82281.82319h.02441a.84817.84817,0,0,0,.84534-.84572v-4.149a.02289.02289,0,0,1,.04019-.01427Z"/><path class="cls-15" d="M888.56365,90.90009H886.829a.01988.01988,0,0,1-.01991-.02028V89.14557a.73043.73043,0,1,0-1.46085,0v1.66064a.09448.09448,0,0,1-.09426.09388h-1.73425a.73043.73043,0,0,0-.00038,1.46086h1.809a.01979.01979,0,0,1,.0199.0199v1.73462a.73043.73043,0,1,0,1.46085,0V92.45483a.09392.09392,0,0,1,.09389-.09388h1.66064a.73043.73043,0,1,0,0-1.46086"/><circle class="cls-15" cx="933.74547" cy="100.66736" r="24.44487"/><g class="cls-25"><path class="cls-19" d="M930.65489,76.33031s-17.98013,20.28915,0,48.6742"/><path class="cls-19" d="M936.83614,76.33031s17.98013,20.28915,0,48.6742"/></g><circle class="cls-19" cx="933.74547" cy="100.66736" r="24.44487"/><line class="cls-19" x1="912.17056" y1="89.16536" x2="955.3172" y2="89.16536"/><line class="cls-19" x1="912.17056" y1="112.16717" x2="955.3172" y2="112.16717"/><line class="cls-19" x1="909.30059" y1="100.66627" x2="958.19034" y2="100.66627"/><rect class="cls-26" x="753.28729" y="244.79826" width="52.17461" height="52.17461"/><path class="cls-15" d="M796.70569,243.4554h1.47053a8.76429,8.76429,0,0,1,8.76428,8.76429v37.33175a8.76429,8.76429,0,0,1-8.76428,8.76429H760.84446c-3.69453,0-7.411-.85063-8.70033-4.08534l-.86659-1.38851-.33477-26.7501-19.6037.01382V227.36347a8.76429,8.76429,0,0,1,8.76428-8.76429h37.33176a8.76429,8.76429,0,0,1,8.76428,8.76429v3.66384h1.742a8.76428,8.76428,0,0,1,8.76428,8.76428Z"/><path class="cls-27" d="M731.20333,264.69522V227.36347a8.76429,8.76429,0,0,1,8.76428-8.76429h37.33176a8.76429,8.76429,0,0,1,8.76428,8.76429v3.6638"/><line class="cls-19" x1="744.27921" y1="233.33199" x2="731.20333" y2="233.33199"/><circle class="cls-20" cx="753.98102" cy="225.96548" r="2.05726"/><circle class="cls-20" cx="741.7683" cy="225.96548" r="2.05726"/><circle class="cls-20" cx="747.87466" cy="225.96548" r="2.05726"/><path class="cls-27" d="M741.70962,264.69538V239.79159a8.76429,8.76429,0,0,1,8.76429-8.76428h37.33175a8.76429,8.76429,0,0,1,8.76429,8.76428v3.66381"/><line class="cls-19" x1="754.78551" y1="245.76012" x2="741.70962" y2="245.76012"/><circle class="cls-20" cx="764.48732" cy="238.39361" r="2.05726"/><circle class="cls-20" cx="752.2746" cy="238.39361" r="2.05726"/><circle class="cls-20" cx="758.38096" cy="238.39361" r="2.05726"/><path class="cls-27" d="M751.94443,265.33675V252.21969a8.76429,8.76429,0,0,1,8.76429-8.76429h37.33175a8.76429,8.76429,0,0,1,8.76429,8.76429v37.33175a8.76429,8.76429,0,0,1-8.76429,8.76429H760.70872a8.76727,8.76727,0,0,1-8.1445-5.52072"/><line class="cls-19" x1="806.80476" y1="258.18821" x2="751.94443" y2="258.18821"/><circle class="cls-20" cx="774.72213" cy="250.8217" r="2.05726"/><circle class="cls-20" cx="762.50941" cy="250.8217" r="2.05726"/><circle class="cls-20" cx="768.61577" cy="250.8217" r="2.05726"/><line class="cls-28" x1="713.15784" y1="270.1548" x2="760.7172" y2="270.1548"/><line class="cls-28" x1="719.00637" y1="278.46054" x2="766.56572" y2="278.46054"/><line class="cls-28" x1="724.8549" y1="286.94651" x2="772.41425" y2="286.94651"/><path class="cls-29" d="M458.02873,315.57767h.76557v-1.70515h.60558a1.72781,1.72781,0,0,1,.85063.142,1.06529,1.06529,0,0,1,.40425.99188v.34961l.01716.13033a.26426.26426,0,0,1,.01171.05463c.0039.02107.00546.02731.01716.03667h.70939l-.02576-.04838a.49766.49766,0,0,1-.03434-.22163c-.01015-.12252-.01015-.2271-.01015-.32386v-.32309a1.2365,1.2365,0,0,0-.23724-.67581,1.10214,1.10214,0,0,0-.75542-.42454,1.86485,1.86485,0,0,0,.62978-.20446.94457.94457,0,0,0,.423-.85843,1.06681,1.06681,0,0,0-.66958-1.10114,3.33185,3.33185,0,0,0-1.187-.15529h-1.51474Zm2.17729-2.33805a1.98034,1.98034,0,0,1-.7281.09677h-.68362v-1.57873h.65241a1.92586,1.92586,0,0,1,.92008.16934.65688.65688,0,0,1,.288.6329.66811.66811,0,0,1-.44874.67972m2.22335-2.60651a3.84655,3.84655,0,0,0-2.81176-1.14952,3.955,3.955,0,0,0,0,7.91006,3.96209,3.96209,0,0,0,2.81176-6.76054m-.4019.39254a3.23936,3.23936,0,0,1,.99265,2.406,3.39873,3.39873,0,0,1-5.80924,2.41765,3.35522,3.35522,0,0,1-.988-2.41765,3.41044,3.41044,0,0,1,3.3947-3.41578,3.24327,3.24327,0,0,1,2.40986,1.00983"/><path class="cls-30" d="M358.90808,296.72241a6.06171,6.06171,0,0,0,2.27735,2.2599L407.77368,325.88l.00146-.00145a6.1132,6.1132,0,0,0,6.19218,0l46.5897-26.89773a6.10948,6.10948,0,0,0,3.09464-5.36035V239.82505l-.00146-.00146a6.11143,6.11143,0,0,0-3.09608-5.3618l-46.58971-26.89773v-.00145a6.10519,6.10519,0,0,0-6.18782,0v.00145l-46.58825,26.89773a6.10882,6.10882,0,0,0-3.09754,5.3618l-.00146.00146v53.79546a6.07383,6.07383,0,0,0,.81729,3.1019"/><path class="cls-15" d="M410.87666,291.56618c17.56355-9.58157,23.191-20.25674,21.64717-43.87a1.40741,1.40741,0,0,0-1.4203-1.31273c-8.223.07569-14.50781-1.63146-19.56951-4.34258a1.38582,1.38582,0,0,0-1.31473,0c-5.06169,2.71112-11.34649,4.41827-19.5695,4.34258a1.40607,1.40607,0,0,0-1.4203,1.31273c-1.54381,23.61328,4.08361,34.28845,21.64717,43.87"/><line class="cls-31" x1="673.29359" y1="400.6455" x2="149.99999" y2="400.6455"/><line class="cls-31" x1="673.29359" y1="400.6455" x2="667.66224" y2="406.27685"/><line class="cls-31" x1="673.29359" y1="400.6455" x2="667.66224" y2="395.01415"/><line class="cls-10" x1="328.0381" y1="30.07533" x2="335.9102" y2="31.28128"/><line class="cls-10" x1="328.0381" y1="30.07533" x2="326.83215" y2="37.94743"/></g></svg>