<svg width="1280" height="720" xmlns="http://www.w3.org/2000/svg" xmlns:xlink="http://www.w3.org/1999/xlink" overflow="hidden"><defs><clipPath id="clip0"><rect x="0" y="0" width="1280" height="720"/></clipPath><clipPath id="clip1"><rect x="428" y="484" width="46" height="46"/></clipPath><clipPath id="clip2"><rect x="428" y="484" width="46" height="46"/></clipPath><clipPath id="clip3"><rect x="428" y="484" width="46" height="46"/></clipPath><clipPath id="clip4"><rect x="605" y="484" width="46" height="46"/></clipPath><clipPath id="clip5"><rect x="605" y="484" width="46" height="46"/></clipPath><clipPath id="clip6"><rect x="605" y="484" width="46" height="46"/></clipPath><clipPath id="clip7"><rect x="783" y="484" width="45" height="46"/></clipPath><clipPath id="clip8"><rect x="783" y="484" width="45" height="46"/></clipPath><clipPath id="clip9"><rect x="783" y="484" width="45" height="46"/></clipPath><linearGradient x1="210.994" y1="434.5" x2="210.994" y2="308.074" gradientUnits="userSpaceOnUse" spreadMethod="reflect" id="fill10"><stop offset="0" stop-color="#4BBC64"/><stop offset="0.5" stop-color="#16B848"/><stop offset="1" stop-color="#0BAA3D"/></linearGradient><linearGradient x1="210.994" y1="434.5" x2="210.994" y2="308.074" gradientUnits="userSpaceOnUse" spreadMethod="reflect" id="fill11"><stop offset="0" stop-color="#3C9750"/><stop offset="0.5" stop-color="#12943A"/><stop offset="1" stop-color="#098931"/></linearGradient></defs><g clip-path="url(#clip0)"><rect x="0" y="0" width="1280" height="720" fill="#FFFFFF"/><rect x="1104" y="369" width="81" height="22" fill="#1D9CD3"/><rect x="8" y="369" width="120" height="22" fill="#1DB14B"/><rect x="537.5" y="60.5001" width="133" height="106" stroke="#373737" stroke-width="3" stroke-miterlimit="8" fill="#373737"/><rect x="537.5" y="137.5" width="133" height="29" stroke="#373737" stroke-width="3" stroke-miterlimit="8" fill="#FFFFFF"/><text fill="#373737" font-family="Arial,Arial_MSFontService,sans-serif" font-weight="700" font-size="16" transform="translate(550.992 157)">openAPI<tspan font-size="16" x="69.5" y="0">spec</tspan><tspan fill="#FFFFFF" font-size="19" x="8.99994" y="-46">App Code</tspan></text><path d="M605 180 605 220.237C605 220.789 604.552 221.237 604 221.237 603.448 221.237 603 220.789 603 220.237L603 180C603 179.448 603.448 179 604 179 604.552 179 605 179.448 605 180ZM611.291 215.684 604 221.517 596.709 215.684C596.277 215.339 596.208 214.71 596.553 214.279 596.898 213.847 597.527 213.778 597.958 214.123L604.625 219.456 603.375 219.456 610.042 214.123C610.473 213.778 611.103 213.847 611.448 214.279 611.793 214.71 611.723 215.339 611.291 215.684Z" fill="#373737"/><path d="M605 298 605 338.987C605 339.54 604.552 339.987 604 339.987 603.448 339.987 603 339.54 603 338.987L603 298C603 297.448 603.448 297 604 297 604.552 297 605 297.448 605 298ZM611.291 334.435 604 340.268 596.709 334.435C596.277 334.09 596.208 333.461 596.553 333.029 596.898 332.598 597.527 332.528 597.958 332.873L604.625 338.206 603.375 338.206 610.042 332.873C610.473 332.528 611.103 332.598 611.448 333.029 611.793 333.461 611.723 334.09 611.291 334.435Z" fill="#373737"/><path d="M399.169 534.458 399.169 530.464C399.169 528.449 397.733 528.046 396.406 528.046 394.689 528.046 393.454 528.803 393.368 530.568L394.281 530.568C394.312 529.341 395.152 528.815 396.29 528.815 397.367 528.815 398.25 529.121 398.25 530.36 398.25 531.191 397.83 531.295 397.075 531.38 395.097 531.612 393.046 531.686 393.046 533.799 393.046 535.313 394.178 536.003 395.56 536.003 396.996 536.003 397.654 535.447 398.293 534.47L398.323 534.47C398.323 535.258 398.469 535.783 399.401 535.783 399.65 535.783 399.79 535.771 399.997 535.722L399.997 534.947C399.924 534.977 399.808 535.008 399.705 535.008 399.346 535.014 399.169 534.806 399.169 534.458ZM398.256 532.87C398.268 534.342 397.033 535.234 395.639 535.234 394.78 535.234 393.965 534.666 393.965 533.744 393.965 532.272 395.901 532.284 397.453 532.009 397.702 531.966 398.104 531.893 398.226 531.673L398.256 531.673 398.256 532.87Z" fill="#373737" fill-rule="evenodd"/><path d="M404.081 528.043C403.048 528.043 402.15 528.635 401.79 529.595L401.764 529.595 401.764 528.25 401.039 528.25 401.039 537.957 401.822 537.957 401.822 533.991 401.848 533.991C402.187 535.009 403.121 535.543 404.081 535.543 406.037 535.543 406.971 533.802 406.971 531.796 406.971 529.785 406.037 528.043 404.081 528.043ZM404.081 534.807C402.411 534.807 401.827 533.256 401.827 531.79 401.827 530.187 402.349 528.773 404.081 528.773 405.578 528.773 406.189 530.325 406.189 531.79 406.183 533.262 405.573 534.807 404.081 534.807Z" fill="#373737" fill-rule="evenodd"/><path d="M412.081 528.043C411.048 528.043 410.15 528.635 409.79 529.595L409.764 529.595 409.764 528.25 409.039 528.25 409.039 537.957 409.822 537.957 409.822 533.991 409.848 533.991C410.182 535.009 411.121 535.543 412.081 535.543 414.037 535.543 414.971 533.802 414.971 531.796 414.971 529.785 414.037 528.043 412.081 528.043ZM412.081 534.807C410.411 534.807 409.827 533.256 409.827 531.79 409.827 530.187 410.349 528.773 412.081 528.773 413.578 528.773 414.189 530.325 414.189 531.79 414.183 533.262 413.573 534.807 412.081 534.807Z" fill="#373737" fill-rule="evenodd"/><path d="M415.232 514.042 392.78 514.042C387.963 514.042 384.043 517.864 384.043 522.561L384.043 544.451C384.043 549.148 387.963 552.969 392.78 552.969L415.232 552.969C420.049 552.969 423.969 549.148 423.969 544.451L423.969 522.561C423.974 517.864 420.049 514.042 415.232 514.042ZM423.157 544.451C423.157 548.713 419.603 552.178 415.232 552.178L392.78 552.178C388.409 552.178 384.854 548.713 384.854 544.451L384.854 522.561C384.854 518.298 388.409 514.833 392.78 514.833L415.232 514.833C419.603 514.833 423.157 518.298 423.157 522.561L423.157 544.451Z" fill="#373737" fill-rule="evenodd"/><path d="M474.251 565.01 468.838 565.01C468.097 565.01 467.489 564.412 467.489 563.684 467.489 562.955 468.097 562.357 468.838 562.357L474.251 562.357C488.536 562.357 500.142 550.944 500.142 536.897 500.142 528.305 495.773 520.366 488.46 515.622 487.966 515.304 487.738 514.725 487.89 514.165 488.726 511.101 489.143 507.945 489.143 504.788 489.143 484.95 472.732 468.811 452.559 468.811 437.401 468.811 423.629 478.188 418.291 492.16 418.159 492.497 417.893 492.777 417.551 492.926 417.209 493.076 416.81 493.057 416.468 492.908 412.422 491.096 408.11 490.18 403.646 490.18 386.513 490.18 372.551 503.891 372.551 520.759 372.551 521.487 371.943 522.085 371.202 522.103 359.957 522.141 350.821 531.182 350.821 542.221 350.859 553.317 360.034 562.339 371.317 562.339L457.992 562.339C458.732 562.339 459.34 562.936 459.34 563.665 459.34 564.394 458.732 564.991 457.992 564.991L371.317 564.991C358.533 564.991 348.142 554.773 348.142 542.202 348.142 530.117 357.792 520.18 369.892 519.451 370.576 501.724 385.468 487.509 403.665 487.509 408.034 487.509 412.27 488.312 416.297 489.919 422.357 475.648 436.755 466.14 452.578 466.14 474.251 466.14 491.879 483.475 491.879 504.788 491.879 507.87 491.499 510.933 490.758 513.922 498.356 519.208 502.858 527.707 502.858 536.879 502.858 552.383 490.017 565.01 474.251 565.01Z" fill="#373737" fill-rule="evenodd"/><path d="M652.251 565.01 646.838 565.01C646.097 565.01 645.489 564.412 645.489 563.684 645.489 562.955 646.097 562.357 646.838 562.357L652.251 562.357C666.536 562.357 678.142 550.944 678.142 536.897 678.142 528.305 673.773 520.366 666.46 515.622 665.966 515.304 665.738 514.725 665.89 514.165 666.726 511.101 667.143 507.945 667.143 504.788 667.143 484.95 650.732 468.811 630.559 468.811 615.401 468.811 601.629 478.188 596.292 492.16 596.159 492.497 595.893 492.777 595.551 492.926 595.209 493.076 594.81 493.057 594.468 492.908 590.422 491.096 586.11 490.18 581.646 490.18 564.513 490.18 550.551 503.891 550.551 520.759 550.551 521.487 549.943 522.085 549.202 522.103 537.958 522.141 528.821 531.182 528.821 542.221 528.859 553.317 538.034 562.339 549.317 562.339L635.992 562.339C636.732 562.339 637.34 562.936 637.34 563.665 637.34 564.394 636.732 564.991 635.992 564.991L549.317 564.991C536.533 564.991 526.142 554.773 526.142 542.202 526.142 530.117 535.792 520.18 547.892 519.451 548.576 501.724 563.468 487.509 581.665 487.509 586.034 487.509 590.27 488.312 594.297 489.919 600.357 475.648 614.755 466.14 630.578 466.14 652.251 466.14 669.879 483.475 669.879 504.788 669.879 507.87 669.499 510.933 668.758 513.922 676.356 519.208 680.858 527.707 680.858 536.879 680.858 552.383 668.017 565.01 652.251 565.01Z" fill="#373737" fill-rule="evenodd"/><path d="M577.169 533.651 577.169 530.156C577.169 528.393 575.733 528.04 574.406 528.04 572.689 528.04 571.453 528.703 571.368 530.247L572.281 530.247C572.312 529.173 573.152 528.713 574.29 528.713 575.367 528.713 576.25 528.98 576.25 530.065 576.25 530.792 575.83 530.883 575.075 530.958 573.097 531.161 571.046 531.225 571.046 533.074 571.046 534.399 572.178 535.003 573.56 535.003 574.996 535.003 575.654 534.517 576.293 533.661L576.323 533.661C576.323 534.351 576.469 534.81 577.401 534.81 577.65 534.81 577.79 534.8 577.997 534.757L577.997 534.078C577.924 534.105 577.808 534.132 577.705 534.132 577.346 534.137 577.169 533.955 577.169 533.651ZM576.256 532.261C576.268 533.549 575.033 534.329 573.639 534.329 572.78 534.329 571.965 533.833 571.965 533.026 571.965 531.738 573.901 531.749 575.453 531.508 575.702 531.471 576.104 531.406 576.226 531.214L576.256 531.214 576.256 532.261Z" fill="#373737" fill-rule="evenodd"/><path d="M582.081 528.043C581.048 528.043 580.15 528.635 579.79 529.595L579.764 529.595 579.764 528.25 579.039 528.25 579.039 537.957 579.822 537.957 579.822 533.991 579.848 533.991C580.187 535.009 581.121 535.543 582.081 535.543 584.037 535.543 584.971 533.802 584.971 531.796 584.971 529.785 584.037 528.043 582.081 528.043ZM582.081 534.807C580.411 534.807 579.827 533.256 579.827 531.79 579.827 530.187 580.349 528.773 582.081 528.773 583.578 528.773 584.189 530.325 584.189 531.79 584.183 533.262 583.573 534.807 582.081 534.807Z" fill="#373737" fill-rule="evenodd"/><path d="M590.081 528.043C589.048 528.043 588.15 528.635 587.79 529.595L587.764 529.595 587.764 528.25 587.039 528.25 587.039 537.957 587.822 537.957 587.822 533.991 587.848 533.991C588.182 535.009 589.121 535.543 590.081 535.543 592.037 535.543 592.971 533.802 592.971 531.796 592.971 529.785 592.037 528.043 590.081 528.043ZM590.081 534.807C588.411 534.807 587.827 533.256 587.827 531.79 587.827 530.187 588.349 528.773 590.081 528.773 591.578 528.773 592.189 530.325 592.189 531.79 592.183 533.262 591.573 534.807 590.081 534.807Z" fill="#373737" fill-rule="evenodd"/><path d="M593.232 513.043 570.78 513.043C565.963 513.043 562.043 516.963 562.043 521.78L562.043 544.232C562.043 549.049 565.963 552.969 570.78 552.969L593.232 552.969C598.049 552.969 601.969 549.049 601.969 544.232L601.969 521.78C601.974 516.963 598.049 513.043 593.232 513.043ZM601.157 544.232C601.157 548.603 597.603 552.157 593.232 552.157L570.78 552.157C566.409 552.157 562.854 548.603 562.854 544.232L562.854 521.78C562.854 517.409 566.409 513.854 570.78 513.854L593.232 513.854C597.603 513.854 601.157 517.409 601.157 521.78L601.157 544.232Z" fill="#373737" fill-rule="evenodd"/><path d="M831.066 565.01 825.617 565.01C824.871 565.01 824.26 564.412 824.26 563.684 824.26 562.955 824.871 562.357 825.617 562.357L831.066 562.357C845.442 562.357 857.123 550.944 857.123 536.897 857.123 528.305 852.726 520.366 845.366 515.622 844.869 515.304 844.64 514.725 844.792 514.165 845.634 511.101 846.054 507.945 846.054 504.788 846.054 484.95 829.536 468.811 809.233 468.811 793.978 468.811 780.117 478.188 774.745 492.16 774.611 492.497 774.344 492.777 773.999 492.926 773.655 493.076 773.254 493.057 772.91 492.908 768.838 491.096 764.498 490.18 760.005 490.18 742.761 490.18 728.709 503.891 728.709 520.759 728.709 521.487 728.098 522.085 727.352 522.103 716.035 522.141 706.839 531.182 706.839 542.221 706.877 553.317 716.111 562.339 727.467 562.339L814.701 562.339C815.447 562.339 816.058 562.936 816.058 563.665 816.058 564.394 815.447 564.991 814.701 564.991L727.467 564.991C714.601 564.991 704.143 554.773 704.143 542.202 704.143 530.117 713.855 520.18 726.033 519.451 726.721 501.724 741.709 487.509 760.024 487.509 764.421 487.509 768.685 488.312 772.738 489.919 778.836 475.648 793.327 466.14 809.252 466.14 831.066 466.14 848.807 483.475 848.807 504.788 848.807 507.87 848.425 510.933 847.679 513.922 855.326 519.208 859.857 527.707 859.857 536.879 859.857 552.383 846.933 565.01 831.066 565.01Z" fill="#373737" fill-rule="evenodd"/><path d="M755.169 533.651 755.169 530.156C755.169 528.393 753.733 528.04 752.406 528.04 750.689 528.04 749.453 528.703 749.368 530.247L750.281 530.247C750.312 529.173 751.152 528.713 752.29 528.713 753.367 528.713 754.25 528.98 754.25 530.065 754.25 530.792 753.83 530.883 753.075 530.958 751.097 531.161 749.046 531.225 749.046 533.074 749.046 534.399 750.178 535.003 751.56 535.003 752.996 535.003 753.654 534.517 754.293 533.661L754.323 533.661C754.323 534.351 754.469 534.81 755.401 534.81 755.65 534.81 755.79 534.8 755.997 534.757L755.997 534.078C755.924 534.105 755.808 534.132 755.705 534.132 755.346 534.137 755.169 533.955 755.169 533.651ZM754.256 532.261C754.268 533.549 753.033 534.329 751.639 534.329 750.78 534.329 749.965 533.833 749.965 533.026 749.965 531.738 751.901 531.749 753.453 531.508 753.702 531.471 754.104 531.406 754.226 531.214L754.256 531.214 754.256 532.261Z" fill="#373737" fill-rule="evenodd"/><path d="M760.081 528.043C759.048 528.043 758.15 528.635 757.79 529.595L757.764 529.595 757.764 528.25 757.039 528.25 757.039 537.957 757.822 537.957 757.822 533.991 757.848 533.991C758.187 535.009 759.121 535.543 760.081 535.543 762.037 535.543 762.971 533.802 762.971 531.796 762.971 529.785 762.037 528.043 760.081 528.043ZM760.081 534.807C758.411 534.807 757.827 533.256 757.827 531.79 757.827 530.187 758.349 528.773 760.081 528.773 761.578 528.773 762.189 530.325 762.189 531.79 762.183 533.262 761.573 534.807 760.081 534.807Z" fill="#373737" fill-rule="evenodd"/><path d="M768.081 528.043C767.048 528.043 766.15 528.635 765.79 529.595L765.764 529.595 765.764 528.25 765.039 528.25 765.039 537.957 765.822 537.957 765.822 533.991 765.848 533.991C766.182 535.009 767.121 535.543 768.081 535.543 770.037 535.543 770.971 533.802 770.971 531.796 770.971 529.785 770.037 528.043 768.081 528.043ZM768.081 534.807C766.411 534.807 765.827 533.256 765.827 531.79 765.827 530.187 766.349 528.773 768.081 528.773 769.578 528.773 770.189 530.325 770.189 531.79 770.183 533.262 769.573 534.807 768.081 534.807Z" fill="#373737" fill-rule="evenodd"/><path d="M771.451 513.043 749.561 513.043C744.864 513.043 741.042 516.963 741.042 521.78L741.042 544.232C741.042 549.049 744.864 552.969 749.561 552.969L771.451 552.969C776.148 552.969 779.969 549.049 779.969 544.232L779.969 521.78C779.975 516.963 776.148 513.043 771.451 513.043ZM779.178 544.232C779.178 548.603 775.713 552.157 771.451 552.157L749.561 552.157C745.298 552.157 741.833 548.603 741.833 544.232L741.833 521.78C741.833 517.409 745.298 513.854 749.561 513.854L771.451 513.854C775.713 513.854 779.178 517.409 779.178 521.78L779.178 544.232Z" fill="#373737" fill-rule="evenodd"/><path d="M605 416 605 456.237C605 456.789 604.552 457.237 604 457.237 603.448 457.237 603 456.789 603 456.237L603 416C603 415.448 603.448 415 604 415 604.552 415 605 415.448 605 416ZM611.291 451.684 604 457.517 596.709 451.684C596.277 451.339 596.208 450.71 596.553 450.279 596.898 449.847 597.527 449.778 597.958 450.123L604.625 455.456 603.375 455.456 610.042 450.123C610.473 449.778 611.103 449.847 611.448 450.279 611.793 450.71 611.723 451.339 611.291 451.684Z" fill="#373737"/><path d="M0.213229-0.977002 175.335 37.2431C175.875 37.3609 176.217 37.8938 176.099 38.4334 175.981 38.9729 175.449 39.3149 174.909 39.1971L-0.213229 0.977002C-0.752813 0.859239-1.09477 0.326354-0.977002-0.213229-0.859239-0.752813-0.326354-1.09477 0.213229-0.977002ZM172.228 30.1255 176.372 38.4929 169.119 44.3728C168.69 44.7206 168.06 44.6547 167.712 44.2257 167.364 43.7967 167.43 43.1669 167.859 42.8192L174.491 37.443 174.225 38.6637 170.436 31.0131C170.191 30.5182 170.393 29.9183 170.888 29.6732 171.383 29.4281 171.983 29.6306 172.228 30.1255Z" fill="#373737" transform="matrix(-1 0 0 1 604.372 416)"/><path d="M604.214 415.023 779.132 453.253C779.671 453.371 780.013 453.904 779.895 454.444 779.777 454.983 779.244 455.325 778.705 455.207L603.786 416.977C603.247 416.859 602.905 416.326 603.023 415.786 603.141 415.247 603.674 414.905 604.214 415.023ZM776.031 446.136 780.173 454.504 772.917 460.382C772.488 460.73 771.858 460.664 771.511 460.235 771.163 459.806 771.229 459.176 771.658 458.828L778.292 453.454 778.025 454.675 774.238 447.023C773.994 446.528 774.196 445.928 774.691 445.683 775.186 445.438 775.786 445.641 776.031 446.136Z" fill="#373737"/><path d="M533 242.5C533 252.165 564.34 260 603 260 641.66 260 673 252.165 673 242.5L673 391.5C673 401.165 641.66 409 603 409 564.34 409 533 401.165 533 391.5Z" fill="#373737" fill-rule="evenodd"/><path d="M533 242.5C533 232.835 564.34 225 603 225 641.66 225 673 232.835 673 242.5 673 252.165 641.66 260 603 260 564.34 260 533 252.165 533 242.5Z" fill="#878787" fill-rule="evenodd"/><text fill="#FFFFFF" font-family="Arial,Arial_MSFontService,sans-serif" font-weight="400" font-size="13" transform="translate(544.642 289)">CI/CD Orchestrated <tspan font-size="13" x="22.9133" y="15">Deployment</tspan></text><path d="M0 0 43.498 24.8365" stroke="#00B050" stroke-miterlimit="8" stroke-dasharray="1 1" fill="none" fill-rule="evenodd" transform="matrix(-1 0 0 1 716.998 325.5)"/><text fill="#373737" font-family="Arial,Arial_MSFontService,sans-serif" font-weight="700" font-size="16" transform="translate(725.781 306)">Consume pre<tspan font-size="16" x="102.167" y="0">-</tspan><tspan font-size="16" x="107.5" y="0">defined</tspan><tspan font-size="16" x="0" y="22">N</tspan>egative<tspan font-size="16" x="0" y="45">p</tspan><tspan font-size="16" x="9.83331" y="45">olicy</tspan></text><path d="M0 0 141.723 0.000104987" stroke="#00B050" stroke-miterlimit="8" stroke-dasharray="1 1" fill="none" fill-rule="evenodd" transform="matrix(-1 0 0 1 787.223 508.5)"/><text fill="#373737" font-family="Arial,Arial_MSFontService,sans-serif" font-weight="700" font-size="16" transform="translate(906.252 405)">WAF policies <tspan font-size="16" x="-39.88" y="22">audited by SecOps</tspan></text><path d="M939.5 439.5 939.5 508.355" stroke="#1D9CD3" stroke-miterlimit="8" stroke-dasharray="1 1" fill="none" fill-rule="evenodd"/><path d="M0 0 141.722 0.000104987" stroke="#00B050" stroke-miterlimit="8" stroke-dasharray="1 1" fill="none" fill-rule="evenodd" transform="matrix(-1 0 0 1 609.222 508.5)"/><path d="M0 0 115.124 0.000104987" stroke="#1D9CD3" stroke-miterlimit="8" stroke-dasharray="1 1" fill="none" fill-rule="evenodd" transform="matrix(-1 0 0 1 938.624 508.5)"/><rect x="533" y="330" width="140" height="40" fill="#1DB14B"/><text fill="#FFFFFF" font-family="Arial,Arial_MSFontService,sans-serif" font-weight="400" font-size="17" transform="translate(560.558 346)">Application <tspan font-size="17" x="9.16669" y="18">Services</tspan></text><path d="M429 491.333C429 487.283 432.283 484 436.333 484L465.667 484C469.717 484 473 487.283 473 491.333L473 522.667C473 526.717 469.717 530 465.667 530L436.333 530C432.283 530 429 526.717 429 522.667Z" fill="#1DB14B" fill-rule="evenodd"/><g clip-path="url(#clip1)"><g clip-path="url(#clip2)"><g clip-path="url(#clip3)"><path d="M454.459 496.958C449.668 495.05 444.237 497.388 442.329 502.179 440.421 506.971 442.759 512.401 447.55 514.309 452.341 516.217 457.772 513.88 459.68 509.088 461.175 505.334 460.085 501.044 456.98 498.458L456.98 498.458 449.62 509.608 445.627 504.346" stroke="#FFFFFF" stroke-width="0.92" stroke-linejoin="round" fill="none"/><path d="M459.892 492.597 458.02 492.68 458.02 492.68 453.548 489.249C452.177 488.118 450.205 488.089 448.801 489.18L443.98 492.68 442.108 492.597C438.58 492.423 435.82 491.424 435.82 496.264 435.82 501.103 436.473 508.95 436.473 508.95 436.473 508.95 436.082 514.838 442.913 519.806 448.76 524.084 451 525.63 451 525.63L451 525.63C451 525.63 453.263 524.084 459.128 519.806 465.941 514.838 465.568 508.95 465.568 508.95 465.568 508.95 466.18 501.103 466.18 496.264 466.18 491.424 463.42 492.423 459.892 492.584" stroke="#FFFFFF" stroke-width="0.92" stroke-linejoin="round" fill="none"/></g></g></g><path d="M606 491.333C606 487.283 609.283 484 613.333 484L642.667 484C646.717 484 650 487.283 650 491.333L650 522.667C650 526.717 646.717 530 642.667 530L613.333 530C609.283 530 606 526.717 606 522.667Z" fill="#1DB14B" fill-rule="evenodd"/><g clip-path="url(#clip4)"><g clip-path="url(#clip5)"><g clip-path="url(#clip6)"><path d="M631.459 496.958C626.668 495.05 621.237 497.388 619.329 502.179 617.421 506.971 619.759 512.401 624.55 514.309 629.341 516.217 634.772 513.88 636.68 509.088 638.175 505.334 637.085 501.044 633.98 498.458L633.98 498.458 626.62 509.608 622.627 504.346" stroke="#FFFFFF" stroke-width="0.92" stroke-linejoin="round" fill="none"/><path d="M636.892 492.597 635.02 492.68 635.02 492.68 630.548 489.249C629.177 488.118 627.205 488.089 625.801 489.18L620.98 492.68 619.108 492.597C615.58 492.423 612.82 491.424 612.82 496.264 612.82 501.103 613.473 508.95 613.473 508.95 613.473 508.95 613.082 514.838 619.913 519.806 625.76 524.084 628 525.63 628 525.63L628 525.63C628 525.63 630.263 524.084 636.128 519.806 642.941 514.838 642.568 508.95 642.568 508.95 642.568 508.95 643.18 501.103 643.18 496.264 643.18 491.424 640.42 492.423 636.892 492.584" stroke="#FFFFFF" stroke-width="0.92" stroke-linejoin="round" fill="none"/></g></g></g><path d="M784 491.167C784 487.209 787.209 484 791.167 484L819.833 484C823.791 484 827 487.209 827 491.167L827 522.833C827 526.791 823.791 530 819.833 530L791.167 530C787.209 530 784 526.791 784 522.833Z" fill="#1DB14B" fill-rule="evenodd"/><g clip-path="url(#clip7)"><g clip-path="url(#clip8)"><g clip-path="url(#clip9)"><path d="M25.884 12.6765C21.1968 10.8101 15.8841 13.0968 14.0177 17.784 12.1513 22.4712 14.4379 27.7839 19.1251 29.6503 23.8123 31.5167 29.1251 29.23 30.9915 24.5429 32.454 20.87 31.3879 16.6732 28.35 14.1435L28.35 14.1435 21.15 25.0515 17.244 19.9035" stroke="#FFFFFF" stroke-width="0.9" stroke-linejoin="round" fill="none" transform="matrix(1 0 0 1.02222 783 484)"/><path d="M31.1985 8.4105 29.367 8.4915 29.367 8.4915 24.993 5.1345C23.6513 4.0286 21.7223 4.00056 20.349 5.067L15.633 8.4915 13.8015 8.4105C10.35 8.2395 7.65 7.263 7.65 11.997 7.65 16.731 8.289 24.408 8.289 24.408 8.289 24.408 7.9065 30.168 14.589 35.028 20.3085 39.213 22.5 40.725 22.5 40.725L22.5 40.725C22.5 40.725 24.714 39.213 30.4515 35.028 37.116 30.168 36.7515 24.408 36.7515 24.408 36.7515 24.408 37.35 16.731 37.35 11.997 37.35 7.263 34.65 8.2395 31.1985 8.397" stroke="#FFFFFF" stroke-width="0.9" stroke-linejoin="round" fill="none" transform="matrix(1 0 0 1.02222 783 484)"/></g></g></g><path d="M0 0 43.498 24.8365" stroke="#00B050" stroke-miterlimit="8" stroke-dasharray="1 1" fill="none" fill-rule="evenodd" transform="matrix(-1 0 0 1 716.998 128.5)"/><text fill="#373737" font-family="Arial,Arial_MSFontService,sans-serif" font-weight="700" font-size="16" transform="translate(725.781 102)">Used by WAF as <tspan font-size="16" x="0" y="22">Positive </tspan><tspan font-size="16" x="0" y="45">policy</tspan></text><path d="M721.5 86.5001 721.5 159.135" stroke="#1DB14B" stroke-width="1.33333" stroke-miterlimit="8" fill="none" fill-rule="evenodd"/><path d="M721.5 288.5 721.5 365.864" stroke="#1DB14B" stroke-width="1.33333" stroke-miterlimit="8" fill="none" fill-rule="evenodd"/><path d="M0 0 159.145 0.000104987" stroke="#1D9CD3" stroke-width="1.33333" stroke-miterlimit="8" fill="none" fill-rule="evenodd" transform="matrix(-1 0 0 1 1018.65 435.5)"/><rect x="348" y="578" width="512" height="56" fill="#373737"/><text fill="#FFFFFF" font-family="Arial,Arial_MSFontService,sans-serif" font-weight="700" font-size="19" transform="translate(542.992 603)">Unified<tspan font-size="19" x="68.1667" y="0">policy</tspan><tspan font-weight="400" font-size="16" x="-77.1666" y="23">accross</tspan><tspan font-weight="400" font-size="16" x="-17.6666" y="23">K8S clusters / </tspan><tspan font-weight="400" font-size="16" x="85.5" y="23">Ingress</tspan><tspan font-weight="400" font-size="16" x="142.333" y="23">Classes</tspan></text><path d="M1101 384.438C1101 361.837 1077.25 342.099 1043.25 336.449L1043.25 346.074 1024 325.25 1043.25 307.574 1043.25 317.199C1077.25 322.849 1101 342.587 1101 365.187Z" fill="#1D9CD3" fill-rule="evenodd"/><path d="M1024 414.75C1060.76 414.75 1092.4 398.024 1099.53 374.813 1107.79 401.664 1080.67 427.741 1038.95 433.056 1034.03 433.684 1029.02 434 1024 434Z" fill="#177DAA" fill-rule="evenodd"/><path d="M1101 384.438C1101 361.837 1077.25 342.099 1043.25 336.449L1043.25 346.074 1024 325.25 1043.25 307.574 1043.25 317.199C1077.25 322.849 1101 342.587 1101 365.187L1101 384.438C1101 411.81 1066.53 434 1024 434L1024 414.75C1060.76 414.75 1092.4 398.024 1099.53 374.813" stroke="#FFFFFF" stroke-width="2" stroke-miterlimit="8" fill="none" fill-rule="evenodd"/><text fill="#373737" font-family="Arial,Arial_MSFontService,sans-serif" font-weight="700" font-size="16" transform="translate(1106.54 363)">Change<tspan fill="#FFFFFF" font-family="Courier New,Courier New_MSFontService,sans-serif" font-size="16" x="0" y="22">baseline</tspan><tspan font-size="16" x="81.8334" y="22">part</tspan><tspan font-size="16" x="0" y="45">of Negative policies</tspan></text><path d="M249.5 325.75 230.25 346.574 230.25 336.949C201.593 341.711 179.714 356.625 173.966 375.312 166.04 349.541 190.731 324.267 230.25 317.699L230.25 308.074Z" fill="url(#fill10)" fill-rule="evenodd"/><path d="M172.5 365.688C172.5 393.06 206.974 415.25 249.5 415.25L249.5 434.5C206.974 434.5 172.5 412.31 172.5 384.938Z" fill="url(#fill11)" fill-rule="evenodd"/><path d="M172.5 365.688C172.5 393.06 206.974 415.25 249.5 415.25L249.5 434.5C206.974 434.5 172.5 412.31 172.5 384.938L172.5 365.688C172.5 343.087 196.253 323.349 230.25 317.699L230.25 308.074 249.5 325.75 230.25 346.574 230.25 336.949C201.593 341.711 179.714 356.625 173.966 375.312" stroke="#1DB14B" stroke-width="0.666667" stroke-miterlimit="8" fill="none" fill-rule="evenodd"/><path d="M0 0 110.281 0.000104987" stroke="#00B050" stroke-miterlimit="8" stroke-dasharray="1 1" fill="none" fill-rule="evenodd" transform="matrix(-1 0 0 1 429.781 508.5)"/><text fill="#373737" font-family="Arial,Arial_MSFontService,sans-serif" font-weight="700" font-size="16" transform="translate(259.671 405)">SLO monitored<tspan font-size="16" x="51" y="22">by </tspan><tspan font-size="16" x="74.1667" y="22">SREs</tspan></text><path d="M319.5 439.5 319.5 508.355" stroke="#00B050" stroke-miterlimit="8" stroke-dasharray="1 1" fill="none" fill-rule="evenodd"/><path d="M0 0 127.186 0.000104987" stroke="#1DB14B" stroke-width="1.33333" stroke-miterlimit="8" fill="none" fill-rule="evenodd" transform="matrix(-1 0 0 1 382.686 435.5)"/><text fill="#373737" font-family="Arial,Arial_MSFontService,sans-serif" font-weight="700" font-size="16" transform="translate(107.333 363)">Change<tspan fill="#FFFFFF" font-family="Courier New,Courier New_MSFontService,sans-serif" font-size="16" x="-96.5" y="22">modification</tspan><tspan font-size="16" x="24" y="22">part</tspan><tspan font-size="16" x="-91.6667" y="45">of a Negative policy</tspan></text></g></svg>