<svg version="1.1" xmlns="http://www.w3.org/2000/svg" viewBox="0 0 1180.410400390625 709.3690948486328" width="1180.410400390625" height="709.3690948486328">
  <!-- svg-source:excalidraw -->
  
  <defs>
    <style>
      @font-face {
        font-family: "Virgil";
        src: url("https://excalidraw.com/Virgil.woff2");
      }
      @font-face {
        font-family: "Cascadia";
        src: url("https://excalidraw.com/Cascadia.woff2");
      }
    </style>
  </defs>
  <g stroke-linecap="round" transform="translate(144.7780710856117 145.41263580322254) rotate(0 191.05662536621094 203.02191162109375)"><path d="M0 0 C0 0, 0 0, 0 0 M0 0 C0 0, 0 0, 0 0 M0.25 6.08 C1.33 5.37, 2.78 2.85, 5.45 -0.2 M-0.45 6.7 C1.17 4.18, 2.94 2.53, 4.61 0.46 M0.26 12.67 C2.47 7.86, 4.8 6.18, 9.82 -0.26 M0.44 12.74 C2.8 8.51, 4.45 5.86, 10.31 0.25 M-0.61 16.95 C3.4 12.2, 7.53 8.01, 17.4 1.37 M0.45 18.59 C3.79 14, 8.47 8.93, 16.58 0.02 M2.02 24.65 C8.07 16.2, 16.02 3.63, 22.22 0.09 M0.43 23.09 C5.71 16.3, 12.46 8.83, 21.63 0.52 M0.82 30.73 C5.27 21.9, 14.06 15.11, 24.6 0.07 M-0.53 30.01 C10.23 19.72, 21.1 6.54, 26.58 0.82 M-0.71 38.42 C10.9 23.04, 22.92 11.97, 33.56 -0.73 M0.63 37.08 C11.73 23.72, 24.39 9.65, 31.35 -0.24 M1.3 41.15 C10.38 32.88, 21.02 19.99, 38.78 0.96 M-0.24 42.18 C8.89 32.07, 18.73 21.56, 37.08 0.8 M-1.43 50.42 C11.9 35.7, 21.21 26.4, 43.34 -0.78 M-0.6 48.26 C14.89 31.76, 30.28 14.68, 42.2 -0.31 M-1.34 54.06 C16.15 36.77, 28.85 21.35, 47.83 -1.41 M0.08 53.81 C15.56 38.53, 29.27 20.33, 46.93 1.21 M1.2 59.83 C19.08 39.24, 40.47 14.66, 55.1 -0.43 M0.89 61.65 C19.68 38.82, 40.06 14.95, 53.34 -1.13 M-2.1 65.72 C22.54 39.87, 44.56 16.7, 58.45 -1.81 M-1.14 67.3 C22.19 41.58, 44.12 15.28, 57.83 -0.32 M0.03 71.74 C14.03 55.88, 27.28 39.94, 62.25 -0.4 M0.73 72 C24.24 45.08, 46.67 19.46, 63.24 -0.2 M-0.14 77.78 C23.02 54.36, 43.88 27.66, 70.21 1.61 M-0.18 78.69 C13.23 62.91, 27.56 45.91, 69.3 -0.68 M0.73 83.88 C17.81 66.28, 33.08 43.17, 74.01 0.26 M0.37 85.44 C19.06 64.1, 35.6 42.54, 74.72 -0.1 M-0.77 91.83 C27.45 59.45, 57.11 24.94, 77.51 1.39 M-0.92 91.2 C23.23 63.9, 47.68 37.89, 79.68 -0.4 M-0.8 97.42 C26.78 68.53, 48.21 39.54, 85.45 -1.84 M-0.55 97.27 C26 69.34, 49.76 42.41, 85.91 0.49 M1.23 104.33 C23.1 76.58, 44.47 50.45, 91.61 -1.3 M0.68 103.24 C23.86 76.39, 47.2 48.82, 89.16 -0.54 M-1.89 107.9 C38.29 67.77, 71.76 26.54, 95.51 -0.44 M-0.61 109.99 C22.43 86.4, 43.12 60.19, 95.28 -0.16 M-1.11 117.43 C27.85 81.07, 56.75 48.97, 102.59 1.37 M1.05 116.13 C32.85 76.19, 65.65 39.06, 100.73 0.23 M1.03 123.78 C34.75 79.34, 71.73 38.53, 104.94 -1.65 M0.48 122.75 C32.9 82.54, 68.68 41.8, 106.62 0.13 M-1.55 129.67 C27.32 94.18, 57.21 61.08, 109.4 1.91 M-0.75 127.86 C41.51 81.06, 84.37 32.47, 111.23 0.69 M1.02 133.44 C41.39 87.76, 79.62 37.67, 117.7 -1.11 M-0.52 133.38 C31.49 96.07, 66.09 59.36, 115.4 1.2 M-0.03 138.97 C41.67 90.99, 85.96 45.37, 121.82 -0.55 M0.65 141.09 C34.98 98.61, 71.99 56.18, 122.32 0.02 M1.98 147.89 C27.68 116.34, 53.32 84.54, 125.55 -1.13 M-0.01 146.12 C44.68 94.5, 90.03 44.84, 126.37 0.59 M-0.59 153.13 C26.53 121.46, 54.71 91.92, 134.26 1.62 M0 152.63 C36.15 110.53, 73.1 69.82, 133.39 0.74 M-0.02 159.49 C34 117.35, 70.9 73.95, 138.06 -0.02 M-1.1 159.34 C31.48 123.5, 62.6 87.6, 136.77 0.89 M0.9 165.04 C40.49 119.67, 77.35 78.16, 144.59 -0.49 M0.88 163.69 C40.56 117.29, 80.56 72.13, 143.06 0.12 M-0.01 169.54 C39.82 125.73, 77.15 78.33, 147.67 -1.13 M-0.5 171.69 C49.6 115.29, 98.65 60.63, 147.5 0.24 M-0.6 175.37 C41.37 129.49, 82.46 84.11, 154.94 -0.46 M0.61 176.72 C59.13 107.45, 120.17 37.75, 153.25 0.35 M1.47 184.53 C51.2 125.88, 102.19 64.9, 158.06 1 M-0.53 183.51 C53.08 118.48, 107.4 55.8, 158.11 1 M-0.48 189.96 C50.5 131.77, 100.48 74.31, 163 -0.3 M-0.24 188.92 C42.95 142.08, 85 92.76, 164.69 0.43 M0.48 195.68 C62.75 122.92, 123.94 51.77, 170.62 1.13 M-0.39 194.82 C47.82 139.63, 95.34 84.92, 169.22 0.39 M-0.83 202.03 C62.63 128.22, 123.44 58.57, 173.72 -1.25 M0.2 201.89 C38.7 154.72, 77.84 107.38, 174.76 -0.97 M0.46 208.26 C45.55 152.6, 92.94 97.55, 180.22 -0.94 M0.46 206.71 C39.47 162.36, 78.13 119.32, 180.07 -0.17 M0.69 212.02 C38.32 168.87, 78.92 124.61, 184.44 0.67 M0.45 213.74 C46.86 161.24, 92.82 107.05, 186.34 -0.11 M-0.12 220.59 C58.51 149.07, 121.81 79.59, 189.79 0.39 M-0.53 219.72 C62.25 147.31, 124.64 76.75, 191.01 0.48 M-0.79 225.33 C60.95 154.73, 120.48 86.47, 196.41 0.56 M0.8 225.02 C69.14 143.67, 140.29 62.85, 195.94 -0.04 M-0.07 232.45 C72.28 145.55, 144.99 64.32, 201.77 -0.43 M0.54 231.74 C55.31 167.04, 110.36 104.16, 201.11 -0.35 M-1.07 236.45 C63.34 167.05, 123.51 97.77, 207.02 -1.09 M0.31 236.88 C77.1 147.68, 155.77 57.69, 206.81 -0.3 M-1 244.74 C55.53 181.78, 110.89 118.02, 211.18 -0.04 M0.23 243.27 C50.64 186.09, 100.5 128.44, 211.91 0.58 M-1.37 249.32 C61.83 177.12, 122.35 107.08, 217.37 -0.65 M-0.21 249.66 C48.88 193.05, 98.44 135.54, 217.52 -0.85 M-0.44 255.37 C45.35 205.13, 87.96 152.53, 221.67 0.17 M0.05 256.41 C56.18 194.25, 109.88 132.02, 222.27 -0.07 M-1.01 261.03 C86.66 163.34, 172.37 63.05, 227.62 -1.17 M-0.62 262.08 C52.52 202.07, 103.69 142.17, 228.71 -0.09 M0.37 266.83 C52.27 205.6, 107.32 145.16, 232.4 -1.2 M0.56 268.06 C63.63 194.38, 125.79 123.51, 233.34 -0.04 M-0.01 273.42 C87.42 172.42, 174.95 71.88, 237.79 0.96 M-0.44 273.77 C87.59 171.28, 175.36 70.77, 237.64 -0.04 M0.23 279.95 C73.07 195.08, 145.57 111.95, 245.04 0.63 M0.23 280.93 C76.92 190.2, 155.23 100.93, 243.85 -0.52 M-0.34 286.01 C53.27 226.17, 106.39 166.08, 249.08 1.01 M0.24 286.77 C64.13 212.56, 129.14 139.82, 249.18 0.53 M-0.66 292.44 C54.2 230.03, 108.47 164.72, 254.97 0.02 M0.12 293.06 C89.45 190.17, 179.75 86.86, 254.68 -0.24 M-0.27 298.17 C92.8 189.72, 188.57 82.02, 258.9 -0.29 M-0.18 298.13 C97.65 184.42, 194.88 72.74, 259.79 -0.27 M1.08 304.8 C78.79 212.98, 159.27 121.64, 265.02 -0.06 M0.39 304.48 C97.12 192.84, 195.33 80.53, 265.63 0.16 M-1.3 311.07 C69.29 230.74, 139.07 149.14, 269.41 0.72 M-0.19 311.03 C57.29 247, 113.21 182.3, 269.75 -0.02 M-0.39 316.08 C87.26 215.08, 176.77 114.03, 276.38 0.56 M0.03 316.98 C83.82 222.57, 167.03 127.07, 276.17 0.08 M0.21 323.34 C59.48 255.87, 119.21 185.59, 280.75 1.1 M-0.23 322.83 C90.92 216.83, 183.17 111.44, 280.22 -0.16 M0.72 327.89 C108.29 206.32, 214.06 85.31, 285.88 0.79 M0.15 328.66 C96.87 218.55, 192.15 109.84, 286.03 -0.48 M-0.49 334.7 C94.75 225.67, 189.46 116.86, 290.47 -0.22 M-0.19 335.76 C84.35 237.77, 169.8 138.74, 291.58 0.32 M0.22 341.66 C111.4 212.8, 224.18 82.45, 297.63 -0.41 M-0.53 341.85 C114.74 208.16, 230.11 75.5, 296.63 -0.6 M-0.23 347.91 C114.49 217.06, 227.29 86.14, 302.6 -0.03 M0.22 347.23 C110.62 218.34, 221.78 90.62, 302.18 0.1 M0.59 353.03 C121.11 214.19, 242.82 72.55, 307.54 0.54 M-0.36 353.3 C71.98 272.32, 143.66 190.06, 307.4 -0.04 M-0.08 358.83 C103.53 243.16, 205.93 125.05, 312.78 0.09 M0.47 359.14 C124.78 215.63, 249.77 72.52, 312.82 0.06 M-0.11 365.1 C104.22 245.5, 208.16 125.07, 318.33 -0.54 M-0.24 365.99 C118.66 229.21, 237.81 92.81, 318.48 -0.34 M-0.77 371.46 C74.68 286.87, 148.79 201.33, 322.91 0.83 M0.05 372.03 C105.6 249.95, 211.73 128.17, 323.24 -0.14 M0.68 378.34 C129.03 227.35, 259.19 76.6, 328.84 0.19 M0.37 377.42 C118.41 241.17, 237.21 104.55, 329.27 0.05 M0.45 384.34 C103.2 264.67, 208.11 144.19, 334.04 0.64 M-0.26 383.81 C96.48 273.15, 191.95 163.69, 333.56 0.15 M-0.03 389.58 C88.96 287.55, 176.12 185.87, 338.82 -0.48 M0.71 389.53 C98.54 278.33, 195.93 165.99, 339.86 -0.71 M0.3 396.72 C99.88 280.95, 200.9 166.72, 344.32 -0.03 M-0.33 396.24 C104.89 278.15, 208.52 158.52, 344.58 -0.27 M-0.63 403.13 C108.72 279.18, 217.67 154.86, 348.89 0.64 M0.14 402.33 C101.29 287.32, 201.25 172.19, 349.7 0.68 M2.23 406.26 C92.5 301.35, 183.21 197.82, 354.71 0.22 M1.25 406.8 C140.17 246.94, 278.8 86.68, 355.06 0.01 M6.93 406.52 C135.76 256.38, 267.38 105.09, 360.76 1.09 M6.86 406.97 C88.88 311.87, 172.36 216.07, 359.97 0.43 M12.16 406.11 C148.34 247.03, 286.85 89.01, 366.46 -0.11 M12.21 406.98 C105.31 298.53, 199.91 189.99, 366.07 -0.27 M16.7 406.77 C87.89 324.24, 160 241.69, 370.92 -0.23 M17.05 407.2 C107.83 304.18, 196.55 202.18, 370.82 0.6 M21.44 407.28 C109.56 303.96, 198.89 201.95, 375.61 0.15 M21.86 407.41 C102.48 312.6, 183.8 218.19, 376.63 0.22 M28 406.32 C168.29 245.81, 308.45 85.72, 382.05 1.05 M27.36 406.9 C170.56 245.64, 310.77 84.31, 381.17 0.05 M33.32 407.79 C133.52 290.68, 235.3 173.98, 384.52 1.48 M32.84 407.46 C129.75 294.58, 226.33 183.67, 385.32 2.43 M38.04 406.54 C131.96 302.3, 223.43 195.06, 384.75 8.71 M38.31 406.78 C169.53 257.66, 299.81 107.29, 384.48 8.69 M42.62 407.01 C153.93 281.96, 264.21 154.33, 385.07 14.67 M43.52 407.56 C176.51 255.67, 308.44 102.87, 384.2 15.15 M48.36 406.66 C174.36 260.7, 303.07 115.12, 384.72 19.92 M49.15 406.95 C127.02 317.65, 205.84 227.56, 385.06 20.4 M53.53 406.6 C141.96 306.3, 231.1 203.76, 384.93 26.33 M54.27 407.31 C134.86 312.48, 217.18 218.48, 384.71 27.26 M59.21 406.18 C131.24 324.78, 201.91 243.32, 385.33 33.29 M59.87 407.24 C143.05 311.66, 226.45 216.76, 385.14 32.58 M65.44 407.29 C132.62 326.61, 202.08 246.94, 383.96 39.47 M64.78 407.52 C170.04 286.76, 274.76 166.26, 384.95 39.14 M70.45 407.31 C168.08 296.04, 264.28 185.23, 385.2 45.4 M69.95 406.89 C154.14 310.66, 239.37 213.02, 384.26 45.51 M75.1 408.16 C182.12 284.81, 288.42 161.78, 384.77 51.76 M75.29 407.32 C196.99 270.01, 316.38 132.14, 385.2 50.92 M80.51 407.65 C168.62 305.77, 260.04 200.72, 384.65 57.71 M80.46 406.43 C187.48 282.49, 295 159.66, 385.07 57.59 M85.89 406.95 C149.13 337.99, 210.63 266.99, 384.42 63.42 M86.2 407.02 C199.97 273.22, 314.85 141, 385.2 62.98 M90.74 407.38 C174.65 311.6, 254.44 218.82, 384.69 68.66 M91.21 406.8 C185.36 299.31, 278.7 191.98, 385.28 69.4 M96.98 406.66 C166.02 326.62, 236.5 244.58, 385.01 75.85 M96.7 406.99 C202.3 285.23, 308.34 164.07, 384.95 76.27 M101.22 407.11 C175.74 320.13, 251.85 233.54, 385.22 82.46 M101.88 406.75 C163.08 335.86, 225.03 264.79, 385.09 81.19 M107.2 407.73 C186.93 314.28, 266.45 223.17, 384.32 87.64 M107.01 407.08 C210 286.81, 313.8 167.76, 384.83 87.59 M113.56 406.84 C199.26 307.13, 287.67 207.74, 384.93 93.17 M112.5 407.17 C181.24 326.32, 249.83 247.11, 385.5 93.26 M118.4 408.18 C182.14 336.28, 244.62 262.86, 384.49 99.99 M118.17 407.1 C208.31 302.12, 297.93 199.11, 385.22 99.79 M123.35 406.96 C183.63 338.47, 239.89 273.15, 383.78 106.7 M123.01 406.51 C190.96 326.94, 260.24 248.78, 384.98 106.08 M128.08 406.61 C225.28 294.33, 321.13 182.77, 385.94 112.7 M128.08 407.32 C225.5 294.48, 322.68 180.93, 385.5 112.15 M133.47 407.91 C233.07 296.25, 330.63 182.96, 384.93 117.98 M133.2 407.52 C191.42 339.9, 250 272.75, 384.54 118.97 M139.2 406.04 C210.14 324.15, 283.04 241.35, 384.77 123.43 M138.74 406.81 C218.73 315.08, 299 223, 384.84 123.46 M145.03 408.16 C233.37 303.79, 325.92 199.45, 384.83 129.57 M143.55 406.95 C236.28 300.03, 329.51 192.73, 384.67 130.47 M150.16 406.01 C228.71 316.25, 306.53 225.35, 385.14 136.98 M150.16 407.61 C235.67 307.43, 321.72 208.53, 384.65 137.09 M153.77 407.6 C238.97 309.02, 323.11 211.97, 383.86 143.35 M154.24 407.69 C220.92 331.66, 288.03 254.36, 384.96 143.14 M160.21 405.77 C236.28 318.98, 310.48 231.7, 384.03 149.09 M160.58 406.74 C210.32 349.24, 259.24 291.71, 384.61 148.97 M164.13 408.37 C224.27 340.05, 283.46 270.78, 385.04 154.54 M164.81 407.77 C244.16 317.96, 322.28 228.87, 385.17 155.18 M171.17 408.31 C238.9 329.52, 308.55 248.25, 385.91 161.86 M170.94 406.91 C252.03 313.64, 331.59 221.44, 385.47 161.24 M174.9 406.38 C229.53 346.69, 279.35 287.45, 384.15 166.49 M175.29 408.01 C244.57 327.47, 314.69 247.46, 383.85 168 M180.76 408.25 C261.29 313.69, 341.6 223.11, 385.91 171.59 M181.83 406.88 C225.27 358.57, 267.69 308, 384.43 172.26 M185.27 406.14 C258.74 322.37, 333.94 235.74, 384.04 179.04 M187.05 407.49 C229.32 356.5, 272.51 307.99, 384.59 180.1 M192.14 406.54 C240.74 353.56, 287.12 297.76, 386.42 184.94 M192.72 407.4 C250.83 336.74, 310.95 266.67, 384.85 184.92 M196.43 405.8 C266.59 328.29, 337.62 248.83, 384.23 191.18 M197.75 406.96 C260.7 335.69, 324.14 262.84, 384.31 192.13 M204.23 407.12 C242.93 359.93, 286.75 312.16, 384.06 198.49 M202.45 406.19 C265 333.61, 328.53 261.71, 385.16 198.22 M207.31 406.85 C254.89 351.62, 305.13 294.62, 384.8 202.19 M207.71 406.86 C258.72 348.96, 308.84 291.12, 385.16 203.18 M212.45 406.27 C267.53 345.11, 320.72 283.56, 385.66 211.22 M213.16 406.16 C276.52 334.92, 339.9 262.18, 384.68 210.54 M218.96 406.68 C283.37 334.67, 343.51 262.09, 384.06 214.22 M217.96 406.4 C277.66 337.02, 338.16 266.6, 385.83 215.37 M223.01 406.02 C273.59 348.23, 327.84 286.79, 384.35 221.7 M223.46 407.29 C277.85 344.19, 331.9 282.07, 385.31 222.07 M229.93 406.2 C274.62 356.23, 317.14 303.31, 386.03 228.49 M229.55 407.55 C284.4 343.61, 338.1 282.52, 384.44 227.61 M236.04 406.73 C278.2 358.52, 321.22 309.79, 385.74 233.15 M235.43 406.88 C267.08 371.62, 296.04 336.52, 385.53 234.22 M241.04 408.75 C274.55 364.07, 310.87 322.98, 385.07 240.27 M239.18 407.71 C287.41 350.68, 336.46 294.48, 385.51 239.7 M246.22 408.46 C285.99 363.14, 326.07 315.14, 386.35 246.25 M245.55 407.12 C301.68 341.56, 357.34 278.54, 385.25 246.32 M250.41 407.98 C283.48 368.7, 317.23 328.32, 383.22 251.72 M250.11 406.98 C289.05 362.55, 326.38 319.5, 385.2 252.91 M253.91 406.16 C281.63 376.87, 309.65 342.77, 384.12 257.59 M254.9 406.55 C301.62 353.21, 347.34 300.5, 384.43 258.76 M262.32 406.47 C299.15 363.63, 335.55 319.86, 385.28 264.07 M261.3 407.79 C294.91 368.29, 329.21 327.94, 384.76 264.01 M267.66 406.91 C296.99 371.37, 325.8 338.26, 383.43 269.4 M266.33 406.99 C313.16 353.02, 360.15 300.31, 384.99 270.93 M270.52 408.03 C313.02 364.8, 348.13 318.74, 384.99 276.63 M271.24 406.34 C297.25 377.36, 323.49 347.26, 386.08 276.07 M278.19 406.63 C311.94 368.36, 346.87 326.11, 386.07 281.11 M277 407.67 C302.09 378.24, 327.91 348.91, 385.72 283.09 M283.41 407.28 C319.44 364.58, 354.57 326.53, 384.46 288.79 M281.28 407.12 C305.29 378.8, 331.16 349.42, 383.73 289.19 M286.55 407.92 C313.68 374.6, 340.2 341.85, 383.16 296.04 M288.05 406.93 C314.79 374.07, 340.52 343.95, 385.85 294.1 M294.26 407.4 C314.29 382.21, 336.46 356, 383.8 299.44 M292.58 406.06 C313.67 385.54, 334.03 362.41, 384.55 302.05 M297.69 407.06 C324.83 374.29, 354.02 342.96, 384.68 308.14 M296.96 408.02 C326.69 374.73, 356.23 341.3, 385.44 307.23 M303.15 406.24 C332.47 374.47, 357.72 340.43, 382.99 313.37 M303.15 407.49 C320.02 386.33, 337.06 367.65, 384.75 313.52 M310.35 407.94 C336.63 377.9, 364.6 342.78, 384.78 320.78 M308.5 408.12 C330.56 382.1, 351.49 357.32, 383.74 319.94 M315.03 406.28 C340.74 377.26, 365.65 349.95, 386.51 324.26 M314.81 407.19 C336.65 381.67, 360.09 354.03, 385.51 324.63 M319.16 408.15 C337.99 388.22, 354.79 365.45, 386.43 333.74 M319.82 407.34 C331.21 392.14, 346.21 376.41, 384.79 331.84 M325.66 408.68 C348.02 380.08, 370.4 353.59, 384.69 337.48 M324.24 407.33 C348.75 379.11, 371.6 350.67, 385.34 338.36 M328.56 408.9 C353.24 382.38, 374.88 356.81, 383.47 345.7 M329.34 407.7 C345.46 388.87, 362.62 370.48, 384.47 344.25 M335.68 407.23 C348.63 394.01, 358.51 377.73, 383.05 348.79 M335.92 407.53 C350.59 387.31, 367.19 370.53, 384.42 349.33 M338.85 409.09 C354.75 392.01, 368.67 375.44, 385.25 357.23 M339.86 408.14 C352.88 391.8, 367.93 376.62, 384.16 356.12 M344.55 406.41 C356.86 396.99, 365.63 386.81, 382.91 363.34 M345.16 405.82 C358.57 392.91, 371.02 379.22, 384.23 361.84 M352.17 407.25 C357.54 400.22, 366.02 389.65, 385.95 369.6 M351.47 407.54 C361.48 395.47, 370.93 384.76, 385.08 367.85 M356.59 407.32 C365.84 392.81, 379.44 380.94, 383.49 374.21 M357.11 407.65 C363.35 397.31, 370.56 389.16, 384.62 373.38 M362.5 407.58 C371.03 398.97, 377.94 387.36, 385.94 379.44 M362.62 407.67 C368.44 399.48, 376.21 389.76, 384.6 381 M366.3 406.5 C370.35 401.8, 375.84 395.1, 386.47 385.38 M367.1 407.65 C373.49 400.15, 378.78 393.56, 385.41 386.59 M373.6 405.98 C374.67 403.47, 376.97 402.78, 384.43 393.75 M373.02 406.29 C376.46 401.93, 380.39 396.92, 383.94 392.33 M378.29 407.09 C379.15 404.25, 381.67 400.75, 385.28 398.43 M377.82 407.54 C379.65 404.92, 381.01 403.29, 384.9 398.77" stroke="#ced4da" stroke-width="0.5" fill="none"></path><path d="M-0.2 -0.71 C112.91 1.27, 227.67 0.49, 382.19 -1.07 M-0.35 0.22 C151.35 1.11, 303.85 1.45, 382.59 0.14 M381.7 0.79 C380.62 121.45, 381.03 243.65, 382.05 405.1 M382 0.16 C383.63 88.05, 384.25 176.88, 382.44 405.65 M382.81 406.67 C288.98 406.28, 193.97 406.05, -0.2 405.8 M382.66 405.67 C293.24 406.34, 204.56 406.64, -0.41 405.46 M1.08 407.05 C-0.9 248.23, -0.59 90.31, 0.17 0.68 M-0.45 405.73 C-0.16 251.43, -0.43 95.7, 0.21 0.42" stroke="#000000" stroke-width="1" fill="none"></path></g><g transform="translate(155.46417236328125 157.72361755371094) rotate(0 35 12.5)"><text x="0" y="18" font-family="Virgil, Segoe UI Emoji" font-size="20px" fill="#1864ab" text-anchor="start" style="white-space: pre;" direction="ltr">Master</text></g><g stroke-linecap="round" transform="translate(630.1324615478516 146.66542053222656) rotate(0 191.05662536621094 203.02191162109375)"><path d="M0 0 C0 0, 0 0, 0 0 M0 0 C0 0, 0 0, 0 0 M0.31 5.75 C1.03 4.66, 3.09 1.14, 4.84 -0.27 M0.11 6.7 C1.37 4.03, 3.54 1.58, 4.97 0.37 M-0.49 12.05 C3.76 9.49, 8.64 5.48, 9.76 -1.4 M0.78 12.22 C3.07 8.54, 7.35 4.54, 10 -0.31 M-0.5 16.59 C3.61 12.22, 9.41 4.82, 14.03 2.03 M-0.34 18.47 C5.99 12.08, 10.92 5.65, 16.42 -0.22 M1.27 23.41 C7.26 17.41, 13.34 9.23, 20.74 0.05 M0.57 23.14 C7.47 15.37, 13.86 7.83, 22.06 -0.85 M-1.38 30.09 C5.55 22.94, 11.47 16.35, 25.06 -1.58 M-0.77 29.51 C5.66 23.99, 10.52 16.77, 25.77 1.03 M-0.2 36.07 C11.28 22.05, 23.16 8.53, 31.64 -0.01 M-1.08 37.07 C7.52 29.95, 12.71 21.68, 32.75 -0.57 M0.73 43.52 C14.85 26.21, 27.22 14.24, 36.61 0.97 M-0.03 41.56 C11.86 27.71, 24.74 15.17, 36.47 0.79 M-1.58 50.28 C12.38 30.52, 30.65 13.97, 44.12 -0.39 M-0.85 48.86 C15.7 30.56, 30.97 12.9, 43.18 -0.38 M-1.05 55.17 C16.23 34.96, 36.51 12.27, 48.53 0.76 M-0.48 55.42 C11.62 42.13, 24.32 26.81, 48.03 0.23 M-0.43 62.63 C13.14 46.41, 21.08 33.44, 54.99 0.53 M0.52 60.01 C12.1 46.71, 24.43 31.14, 53.62 0.35 M0.69 68.14 C18.05 47.65, 35.75 27.81, 57.6 -1.09 M-0.12 68.09 C15.24 49.99, 30.17 33.05, 58.03 0.93 M-0.72 71.01 C17.16 52.52, 33.03 34.97, 64 0.41 M0.96 73.77 C19.34 51.55, 39.17 29.62, 63.4 -0.28 M-1.73 79.34 C22.66 52.91, 42.95 26.68, 69.54 -1.36 M0.07 79.78 C25.21 49.5, 50.64 20.29, 68.03 1 M-1.48 83.35 C22.03 57.92, 44.24 31.48, 73.85 0.98 M0.42 85.84 C20.91 59.7, 41.59 36.91, 74.87 -0.72 M0.96 92.02 C24.19 69.03, 44.07 43.51, 79.02 1.2 M0.14 92.43 C29.69 55.87, 60.4 20.04, 79.65 0.97 M-1.45 98.44 C17.82 76.45, 34.88 54.69, 86.17 0.05 M0.23 97.16 C32.12 61.95, 63.61 24, 85.41 0.07 M1.66 104.71 C31.79 66.02, 66.25 30.25, 89.62 1.92 M-0.14 102.71 C19.52 79.62, 39.54 57.86, 90.55 -0.14 M-0.47 110.84 C33.45 67.87, 72.95 26.75, 97.51 -0.54 M-0.26 110.84 C36.82 68.59, 73.77 27.31, 95.43 0.59 M0.17 116.03 C21.7 90.74, 43.01 68.06, 101.89 -1.81 M0.01 114.73 C35.86 74.85, 69.22 36.31, 100.4 -0.84 M0.58 123.43 C30.97 85.65, 63.46 47.46, 107.39 1.13 M0.33 122.76 C41.72 73.78, 83.93 25.87, 106.38 -1.19 M-1.4 129.4 C25.82 96.46, 54.79 66.18, 109.3 1.45 M-0.24 128.86 C41.68 80.62, 82.87 31.68, 110.91 0.82 M-1.58 132.42 C44.76 83.83, 89.67 30.61, 117.58 -0.19 M0.1 134.5 C36.52 92.31, 72.55 51.93, 116.07 0.93 M-0.06 142.03 C35.27 100.11, 72.15 58.94, 122.25 1.23 M-0.73 140.63 C34.5 100.49, 68.79 58.63, 121.82 -0.73 M-1.28 144.08 C41.64 98.52, 86.17 51.87, 126.78 0.02 M1.16 146.1 C40.65 100.06, 79.42 54.98, 127.32 0.34 M0.15 153.37 C51.03 96.84, 101.44 38.05, 132.14 0.97 M-0.22 153.25 C53.11 93.84, 104.83 32.73, 132.86 -0.55 M-0.54 159.4 C45.76 101.81, 94.97 48, 138.52 0.59 M-0.91 158.84 C54.54 97.2, 109.56 34.68, 137.97 0.19 M-0.99 162.84 C47.52 109.54, 97.47 51.67, 143.12 -1.17 M0.14 164.93 C50.34 108.98, 99.31 53.35, 143.85 0.47 M1.14 171.4 C50.61 110.3, 102.43 51.82, 148.39 -0.14 M-0.78 170.29 C33.55 132.55, 66.23 94.29, 147.8 0.28 M-1.25 176.34 C30.7 136.33, 65 100.71, 152.72 1.39 M0.35 176.99 C52.24 114.13, 104.7 53.8, 152.97 0.47 M0.29 181.6 C54.08 121.48, 106.11 59.3, 158.41 -0.16 M-0.8 182.46 C47.24 128.1, 95.56 72.56, 159.02 0.01 M-0.18 190.16 C37.29 142.18, 76.63 97.35, 162.85 -0.14 M0.57 189.26 C59.54 122.17, 118.02 54.03, 165.19 -0.21 M1.48 195.4 C43.38 146.67, 85.37 100.38, 169.45 -0.91 M0.86 195.22 C65.06 119.15, 130.94 44.82, 169.6 0.06 M0.47 202.06 C46.11 148.79, 92.27 97.79, 175.89 0.8 M0.46 200.62 C49.43 146.55, 98.14 90.71, 175.39 -0.9 M0.13 206.69 C48.3 149.23, 98.28 93.46, 181.48 -0.49 M-0.43 207.27 C49.21 151.21, 97.51 94.91, 180.1 0.57 M-0.36 212.24 C59.52 144.76, 121.73 77.23, 185.49 -0.69 M0.26 213.28 C65.45 137.29, 130.46 62.79, 185.23 -0.65 M-1.71 218.46 C69.45 137.34, 141.26 57.74, 190.65 -0.19 M-0.3 220.07 C38.41 174.28, 76.01 130.1, 190.32 -0.19 M-0.88 226.15 C52.72 162.59, 106.53 102.09, 195.64 -1.45 M0.03 225.14 C73.04 140.45, 147.42 55.34, 196.21 0.21 M0.32 232.6 C66.74 155.81, 132.78 80.48, 201.54 -1.12 M-0.3 231.63 C53.35 169.35, 107.46 106.99, 200.81 0.2 M-0.27 237.18 C78.35 149.34, 153.28 63.13, 207.65 -0.14 M0.55 236.87 C61.16 166.93, 121.37 98.49, 206.77 0.34 M0.47 243.14 C65.56 171.14, 127.84 99.89, 211.8 1.43 M0.64 244.01 C46.52 192.23, 93.38 139.03, 211.36 0.69 M0.78 251.36 C53.69 186.69, 112.26 121.22, 217.79 0.35 M-0.18 250.8 C82.67 155.6, 165.43 59.67, 216.97 0.25 M0.32 256.35 C69.42 176.31, 138.36 95.49, 221.38 0.77 M0.01 255.96 C52.94 198.47, 102.79 139.95, 222.5 0 M0.23 261.27 C48.03 210.41, 93.14 157.37, 228.75 -1.11 M-0.04 262.46 C66.96 186.23, 132.37 111.66, 228.21 -0.63 M-0.69 268.65 C68.77 189.35, 135.41 111.26, 232.13 -1.02 M0.82 268 C79.97 178.65, 158.06 88.45, 232.76 0.59 M-1.07 275.23 C65.65 199.83, 128.18 127.52, 237.72 1.61 M0.44 274.81 C92.49 168.56, 183.9 63.29, 238.51 0.81 M-0.68 281.48 C69 199.44, 139.45 118.78, 244.95 0.34 M0.08 280.38 C52.94 217.51, 106.33 155.22, 244 0.5 M-0.05 285.23 C77.45 197.11, 155.01 107.88, 249.59 0.72 M0.72 285.78 C51.28 229.77, 101.4 170.93, 249.26 0.48 M-0.36 292.79 C57.67 223.72, 117.9 154.19, 255.24 -0.94 M-0.51 292.64 C51.41 230.7, 105.12 169.48, 254.85 0.12 M0.64 298.41 C55.66 238.16, 109.02 177.95, 260.3 -0.18 M-0.16 297.92 C57.07 233.06, 114.75 167.29, 259.93 0.73 M0.7 304.02 C99.7 189.05, 200.44 73.98, 265.32 -0.69 M-0.12 304.4 C71.65 221.53, 145.22 137.4, 264.74 -0.51 M-0.28 310.5 C58.84 243.56, 119.01 174.62, 269.74 0.24 M0.19 311.65 C69.4 233.16, 138.51 153.97, 270.62 -0.19 M-0.4 316.88 C75.53 233.29, 149.05 149.09, 276.56 0.33 M0.35 317.13 C66.82 240.95, 132.71 165.72, 275.92 -0.57 M-0.44 324.24 C64.27 249.84, 130.86 174.26, 280.44 -0.07 M-0.13 322.77 C79.44 233.82, 158.43 144.15, 280.41 -0.3 M0.56 329.72 C99.97 213, 200.43 97.49, 285.47 -0.56 M0.17 329.21 C103.8 207.59, 209.24 86.63, 286.67 -0.66 M-0.17 335.96 C89.52 228.84, 179.99 124.58, 290.92 0.26 M0.07 335.56 C59.99 267.43, 119.52 198.01, 291.51 0.25 M-0.89 341 C113.16 209.92, 226.07 78.87, 296.43 0.31 M0.03 341.26 C111.66 215.24, 222.41 86.78, 297.04 -0.59 M0.28 347.71 C103.51 227.25, 209.93 106, 302.33 -0.49 M-0.05 346.96 C92.31 244.84, 182.01 140.45, 301.98 0.59 M-0.63 353.82 C70.3 274, 139.74 194.62, 306.99 0.46 M-0.38 353.73 C69.06 276.13, 136.93 198.02, 307.58 -0.45 M0.26 359.43 C66.78 281.46, 135.01 204.08, 312.43 0.79 M0.18 359.63 C115.12 225.91, 230.37 93.85, 312.95 0.26 M-0.11 366.58 C74.04 280.48, 147.06 196.19, 318.19 -0.38 M0.43 365.68 C100.71 248.42, 201.41 132.37, 318.28 -0.51 M-0.19 371.86 C68.23 296.2, 135.88 218.18, 323.19 0.73 M-0.58 372.03 C117.74 234.31, 237.2 96.63, 323.63 -0.08 M0.4 378.26 C85.88 276.35, 174.15 176.51, 328.79 -0.72 M0.12 377.57 C103.97 257.89, 207.89 138.9, 328.76 -0.43 M0.38 383.48 C70.38 301.58, 141.31 219.9, 333.38 0.64 M-0.41 384.55 C68.04 306.14, 136.48 227.05, 334.24 0.28 M1.11 390.41 C100.15 274.84, 199.88 158.74, 338.9 -0.94 M0.71 389.97 C109.54 266.67, 216.84 142.3, 339.88 -0.1 M-0.52 396.61 C111.4 267.9, 222.32 139.53, 343.84 -0.74 M0.21 396.29 C113.42 267.6, 226.22 137.55, 344.12 -0.19 M0.3 402.77 C136.11 245.92, 273.23 88.54, 349.1 1.04 M-0.59 402.79 C97.04 291.45, 192.79 181.36, 349.85 0.33 M0.95 406.6 C82.78 312.18, 165.01 217.84, 355.8 -0.67 M1.64 407.07 C118.45 272.02, 235.83 137.16, 355.04 -0.38 M6.77 407.72 C119 274.75, 234.17 141.66, 359.89 0.3 M6.83 407.12 C141.55 252.35, 275.56 98.56, 360.06 0.66 M11.56 406.07 C99.28 307.42, 183.99 210.56, 366.04 -0.39 M11.96 406.6 C141.02 258.06, 269.61 109.92, 365.59 0.2 M16.93 406.53 C148.93 256.96, 280.67 107.05, 370.99 0.58 M16.81 407.06 C115.09 295.01, 212.37 182.65, 371.14 0.3 M21.54 408.02 C112.1 304.78, 201.76 201.72, 376.53 -0.29 M21.97 407.1 C131.89 280.35, 242.25 152.98, 376.76 -0.21 M28.49 406.82 C135.72 282.4, 244.25 157.42, 380.77 0.1 M27.37 406.86 C118.63 304.68, 207.47 201.99, 381.59 0.13 M33.46 407.86 C162.31 257.72, 292.82 108.47, 384.43 2.34 M32.45 407.79 C107.29 319.89, 182.89 232.82, 385.2 2.34 M38.7 407.73 C112.33 319.09, 187.61 232.72, 384.73 8.6 M38.07 407.23 C124.07 308.35, 208.69 211.56, 384.71 8.3 M42.7 408.1 C148.97 286.94, 252.45 167.29, 385.25 15.45 M43.39 407.52 C132.42 306.76, 221.16 205.08, 384.69 14.79 M48.38 407.61 C146.4 296.05, 243.38 185.01, 384.29 19.82 M49.27 406.66 C128.07 315.55, 206.91 224.53, 384.57 20.71 M54.44 407.3 C175.14 268.37, 295.61 128.03, 383.91 26.59 M54.28 407.38 C177.48 265.93, 300.37 124.75, 384.53 27.04 M60.31 407.25 C127.59 328.62, 194.94 252.78, 384.63 33.09 M59.76 407.03 C144.48 309.76, 228.45 213.83, 384.99 33.02 M63.82 407.24 C150.66 309.14, 237.72 209.21, 384.82 39.45 M65.03 407.45 C140.96 320.88, 216.15 233.46, 385.12 38.86 M69.59 406.61 C180.92 277.82, 295.12 147.84, 384.98 45.9 M69.91 407.24 C190.76 267.43, 311.26 128.2, 384.67 45.17 M75.33 406.48 C179.25 289.05, 283.04 169.06, 385.48 51.32 M75.06 407.62 C159.17 310.25, 243.26 213.23, 385.08 51.09 M81.63 406.57 C155.67 321.12, 231.36 234.54, 384.31 58.29 M81.03 407.1 C183.04 288.84, 286.49 170.51, 384.66 57.07 M86.44 407.06 C169.35 312.99, 252.6 217.71, 385.14 63.61 M86.02 407.46 C163.76 319.18, 240.71 230.77, 384.62 63.08 M91.98 407.32 C166.79 318.55, 245.2 228.69, 384.34 69.1 M91.86 406.59 C179.52 305.31, 266.61 205.46, 384.45 69.07 M97.43 407.57 C162.83 330.68, 228.1 256.7, 384.69 75.89 M96.5 407.24 C184 306.59, 272.39 205.3, 384.36 76.03 M101.71 405.99 C190.39 305.45, 277.55 202.95, 385.42 82.16 M101.88 406.99 C178.12 317.85, 253.79 230.23, 384.77 81.43 M108.11 406.25 C193.33 308.45, 278.09 209.08, 383.67 88.37 M107.39 406.98 C186.43 314.96, 265.93 224.45, 385.11 88.16 M112.73 406.73 C220.09 283.81, 326.02 160.68, 385.23 93.54 M112.64 406.85 C200.06 305.83, 288.09 204.18, 384.9 93.06 M117.67 407.7 C184.25 327.77, 250.09 251.23, 384.18 100.61 M118.13 407.51 C171.96 343.22, 227.18 278.53, 384.47 100.13 M123.31 406.64 C180.3 341.58, 238.44 275.54, 384.2 106.06 M123.78 406.94 C221.13 296.26, 317.59 184.29, 385.03 106.52 M129.18 408.18 C228.97 292.03, 329.03 176.56, 385.48 112.37 M128.65 407.23 C187.75 337.81, 248.38 268.36, 385.01 112.15 M133.63 406.57 C232.8 295.33, 329.27 181.48, 384.38 118.37 M133.01 408.04 C227.33 299.71, 319.67 192.72, 384.51 118.59 M138.37 408.09 C203.89 335, 269.5 260.08, 384.74 124.59 M139.49 407.5 C205.12 330.24, 271.96 253.15, 385 123.51 M144.11 406.45 C199.46 345.31, 253.81 280.27, 385.32 131.47 M143.47 407.72 C221.47 319.72, 299.68 229.51, 384.76 130.12 M149.65 407.99 C198.19 349.67, 248.3 295.57, 383.69 137.97 M149.4 407.09 C237.07 308.3, 324.23 208.33, 384.24 136.96 M153.64 407.45 C234.43 315.6, 314.16 222.02, 383.95 143.03 M154.09 407.24 C220.62 331.81, 285.65 256.39, 384.98 142.2 M159.57 405.9 C242.6 312.35, 324.02 218.25, 384.41 149.58 M160.26 406.86 C233.64 321.85, 307.05 235.57, 384.63 148.38 M165.04 406.05 C224.9 339.29, 284.24 272, 384.07 155.79 M165.75 407.52 C240.04 320.71, 317.31 232.15, 384.95 154.4 M171.63 407.87 C233.58 337.49, 293.53 266.99, 385.02 159.99 M170.84 407.43 C236.66 332.36, 302.01 258.36, 384.84 161.28 M176.64 408.03 C219.54 357.52, 262.67 307.06, 385.93 168.16 M175.28 407.16 C232.8 342.46, 288.16 280.19, 384.46 167.99 M180.53 406.62 C244.5 334.87, 309.56 259.67, 384.78 173.32 M181.86 406.27 C257.36 316.96, 333.2 229.21, 385.53 173.47 M187.16 406.99 C245.06 337.78, 304.7 269.6, 385.22 178.83 M186.31 407.77 C231.11 356.06, 275.61 305.49, 384.65 178.74 M191.25 405.69 C230.52 360.83, 269.56 314.18, 386.49 183.97 M191.97 407.51 C271.07 317.81, 347.77 229.55, 384.52 185.75 M195.83 406.2 C263.59 327.14, 332.61 248.27, 386.13 191.88 M197.02 407.06 C248.44 348.04, 298.77 291.44, 385.44 191.47 M202.56 406.09 C261.63 341.81, 318.88 276.04, 384.2 197.08 M203.48 406.24 C265.54 335.35, 329.42 261.73, 384.83 197.05 M208.8 407.9 C266.19 337.29, 327.52 268.24, 383.99 204.93 M208.48 407.42 C257.64 349.84, 306.81 292.59, 385.16 204.13 M212.18 405.87 C246.43 366.84, 280.07 328.59, 383.46 211.44 M213.48 407.58 C276.38 332.25, 339.61 259.22, 384.04 210.55 M217.65 406.59 C263.68 357.08, 305.67 307.23, 385.56 215.28 M218.67 407.14 C284.53 332.96, 350.11 257.63, 384.36 215.59 M223.24 406.14 C260.32 366.96, 294.17 326.07, 385.99 223.22 M224.43 407.02 C277.55 345.15, 331.89 281.28, 385.51 221.21 M230.28 407.77 C271.94 361.22, 310.79 313.73, 383.63 227.35 M228.68 406.33 C290.12 337.98, 349.23 269.16, 383.88 228.19 M234.97 408.2 C287.67 344.79, 338.36 285.04, 384.98 232.38 M234.94 407.53 C277.98 357.19, 321.38 309.63, 385.3 234.74 M239.23 405.66 C296.77 343.82, 352.48 279.82, 384.94 240.44 M239.8 407.24 C281.94 358.02, 324.75 309.98, 384.17 240.07 M245.58 406.56 C293.65 350.6, 343.09 294.78, 384.14 244.22 M246.05 406.7 C297.22 346.13, 350.53 285.88, 384.27 245.72 M251.13 406.24 C299.34 348.54, 351.81 290.47, 383.36 252.67 M249.91 407.5 C300.22 348.11, 350.2 291.44, 384.51 252.88 M255.01 406.6 C304.69 347.87, 352.91 291.83, 384.17 260.27 M255.64 407.56 C301.49 357.11, 344.86 305.73, 384.54 258.23 M259.52 407.16 C297.84 364.83, 333.27 326.04, 386.56 264.82 M260.3 406.65 C306.4 355.96, 351.74 305.04, 385.82 265.37 M264.27 408.81 C294.01 378.7, 320.96 344.54, 385.28 269.9 M266.11 406.83 C295.97 371.4, 326.94 335.95, 385.05 271.44 M269.74 407.68 C300.8 372.49, 330.48 340.02, 386.55 277.79 M270.72 406.63 C296.26 379.52, 321.53 351.03, 384.13 277.25 M275.43 407.66 C308.76 373.46, 336.15 341.14, 386.06 282.16 M277.23 406.82 C312.72 367.82, 348.36 326.93, 384.26 283.01 M280.56 408.98 C318.43 364.44, 352.98 324.3, 384.88 289.41 M282.73 406.05 C319.61 366.55, 355.71 324.73, 383.75 288.77 M286.12 408.93 C315.42 373.83, 342.32 340.56, 386.88 295.61 M286.38 406.58 C316.48 372.41, 349.01 336.56, 385.45 294.33 M291.57 406.38 C319.9 374.59, 350.05 339.02, 384.17 299.29 M291.98 407.93 C315.69 381.71, 338.04 355.74, 384.02 301.27 M296.9 406.48 C320.5 380.65, 344.33 355.93, 385.01 306.89 M297.99 406.6 C326.79 374.15, 356.74 338.43, 385.91 307.26 M303.3 405.26 C321.94 385.62, 342.95 363.54, 384.01 313.34 M304.15 407.74 C334.03 371.56, 365.09 336.98, 385.36 313.86 M307.27 406.24 C334.55 375.21, 365.07 340.31, 386.03 319.46 M307.49 406.85 C326.29 385.53, 345.36 362.45, 384.34 318.88 M313.24 405.07 C329.81 387, 348.41 368.34, 383.61 324.8 M314.95 407.45 C336.96 381.32, 360.47 355.04, 385.87 326.36 M319.68 406.18 C331.78 392.03, 346.59 375.58, 386.4 332.56 M319.37 406.78 C335.22 388.39, 350.76 368.95, 385.4 332.49 M323.78 407.33 C335.17 393.4, 350.78 379.58, 385.09 338.95 M324.11 407.47 C341.31 387.22, 359.04 368.16, 384.68 338.04 M331.5 408.34 C349.69 383.43, 372.23 356.58, 385.56 345.79 M329.12 407.28 C345.48 388.36, 360.32 371.7, 383.84 344.09 M334.27 407.62 C349.34 390.47, 364.61 372.76, 384.85 349.92 M335.42 406.7 C349.05 390.36, 363.51 373.14, 385.3 350.42 M339.05 406.84 C353.02 392.84, 364.44 377.11, 384.55 356.03 M341.28 406.74 C351.58 394.23, 362.99 380.68, 385.09 355.44 M345 407.56 C354.89 395.59, 363.69 387.07, 384.22 361.61 M346.68 406.51 C356.26 396.06, 366.22 384.62, 384.23 362.2 M349.59 407.84 C360.94 393.67, 369.69 382.4, 385.34 366.23 M351.42 407 C358.45 399.21, 366.48 390.55, 384.6 368.73 M357.2 406.87 C365.53 394.88, 376.16 386.2, 385.47 376.25 M355.71 406.71 C366.05 395.42, 374.37 385.58, 385.04 373.82 M361.29 405.58 C366.49 400.99, 371.35 393.02, 386.18 382.15 M362.15 407.37 C369.1 398.8, 376.94 389.68, 385.21 381.39 M368.35 408.05 C372.95 402.58, 378.34 395.96, 386.49 387.39 M365.73 408.36 C371.86 401.8, 376.63 395.88, 384.98 386.45 M371.34 406.38 C377.86 402.46, 379.97 399.92, 384.26 393.33 M373.05 406.66 C376.75 400.81, 382.45 395.02, 383.8 393.04 M378.22 408.63 C380.46 405.44, 381.5 402.14, 384.49 397.34 M377.66 407.01 C380.15 404.46, 383.09 401.14, 384.66 398.58" stroke="#ced4da" stroke-width="0.5" fill="none"></path><path d="M1.18 -0.79 C129.39 0.42, 260.09 0.77, 382.52 -0.49 M0.23 -0.23 C108.53 1.06, 218 1.58, 382.24 -0.04 M382.87 -0.4 C382.96 112.34, 382.28 224.13, 382.08 406.91 M381.95 -0.34 C381.86 160.48, 382.02 320.68, 382.11 406.25 M381.83 405.03 C283.56 404.02, 185.16 405.18, 0.03 405.57 M382.49 406.42 C273.18 404.8, 163.33 405.25, -0.24 405.75 M0.43 405 C-1.72 289.24, -2.1 172.82, 0.26 0.74 M-0.51 405.67 C-0.14 317.25, -0.36 226.96, -0.29 0.14" stroke="#000000" stroke-width="1" fill="none"></path></g><g transform="translate(643.3535614013672 154.8603973388672) rotate(0 26 12.5)"><text x="0" y="18" font-family="Virgil, Segoe UI Emoji" font-size="20px" fill="#1864ab" text-anchor="start" style="white-space: pre;" direction="ltr">Node1</text></g><g stroke-linecap="round" transform="translate(668.8791656494141 186.10826110839844) rotate(0 191.05662536621094 203.02191162109375)"><path d="M0 0 C0 0, 0 0, 0 0 M0 0 C0 0, 0 0, 0 0 M-0.14 5.82 C2.11 3.49, 2.86 2.79, 4.57 1 M-0.27 6.11 C1.18 4.62, 2.56 2.74, 4.97 0.62 M1.36 10.98 C3.42 7.2, 6.84 5.84, 9.88 0.78 M-0.33 11.44 C4.31 7.88, 7.77 4.63, 9.98 0.39 M0.52 18 C6.43 14.87, 8.21 5.98, 14.48 2.16 M0.76 18.95 C4.32 12.08, 11.07 5.91, 14.9 0.8 M0.61 25.02 C8.45 16.94, 15.43 8.77, 21.73 -0.61 M0.81 24.22 C6.07 18.8, 10.27 13.23, 21.3 -0.18 M-0.68 29.61 C7.93 18.82, 18.98 6.06, 27.86 0.51 M0.18 31.29 C9.47 20.46, 17.72 11.47, 26.34 -0.09 M-1.37 35.26 C9 26.73, 17.28 13.87, 30.17 0.67 M0.59 37.06 C7.07 28, 14.11 19.48, 32.4 -0.84 M1.79 40.76 C12.55 25.39, 28.01 8.63, 36.22 -0.3 M0.73 42.66 C14.29 27.19, 25.95 11.65, 37.39 0.72 M-2.05 49.87 C11.33 38.65, 23.25 24.5, 43.68 -0.52 M-0.04 49.04 C15.55 30.66, 29.41 13.35, 41.69 0.12 M1.37 53.36 C19.56 33.49, 36.7 11.83, 45.75 1.35 M0.62 55.04 C14.14 37.82, 30.5 20.55, 46.61 0.59 M0.85 62.47 C18.64 39.64, 35.44 21.2, 55 -0.58 M0.46 60.67 C20.56 37.16, 41.36 13.52, 53.26 0.35 M-1.12 67 C16.43 46.69, 30.34 31.84, 56.74 2.03 M-1.11 67.21 C17 48.16, 32.92 29.1, 59.05 -0.05 M0.34 72.89 C26.13 44.89, 50 16.59, 64.91 1.03 M0.76 72.73 C12.21 58.54, 25.83 42.22, 64.62 -0.46 M1.16 79.95 C15.96 62.32, 29.66 46.57, 67.49 1.24 M0.01 79.71 C25.76 49.6, 50.37 20.72, 68.24 0.23 M-0.49 83.88 C17.82 65.56, 31.66 49, 74.29 -2.23 M0.01 85.04 C27.71 53.35, 55.41 20.53, 74.79 -0.62 M1.18 89.71 C27.96 57.12, 61.1 23.07, 78.39 1.42 M-0.05 91.39 C22.02 66.93, 42.76 42.14, 80.16 -0.09 M-1.17 97.88 C31.84 62.93, 60.14 29.77, 84.03 0.05 M-0.84 97.21 C31.03 61.86, 61.89 25.12, 84.22 -0.38 M0.6 101.91 C18.5 79.02, 41.65 58.29, 91.91 -0.04 M0.81 104.35 C25.69 75.14, 50.7 45.69, 89.25 0.5 M-1.19 110.01 C28.84 78.19, 57.65 45.87, 95.13 -0.77 M-0.39 109.61 C34.04 71.41, 68.13 31.93, 94.87 0.04 M1.15 115.17 C24.97 85.55, 47.29 58.79, 100.54 1.16 M0.14 114.75 C30.98 79.55, 62.97 44.29, 100.46 0.54 M0.06 120.6 C28.18 85.89, 61.38 52.66, 104.63 -0.42 M-0.76 121.9 C25.39 94.18, 49.56 65.45, 106.13 0.43 M-0.03 129.77 C40.45 80.58, 79.1 34.18, 110.87 0.28 M0.33 127.52 C30.92 93.56, 62.7 57.85, 111.16 -0.41 M1.92 132.13 C36.05 91.44, 69.45 53.19, 116.98 -0.91 M1.08 134.03 C45.45 81.43, 89.63 28.95, 116.24 -0.62 M0.23 140.67 C43.03 88.65, 91.24 33.98, 123.53 -0.49 M-0.82 139.36 C33.06 100.98, 66.82 62.46, 121.22 0.25 M1.75 146.06 C36.79 104.48, 69.33 64.62, 126.65 -1.61 M0.6 146.98 C37.6 103.42, 76.61 59.43, 126.84 1.26 M-0.72 153.87 C40.28 109.1, 77.6 64.74, 133.15 -0.02 M0.02 153.17 C29.79 116.67, 59.43 82.02, 132.92 0.14 M-1.47 159.44 C39.95 114.83, 76.84 70.76, 138.16 1.23 M-0.81 159.42 C49.34 102.28, 100.04 45.19, 137.14 0.66 M-0.99 164.25 C30.26 127.7, 59.72 92.76, 144.51 1.51 M0.26 163.63 C37.82 122.29, 74.77 79.48, 143.2 -0.03 M-1.23 170.39 C50.55 109.97, 103.27 52.54, 148.9 0.04 M0.28 171.09 C39.06 124.9, 78.67 78.67, 148.26 -0.25 M1.07 174.81 C35.29 132.98, 72.57 92.16, 152.97 -0.17 M0.78 176.4 C44.83 127.59, 86.65 77.55, 153.29 -0.53 M1.11 181.69 C42.03 134.88, 81.81 88.14, 160.1 -0.54 M0.45 182.72 C33.36 142.16, 69.08 102.93, 159.1 0.1 M-0.24 189.75 C60.28 120.62, 119.86 51.14, 166.06 0.09 M-0.45 189.04 C35.58 147.57, 71.13 106.26, 164.63 -0.73 M0.22 194.27 C51.93 135.88, 104.39 73.78, 169.63 0.98 M0.88 195.2 C52.36 134.92, 105.46 74.57, 169.84 -0.02 M-1.62 201.8 C67.45 124.58, 135.55 44.42, 176.2 -0.36 M-0.53 202 C71.13 121.25, 141.4 41.86, 175.68 -0.86 M-0.72 208.11 C72.26 124.29, 140.89 46.69, 178.81 0.39 M-0.16 207 C62.6 134.19, 125.29 61.14, 180.27 -0.53 M1.09 213.53 C71.83 131.45, 143.38 49.47, 184.44 -1.59 M-0.71 213.17 C67.22 139.23, 132.74 62.15, 185.46 -0.31 M-1.01 220.12 C56.73 156.39, 115.2 89.93, 191.84 0.74 M0.07 219.82 C46.63 167.7, 92.62 114.26, 191.27 0.13 M0.33 224.25 C51.96 167.67, 101.7 107.69, 196.19 -1.5 M-0.39 225.99 C42.9 176.67, 86 126.41, 196.41 -0.77 M0.37 230.51 C80.75 142.85, 157.69 50.72, 200.8 -0.44 M0.33 232.25 C79.57 140.06, 159.98 47.31, 201.8 0.46 M0.97 236.9 C78.19 148.5, 153.76 60.94, 206.22 0.99 M0.56 237.78 C69.61 158, 138.03 78.4, 206.71 -0.1 M1.21 243.57 C80.7 149.45, 165.33 55.17, 212.86 0.95 M-0.5 244.46 C71.59 163.1, 143.49 81.25, 211.97 0.57 M1.11 249.92 C72.11 166.71, 144.03 85.91, 216.9 0.57 M-0.15 249.74 C50.35 191.71, 99.4 135.26, 217.85 0.12 M-1.16 256.26 C75.71 172.78, 149.19 87.79, 223.48 1.01 M0.19 255.33 C58.73 189.06, 117.45 123.33, 222.87 0.59 M1.07 263.03 C83.62 162.94, 171.22 64.91, 228.98 -0.1 M-0.31 262.08 C56.52 195.59, 114.12 130.86, 228.79 -0.78 M0.07 267.84 C53.82 206.4, 108.58 145.95, 233.96 -0.4 M-0.24 268.4 C71.16 188.32, 140.42 108.31, 233.8 0.63 M-0.64 273.63 C52.89 216.21, 105.21 156.24, 238.7 1.34 M-0.16 274.52 C83.33 180.81, 164.24 86.57, 238.27 0.58 M-1.06 280.29 C55.85 218.2, 108.63 158.46, 243.02 -0.37 M-0.68 280.66 C66.16 205.1, 132.75 129.32, 243.82 -0.4 M0.17 286.65 C50.18 228.37, 98.64 171.03, 248.41 -0.73 M0.35 286.19 C64.56 209.95, 129.26 135.48, 248.6 0.69 M0.58 292.48 C52.4 231.46, 102.6 170.93, 254.32 -0.57 M-0.43 292.77 C80.12 202.8, 158.37 112.29, 254.22 0.12 M0.12 297.58 C79.14 204.4, 160.49 109.39, 259.53 -0.39 M-0.22 298.69 C90.49 193.29, 183.19 86.96, 259.07 0.35 M-0.31 304.91 C58.01 236.17, 115.81 171.11, 264.18 0.32 M-0.37 304.51 C61.01 236.08, 123.09 164.89, 264.63 -0.1 M0.16 310.52 C108.03 189.53, 215.04 67.04, 270.5 -0.5 M-0.69 310.82 C103.2 194.78, 204.74 77.06, 269.91 0.21 M-0.06 316.76 C72.15 234.57, 142.2 154.09, 276.05 -0.35 M0.61 316.67 C103.24 197.27, 206.5 78.27, 275.53 0.28 M0.87 323.02 C95.83 216.19, 188.91 108.01, 281.13 0.15 M0.42 323.68 C80.63 229.74, 161.7 136.35, 280.48 0.26 M-0.68 328.89 C71.81 248.86, 143.11 168.01, 286.63 -0.23 M0.61 328.41 C107.33 203, 216.01 78.59, 286.04 0.32 M1.02 335.53 C77.37 245.98, 153.23 159.6, 292.27 0.08 M0.34 335.19 C72.33 251.75, 145.39 168.45, 291.49 0.04 M0.38 342.21 C81.11 248.24, 162.74 155.12, 297.16 -0.79 M-0.42 341.26 C113.17 213.02, 224.46 84.69, 297.1 0.24 M0.18 348.23 C109.01 222.56, 216.99 97.45, 301.82 -0.56 M-0.07 347.76 C68.19 270.22, 136.38 191.18, 301.85 0.59 M0.62 353.06 C111.24 226.33, 222.29 98.49, 306.84 -0.98 M-0.43 353.88 C63.14 281.12, 126.75 207.94, 307.4 -0.67 M-0.16 359.91 C77.25 269.02, 155.28 179.33, 312.6 -0.31 M0.55 358.93 C120.86 222.54, 240.48 84.39, 312.69 0.52 M0.7 365.16 C93.37 259.08, 186.53 153.27, 318.51 0.44 M-0.17 365.89 C69.45 285.25, 138.33 205.08, 318.25 -0.36 M0.52 372.44 C68.65 291.38, 137.36 213.04, 322.66 -0.15 M-0.12 372.49 C94.29 262.93, 189.72 152.77, 323.42 0.03 M0.88 377.22 C125.49 235.75, 250.93 91.55, 329.56 -0.03 M0.46 377.61 C83.95 280.41, 169.14 182.82, 328.87 -0.48 M-0.21 384 C119.66 245.32, 241.66 106.68, 334.44 0.3 M0.07 383.88 C112.23 255.96, 224.51 127.17, 333.75 0.44 M0.63 389.27 C103.6 273.27, 205.45 156.47, 339.49 -0.2 M0.22 389.69 C93.37 281.49, 187.09 173.59, 339.15 0.03 M-0.04 396.97 C93.35 287.87, 187.38 180.03, 344.67 -0.59 M0.19 395.85 C96.82 287.34, 193.52 176.64, 344.37 0.23 M-0.44 403.35 C92.3 294.61, 184.97 187.47, 350.24 -0.24 M-0.2 402.34 C115.41 270.37, 228.81 138.97, 349.73 0.52 M2.02 407.08 C127.85 262.23, 251.43 118.85, 355.77 -0.08 M1.88 406.44 C111.66 282.39, 220.29 157.1, 355.34 -0.09 M6.63 406.45 C92.3 310.75, 176.06 212.36, 359.32 1.06 M6.17 407.14 C136.13 259.61, 264.63 111.9, 359.77 0.51 M11.95 406.09 C106.15 300.03, 198.84 193, 366.17 -0.68 M12.32 406.98 C85.66 322.86, 159.09 238.75, 366.13 -0.4 M17.3 407.52 C133.8 271.64, 252.28 135.49, 370.32 -0.45 M16.98 407.37 C105.03 304.96, 193.86 202.24, 371.08 0.18 M22.87 408.11 C135.87 279.94, 247.05 151.91, 376.73 -0.51 M22.38 407.56 C149.91 262.53, 276.64 116.83, 376.38 -0.15 M27.19 406.29 C169.57 244.05, 311.29 82.03, 381.12 0.3 M27.78 407.44 C153.18 265, 277.66 121.88, 381.09 0.58 M32.64 406.78 C124.29 298.61, 217.94 193.05, 385.55 2.55 M33.05 407.08 C157.07 263.14, 282.36 118.85, 384.74 2.27 M38.27 407.08 C121.72 310.36, 207.32 213.56, 383.99 9.03 M38.25 406.84 C153.14 275.39, 266.56 143.91, 384.6 8.67 M43.61 408.01 C148.93 286.54, 254.81 166.52, 384.72 14.63 M43.15 407.49 C176.27 253.07, 309.37 99.86, 384.84 14.93 M48.55 407.45 C121.86 323.72, 195.09 240.29, 385.57 20.64 M49.07 407.1 C169 270.94, 288.19 134.17, 384.98 20.2 M53.99 407.71 C153.32 292.59, 251.72 180.39, 384.23 26.6 M54.35 407.61 C139.6 309.64, 225.2 211.23, 384.3 26.69 M60.07 407.69 C130.44 327.89, 199.04 248.02, 385.51 32.75 M59.47 406.94 C157.31 294.26, 254.83 182.32, 384.68 32.48 M65.25 406.94 C168.87 286.7, 275.29 165.23, 384.33 39.42 M64.91 407.08 C180.64 274.41, 295.56 141.25, 384.46 38.89 M70.92 407.7 C157.02 306.67, 246 205.25, 384.27 44.59 M70.55 407.12 C177.74 283.61, 284.94 160.5, 384.47 45.78 M75.62 407.23 C179.69 285.71, 286.18 163.03, 385.33 51.19 M75.22 407.15 C166.69 300.92, 258.74 195.18, 385.16 50.92 M81.51 406.79 C144.11 335, 204.71 262.59, 384.4 56.94 M81.07 407.18 C191.37 280.78, 300.13 155.52, 384.38 57.18 M86.68 407.15 C185.44 294.63, 284.54 183.07, 384.79 62.81 M85.5 407.54 C166.36 314.12, 247.53 219.97, 384.59 63.5 M91.45 407.49 C186.6 296.98, 281.56 186.69, 384.93 69.95 M91.7 407.05 C189.56 294.8, 286.59 183.84, 384.83 69.56 M96.45 407.4 C187.4 301.23, 281.72 192.78, 384.06 75.65 M96.77 406.88 C181.37 309.83, 266.13 211.1, 384.05 75.76 M101.32 406.25 C196.99 299.55, 290.42 192.94, 385.46 81.26 M102.45 407.19 C200.34 294.52, 297.7 182.86, 384.83 81.48 M106.75 407.24 C165.72 340.51, 225.33 272.92, 383.83 88.37 M106.83 406.7 C212.92 285.23, 319.1 163.93, 384.39 87.89 M112.94 406.76 C182.45 329.34, 247.83 253.24, 385.53 92.85 M112.53 406.55 C217.23 285.98, 322.93 164.97, 385.02 93.32 M117.63 406.26 C201.76 309.31, 286.65 211.44, 383.81 99.13 M118.23 406.65 C209.04 303.17, 300.6 198.4, 384.6 100.01 M122.87 406.12 C188.01 330.26, 254.79 253.01, 383.98 106.14 M123.51 406.71 C214.71 300.24, 307.13 193.8, 384.11 106.33 M129.17 406.89 C185.08 342, 243.88 276.65, 385.64 111.15 M127.94 407.5 C228.63 289.53, 329.5 174.13, 384.55 111.91 M132.28 408.07 C204.78 327.91, 273.84 246, 383.94 118.6 M133.35 407.38 C191.97 341.44, 249.5 275.05, 384.71 118.44 M139.05 407.69 C227.43 307.87, 313.41 208.24, 385.22 125.25 M139.31 406.52 C227.86 306.88, 315.78 205.35, 385.58 123.98 M143.51 406.54 C238.17 297.49, 334.04 189.42, 384.48 130.31 M144.45 407.69 C220.14 316.72, 298.25 226.07, 384.86 130.96 M149.65 407.57 C236.29 306.44, 322.25 206.82, 383.39 137.32 M149.65 406.82 C213.07 336.09, 274.29 265.09, 385.1 136.83 M155.8 406.58 C204.42 349.31, 255.69 291.91, 385.31 143.73 M155.18 407.21 C206.44 348.4, 259.17 287.45, 385.32 142.01 M161.19 405.82 C247.69 302.05, 337.93 199.44, 384.68 150.05 M160.68 406.86 C234.95 322.52, 308.82 237.19, 385.11 149.44 M165.04 407.13 C231.91 330.84, 300.88 252.89, 386.11 154.23 M164.71 407.94 C219.43 342.57, 276 278.84, 385.22 154.77 M171.16 407.84 C213.82 355.53, 256.17 306.75, 385.28 160.09 M171.34 407.55 C255.84 310.27, 340.32 212.98, 384.71 161.12 M176.29 406.21 C257.47 313.02, 339.11 219.37, 385.89 166.25 M176.59 407.35 C258.79 311.06, 341.12 215.08, 383.96 166.76 M182.47 406.23 C260.63 317.68, 340.84 225.49, 385.89 173.4 M181.43 407.13 C238.3 340.59, 297.25 273.72, 385.37 172.34 M185.29 406.54 C249.01 336.3, 311.8 263.3, 385.62 180.4 M186.58 407.6 C261.56 319.83, 337.44 233.21, 383.98 179.98 M192.56 407.97 C235.39 360.41, 278.1 310.28, 385.85 184.19 M191.8 406.56 C237.13 353.61, 284.32 298.56, 384.72 184.42 M197.76 407.49 C251.76 345.46, 303.57 281.66, 384.32 191.44 M197.65 407.46 C237.36 363.21, 275.67 319.19, 385.52 191.73 M201.61 406.45 C271.93 325.16, 345.34 242.14, 385.37 198.03 M203.06 406.95 C258.8 343.14, 313.98 279.85, 384.31 197.35 M209.34 407.44 C254.76 352.46, 303.05 298.69, 384.81 202.61 M207.34 407.85 C242.07 365.67, 276.88 325.45, 384.48 202.72 M213.1 407.55 C257.96 351.37, 305.16 299.13, 385.19 208.54 M213.85 406.45 C266.87 344.1, 320.2 281.5, 385.2 209.57 M219.94 406.94 C275.93 339.04, 334.47 269.99, 383.87 215.18 M218.08 407.45 C280.29 336.61, 343.06 263.69, 385.49 215.48 M224.43 405.6 C263.9 362.37, 302.47 316.79, 385.71 223.22 M223.83 406.25 C274.32 348.29, 326.08 289.6, 385.16 222.61 M227.83 405.75 C292.76 337.05, 354.65 265.97, 383.93 228.78 M229.69 407.29 C268.8 361.22, 308.89 316.02, 384.33 228.58 M236.1 405.18 C290.47 343.75, 344.77 281.1, 386.48 235.18 M233.88 406.02 C290.73 343.41, 345.9 280.6, 384.51 233.12 M239.79 406.13 C295.45 346.08, 350.53 280.73, 386.41 241.4 M238.87 407.68 C277.29 363.53, 316.38 319.46, 384.72 239.84 M245.2 405.27 C290.58 355.99, 332.05 303.78, 385.28 246.25 M244.55 407.17 C286.81 358.04, 331.27 308.12, 385.79 245.26 M251.06 406.12 C285.77 368.1, 317.71 327.9, 383.65 254.08 M249.48 406.35 C294.55 353.34, 340.32 302.66, 384.72 252.8 M255.11 406.16 C286 368.5, 319.65 332.82, 384.45 258.23 M255.28 406.57 C283.02 378.51, 308.14 348.93, 384.36 258.09 M261.87 406.11 C297.65 364.55, 335.36 323.1, 386.34 264.33 M260.78 407.21 C296.61 363.88, 335.01 321.71, 384.12 265.23 M264.23 407.23 C304.84 362.14, 345.25 319.23, 383.04 269.99 M265.11 408.08 C301.38 365.92, 335.69 325.08, 385.06 271.34 M270.29 405.82 C309.66 358.26, 351.07 314.13, 383.29 277.91 M272.45 406.04 C304.36 368.42, 337.9 331.22, 384.35 276.22 M276.75 406.5 C298.96 379.73, 323.14 355.09, 384.08 281.5 M276.28 408.21 C306.21 373.7, 335.68 340.43, 385.69 283.76 M280.81 407.57 C322.89 358.17, 365.81 311.51, 385.87 290.94 M282.38 407.25 C317.17 367.04, 352.26 326.4, 383.59 289.95 M285.57 406.38 C325.14 363.65, 361.08 325.26, 385.26 294.88 M287.24 406.72 C324.92 364.73, 360.94 323.22, 385.08 294.48 M291.88 408.72 C326.34 366.67, 359.4 329.21, 383.62 302.01 M293.02 406.34 C329.75 364.73, 365.67 321.67, 385.45 300.3 M299.69 406.21 C327.22 373.47, 356.6 340.63, 386.34 307.21 M297.95 407.36 C322.73 377.78, 347.88 349.22, 384.52 307.65 M304 405.61 C329.4 376.58, 356.26 345.23, 384.18 312.91 M303.3 407.83 C328.55 377.59, 354.51 348.43, 385.07 313.45 M308.15 406.28 C329.65 385.1, 347.17 362.68, 384.49 319.23 M307.81 407.95 C328.95 383.9, 350.12 360.43, 385.13 319.25 M315.75 405.48 C335.72 382.64, 354.4 357.21, 383.9 325.61 M314.61 407.31 C330 389.32, 346.31 372.23, 385.7 324.87 M320.04 407.8 C344.27 378.1, 367.92 350.8, 384.92 332.39 M319.69 406.31 C345.03 377.64, 370.4 346.91, 384.46 331.96 M323.77 406.52 C338.97 389.08, 355.71 371, 383.21 339.01 M324.81 407.38 C347.2 380.1, 370.34 354.07, 386.06 338.04 M328.55 408.95 C350.89 385.08, 371.57 361.89, 384.92 345.32 M329.95 406.32 C350.31 385.38, 368.88 362.87, 384.55 343.82 M334.76 405.86 C350.04 391.39, 365.71 372.05, 385.93 349.73 M336.23 407.65 C350.77 388.01, 366.87 370.17, 383.68 349.25 M338.91 408.81 C357.33 392, 371 372.97, 384.5 354.83 M340.38 407.88 C349.02 396.88, 359.35 386.41, 384.58 355.1 M345.49 407.56 C360.44 391.46, 370.32 378.57, 385.92 361.03 M345.67 406.81 C359.91 391.13, 372.81 375.62, 385.53 362.53 M352.4 407.42 C357.53 396.15, 369.17 389.86, 385.73 368.66 M350.29 406.9 C360.73 396.57, 369.48 387.2, 384.19 367.12 M354.77 406.63 C365.56 397.49, 374.82 386.2, 383.12 375.39 M356.39 406.53 C366.95 395.1, 379.2 381.11, 384.08 374.23 M362.38 405.76 C369.38 398.42, 374.27 391.66, 384.1 382.28 M362.42 407.35 C370.66 396.28, 380.05 386.1, 384.84 381 M366.84 405.77 C370.87 402.93, 375.5 395, 386.21 387.47 M367.47 408.3 C372.87 400.07, 377.15 394.31, 385.93 385.96 M370.37 405.79 C377.3 400.69, 382.13 399.04, 383.2 391.84 M372.95 407.21 C375.65 402.92, 379.5 398.56, 384.42 392.6 M377.67 407.97 C379.43 406.22, 379.61 402.52, 384.39 397.47 M376.76 408 C379.86 404.65, 381.58 402.07, 385.13 398.97" stroke="#ced4da" stroke-width="0.5" fill="none"></path><path d="M0.99 -0.22 C100.32 -1.87, 203.1 -1.78, 381.82 -0.95 M0.53 -0.12 C147.22 2.11, 294.57 1.69, 382.32 0.48 M382.94 0.56 C382.51 99.72, 383.74 199.01, 382.91 405.76 M381.89 0.17 C382.29 124.4, 382.36 248.33, 381.92 406.49 M383.26 405.22 C297.16 405.94, 212.2 406.1, -0.54 405.33 M382.21 405.58 C302.6 407.86, 224.26 407.41, -0.44 405.76 M0.56 406.08 C-2.23 254.08, -2.15 102.25, -0.1 -0.14 M0.08 405.58 C2.12 282.83, 2.52 158.34, 0.26 0.48" stroke="#000000" stroke-width="1" fill="none"></path></g><g transform="translate(682.1002655029297 194.30323791503906) rotate(0 30.5 12.5)"><text x="0" y="18" font-family="Virgil, Segoe UI Emoji" font-size="20px" fill="#1864ab" text-anchor="start" style="white-space: pre;" direction="ltr">Node2</text></g><g stroke-linecap="round" transform="translate(712.6800689697266 231.52052307128906) rotate(0 191.05662536621094 203.02191162109375)"><path d="M0 0 C0 0, 0 0, 0 0 M0 0 C0 0, 0 0, 0 0 M-0.1 6.48 C1.09 4.98, 2.81 2.94, 5.31 0.81 M-0.54 6.64 C1.59 3.88, 3.69 1.87, 4.62 0.7 M0.78 13.07 C3.56 9.94, 5.94 5.95, 11.36 -1.06 M-0.5 12.15 C4.01 8.34, 6.91 3.14, 10.66 -0.46 M-0.21 17.67 C3.71 14.03, 8.59 6.31, 16.32 0.2 M0.61 18.17 C2.9 15.22, 6.63 11.72, 15.08 0.7 M0.34 25.25 C3.84 16.05, 11.54 12.64, 22.45 -1.07 M0.15 24.02 C7.95 15.78, 15.88 6.13, 21.48 0.69 M-0.83 29.55 C7.22 23.74, 14.1 13.31, 27.53 -0.72 M0.82 29.89 C7.5 21.22, 16.71 11.62, 25.33 -0.53 M-2.22 37.33 C7.76 24.15, 16.96 16.02, 33.13 1.78 M-1.15 37.54 C10.12 26.09, 18.9 14.72, 32 -0.88 M-0.02 41.44 C12.84 28.87, 26.53 14.51, 38.86 -0.29 M-0.74 42.24 C9.81 31.43, 20.3 19.61, 36.78 -0.55 M1.28 49.79 C14.08 32.97, 27.69 14.31, 43 -0.25 M-0.88 48.78 C14.2 31.13, 29.88 13.97, 43.48 -0.34 M0.89 54.61 C15.5 33.58, 32.65 17.35, 48.67 -1.45 M-0.46 53.78 C14.59 38.84, 29.18 21.62, 48.45 0.05 M-0.19 61.17 C21.13 38.3, 38.62 13.24, 52.4 -0.59 M-0.32 61.53 C16.01 41.58, 33.76 23.41, 53.18 -0.3 M0.83 69.12 C12.94 50.42, 28.04 31.64, 58.29 0.89 M0.66 68.28 C12.97 51.88, 27.27 34.95, 58.36 0.15 M1.92 73.34 C12.73 56.49, 26.64 44.74, 62.62 1.4 M0.93 72.29 C16.92 52.23, 35.89 32.03, 64.42 -0.91 M1.65 80.87 C22.69 54.98, 44.48 27.07, 67.97 -0.1 M-0.4 79.71 C14.81 62.94, 28.72 47.77, 69.6 0.08 M-0.86 84.21 C31.03 52.62, 59.39 17.36, 75.87 0.43 M0.33 85.04 C24.09 59.06, 45.08 32.26, 74.52 0.18 M0.18 90.04 C26.41 63.36, 52.06 31.85, 80.9 0.82 M-0.58 90.79 C28.11 58.59, 55.7 27.2, 80.25 -0.33 M1.23 96.52 C29.45 64.28, 57.33 30.14, 83.33 1.25 M-0.3 97.96 C32.65 60.04, 67.25 21.67, 84.85 -0.25 M-1.19 102.17 C26.62 70.15, 52.76 39.05, 91.21 0.94 M-0.14 103.93 C26.48 73.32, 51.58 43.28, 89.45 0.2 M-1.11 110.8 C21.4 81.2, 44.98 54.69, 97.07 -1.3 M-0.16 110.45 C28.52 78.48, 57.31 44.66, 94.8 -0.93 M0.89 116.82 C24.6 87.77, 50.41 57.55, 99.97 1.62 M0.69 116.03 C26.44 85.18, 51.82 57.1, 101.36 0.41 M-0.22 121.91 C29.91 88.09, 59.77 52.87, 106.14 1.65 M0.65 121.65 C34.27 83.47, 68.09 44.94, 105.82 -0.11 M-1.94 128.38 C24.36 97.77, 51.87 67.53, 111.16 0.27 M-0.94 129.21 C38.83 82.92, 76.92 38.73, 111.18 0.53 M-0.85 132.03 C31.24 96.5, 63.83 59.73, 115.86 1.81 M-0.3 133.41 C33.3 96.52, 65.4 58.58, 116.69 1.15 M0.84 139.05 C26.42 112.28, 49.33 80.27, 123.75 -1.62 M0.12 139.77 C37.62 96.03, 75.93 51.51, 121.13 0.25 M-0.81 147.38 C25.83 116.04, 51.45 85.68, 126.44 -1.31 M-0.43 145.02 C25.86 116.39, 53.66 85.23, 126.22 0.03 M-1.13 151.45 C38.79 108.14, 77.5 66.44, 131.7 1.32 M-0.84 152.75 C46 100.9, 91.02 48.47, 132.48 0.65 M0.31 158.99 C40.18 112.48, 84.19 63.77, 137.13 0.14 M-0.69 158.13 C31.34 124.23, 60.74 89.82, 137.31 0.4 M-0.98 165 C30.31 128.12, 66.4 87.36, 143.48 -0.71 M-0.15 164.95 C36.82 120.88, 74.27 77.56, 143.45 0.49 M0.06 171.64 C50.05 112.44, 101.97 51.34, 148.5 -0.62 M0.6 171.15 C57.79 104.72, 115.82 38.15, 147.53 -0.03 M1.07 177.9 C48.89 116.98, 100.42 62.2, 155.06 0.98 M0.27 175.83 C56.38 112.7, 111.95 50.09, 153.54 -0.09 M0.56 184.51 C58.44 115.7, 116.58 48.51, 158.62 -0.61 M0.84 182.97 C58.67 117.04, 116.77 50.04, 158.33 0.56 M-1.55 187.65 C59.91 121.33, 120.5 51.58, 165.37 0.94 M-0.25 189.29 C61.21 118.93, 122.86 49.39, 164.77 0.2 M0.07 196.35 C64.8 118.1, 128.08 45.48, 169.76 1.13 M0.7 194.65 C54.93 132.34, 108.74 71.17, 169.34 0.9 M0.66 201.02 C42.48 153.64, 84.26 108.09, 175.82 0.74 M-0.37 200.64 C47.59 148.43, 93.96 93.9, 174.96 0.54 M-0.62 206.12 C72.48 124.97, 146.41 42.57, 181.5 0.79 M0.04 206.71 C67.84 130.02, 135.85 50.59, 180.27 0.27 M-0.33 212.31 C63.27 143.96, 124.87 70.99, 186.82 -1.24 M-0.72 212.78 C51.14 154.62, 101.29 96.3, 186.04 -0.24 M0.72 219.75 C47.76 167.37, 93.81 112.69, 191.18 -0.38 M0.34 219.97 C40.73 172.64, 81.09 125.44, 190.89 -0.14 M1.52 226.23 C72.24 144.76, 143.12 61.17, 195.02 -0.45 M0.26 224.97 C50.54 169.12, 101.31 111.04, 196.04 -0.57 M1.32 231.56 C65.71 152.43, 134.7 75.66, 200.07 0.19 M-0.27 231.13 C47.96 174.18, 96.6 119.2, 201.01 -0.38 M0.76 236.98 C66.16 163.29, 129.02 88.62, 208.11 -1.45 M-0.36 236.91 C70.99 156.51, 141.89 76.99, 206.84 -0.89 M-0.93 244.31 C61.61 171.44, 126.76 98, 212.73 0.6 M-0.3 243.23 C47.19 188.72, 96.96 131.76, 211.91 -0.16 M0.86 249.93 C63.96 178.51, 127.55 104.89, 218.32 0.08 M-0.25 250.78 C59.31 179.42, 120.38 108.41, 218.02 -0.58 M0.05 257.1 C83.66 161.18, 169.11 63.33, 222.95 0.57 M0.11 256.52 C66.3 180.32, 130.64 105.12, 222 -0.27 M-0.56 261 C71.24 182.2, 142.09 102.47, 228.79 -0.01 M0.52 262.65 C65.21 183.69, 133.16 106.79, 228.56 -0.77 M1.06 269.17 C93.85 162.71, 184.99 55.84, 233.75 1.2 M0.22 268.29 C68.5 189.75, 136.08 112.49, 233.82 0.18 M0.82 275.08 C65.9 200.11, 130.3 126.88, 238.36 0.58 M0.16 274.04 C55.13 210.83, 112.25 145.22, 237.61 0.51 M0.5 280.71 C95.97 171.24, 191.28 60.68, 243.36 -0.24 M-0.64 280.38 C56.44 217.62, 111.05 154.65, 243.38 -0.2 M0.14 287.28 C96.31 173.78, 195.97 60.73, 249.71 -0.71 M0.12 285.88 C56.31 223.56, 110.97 161.11, 249.37 0.03 M0.65 292.12 C54.09 231.09, 106.63 170.32, 255.55 -0.08 M-0.54 293.06 C62.03 219.6, 126.88 145.37, 254.39 0.05 M0.77 299.27 C101.57 181.97, 204.51 65.76, 260.37 0.64 M0.51 298.08 C101.53 183.74, 200.98 68.2, 259.25 0.3 M1.05 305.78 C76.19 219.85, 149.16 134.58, 264.99 -0.89 M-0.17 304.9 C72.68 220.68, 144.81 137.37, 265.5 0.14 M-1.22 312.13 C75.3 221.82, 154.59 132.99, 270.47 1.18 M-0.32 311.56 C91.04 205.63, 182.03 101.65, 270.05 0.24 M-0.83 316.65 C70.45 232.68, 141.64 151.13, 276.33 0.63 M-0.07 317.02 C90.57 212.01, 182.26 107.32, 275.58 -0.3 M-0.44 323.63 C111.29 195.69, 224.48 66.57, 281.66 0.2 M0.2 323.1 C89.44 219.87, 178.98 117.32, 280.45 -0.24 M0.54 328.75 C114.66 198.54, 226.24 69.11, 285.76 0.05 M-0.18 329.04 C64.53 255.3, 129.87 181.91, 286.79 -0.34 M0.28 334.97 C104.83 215.95, 206.64 96.45, 290.79 1.11 M0.5 335.27 C64.29 262.14, 129.69 186.74, 290.86 0.49 M0.75 342.28 C99.57 228.36, 199.3 112.17, 296.39 0.57 M-0.6 342.12 C86.22 242.69, 173.45 142.2, 297.03 0.05 M-0.39 347.48 C85.58 250.05, 172.43 150.38, 302.31 -0.78 M-0.16 346.94 C117.09 212.41, 234.56 76.38, 302.12 -0.25 M-0.57 353.5 C105.18 233.34, 211 111.52, 307.53 0.23 M0.01 353.92 C70.06 275.61, 138.28 197.69, 307.37 0.18 M0.47 359.55 C67.15 281.46, 133.89 205.26, 312.25 -0.34 M0.33 359.2 C65.91 284.18, 130.48 209.72, 312.65 0.49 M-0.7 366.56 C86.09 268.9, 170.95 169.67, 318.98 0.09 M-0.3 366.04 C78.23 275.58, 157.07 184.45, 318.67 -0.29 M-0.11 371.57 C89.67 266.43, 182.45 160.71, 323.67 -0.18 M-0.37 372.18 C97.66 260.12, 195.84 147.32, 323.34 -0.21 M0.97 377.69 C124.42 233.73, 248.68 91.6, 329.38 0.19 M0.31 378.1 C114.74 243.86, 231.18 110.64, 329.2 -0.62 M-0.73 384.08 C112.11 255.04, 222.8 128.07, 333.86 -0.75 M0.11 384.06 C120.24 245.74, 241.52 106.02, 333.7 -0.14 M-0.06 390.07 C114.43 259.61, 226.67 129.84, 339.53 -0.15 M0.66 389.61 C87.94 287.18, 176.98 184.64, 339.91 -0.04 M-0.06 395.77 C105.12 277.59, 208.02 159.37, 344.75 0.67 M-0.3 396.28 C105.52 274.83, 211.39 152.72, 344.5 0.07 M0.35 402.62 C72.57 320.28, 143.89 237.06, 349.77 -0.06 M-0.59 402.98 C89.39 300.47, 177.46 198.31, 349.37 0.01 M0.72 407.19 C84.75 314.79, 164.59 220.72, 354.53 0.43 M1.51 406.59 C113.26 278.15, 224.76 149.39, 355.3 -0.39 M6.39 407.72 C99.48 298.43, 193.72 191.81, 359.62 -0.1 M6.56 407.38 C128.45 266.01, 251.89 123.88, 359.77 0.02 M12.21 407.32 C108.44 296.36, 203.58 188.05, 365.83 -0.29 M12.05 406.98 C84.37 323.14, 156.84 239.3, 366.07 -0.11 M17.09 407.41 C152.14 249.58, 288.16 93.91, 370.23 0.67 M17.35 407.05 C128.54 278.57, 240.1 150.59, 370.54 0.52 M22.86 407.98 C119.36 298.38, 215.81 187.03, 376.01 -0.31 M22.5 407.6 C108.05 309.37, 194.65 209.8, 376.4 -0.34 M27.19 407.72 C112.1 310.52, 196.58 213.57, 382.14 0.04 M27.58 406.72 C123.99 296.28, 219.25 186.13, 380.97 -0.13 M32.63 407.35 C168.87 250.39, 304.36 93.33, 384.85 2.25 M32.83 407.55 C154.6 267.86, 276.35 127.46, 385.13 2.17 M38.13 406.96 C146.96 280.02, 256.16 155.81, 384.29 8.16 M38.21 407.22 C133.69 296.57, 229.74 186.1, 384.76 8.15 M43.13 406.72 C135.79 301.19, 229.31 193.89, 384.87 15.35 M43.44 407.6 C136.33 300.67, 229.31 193.31, 384.65 14.86 M49.35 406.68 C147.67 295.48, 245.51 184.73, 385.12 19.94 M49 406.74 C162.1 274.92, 277.01 143.18, 385.16 20.37 M53.75 407.45 C151.6 297.82, 248.01 185.07, 385.2 27.32 M53.79 407.15 C129.54 317.84, 206.64 229.31, 384.84 26.95 M59.85 406.84 C140.93 311.79, 223.79 217.34, 384.8 31.89 M59.32 407.28 C131.48 323.32, 204.38 239.9, 384.79 32.47 M64.27 406.9 C163.07 292.75, 261.42 179.86, 384.04 38.6 M64.99 407.38 C153.35 303.8, 243.31 201.15, 384.68 38.7 M69.75 407.48 C163.51 300.47, 255.73 195.59, 384.77 45.94 M70.61 406.56 C140.09 324.7, 210.51 243.02, 384.75 45.13 M74.86 406.44 C163.32 307.65, 250.67 206.27, 384.72 50.51 M74.85 407.24 C173.96 295.18, 271.37 182.3, 385.04 51.08 M80.49 406.89 C173.06 302.21, 264.56 195.62, 383.79 57.57 M80.52 407.09 C200.42 268.2, 321.89 128.79, 384.9 57.84 M86.18 406.84 C169.69 307.9, 255.92 209.9, 385.25 62.85 M86.31 407.56 C172.09 306.32, 258.57 207, 384.67 63.14 M91.39 406.83 C202.82 277.79, 313.76 148.22, 384.35 68.61 M91.5 406.83 C190.84 294.53, 289.79 180.46, 384.69 69.92 M97.51 408.09 C182.57 309.66, 268.46 213.18, 383.93 76.18 M96.07 407.61 C211.37 275.26, 325.75 144.17, 384.9 76.19 M103.15 407.5 C163.19 331.97, 227.21 259.43, 384.65 81.53 M101.97 407.11 C210.99 281.24, 320.85 155.03, 385.32 81.87 M106.29 406.98 C213.19 284.08, 319.7 162.84, 384.5 88.75 M107.43 406.72 C185.29 317.55, 261.65 229.9, 384.72 88.05 M113.8 406.96 C206.49 301.57, 296.66 196.01, 385.13 93.95 M112.72 407.1 C176.65 332.45, 241.33 257.75, 385.03 93.5 M118.88 407.43 C202.93 307.26, 291.34 207.3, 384.2 101.03 M117.82 407.67 C175.79 337.96, 235.28 268.45, 384.57 99.51 M122.69 407.47 C178.51 341.15, 236.72 276.41, 383.94 107.12 M123.01 406.64 C209.9 306.31, 295.57 207.77, 384.46 106.71 M129.52 406.1 C181.88 345.34, 237.91 283.72, 384.55 112.76 M128.76 407.13 C222.38 297.31, 317.38 188.26, 385.18 111.45 M132.53 407.76 C232.09 297.55, 328.29 187.17, 383.9 119.04 M133.1 407.15 C195.52 334.91, 257.37 264.31, 384.11 118.12 M139.14 407.54 C193.47 345.2, 247.78 281.18, 384.26 123.66 M138.47 407.45 C214.98 322.54, 288.78 236.47, 385.66 124.62 M142.98 406.46 C224.28 310.49, 306.61 217.19, 384.26 131.11 M143.57 407.62 C219.72 320.56, 294.83 233.01, 384.88 130.25 M149.51 408.28 C206.77 341.37, 263.06 276.86, 385.58 136.74 M149.92 406.66 C209.68 339.41, 266.81 272.37, 384.9 136.47 M155.95 407.11 C203.38 350.78, 249.96 296.52, 385.49 142.9 M154.83 407.71 C204.29 348.83, 254.8 290.35, 384.73 142.91 M160.67 408.23 C218.45 337.02, 278.43 268.08, 384.57 147.9 M160.03 406.71 C222.2 333.97, 285.54 261.79, 384.4 149.23 M165.59 407.65 C230.69 332.33, 298.22 256.26, 386.07 155.27 M164.8 407.15 C248.07 310.06, 331.89 214.14, 385.32 154.81 M170.54 405.94 C250.84 313.84, 334.87 219.08, 384.7 160.42 M170.72 407.47 C242.18 326.25, 311.78 245.71, 384.43 160.74 M175.56 408.47 C243.47 327.95, 314.25 247.28, 384.24 168.59 M175.97 406.64 C252.02 318.74, 330.59 229.25, 385.15 166.96 M180.25 407.01 C220.97 359.7, 264.36 311.84, 384.35 174.4 M181.38 406.24 C256.16 321.52, 329.53 237.43, 385.37 173 M186.47 407.18 C233.2 352.62, 282.6 294.97, 383.63 179.54 M186.18 406.63 C249.29 333.88, 311.64 263.11, 384.59 179.96 M191.8 407.51 C234.3 359.78, 276.95 309.71, 383.78 184.03 M192.81 406.19 C267.35 318.23, 343.66 230.9, 385.45 184.93 M198.19 407.1 C262.5 331.32, 327.52 257.68, 383.97 191.32 M196.7 407.23 C249.43 349.85, 301.35 290.31, 384.93 191.26 M202.06 407.56 C244.35 358.21, 286.84 310.22, 384.91 198.88 M202.87 406.72 C256.76 343.89, 309.94 283.17, 384.3 197.17 M206.59 405.88 C274.8 329.12, 342.04 251.97, 386.41 202.16 M208.27 406.57 C254.2 354, 299.75 300.15, 385.3 203.74 M214.56 405.79 C272.13 335.42, 332.07 266.91, 384.79 208.41 M213.92 407.51 C276.74 333.75, 340.94 261.13, 384.41 209.26 M219.08 407.33 C265.19 353.57, 311.73 301.18, 386.56 214.89 M217.68 406.95 C258.27 362.8, 295.54 318.37, 384.75 216.19 M224.19 405.63 C285.87 334.71, 346.71 264.19, 383.57 222.96 M223.74 406.92 C285.53 336, 346.84 265.13, 384 221.08 M229.79 405.78 C284.7 342.68, 341.8 276.19, 386.2 228.54 M228.84 407.18 C273.94 354.4, 320.62 300.15, 384.89 228.39 M236.18 405.93 C274.12 361.88, 310.45 316.99, 384.73 233.01 M234.95 406.9 C283.23 348.92, 334.43 290.2, 384.38 234.57 M238.07 408.72 C267.43 374.26, 295.99 341.43, 383.33 241.41 M240.2 407.22 C285.44 354.81, 330.57 302.69, 384.47 239.83 M246.7 407.18 C295.93 346.77, 349.38 287.59, 384.22 245.4 M245.24 406.57 C285.01 361.98, 322.74 317.85, 384.44 246.18 M249.37 406.8 C291.95 360.48, 334.86 310.28, 385.11 252.3 M250.87 406.5 C288.41 364.75, 325.32 322.85, 385.29 252.87 M255.29 409.08 C286.54 370.74, 320.26 331.11, 382.93 257.71 M255 407.95 C297.28 362.01, 337.03 316.61, 385.02 259.5 M261.56 408 C291.28 371.35, 321.7 334.2, 386.65 264.63 M260.81 407.64 C299.72 359.51, 342.08 311.51, 384.61 264.17 M264.22 406.44 C304.19 363.05, 341.75 320.86, 383.5 268.92 M266.93 407.48 C310.61 355.2, 354.95 303.92, 384.31 271.77 M270.99 405.84 C313.61 360.48, 354.26 313.35, 386.59 276.54 M270.98 407.23 C312.64 359.27, 356.37 309.34, 385.2 276.17 M275.25 406.77 C308.04 369.24, 343.49 332.07, 385.1 284.21 M275.7 408.23 C306.91 371.64, 335.48 337.05, 385.29 281.95 M280.73 405.53 C304.36 385.17, 325.2 359.95, 384.23 288.78 M281.53 407.01 C309.4 376.64, 334.53 348.15, 385.44 288.86 M287.55 406.83 C309.58 383.58, 330.42 355.23, 386.61 296.1 M286.66 407.01 C310.05 381.28, 333.07 353.78, 384.71 295.71 M292.91 408.36 C324 371.33, 352.03 340.34, 385.72 301.92 M293.6 406.25 C324.11 372.43, 355.46 336.42, 385.67 300.38 M297.19 405.45 C316.91 384.87, 337.85 362.43, 385.84 305.21 M297.22 407.06 C327.74 371.22, 359.65 336.93, 384.36 306.17 M304.6 407.67 C326.26 381.01, 350.3 352.01, 384.19 312.85 M303.35 407.71 C333.8 372, 363.83 336.96, 384.29 313.59 M309.23 407.51 C332.38 377.64, 360.15 348.63, 382.88 320.96 M308.8 408.14 C336.44 376.44, 361.9 343.85, 384.4 320.68 M315.79 404.91 C331.2 386.45, 349.43 365.89, 386.36 323.78 M313.97 407.61 C332.4 386.02, 350 365.77, 384.38 325.06 M317.63 407.97 C339.49 386.85, 358.41 362.79, 382.75 330.57 M318.87 406.45 C335.01 390.88, 348.3 373.19, 384 331.8 M325.44 405.53 C348.2 380.47, 371.52 351.06, 383.89 338.96 M325.7 407.64 C348.17 378.73, 371.66 351.77, 385.05 337.86 M329.31 407.84 C347.8 387.45, 368.05 365.79, 383.41 343.59 M328.91 406.65 C351.49 382.41, 372.19 358.12, 385.38 343.81 M335.41 407.1 C348.8 392.79, 362.05 373.91, 384.72 349.48 M335.78 406.96 C353.19 387.78, 370.54 366.12, 384.8 350.25 M340.1 406.19 C350.18 396.74, 357.64 387.88, 386.42 356.88 M340.45 407.89 C354.59 390.15, 368.38 375.34, 384.45 355.72 M346.52 407.21 C357.25 395.71, 363.43 383.54, 383.7 362.21 M346.51 406.19 C357.95 394.82, 367.9 380.88, 384.11 362.7 M350.79 408.16 C362.13 392.54, 375.1 377.84, 384.3 367.36 M351.04 407.78 C362.78 394.29, 373.44 380.95, 384.15 367.99 M358.53 407.53 C367.53 397.66, 374.22 386.98, 386.64 372.37 M357.2 407.43 C364.05 398.93, 369.68 391.11, 385.55 374.43 M363.1 408.95 C371.18 396.37, 378.18 388.46, 383.82 380.76 M362.26 406.41 C369.57 397.84, 379.9 386.23, 383.82 381.32 M365.48 406.55 C370.23 401.66, 373.58 398.12, 384.96 384.45 M367.54 406.99 C371.73 402.45, 375.98 398.1, 384.35 386.37 M371.73 405.89 C376.04 404.01, 376.21 398.66, 384.68 392.62 M371.76 406.35 C377.23 402.29, 380.33 397.73, 383.8 393.57 M377.87 408.11 C381.34 404.81, 382.6 400.29, 386.24 397.57 M376.64 408.01 C379.64 404.82, 381.13 402.79, 385.51 398.08" stroke="#ced4da" stroke-width="0.5" fill="none"></path><path d="M0.26 0.99 C85.3 -1.16, 172.23 -0.37, 381.34 -0.39 M0.3 0.35 C104.06 0.88, 208.03 -0.08, 382.02 0.3 M381.16 -1.07 C381.56 140.84, 381.99 282, 382.08 406.69 M382.21 0.04 C383.41 114.64, 382.89 228.03, 381.7 405.58 M381.13 406.7 C256.97 404.32, 132.95 403.69, -0.76 405 M381.7 406.25 C246.24 407.24, 109.85 408.08, 0.01 405.51 M-0.11 406.51 C0.07 269.92, -1.29 132.57, 0.59 1.03 M0.53 406.29 C-2.24 292.01, -1.71 178.39, 0.55 0.06" stroke="#000000" stroke-width="1" fill="none"></path></g><g transform="translate(725.9011688232422 239.7154998779297) rotate(0 30 12.5)"><text x="0" y="18" font-family="Virgil, Segoe UI Emoji" font-size="20px" fill="#1864ab" text-anchor="start" style="white-space: pre;" direction="ltr">Node3</text></g><g stroke-linecap="round" transform="translate(10 54.5841064453125) rotate(0 580.2052001953125 322.39249420166016)"><path d="M-0.42 0.06 C264.65 -0.64, 530.61 -0.49, 1159.95 0.43 M-0.03 -0.4 C283.16 -1.32, 566.04 -1.75, 1160.41 0.22 M1160.71 -0.3 C1162.77 230.95, 1162.16 461.07, 1159.72 644.17 M1160.21 0.26 C1162.08 208.63, 1162.15 417.15, 1160.39 645 M1161.02 644.62 C789.31 645.71, 416.98 645.43, 0.02 645.45 M1160.21 644.85 C835.96 647.73, 511.34 647.53, -0.25 644.9 M-0.66 644.7 C-1.16 433.77, -1.38 222.48, -0.63 -0.77 M0.38 644.76 C-0.93 505.57, -1.22 366.56, 0.35 0.04" stroke="#1864ab" stroke-width="1" fill="none"></path></g><g transform="translate(27.68572998046875 68.43583679199219) rotate(0 94 12.5)"><text x="0" y="18" font-family="Virgil, Segoe UI Emoji" font-size="20px" fill="#1864ab" text-anchor="start" style="white-space: pre;" direction="ltr">Kubernetes Cluster</text></g><g stroke-linecap="round" transform="translate(187.2261962890625 457.6068878173828) rotate(0 61.3465576171875 43.519805908203125)"><path d="M45.91 2.2 C55.24 -0.39, 67.99 -0.87, 78.14 1.16 C88.28 3.18, 99.53 8.9, 106.78 14.34 C114.04 19.78, 119.72 26.57, 121.66 33.82 C123.6 41.06, 122.06 50.56, 118.43 57.8 C114.8 65.04, 107.98 72.43, 99.87 77.26 C91.76 82.09, 80.17 85.82, 69.77 86.75 C59.37 87.69, 47.17 85.67, 37.46 82.87 C27.74 80.08, 17.55 75.65, 11.47 70 C5.38 64.36, 1.92 56.5, 0.96 49 C-0.01 41.49, 1.32 32.06, 5.67 24.99 C10.01 17.92, 18.7 10.57, 27.03 6.59 C35.36 2.61, 49.46 2.02, 55.65 1.11 C61.84 0.2, 64.24 0.53, 64.17 1.12 M39.34 3.1 C48.03 -0.14, 59.58 -0.7, 69.91 0.61 C80.25 1.93, 93 6, 101.37 11 C109.74 16, 116.84 23.78, 120.12 30.61 C123.39 37.43, 123.15 44.66, 121.03 51.94 C118.91 59.23, 114.65 68.85, 107.38 74.33 C100.12 79.81, 87.73 82.71, 77.44 84.84 C67.14 86.96, 55.58 88.67, 45.63 87.09 C35.67 85.51, 25.06 81.09, 17.72 75.34 C10.39 69.59, 4 60.19, 1.59 52.59 C-0.81 44.99, 0.03 36.5, 3.3 29.75 C6.56 23.01, 15.27 16.58, 21.2 12.11 C27.13 7.64, 35.87 4.43, 38.86 2.95 C41.86 1.48, 39.1 2.48, 39.19 3.26" stroke="#1864ab" stroke-width="1" fill="none"></path></g><g transform="translate(219.57275390625 488.62669372558594) rotate(0 29 12.5)"><text x="29" y="18" font-family="Virgil, Segoe UI Emoji" font-size="20px" fill="#000000" text-anchor="middle" style="white-space: pre;" direction="ltr">ETCD</text></g><g stroke-linecap="round" transform="translate(246.50506591796875 220.22740173339844) rotate(0 119.48794555664062 30.658554077148438)"><path d="M-0.85 -1.3 C82.48 -0.78, 165.09 -0.42, 240.5 -1.26 M-0.21 0.27 C69.11 -0.26, 137.03 -0.21, 239.29 0.26 M238.32 0.89 C239.73 16.86, 238.5 35.83, 239.78 59.86 M239.55 -0.54 C239.91 13.46, 239.74 27.9, 239.45 61.22 M238.06 60.21 C164.1 61.63, 90.7 61.58, -1.3 60.76 M239.23 61.6 C153.73 59.94, 68.07 60.05, -0.73 61.77 M-1.75 59.65 C0.71 38.21, -0.73 15.51, 0.88 1.82 M0.62 60.82 C0.18 37.21, -1.04 13.89, 0.41 0.89" stroke="#000000" stroke-width="1" fill="none"></path></g><g stroke-linecap="round" transform="translate(247.47360229492188 296.6219177246094) rotate(0 119.48794555664062 30.658554077148438)"><path d="M-0.39 -0.4 C88.67 -0.29, 176.06 -3.27, 238.14 0.62 M0.23 -0.23 C60.21 2.13, 122.03 1.42, 239.43 -0.28 M237.03 0.02 C239.85 15.04, 239.36 33.16, 238.94 63.19 M239.9 -0.06 C238.94 23.08, 239.07 48.13, 239.28 61.79 M239 60.16 C183.37 62.08, 124.88 63.44, 0.64 60.47 M239.15 61.16 C183.56 62.22, 128.21 62.46, 0.4 61.68 M1.04 62.58 C-0.95 45.48, -1.76 33.43, -1.76 0.7 M0.4 60.42 C-0.73 44.3, -1.18 25.7, -0.17 -0.68" stroke="#000000" stroke-width="1" fill="none"></path></g><g stroke-linecap="round" transform="translate(246.66152954101562 378.4954528808594) rotate(0 119.48794555664062 30.658554077148438)"><path d="M0.7 0.36 C59.32 -0.87, 119.4 -1.38, 239.58 0.79 M0.29 0.44 C82.62 -1.7, 163.7 -2.05, 239.57 -0.73 M238.09 0.81 C237.12 20.12, 240.39 39.74, 238.76 60.98 M239.74 0.92 C238.22 13.93, 238.59 28.57, 238.04 61.72 M239.02 61.42 C162.38 61.3, 82.92 59.84, -0.44 60.1 M239.33 61.2 C189.9 62.93, 141.09 62.88, 0.25 61.23 M0.23 60.09 C-0.78 46.23, -0.65 29.43, -1.98 -1.73 M-0.5 61.29 C0.37 45.84, 0.55 32.91, -0.1 0.42" stroke="#000000" stroke-width="1" fill="none"></path></g><g transform="translate(321.9547119140625 245.8461456298828) rotate(0 54.5 12.5)"><text x="0" y="18" font-family="Virgil, Segoe UI Emoji" font-size="20px" fill="#000000" text-anchor="start" style="white-space: pre;" direction="ltr">API Server</text></g><g transform="translate(306.6365966796875 322.35609436035156) rotate(0 45.5 12.5)"><text x="0" y="18" font-family="Virgil, Segoe UI Emoji" font-size="20px" fill="#000000" text-anchor="start" style="white-space: pre;" direction="ltr">Scheduler</text></g><g transform="translate(264.3021240234375 398.01673889160156) rotate(0 104 12.5)"><text x="0" y="18" font-family="Virgil, Segoe UI Emoji" font-size="20px" fill="#000000" text-anchor="start" style="white-space: pre;" direction="ltr">Replication Controller</text></g><g stroke-linecap="round" transform="translate(729.0611572265625 536.1154937744141) rotate(0 62.90673828125 32.6524658203125)"><path d="M0 0 C0 0, 0 0, 0 0 M0 0 C0 0, 0 0, 0 0 M0.13 6.82 C0.64 5.56, 2.65 3, 4.88 -0.41 M-0.28 6.28 C1.48 4.65, 3.29 2.12, 4.95 0.48 M1.42 11.77 C3.12 8.08, 5.41 3.2, 11.22 -0.85 M0.47 11.96 C2.19 9.4, 4.2 7.35, 10.36 -0.56 M1.59 16.73 C5.62 11.59, 9.75 8.28, 17.3 -0.38 M0.37 19.09 C5.71 12.49, 11.54 6.04, 15.48 0.42 M-0.42 23.64 C8.03 14.52, 16.75 7.8, 19.7 1.58 M0.86 23.62 C6.48 15.7, 14.57 8.79, 21.37 0.39 M1.17 32.16 C11.63 20.44, 21.5 8.19, 24.32 0.23 M0.62 31.4 C5.26 24.05, 12.14 17.56, 25.58 0.61 M-2.01 38.04 C12.43 21.12, 26.76 5.92, 30.1 1.85 M-1 36.5 C9.45 25.81, 20.68 14.24, 30.95 -0.91 M1.22 41.89 C8.52 35.4, 16.21 24.77, 35.28 0.21 M-0.49 43.15 C11.99 30.5, 23.52 18.04, 37.65 0.2 M-0.97 50.08 C16.6 31.29, 33.16 10.02, 42.04 1.21 M-0.9 49.68 C11.27 37.03, 22.1 22.37, 41.73 0.34 M0.48 56.1 C14.55 40.75, 26.27 24.25, 46.62 -0.48 M0.11 54.93 C9.86 43.43, 21.14 30.03, 47.17 -0.36 M1.73 61.23 C15.27 46.71, 28.04 31.75, 51.93 -0.82 M0.34 59.97 C14.32 44.41, 28.64 27.11, 52.46 -0.41 M-0.75 66.32 C15.96 48.78, 27.15 34.38, 57.72 -1.78 M0.21 65.01 C14.36 51.61, 26.12 35.92, 58.65 0.82 M6.63 65.5 C23.84 45.14, 38.72 25.18, 65.12 1.32 M5.51 66.1 C25.48 43.63, 44.8 21.21, 63.91 0.72 M11.32 64.3 C30.42 41.75, 51.7 18.73, 66.88 0.41 M12.13 66.36 C25.09 49.19, 39.61 33.86, 69.62 1.14 M17.97 65.25 C31.79 47.88, 48.71 30.02, 75.9 -0.72 M17.23 66.6 C27.95 52.18, 40.51 38.2, 74.88 0.08 M20.39 65.74 C39.16 46.34, 53.57 29.03, 79.38 -1.74 M23.21 66.28 C35.37 50.56, 48.43 37.54, 78.64 -0.58 M27.68 66.69 C48.14 44.64, 64.92 23.23, 83.47 -1.24 M27.83 65.22 C40 51.65, 52.27 37.38, 84.21 0.52 M32.91 65.11 C49.9 48.09, 64.26 30.81, 91.38 -0.01 M32.67 65.23 C55.49 40.05, 77.36 15.78, 89.33 -0.01 M39.19 66.8 C61.23 40.35, 83.14 13.33, 96.01 -0.48 M37.29 65.89 C59.37 39.44, 83.19 13.04, 94.76 -0.67 M44.31 66.91 C55.98 53.18, 66.53 40.95, 102.04 1.91 M43.73 66.13 C65.11 41.78, 85.98 18.53, 100.31 0.64 M46.88 66.62 C72.21 41.18, 94.13 11.88, 106.6 -0.62 M48.62 66.02 C70.31 42.9, 89.73 18.56, 105.43 0.28 M54.28 66.47 C74.31 43.32, 93.66 20.47, 109.4 0.37 M53.02 67.12 C67.99 49.14, 84.63 32.47, 111.25 0.6 M60.06 67.25 C74.88 45.63, 91.25 24.8, 116.64 -1.01 M59.85 66.49 C71.82 49.48, 87.51 34.25, 116.49 0.35 M65.4 66.92 C87.92 39.36, 106.58 14.16, 122.47 -0.2 M65.16 66.57 C77.62 51.14, 88.56 36.42, 122.83 0.6 M70.99 65.88 C85.28 49.76, 96.5 35.33, 126.39 -1.22 M70.06 65.64 C90.44 42.86, 111.59 19.44, 126.22 0.74 M75.24 67.71 C96.3 44.68, 115.86 20.04, 127.29 7.45 M74.81 65.54 C86.99 51.34, 99.88 35.8, 126.88 7.63 M78.86 67.72 C97.91 43.73, 115.37 24.53, 127.97 12.36 M81.34 65.29 C95.4 49.56, 109.21 33.05, 125.79 12.22 M86.98 65.61 C102.44 50.04, 118.37 29.17, 128.05 18.37 M85.35 66.85 C100.81 48.94, 115.68 32.1, 127.47 17.83 M89.79 66.08 C102.34 56.12, 111.85 43.85, 126.02 24.22 M90.84 66.72 C102.98 52.05, 116.08 38.73, 126.03 24.83 M96.69 67.45 C108.59 54.03, 117.56 41.58, 127.15 31.89 M96.18 65.75 C104.16 55.92, 114.09 46.79, 126.98 31.04 M100.86 66.3 C107.44 58.18, 114.28 49.08, 125.68 35.25 M102.69 66.69 C111.12 56.19, 119.07 46.67, 127.35 37.44 M105.42 66.1 C110.68 61.93, 115.58 54.45, 124.7 45.42 M106.71 65.98 C111.78 59.93, 119.01 53.06, 125.57 44.61 M112.05 65.81 C116.29 61.32, 122.64 53.82, 125.66 47.64 M112.12 65.4 C118.24 59.81, 123.64 52.15, 126.83 48.64 M118.59 65.04 C120.84 61.4, 124.52 60.34, 125.94 54.63 M116.69 65.9 C119.56 63.27, 121.67 61.29, 126.44 55.27 M122.78 65.91 C124.04 64.86, 124.73 62.72, 126.53 61.41 M123.08 66.05 C124.15 64.57, 125.42 62.83, 127.11 61.35" stroke="#228be6" stroke-width="0.5" fill="none"></path><path d="M0.33 0.54 C37.56 1.29, 75.74 -2.39, 125.22 1.27 M0.04 -0.21 C33.94 0.52, 68.14 0.42, 126.48 -0.85 M126.94 -1.18 C125.43 20.06, 126.52 39.85, 125.62 63.91 M125.4 -0.28 C125.94 25.92, 125.77 51.7, 125.82 64.8 M127.34 63.97 C99.78 66.11, 74.37 66.63, -1.65 64.39 M125.19 66.26 C95.43 66.4, 63.38 66.52, -0.43 65.78 M-1.92 65.21 C1.35 48.37, -0.19 35.64, 1.65 0.45 M-0.01 65.77 C-0.82 49.79, -0.94 34.57, 0.09 -0.55" stroke="#000000" stroke-width="1" fill="none"></path></g><g transform="translate(752.6766357421875 553.4582672119141) rotate(0 36 12.5)"><text x="0" y="18" font-family="Virgil, Segoe UI Emoji" font-size="20px" fill="#000000" text-anchor="start" style="white-space: pre;" direction="ltr">Kubelet</text></g><g stroke-linecap="round" transform="translate(890.01025390625 533.3996124267578) rotate(0 69.97344970703125 32.6524658203125)"><path d="M0 0 C0 0, 0 0, 0 0 M0 0 C0 0, 0 0, 0 0 M-0.69 5.96 C0.95 5.79, 2.17 4.53, 5.31 0.99 M-0.39 6.53 C1.8 4.47, 2.99 2.37, 5.04 0.51 M-0.97 11.49 C4.08 7.96, 5.21 7.93, 9.57 -0.46 M-0.47 11.97 C2.31 8.17, 5.22 5.91, 10.61 -0.51 M-0.14 18.93 C4.6 15.28, 5.39 11.73, 14.93 -1.43 M0.16 18.16 C4.53 13.04, 7.9 9.1, 15.25 0.94 M1.4 23.62 C5.9 18.6, 7.28 12.26, 21 -0.92 M-0.32 24.11 C7.52 17.07, 13.95 8.82, 20.84 0.26 M-0.33 29.06 C6.56 22.07, 15.25 9.61, 26.37 -0.88 M-0.91 30.98 C8.23 20.38, 18.83 8.7, 25.59 0.41 M-0.9 37.08 C7.48 26.71, 13.68 22.13, 30.26 0.66 M-1 36.36 C6.43 29.51, 15.14 19.89, 31.05 -0.08 M0.82 41.29 C15.21 26.45, 30.05 10.49, 37.64 -1.12 M-0.73 41.85 C14.37 27.26, 27.3 10.72, 36.56 0.17 M-0.58 48.78 C11.36 35.99, 21.46 24.56, 43.12 -0.53 M0.68 48.61 C16.25 30.16, 31.18 12.58, 42.16 0.65 M2.1 54.15 C18.35 37.72, 32.88 18.88, 48.31 0.1 M1.23 55.43 C13.64 38.26, 27.24 22.35, 47.05 0.31 M-1.95 60.98 C12.93 46.85, 27.9 31.95, 53.69 -0.28 M0.59 60.04 C19.42 37.47, 40.26 14.69, 52.53 0.8 M3.02 66.37 C17.38 46.66, 31.68 32.02, 60.01 -0.02 M1.64 65.67 C14.67 49.56, 29.44 34.06, 58.42 -0.1 M7.27 67.33 C20.52 48.52, 38.04 30.03, 64.14 -1.43 M5.61 65.35 C29.22 40.68, 50.65 15.4, 64.02 0.73 M11.68 67.77 C33.61 42.83, 53.82 17.67, 68.45 -1.36 M11.14 66.77 C24.8 52.04, 37.8 35.81, 68.51 1.1 M18.22 64.72 C38.34 43.39, 58.8 19.64, 72.69 -1.87 M15.89 66.55 C28.56 53.47, 40.53 39.68, 73.93 -1.18 M21.23 67.03 C36.36 50.14, 50.19 34.37, 79.38 -0.84 M22.84 64.8 C44.82 41.23, 65.98 15.65, 79.61 1.05 M28.82 64.75 C44.12 47.05, 62.65 28.93, 85.65 1.41 M26.76 66.46 C40.49 51.41, 51.52 36.54, 85.06 -0.47 M34.71 66.44 C46.39 49.71, 58.76 37.19, 88.64 -0.48 M33.14 66.57 C49.31 47.42, 65.54 27.83, 90.48 -0.04 M39.65 64.66 C58.64 42.9, 81.55 16.81, 97.37 0.41 M38.62 65.65 C52.09 48.98, 67.84 31.87, 95.64 -0.71 M43.23 65.22 C62.46 41.09, 84.76 19.66, 102.11 0.68 M43.92 64.92 C62.81 43.72, 82.8 21.69, 100.36 1.04 M49.34 64.65 C67.66 46.92, 84.75 28.17, 106.26 0.02 M48.32 65.72 C63.54 47.54, 79.8 28.6, 105.41 0.6 M53.3 68.27 C68.61 47.39, 85.3 29.01, 111.74 -1.49 M53.87 65.47 C69.52 49.43, 86.91 30.76, 110.97 0.56 M58.59 67.84 C75.07 47.12, 89 29.78, 118.16 -1.16 M59.19 65.3 C79.28 44.14, 96.65 21.78, 116.89 0.75 M65.46 67.19 C86.79 42.18, 105.27 17.88, 123.54 -0.17 M65.11 65.59 C82.88 46.15, 99.7 26, 122.46 -0.2 M70.17 64.31 C85.34 52.34, 95.59 35.45, 124.92 2.16 M69.03 66.05 C91.25 41.59, 111.22 18.89, 126.06 0.77 M74.35 64.77 C91.67 48.52, 105.59 31.47, 133.6 -1.61 M75.28 66.99 C86.31 52.93, 99.74 38.36, 133.49 -0.91 M80.9 67.05 C98.91 44.77, 119.6 21.32, 136.49 -1.56 M80.11 66.67 C94.44 50.24, 108.28 33, 138.38 0 M87.33 67.97 C104.61 46.27, 120.6 27.54, 142.73 0.38 M86.11 66.61 C106.15 43.51, 125.7 21.26, 141.85 1.27 M89.67 64.01 C111.29 42.14, 132.31 20.47, 140.98 7.89 M91.16 66.88 C109.55 46.47, 127.88 25.56, 140.89 8.6 M95.82 64.71 C107.15 50.23, 121.39 39.27, 143.26 14.5 M96.84 65.45 C112.72 48.28, 128.85 29.36, 141.24 13.79 M101.43 66.06 C109.54 53.74, 121.86 43.74, 139.74 21.1 M101.39 65.44 C115.77 50.97, 127.45 35.01, 141.28 20.21 M107.29 67.84 C116.94 52.3, 129.9 41.86, 141.98 25.5 M106.15 66.52 C120.61 50.86, 133.59 35.7, 142.26 26.26 M111.19 67.01 C118.42 58.82, 126.24 51.85, 143.51 32.07 M112.48 66.14 C123.43 53.48, 134.08 42.07, 142.02 30.97 M117.3 67.13 C125.61 56.03, 132.91 50.16, 140.54 37.37 M118.2 66.89 C123.12 58.35, 129.02 51.7, 140.71 37.59 M124.03 67.63 C127.91 60.01, 130.05 55.21, 143.14 44.26 M122.55 65.79 C128.75 58.56, 134.01 53.12, 141.1 43.59 M129.44 65.31 C130.87 61.22, 138.59 54.59, 140.65 51.31 M128.61 65.63 C133.33 60.58, 137.17 53.89, 140.95 50.03 M134.49 66.88 C134.75 64.2, 138.79 60.85, 141.13 55.61 M133.98 66.07 C136.09 62.6, 138.52 60.09, 141.4 57.24 M138.8 66.12 C139.66 65, 141.09 63.25, 142.1 62.46 M138.57 66.08 C139.59 64.99, 140.72 63.77, 142.01 62.31" stroke="#228be6" stroke-width="0.5" fill="none"></path><path d="M1.68 -0.38 C52.38 0.52, 110.2 0.84, 141.26 1.27 M-0.77 0.9 C45.65 0.66, 94.16 -0.27, 139.98 0.73 M141.91 -0.47 C139.56 19.58, 140.67 42.46, 138.93 66.63 M140.06 -0.72 C139.17 14, 138.99 28.92, 140.33 65.96 M137.95 65.88 C93.45 65.26, 46.29 65.31, 1.35 66.77 M139.97 64.49 C102.78 64.64, 67.91 65.68, 0.44 66.14 M1.78 66.46 C-1.88 39.87, 0.65 16.56, 1.16 0.4 M-0.34 65.01 C-0.54 48.32, 0.92 32.79, 0.87 -0.63" stroke="#000000" stroke-width="1" fill="none"></path></g><g transform="translate(918.7669677734375 551.7774810791016) rotate(0 49 12.5)"><text x="0" y="18" font-family="Virgil, Segoe UI Emoji" font-size="20px" fill="#000000" text-anchor="start" style="white-space: pre;" direction="ltr">KubeProxy</text></g><g transform="translate(280.49462890625 10) rotate(0 35.5 12.5)"><text x="0" y="18" font-family="Virgil, Segoe UI Emoji" font-size="20px" fill="#000000" text-anchor="start" style="white-space: pre;" direction="ltr">Kubectl</text></g><g stroke-linecap="round"><g transform="translate(322.96807861328125 39.09124755859375) rotate(0 1.219920730506999 54.632038419181484)"><path d="M0.83 -0.22 C0.78 18.1, 0.35 91.26, 0.4 109.67 M-0.2 -1.38 C0.07 17.08, 2.55 91.87, 2.64 110.65" stroke="#000000" stroke-width="1" fill="none"></path></g><g transform="translate(322.96807861328125 39.09124755859375) rotate(0 1.219920730506999 54.632038419181484)"><path d="M-8.57 81.16 C-6.18 92.32, -1.39 102.7, 0.75 110.9 M-7.76 83.22 C-5.96 88.95, -2.62 96.27, 3.48 111.63" stroke="#000000" stroke-width="1" fill="none"></path></g><g transform="translate(322.96807861328125 39.09124755859375) rotate(0 1.219920730506999 54.632038419181484)"><path d="M11.95 80.73 C7.02 92.19, 4.49 102.72, 0.75 110.9 M12.75 82.8 C9.59 88.75, 7.97 96.17, 3.48 111.63" stroke="#000000" stroke-width="1" fill="none"></path></g></g><g stroke-linecap="round"><g transform="translate(868.721923828125 45.08757019042969) rotate(0 0.6484069444239822 44.90300012578257)"><path d="M-1.1 -0.07 C-0.71 14.74, 1.84 74.7, 2.4 89.47 M0.52 -1.15 C0.72 13.8, 1.14 75.87, 1.25 90.96" stroke="#000000" stroke-width="1" fill="none"></path></g><g transform="translate(868.721923828125 45.08757019042969) rotate(0 0.6484069444239822 44.90300012578257)"><path d="M-9.33 62.21 C-6.06 70.58, -4.38 81.58, 0.8 90.82 M-8.68 63.14 C-6.19 72.32, -2.08 80.18, 2.06 90.65" stroke="#000000" stroke-width="1" fill="none"></path></g><g transform="translate(868.721923828125 45.08757019042969) rotate(0 0.6484069444239822 44.90300012578257)"><path d="M11.19 62.06 C8.24 70.29, 3.7 81.34, 0.8 90.82 M11.84 62.99 C8 72.15, 5.78 80.06, 2.06 90.65" stroke="#000000" stroke-width="1" fill="none"></path></g></g><g transform="translate(785.214599609375 21.803207397460938) rotate(0 92 12.5)"><text x="0" y="18" font-family="Virgil, Segoe UI Emoji" font-size="20px" fill="#000000" text-anchor="start" style="white-space: pre;" direction="ltr">Application Traffic</text></g></svg>