<?xml version="1.0" encoding="utf-8"?>
<!-- Generator: Adobe Illustrator 24.2.3, SVG Export Plug-In . SVG Version: 6.00 Build 0)  -->
<svg version="1.1" xmlns="http://www.w3.org/2000/svg" xmlns:xlink="http://www.w3.org/1999/xlink" x="0px" y="0px"
	 viewBox="0 0 1024 178" style="enable-background:new 0 0 1024 178;" xml:space="preserve">
<style type="text/css">
	.st0{fill:#F1F1F1;}
	.st1{fill:#FFFFFF;stroke:#666666;stroke-width:2;stroke-linecap:round;stroke-linejoin:round;stroke-miterlimit:10;}
	.st2{fill:#FFFFFF;}
	.st3{fill:none;stroke:#666666;stroke-width:2;stroke-miterlimit:10;}
	.st4{fill:none;stroke:#666666;stroke-width:2;stroke-linecap:round;stroke-miterlimit:10;}
	.st5{fill:none;}
	.st6{fill:#222222;}
	.st7{fill:none;stroke:#222222;stroke-width:2;stroke-linecap:round;stroke-miterlimit:10;}
	.st8{fill:#B2DFC4;}
	.st9{fill:none;stroke:#009639;stroke-width:2;stroke-linecap:round;stroke-miterlimit:10;}
	.st10{fill:none;stroke:#E4002B;stroke-width:2;stroke-linecap:round;stroke-miterlimit:10;}
	.st11{fill:#FFFFFF;stroke:#FFFFFF;stroke-width:2.5;stroke-linecap:round;stroke-miterlimit:10;}
	.st12{fill:#CCCCCC;}
	.st13{fill:none;stroke:#FFFFFF;stroke-width:2;stroke-linecap:round;stroke-miterlimit:10;}
	.st14{fill:#E6E6E6;}
	.st15{fill:none;stroke:#E6E6E6;stroke-width:4;stroke-linecap:round;stroke-miterlimit:10;}
	.st16{fill:none;stroke:#009639;stroke-width:4;stroke-linecap:round;stroke-miterlimit:10;stroke-dasharray:0.02506,8.32029;}
	.st17{fill:none;stroke:#FFFFFF;stroke-width:2;stroke-miterlimit:10;}
	.st18{fill:none;stroke:#E6E6E6;stroke-width:2;stroke-linecap:round;stroke-linejoin:round;stroke-miterlimit:10;}
	.st19{fill:#E6E6E6;stroke:#E6E6E6;stroke-width:4;stroke-miterlimit:10;}
	.st20{fill:#999999;}
	.st21{fill:#009639;}
	.st22{fill:none;stroke:#FFFFFF;stroke-width:1.37394;stroke-miterlimit:10;}
	.st23{fill:#FFFFFF;stroke:#FFFFFF;stroke-width:1.37394;stroke-linejoin:round;stroke-miterlimit:10;}
	.st24{fill:none;stroke:#C03C27;stroke-width:1.5;stroke-linecap:round;stroke-miterlimit:10;}
	.st25{fill:none;stroke:#666666;stroke-width:1.5;stroke-linecap:round;stroke-linejoin:round;stroke-miterlimit:10;}
	.st26{fill:none;stroke:#222222;stroke-width:1.5;stroke-linecap:round;stroke-linejoin:round;stroke-miterlimit:10;}
	.st27{fill:none;stroke:#222222;stroke-width:2;stroke-linecap:round;stroke-linejoin:round;stroke-miterlimit:10;}
	.st28{fill:none;stroke:#009639;stroke-width:1.5;stroke-linecap:round;stroke-linejoin:round;stroke-miterlimit:10;}
	.st29{fill:none;stroke:#009639;stroke-width:1.5;stroke-linecap:round;stroke-miterlimit:10;}
	.st30{fill:#FFFFFF;stroke:#666666;stroke-width:2;stroke-linejoin:round;stroke-miterlimit:10;}
	.st31{fill:#FFFFFF;stroke:#666666;stroke-width:1.5;stroke-linecap:round;stroke-linejoin:round;stroke-miterlimit:10;}
	.st32{fill:none;stroke:#666666;stroke-linecap:round;stroke-linejoin:round;stroke-miterlimit:10;}
	.st33{fill:#FFFFFF;stroke:#666666;stroke-width:2;stroke-miterlimit:10;}
	.st34{fill:none;stroke:#666666;stroke-width:4.97532;stroke-miterlimit:10;}
	.st35{fill:none;stroke:#666666;stroke-width:4.97532;stroke-linecap:round;stroke-miterlimit:10;}
	.st36{fill:#FFFFFF;stroke:#666666;stroke-width:2.5;stroke-linecap:round;stroke-miterlimit:10;}
	.st37{fill:#FFFFFF;stroke:#666666;stroke-width:1.5;stroke-miterlimit:10;}
	.st38{fill:#FFFFFF;stroke:#666666;stroke-width:2.5;stroke-miterlimit:10;}
	.st39{fill:none;stroke:#666666;stroke-width:1.5;stroke-miterlimit:10;}
	.st40{fill:#666666;}
	.st41{fill:none;stroke:#666666;stroke-width:2;stroke-linecap:round;stroke-linejoin:round;stroke-miterlimit:10;}
	.st42{fill:none;stroke:#666666;stroke-width:2.5;stroke-linecap:round;stroke-miterlimit:10;}
	.st43{fill:none;stroke:#666666;stroke-width:2;stroke-linejoin:round;stroke-miterlimit:10;}
	.st44{fill:#FFFFFF;stroke:#666666;stroke-width:1.25;stroke-miterlimit:10;}
	.st45{fill:none;stroke:#666666;stroke-width:2;stroke-linecap:round;stroke-miterlimit:10;stroke-dasharray:0,3.89474;}
	.st46{fill:none;stroke:#666666;stroke-width:1.5;stroke-linecap:round;stroke-miterlimit:1.25;}
	.st47{fill:none;stroke:#666666;stroke-width:1.5;stroke-linecap:round;stroke-miterlimit:10;}
	.st48{fill:#FFFFFF;stroke:#666666;stroke-width:2.30389;stroke-linejoin:round;stroke-miterlimit:10;}
	.st49{fill:none;stroke:#666666;stroke-width:1.53593;stroke-miterlimit:10;}
	.st50{fill:none;stroke:#666666;stroke-width:1.53593;stroke-linejoin:round;stroke-miterlimit:10;}
	.st51{fill:none;stroke:#E6E6E6;stroke-width:2;stroke-miterlimit:10;}
	.st52{fill:#FFFFFF;stroke:#FFFFFF;stroke-width:2;stroke-linejoin:round;stroke-miterlimit:10;}
	.st53{fill:none;stroke:#666666;stroke-width:1.25;stroke-miterlimit:10;}
	.st54{fill:none;stroke:#222222;stroke-width:1.5;stroke-linecap:round;stroke-miterlimit:10;}
	.st55{fill:#FFFFFF;stroke:#FFFFFF;stroke-width:1.4;stroke-linejoin:round;stroke-miterlimit:10;}
	.st56{fill:none;stroke:#666666;stroke-width:1.4;stroke-linecap:round;stroke-linejoin:round;stroke-miterlimit:10;}
	.st57{fill:none;stroke:#666666;stroke-width:1.05;stroke-linecap:round;stroke-linejoin:round;stroke-miterlimit:10;}
	.st58{clip-path:url(#SVGID_2_);}
	.st59{clip-path:url(#SVGID_4_);fill:none;stroke:#666666;stroke-width:3.81126;stroke-linecap:round;stroke-miterlimit:10;}
	.st60{fill:none;stroke:#C03C27;stroke-width:1.5;stroke-linecap:round;stroke-linejoin:round;stroke-miterlimit:10;}
	.st61{fill:none;stroke:#009639;stroke-width:2;stroke-miterlimit:10;}
	.st62{fill:#FFFFFF;stroke:#C03C27;stroke-width:2.5;stroke-miterlimit:10;}
	.st63{fill:#C03C27;}
</style>
<g id="Background">
	<rect y="-0.497" class="st0" width="1024" height="178"/>
</g>
<g id="Layer_1">
</g>
<g id="Art">
	<path class="st1" d="M547,100.02505V40H427v73.45309c16.9895,10.61843,41.65607,11.46494,60,0s42.59973-10.87518,60,0V100.02505z"
		/>
	<g>
		<g>
			<path class="st2" d="M200,139.52267c0,3.01248-2.46475,5.47722-5.47722,5.47722H85.47723
				c-3.01247,0-5.47723-2.46474-5.47723-5.47722V45.47723C80,42.46475,82.46475,40,85.47723,40h109.04556
				C197.53525,40,200,42.46475,200,45.47723V139.52267z"/>
			<path class="st4" d="M200,139.52267c0,3.01248-2.46475,5.47722-5.47722,5.47722H85.47723
				c-3.01247,0-5.47723-2.46474-5.47723-5.47722V45.47723C80,42.46475,82.46475,40,85.47723,40h109.04556
				C197.53525,40,200,42.46475,200,45.47723V139.52267z"/>
		</g>
		<g>
			<rect x="80.00003" y="60.04082" class="st5" width="119.99997" height="72.25513"/>
			<path class="st6" d="M109.90527,60.03613h3.18555c2.86523,0,4.49805,2.24121,4.49805,5.34668s-1.61719,5.33008-4.49805,5.33008
				h-3.18555V60.03613z M113.09082,69.14453c1.74414,0,2.67285-1.56934,2.67285-3.76172c0-2.24121-0.89648-3.79395-2.67285-3.79395
				h-1.40918v7.55566H113.09082z"/>
			<path class="st6" d="M118.76953,66.83887c0-2.17676,1.15234-4.04883,3.34473-4.04883c2.19336,0,3.3457,1.87207,3.3457,4.04883
				c0,2.17773-1.15234,4.06641-3.3457,4.06641C119.92188,70.90527,118.76953,69.0166,118.76953,66.83887z M123.81152,66.83887
				c0-1.39258-0.52832-2.64062-1.69727-2.64062c-1.16797,0-1.69629,1.24805-1.69629,2.64062s0.52832,2.65723,1.69629,2.65723
				C123.2832,69.49609,123.81152,68.23145,123.81152,66.83887z"/>
			<path class="st6" d="M131.3623,65.03027l-1.50391,5.68262h-1.66504l-2.06445-7.73145h1.64844l1.34473,5.63477l1.47266-5.63477
				h1.47266l1.50391,5.63477l1.36133-5.63477h1.64844l-2.06543,7.73145h-1.66406L131.3623,65.03027z"/>
			<path class="st6" d="M141.90625,65.44629c0-0.91211-0.41602-1.24805-1.10449-1.24805c-0.6875,0-1.28027,0.52832-1.56836,1.07227
				v5.44238h-1.60059v-7.73145h1.60059v1.04102c0.41602-0.625,1.28027-1.23242,2.24121-1.23242
				c1.39258,0,2.03223,0.76758,2.03223,2.09668v5.82617h-1.60059V65.44629z"/>
			<path class="st6" d="M145.39258,60.03613h1.60059v10.67676h-1.60059V60.03613z"/>
			<path class="st6" d="M148.49707,66.83887c0-2.17676,1.15234-4.04883,3.34473-4.04883c2.19336,0,3.3457,1.87207,3.3457,4.04883
				c0,2.17773-1.15234,4.06641-3.3457,4.06641C149.64941,70.90527,148.49707,69.0166,148.49707,66.83887z M153.53906,66.83887
				c0-1.39258-0.52832-2.64062-1.69727-2.64062c-1.16797,0-1.69629,1.24805-1.69629,2.64062s0.52832,2.65723,1.69629,2.65723
				C153.01074,69.49609,153.53906,68.23145,153.53906,66.83887z"/>
			<path class="st6" d="M160.69043,69.92871c-0.46484,0.63965-1.24902,0.97656-2.0332,0.97656
				c-1.24805,0-2.36914-0.92871-2.36914-2.57715c0-1.66504,1.12109-2.51367,2.36914-2.51367
				c0.78418,0,1.58496,0.30469,2.0332,0.92871v-1.12012c0-0.92871-0.54492-1.47266-1.50488-1.47266
				c-0.68848,0-1.32812,0.27148-1.9209,0.87988l-0.62402-1.12012c0.78418-0.78418,1.84082-1.12012,2.83301-1.12012
				c1.61621,0,2.80078,0.75195,2.80078,2.64062v5.28223h-1.58398V69.92871z M160.69043,67.78418
				c-0.30469-0.54492-0.88086-0.86523-1.45703-0.86523c-0.83203,0-1.34473,0.6084-1.34473,1.44141
				c0,0.83203,0.5127,1.44043,1.34473,1.44043c0.57617,0,1.15234-0.32031,1.45703-0.84863V67.78418z"/>
			<path class="st6" d="M168.57812,69.68848c-0.46387,0.76855-1.2168,1.2168-1.98535,1.2168
				c-1.72852,0-2.81641-1.56934-2.81641-4.0498c0-2.44922,1.07227-4.06543,2.81641-4.06543
				c0.75293,0,1.52148,0.39941,1.98535,1.23242v-3.98633h1.60059v10.67676h-1.60059V69.68848z M168.57812,65.25488
				c-0.27246-0.57617-0.89648-1.05664-1.50488-1.05664c-1.10449,0-1.64844,1.15234-1.64844,2.65723
				c0,1.47266,0.54395,2.64062,1.64844,2.64062c0.6084,0,1.23242-0.47949,1.50488-1.05566V65.25488z"/>
			<path class="st6" d="M91.39551,87.92871c-0.46484,0.63965-1.24902,0.97656-2.0332,0.97656
				c-1.24805,0-2.36914-0.92871-2.36914-2.57715c0-1.66504,1.12109-2.51367,2.36914-2.51367
				c0.78418,0,1.58496,0.30469,2.0332,0.92871v-1.12012c0-0.92871-0.54492-1.47266-1.50488-1.47266
				c-0.68848,0-1.32812,0.27148-1.9209,0.87988l-0.62402-1.12012c0.78418-0.78418,1.84082-1.12012,2.83301-1.12012
				c1.61621,0,2.80078,0.75195,2.80078,2.64062v5.28223h-1.58398V87.92871z M91.39551,85.78418
				c-0.30469-0.54492-0.88086-0.86523-1.45703-0.86523c-0.83203,0-1.34473,0.6084-1.34473,1.44141
				c0,0.83203,0.5127,1.44043,1.34473,1.44043c0.57617,0,1.15234-0.32031,1.45703-0.84863V85.78418z"/>
			<path class="st6" d="M99.13867,83.44629c0-0.91211-0.41602-1.24805-1.10449-1.24805c-0.6875,0-1.28027,0.52832-1.56836,1.07227
				v5.44238h-1.60059v-7.73145h1.60059v1.04102c0.41602-0.625,1.28027-1.23242,2.24121-1.23242
				c1.39258,0,2.03223,0.76758,2.03223,2.09668v5.82617h-1.60059V83.44629z"/>
			<path class="st6" d="M107.04297,87.68848c-0.46387,0.76855-1.2168,1.2168-1.98535,1.2168
				c-1.72852,0-2.81641-1.56934-2.81641-4.0498c0-2.44922,1.07227-4.06543,2.81641-4.06543
				c0.75293,0,1.52148,0.39941,1.98535,1.23242v-3.98633h1.60059v10.67676h-1.60059V87.68848z M107.04297,83.25488
				c-0.27246-0.57617-0.89648-1.05664-1.50488-1.05664c-1.10449,0-1.64844,1.15234-1.64844,2.65723
				c0,1.47266,0.54395,2.64062,1.64844,2.64062c0.6084,0,1.23242-0.47949,1.50488-1.05566V83.25488z"/>
			<path class="st6" d="M113.71289,78.70898c0-0.56055,0.46387-1.00879,1.00879-1.00879c0.54395,0,0.99219,0.44824,0.99219,1.00879
				c0,0.54395-0.44824,0.99219-0.99219,0.99219C114.17676,79.70117,113.71289,79.25293,113.71289,78.70898z M113.9209,80.98145
				h1.60059v7.73145h-1.60059V80.98145z"/>
			<path class="st6" d="M121.68164,83.44629c0-0.91211-0.41602-1.24805-1.10449-1.24805c-0.6875,0-1.28027,0.52832-1.56836,1.07227
				v5.44238h-1.60059v-7.73145h1.60059v1.04102c0.41602-0.625,1.28027-1.23242,2.24121-1.23242
				c1.39258,0,2.03223,0.76758,2.03223,2.09668v5.82617h-1.60059V83.44629z"/>
			<path class="st6" d="M125.28027,86.67969c0.46387,0.5127,1.28027,0.96094,2.08105,0.96094
				c0.7998,0,1.28027-0.36816,1.28027-0.96094c0-0.63965-0.67285-0.92773-1.45703-1.21582
				c-1.08789-0.38477-2.36914-0.84863-2.36914-2.46484c0-1.20117,0.96094-2.20898,2.65723-2.20898
				c1.07227,0,1.9375,0.39941,2.54492,0.99219l-0.67188,1.08789c-0.38379-0.46387-1.07227-0.81641-1.84082-0.81641
				c-0.7207,0-1.18457,0.35254-1.18457,0.84863c0,0.57617,0.64062,0.84863,1.40918,1.12109
				c1.10352,0.39941,2.43262,0.87988,2.43262,2.57617c0,1.3291-1.07227,2.30566-2.76953,2.30566
				c-1.18457,0-2.17676-0.40039-2.83301-1.10449L125.28027,86.67969z"/>
			<path class="st6" d="M131.87207,86.98438v-4.61035h-1.00879v-1.39258h1.00879v-2.1123h1.60059v2.1123h1.28027v1.39258h-1.28027
				v4.27441c0,0.52832,0.17578,0.84766,0.59277,0.84766c0.25586,0,0.49609-0.11133,0.60742-0.25586l0.38477,1.2002
				c-0.28809,0.28809-0.73633,0.46484-1.39258,0.46484C132.44824,88.90527,131.87207,88.24902,131.87207,86.98438z"/>
			<path class="st6" d="M140.11328,87.92871c-0.46484,0.63965-1.24902,0.97656-2.0332,0.97656
				c-1.24805,0-2.36914-0.92871-2.36914-2.57715c0-1.66504,1.12109-2.51367,2.36914-2.51367
				c0.78418,0,1.58496,0.30469,2.0332,0.92871v-1.12012c0-0.92871-0.54492-1.47266-1.50488-1.47266
				c-0.68848,0-1.32812,0.27148-1.9209,0.87988l-0.62402-1.12012c0.78418-0.78418,1.84082-1.12012,2.83301-1.12012
				c1.61621,0,2.80078,0.75195,2.80078,2.64062v5.28223h-1.58398V87.92871z M140.11328,85.78418
				c-0.30469-0.54492-0.88086-0.86523-1.45703-0.86523c-0.83203,0-1.34473,0.6084-1.34473,1.44141
				c0,0.83203,0.5127,1.44043,1.34473,1.44043c0.57617,0,1.15234-0.32031,1.45703-0.84863V85.78418z"/>
			<path class="st6" d="M143.58301,78.03613h1.60059v10.67676h-1.60059V78.03613z"/>
			<path class="st6" d="M147.07031,78.03613h1.60059v10.67676h-1.60059V78.03613z"/>
			<path class="st6" d="M155.80664,81.33398v7.37891h-1.77637V78.03613h1.79297l3.85742,7.10742v-7.10742h1.77637v10.67676h-1.69629
				L155.80664,81.33398z"/>
			<path class="st6" d="M167.45508,77.86035c1.72949,0,2.78516,1.02441,3.39355,2.27344l-1.44043,0.67188
				c-0.38379-0.78418-1.02441-1.37695-1.95312-1.37695c-1.52051,0-2.54492,1.52148-2.54492,3.9541
				c0,2.41699,1.02441,3.95312,2.54492,3.95312c0.78516,0,1.4248-0.36816,1.77734-0.76758v-1.98535h-2.24121v-1.55273h3.92188
				v4.24219c-0.84863,1.00781-1.98535,1.64844-3.45801,1.64844c-2.625,0-4.35352-2.24121-4.35352-5.53809
				C163.10156,80.06934,164.83008,77.86035,167.45508,77.86035z"/>
			<path class="st6" d="M172.71777,78.03613h1.77637v10.67676h-1.77637V78.03613z"/>
			<path class="st6" d="M178.31836,81.33398v7.37891h-1.77637V78.03613h1.79297l3.85742,7.10742v-7.10742h1.77637v10.67676h-1.69629
				L178.31836,81.33398z"/>
			<path class="st6" d="M189.2627,84.64746l-2.19238,4.06543h-2.04883l3.15332-5.45801l-2.96191-5.21875h2.0332l2.0166,3.8418
				l2.01758-3.8418h2.04883l-2.96191,5.20215l3.15332,5.47461h-2.04883L189.2627,84.64746z"/>
			<path class="st6" d="M110.13086,104.59961h-3.66504l-0.57617,2.11328h-1.84082l3.18555-10.67676h2.12793l3.18555,10.67676
				h-1.84082L110.13086,104.59961z M106.83398,103.03125h2.94531l-1.47266-5.41016L106.83398,103.03125z"/>
			<path class="st6" d="M113.53711,109.6582V98.98145h1.60059v1.02441c0.44824-0.76758,1.2002-1.21582,1.98535-1.21582
				c1.74414,0,2.81641,1.55273,2.81641,4.04883c0,2.46582-1.07227,4.06641-2.81641,4.06641
				c-0.76855,0-1.52148-0.40039-1.98535-1.23242v3.98535H113.53711z M116.64258,100.19824
				c-0.6084,0-1.23242,0.46387-1.50488,1.05664v3.16895c0.27246,0.57617,0.89648,1.07227,1.50488,1.07227
				c1.10449,0,1.64844-1.16797,1.64844-2.65723C118.29102,101.35059,117.74707,100.19824,116.64258,100.19824z"/>
			<path class="st6" d="M121.4248,109.6582V98.98145h1.60059v1.02441c0.44824-0.76758,1.2002-1.21582,1.98535-1.21582
				c1.74414,0,2.81641,1.55273,2.81641,4.04883c0,2.46582-1.07227,4.06641-2.81641,4.06641
				c-0.76855,0-1.52148-0.40039-1.98535-1.23242v3.98535H121.4248z M124.53027,100.19824c-0.6084,0-1.23242,0.46387-1.50488,1.05664
				v3.16895c0.27246,0.57617,0.89648,1.07227,1.50488,1.07227c1.10449,0,1.64844-1.16797,1.64844-2.65723
				C126.17871,101.35059,125.63477,100.19824,124.53027,100.19824z"/>
			<path class="st6" d="M132.78418,96.03613h3.63379c2.09668,0,3.15332,1.53711,3.15332,3.31348
				c0,1.79297-1.05664,3.33008-3.15332,3.33008h-1.85742v4.0332h-1.77637V96.03613z M136.20996,97.58887h-1.64941v3.52148h1.64941
				c0.94434,0,1.55176-0.7041,1.55176-1.76074C137.76172,98.29395,137.1543,97.58887,136.20996,97.58887z"/>
			<path class="st6" d="M140.91211,98.98145h1.60059v1.13672c0.44824-0.75195,1.26465-1.3125,2.12891-1.3125v1.58496
				c-0.12793-0.03223-0.27246-0.04785-0.41602-0.04785c-0.65625,0-1.39258,0.49609-1.71289,1.07227v5.29785h-1.60059V98.98145z"/>
			<path class="st6" d="M145.45605,102.83887c0-2.17676,1.15234-4.04883,3.34473-4.04883c2.19336,0,3.3457,1.87207,3.3457,4.04883
				c0,2.17773-1.15234,4.06641-3.3457,4.06641C146.6084,106.90527,145.45605,105.0166,145.45605,102.83887z M150.49805,102.83887
				c0-1.39258-0.52832-2.64062-1.69727-2.64062c-1.16797,0-1.69629,1.24805-1.69629,2.64062s0.52832,2.65723,1.69629,2.65723
				C149.96973,105.49609,150.49805,104.23145,150.49805,102.83887z"/>
			<path class="st6" d="M153.93555,104.98438v-4.61035h-1.00879v-1.39258h1.00879v-2.1123h1.60059v2.1123h1.28027v1.39258h-1.28027
				v4.27441c0,0.52832,0.17578,0.84766,0.59277,0.84766c0.25586,0,0.49609-0.11133,0.60742-0.25586l0.38477,1.2002
				c-0.28809,0.28809-0.73633,0.46484-1.39258,0.46484C154.51172,106.90527,153.93555,106.24902,153.93555,104.98438z"/>
			<path class="st6" d="M161.10547,98.79004c2.09668,0,3.2168,1.77637,3.2168,4.11328v0.46387h-4.91406
				c0.06445,1.26465,0.76855,2.22559,2.0166,2.22559c0.6084,0,1.29688-0.30469,1.74512-0.83301l0.76855,0.96094
				c-0.65625,0.75195-1.63281,1.18457-2.67383,1.18457c-2.12891,0-3.47266-1.66504-3.47266-4.06641
				C157.79199,100.59863,159.04004,98.79004,161.10547,98.79004z M159.39258,102.23145h3.37695
				c-0.01562-0.96094-0.44824-2.14551-1.68066-2.14551C159.88867,100.08594,159.44043,101.30273,159.39258,102.23145z"/>
			<path class="st6" d="M168.76855,98.79004c1.15332,0,1.88965,0.46387,2.35352,1.04004l-0.81641,1.08887
				c-0.38379-0.49707-0.81641-0.7207-1.37695-0.7207c-1.21582,0-1.9043,1.16895-1.9043,2.64062
				c0,1.47266,0.68848,2.65723,1.9043,2.65723c0.56055,0,0.99316-0.24023,1.37695-0.71973l0.81641,1.08789
				c-0.46387,0.57617-1.2002,1.04102-2.35352,1.04102c-2.06445,0-3.39258-1.72852-3.39258-4.06641
				C165.37598,100.50195,166.7041,98.79004,168.76855,98.79004z"/>
			<path class="st6" d="M172.6875,104.98438v-4.61035h-1.00879v-1.39258h1.00879v-2.1123h1.60059v2.1123h1.28027v1.39258h-1.28027
				v4.27441c0,0.52832,0.17578,0.84766,0.59277,0.84766c0.25586,0,0.49609-0.11133,0.60742-0.25586l0.38477,1.2002
				c-0.28809,0.28809-0.73633,0.46484-1.39258,0.46484C173.26367,106.90527,172.6875,106.24902,172.6875,104.98438z"/>
			<path class="st6" d="M90.8418,114.03613h3.63379c2.09668,0,3.15332,1.53711,3.15332,3.31348
				c0,1.79297-1.05664,3.33008-3.15332,3.33008h-1.85742v4.0332H90.8418V114.03613z M94.26758,115.58887h-1.64941v3.52148h1.64941
				c0.94434,0,1.55176-0.7041,1.55176-1.76074C95.81934,116.29395,95.21191,115.58887,94.26758,115.58887z"/>
			<path class="st6" d="M98.29785,120.83887c0-2.17676,1.15234-4.04883,3.34473-4.04883c2.19336,0,3.3457,1.87207,3.3457,4.04883
				c0,2.17773-1.15234,4.06641-3.3457,4.06641C99.4502,124.90527,98.29785,123.0166,98.29785,120.83887z M103.33984,120.83887
				c0-1.39258-0.52832-2.64062-1.69727-2.64062c-1.16797,0-1.69629,1.24805-1.69629,2.64062s0.52832,2.65723,1.69629,2.65723
				C102.81152,123.49609,103.33984,122.23145,103.33984,120.83887z"/>
			<path class="st6" d="M106.48926,114.03613h1.60059v10.67676h-1.60059V114.03613z"/>
			<path class="st6" d="M109.76953,114.70898c0-0.56055,0.46387-1.00879,1.00879-1.00879c0.54395,0,0.99219,0.44824,0.99219,1.00879
				c0,0.54395-0.44824,0.99219-0.99219,0.99219C110.2334,115.70117,109.76953,115.25293,109.76953,114.70898z M109.97754,116.98145
				h1.60059v7.73145h-1.60059V116.98145z"/>
			<path class="st6" d="M116.47461,116.79004c1.15332,0,1.88965,0.46387,2.35352,1.04004l-0.81641,1.08887
				c-0.38379-0.49707-0.81641-0.7207-1.37695-0.7207c-1.21582,0-1.9043,1.16895-1.9043,2.64062
				c0,1.47266,0.68848,2.65723,1.9043,2.65723c0.56055,0,0.99316-0.24023,1.37695-0.71973l0.81641,1.08789
				c-0.46387,0.57617-1.2002,1.04102-2.35352,1.04102c-2.06445,0-3.39258-1.72852-3.39258-4.06641
				C113.08203,118.50195,114.41016,116.79004,116.47461,116.79004z"/>
			<path class="st6" d="M120.58594,126.44141c0.43164,0,0.7041-0.16016,0.87988-0.63965l0.32031-0.92871l-2.59277-7.8916h1.69629
				l1.71289,5.81055l1.72852-5.81055h1.69727l-3.05762,9.18848c-0.43262,1.2959-1.18457,1.68066-2.27246,1.68066
				c-0.24023,0-0.65723-0.04883-0.86523-0.1123l0.24023-1.40918C120.21777,126.40918,120.44141,126.44141,120.58594,126.44141z"/>
			<path class="st6" d="M130.05664,119.38281c0-3.21777,1.68066-5.52246,4.30566-5.52246c1.90527,0,2.86523,1.16895,3.42578,2.35352
				l-1.47266,0.65625c-0.36816-0.84863-1.02441-1.44141-1.95312-1.44141c-1.52051,0-2.49707,1.66504-2.49707,3.9541
				c0,2.27246,0.97656,3.9375,2.49707,3.9375c0.97656,0,1.63281-0.67188,1.96875-1.56836l1.47266,0.65625
				c-0.54395,1.24805-1.50391,2.49707-3.44141,2.49707C131.7373,124.90527,130.05664,122.58398,130.05664,119.38281z"/>
			<path class="st6" d="M138.74512,120.83887c0-2.17676,1.15234-4.04883,3.34473-4.04883c2.19336,0,3.3457,1.87207,3.3457,4.04883
				c0,2.17773-1.15234,4.06641-3.3457,4.06641C139.89746,124.90527,138.74512,123.0166,138.74512,120.83887z M143.78711,120.83887
				c0-1.39258-0.52832-2.64062-1.69727-2.64062c-1.16797,0-1.69629,1.24805-1.69629,2.64062s0.52832,2.65723,1.69629,2.65723
				C143.25879,123.49609,143.78711,122.23145,143.78711,120.83887z"/>
			<path class="st6" d="M151.20996,119.44629c0-0.91211-0.41602-1.24805-1.10449-1.24805c-0.6875,0-1.28027,0.52832-1.56836,1.07227
				v5.44238h-1.60059v-7.73145h1.60059v1.04102c0.41602-0.625,1.28027-1.23242,2.24121-1.23242
				c1.39258,0,2.03223,0.76758,2.03223,2.09668v5.82617h-1.60059V119.44629z"/>
			<path class="st6" d="M153.78418,116.98145h1.69629l1.71289,5.82715l1.72852-5.82715h1.69727l-2.56152,7.73145h-1.72852
				L153.78418,116.98145z"/>
			<path class="st6" d="M164.50586,116.79004c2.09668,0,3.2168,1.77637,3.2168,4.11328v0.46387h-4.91406
				c0.06445,1.26465,0.76855,2.22559,2.0166,2.22559c0.6084,0,1.29688-0.30469,1.74512-0.83301l0.76855,0.96094
				c-0.65625,0.75195-1.63281,1.18457-2.67383,1.18457c-2.12891,0-3.47266-1.66504-3.47266-4.06641
				C161.19238,118.59863,162.44043,116.79004,164.50586,116.79004z M162.79297,120.23145h3.37695
				c-0.01562-0.96094-0.44824-2.14551-1.68066-2.14551C163.28906,118.08594,162.84082,119.30273,162.79297,120.23145z"/>
			<path class="st6" d="M169.16016,116.98145h1.60059v1.13672c0.44824-0.75195,1.26465-1.3125,2.12891-1.3125v1.58496
				c-0.12793-0.03223-0.27246-0.04785-0.41602-0.04785c-0.65625,0-1.39258,0.49609-1.71289,1.07227v5.29785h-1.60059V116.98145z"/>
			<path class="st6" d="M174.37598,122.98438v-4.61035h-1.00879v-1.39258h1.00879v-2.1123h1.60059v2.1123h1.28027v1.39258h-1.28027
				v4.27441c0,0.52832,0.17578,0.84766,0.59277,0.84766c0.25586,0,0.49609-0.11133,0.60742-0.25586l0.38477,1.2002
				c-0.28809,0.28809-0.73633,0.46484-1.39258,0.46484C174.95215,124.90527,174.37598,124.24902,174.37598,122.98438z"/>
			<path class="st6" d="M181.5459,116.79004c2.09668,0,3.2168,1.77637,3.2168,4.11328v0.46387h-4.91406
				c0.06445,1.26465,0.76855,2.22559,2.0166,2.22559c0.6084,0,1.29688-0.30469,1.74512-0.83301l0.76855,0.96094
				c-0.65625,0.75195-1.63281,1.18457-2.67383,1.18457c-2.12891,0-3.47266-1.66504-3.47266-4.06641
				C178.23242,118.59863,179.48047,116.79004,181.5459,116.79004z M179.83301,120.23145h3.37695
				c-0.01562-0.96094-0.44824-2.14551-1.68066-2.14551C180.3291,118.08594,179.88086,119.30273,179.83301,120.23145z"/>
			<path class="st6" d="M186.2002,116.98145h1.60059v1.13672c0.44824-0.75195,1.26465-1.3125,2.12891-1.3125v1.58496
				c-0.12793-0.03223-0.27246-0.04785-0.41602-0.04785c-0.65625,0-1.39258,0.49609-1.71289,1.07227v5.29785h-1.60059V116.98145z"/>
		</g>
	</g>
	<g>
		<g>
			<path class="st2" d="M373.5,139.52267c0,3.01248-2.46475,5.47722-5.47723,5.47722H258.97723
				c-3.01248,0-5.47723-2.46474-5.47723-5.47722V45.47723C253.5,42.46475,255.96475,40,258.97723,40h109.04553
				c3.01248,0,5.47723,2.46475,5.47723,5.47723V139.52267z"/>
			<path class="st4" d="M373.5,139.52267c0,3.01248-2.46475,5.47722-5.47723,5.47722H258.97723
				c-3.01248,0-5.47723-2.46474-5.47723-5.47722V45.47723C253.5,42.46475,255.96475,40,258.97723,40h109.04553
				c3.01248,0,5.47723,2.46475,5.47723,5.47723V139.52267z"/>
		</g>
		<g>
			<rect x="253.5" y="60.04076" class="st5" width="120" height="75.45354"/>
			<path class="st6" d="M294.78027,60.03613h5.84277v1.55273h-4.06641v2.89746h3.9541v1.56836h-3.9541v3.08984h4.06641v1.56836
				h-5.84277V60.03613z"/>
			<path class="st6" d="M304.70117,67.89551l-1.55273,2.81738h-1.74512l2.30566-3.9375l-2.17773-3.79395h1.74512l1.4248,2.65723
				l1.4248-2.65723h1.74414l-2.17676,3.79395l2.30469,3.9375h-1.74414L304.70117,67.89551z"/>
			<path class="st6" d="M309.03613,73.6582V62.98145h1.60059v1.02441c0.44824-0.76758,1.2002-1.21582,1.98535-1.21582
				c1.74414,0,2.81641,1.55273,2.81641,4.04883c0,2.46582-1.07227,4.06641-2.81641,4.06641
				c-0.76855,0-1.52148-0.40039-1.98535-1.23242v3.98535H309.03613z M312.1416,64.19824c-0.6084,0-1.23242,0.46387-1.50488,1.05664
				v3.16895c0.27246,0.57617,0.89648,1.07227,1.50488,1.07227c1.10449,0,1.64844-1.16797,1.64844-2.65723
				C313.79004,65.35059,313.24609,64.19824,312.1416,64.19824z"/>
			<path class="st6" d="M316.54004,66.83887c0-2.17676,1.15234-4.04883,3.34473-4.04883c2.19336,0,3.3457,1.87207,3.3457,4.04883
				c0,2.17773-1.15234,4.06641-3.3457,4.06641C317.69238,70.90527,316.54004,69.0166,316.54004,66.83887z M321.58203,66.83887
				c0-1.39258-0.52832-2.64062-1.69727-2.64062c-1.16797,0-1.69629,1.24805-1.69629,2.64062s0.52832,2.65723,1.69629,2.65723
				C321.05371,69.49609,321.58203,68.23145,321.58203,66.83887z"/>
			<path class="st6" d="M324.73145,62.98145h1.60059v1.13672c0.44824-0.75195,1.26465-1.3125,2.12891-1.3125v1.58496
				c-0.12793-0.03223-0.27246-0.04785-0.41602-0.04785c-0.65625,0-1.39258,0.49609-1.71289,1.07227v5.29785h-1.60059V62.98145z"/>
			<path class="st6" d="M329.94727,68.98438v-4.61035h-1.00879v-1.39258h1.00879v-2.1123h1.60059v2.1123h1.28027v1.39258h-1.28027
				v4.27441c0,0.52734,0.17578,0.84766,0.59277,0.84766c0.25586,0,0.49609-0.11133,0.60742-0.25586l0.38477,1.2002
				c-0.28809,0.28809-0.73633,0.46484-1.39258,0.46484C330.52344,70.90527,329.94727,70.24902,329.94727,68.98438z"/>
			<path class="st6" d="M274.67676,78.03613h5.84277v1.55273h-4.06641v2.89746h3.9541v1.56836h-3.9541v4.6582h-1.77637V78.03613z"/>
			<path class="st6" d="M282.88477,86.07227c0.54395,0.7998,1.26465,1.24805,2.24121,1.24805
				c1.08789,0,1.74414-0.89648,1.74414-1.95312c0-1.24805-0.62402-1.96875-1.66406-1.96875
				c-0.7207,0-1.28027,0.27246-1.8252,0.92871l-1.2959-0.36816v-5.92285h5.98633v1.55273h-4.20996v3.16992
				c0.40039-0.5127,1.12012-0.89648,1.95312-0.89648c1.58398,0,2.84863,1.23242,2.84863,3.45703
				c0,2.09668-1.39258,3.58594-3.48926,3.58594c-1.61621,0-2.65723-0.64062-3.39355-1.71289L282.88477,86.07227z"/>
			<path class="st6" d="M298.77344,86.59961h-3.66504l-0.57617,2.11328h-1.84082l3.18555-10.67676h2.12793l3.18555,10.67676
				h-1.84082L298.77344,86.59961z M295.47656,85.03125h2.94531l-1.47266-5.41016L295.47656,85.03125z"/>
			<path class="st6" d="M306.56543,87.68848c-0.46387,0.76855-1.2168,1.2168-1.98535,1.2168
				c-1.72852,0-2.81641-1.56934-2.81641-4.0498c0-2.44922,1.07227-4.06543,2.81641-4.06543
				c0.75293,0,1.52148,0.39941,1.98535,1.23242v-3.98633h1.60059v10.67676h-1.60059V87.68848z M306.56543,83.25488
				c-0.27246-0.57617-0.89648-1.05664-1.50488-1.05664c-1.10449,0-1.64844,1.15234-1.64844,2.65723
				c0,1.47266,0.54395,2.64062,1.64844,2.64062c0.6084,0,1.23242-0.47949,1.50488-1.05566V83.25488z"/>
			<path class="st6" d="M309.13867,80.98145h1.69629l1.71289,5.82715l1.72852-5.82715h1.69727l-2.56152,7.73145h-1.72852
				L309.13867,80.98145z"/>
			<path class="st6" d="M320.93262,87.92871c-0.46484,0.63965-1.24902,0.97656-2.0332,0.97656
				c-1.24805,0-2.36914-0.92871-2.36914-2.57715c0-1.66504,1.12109-2.51367,2.36914-2.51367
				c0.78418,0,1.58496,0.30469,2.0332,0.92871v-1.12012c0-0.92871-0.54492-1.47266-1.50488-1.47266
				c-0.68848,0-1.32812,0.27148-1.9209,0.87988l-0.62402-1.12012c0.78418-0.78418,1.84082-1.12012,2.83301-1.12012
				c1.61621,0,2.80078,0.75195,2.80078,2.64062v5.28223h-1.58398V87.92871z M320.93262,85.78418
				c-0.30469-0.54492-0.88086-0.86523-1.45703-0.86523c-0.83203,0-1.34473,0.6084-1.34473,1.44141
				c0,0.83203,0.5127,1.44043,1.34473,1.44043c0.57617,0,1.15234-0.32031,1.45703-0.84863V85.78418z"/>
			<path class="st6" d="M328.67578,83.44629c0-0.91211-0.41602-1.24805-1.10449-1.24805c-0.6875,0-1.28027,0.52832-1.56836,1.07227
				v5.44238h-1.60059v-7.73145h1.60059v1.04102c0.41602-0.625,1.28027-1.23242,2.24121-1.23242
				c1.39258,0,2.03223,0.76758,2.03223,2.09668v5.82617h-1.60059V83.44629z"/>
			<path class="st6" d="M335.1709,80.79004c1.15332,0,1.88965,0.46387,2.35352,1.04004l-0.81641,1.08887
				c-0.38379-0.49707-0.81641-0.7207-1.37695-0.7207c-1.21582,0-1.9043,1.16895-1.9043,2.64062
				c0,1.47266,0.68848,2.65723,1.9043,2.65723c0.56055,0,0.99316-0.24023,1.37695-0.71973l0.81641,1.08789
				c-0.46387,0.57617-1.2002,1.04102-2.35352,1.04102c-2.06445,0-3.39258-1.72949-3.39258-4.06641
				S333.10645,80.79004,335.1709,80.79004z"/>
			<path class="st6" d="M341.73145,80.79004c2.09668,0,3.2168,1.77637,3.2168,4.11328v0.46387h-4.91406
				c0.06445,1.26465,0.76855,2.22559,2.0166,2.22559c0.6084,0,1.29688-0.30469,1.74512-0.83301l0.76855,0.96094
				c-0.65625,0.75195-1.63281,1.18457-2.67383,1.18457c-2.12891,0-3.47266-1.66504-3.47266-4.06641
				C338.41797,82.59863,339.66602,80.79004,341.73145,80.79004z M340.01855,84.23145h3.37695
				c-0.01562-0.96094-0.44824-2.14551-1.68066-2.14551C340.51465,82.08594,340.06641,83.30273,340.01855,84.23145z"/>
			<path class="st6" d="M350.80371,87.68848c-0.46387,0.76855-1.2168,1.2168-1.98535,1.2168
				c-1.72852,0-2.81641-1.56934-2.81641-4.0498c0-2.44922,1.07227-4.06543,2.81641-4.06543
				c0.75293,0,1.52148,0.39941,1.98535,1.23242v-3.98633h1.60059v10.67676h-1.60059V87.68848z M350.80371,83.25488
				c-0.27246-0.57617-0.89648-1.05664-1.50488-1.05664c-1.10449,0-1.64844,1.15234-1.64844,2.65723
				c0,1.47266,0.54395,2.64062,1.64844,2.64062c0.6084,0,1.23242-0.47949,1.50488-1.05566V83.25488z"/>
			<path class="st6" d="M285.91895,99.0459l-1.52051,7.66699h-1.85645L280.125,96.03613h1.9043l1.53711,7.97168l1.64844-7.97168
				h1.4248l1.66504,7.97168l1.52051-7.97168h1.9043l-2.41699,10.67676h-1.85645L285.91895,99.0459z"/>
			<path class="st6" d="M297.56738,104.59961h-3.66504l-0.57617,2.11328h-1.84082l3.18555-10.67676h2.12793l3.18555,10.67676
				h-1.84082L297.56738,104.59961z M294.27051,103.03125h2.94531l-1.47266-5.41016L294.27051,103.03125z"/>
			<path class="st6" d="M301.05371,96.03613h5.84277v1.55273h-4.06641v2.89746h3.9541v1.56836h-3.9541v4.6582h-1.77637V96.03613z"/>
			<path class="st6" d="M311.78906,109.6582V98.98145h1.60059v1.02441c0.44824-0.76758,1.2002-1.21582,1.98535-1.21582
				c1.74414,0,2.81641,1.55273,2.81641,4.04883c0,2.46582-1.07227,4.06641-2.81641,4.06641
				c-0.76855,0-1.52148-0.40039-1.98535-1.23242v3.98535H311.78906z M314.89453,100.19824
				c-0.6084,0-1.23242,0.46387-1.50488,1.05664v3.16895c0.27246,0.57617,0.89648,1.07227,1.50488,1.07227
				c1.10449,0,1.64844-1.16797,1.64844-2.65723C316.54297,101.35059,315.99902,100.19824,314.89453,100.19824z"/>
			<path class="st6" d="M319.29297,102.83887c0-2.17676,1.15234-4.04883,3.34473-4.04883c2.19336,0,3.3457,1.87207,3.3457,4.04883
				c0,2.17773-1.15234,4.06641-3.3457,4.06641C320.44531,106.90527,319.29297,105.0166,319.29297,102.83887z M324.33496,102.83887
				c0-1.39258-0.52832-2.64062-1.69727-2.64062c-1.16797,0-1.69629,1.24805-1.69629,2.64062s0.52832,2.65723,1.69629,2.65723
				C323.80664,105.49609,324.33496,104.23145,324.33496,102.83887z"/>
			<path class="st6" d="M327.48438,96.03613h1.60059v10.67676h-1.60059V96.03613z"/>
			<path class="st6" d="M330.76367,96.70898c0-0.56055,0.46387-1.00879,1.00879-1.00879c0.54395,0,0.99219,0.44824,0.99219,1.00879
				c0,0.54395-0.44824,0.99219-0.99219,0.99219C331.22754,97.70117,330.76367,97.25293,330.76367,96.70898z M330.97168,98.98145
				h1.60059v7.73145h-1.60059V98.98145z"/>
			<path class="st6" d="M337.46875,98.79004c1.15332,0,1.88965,0.46387,2.35352,1.04004l-0.81641,1.08887
				c-0.38379-0.49707-0.81641-0.7207-1.37695-0.7207c-1.21582,0-1.9043,1.16895-1.9043,2.64062
				c0,1.47266,0.68848,2.65723,1.9043,2.65723c0.56055,0,0.99316-0.24023,1.37695-0.71973l0.81641,1.08789
				c-0.46387,0.57617-1.2002,1.04102-2.35352,1.04102c-2.06445,0-3.39258-1.72949-3.39258-4.06641
				S335.4043,98.79004,337.46875,98.79004z"/>
			<path class="st6" d="M341.58008,108.44141c0.43164,0,0.7041-0.16016,0.87988-0.63965l0.32031-0.92871l-2.59277-7.8916h1.69629
				l1.71289,5.81055l1.72852-5.81055h1.69727l-3.05762,9.18848c-0.43262,1.2959-1.18457,1.68066-2.27344,1.68066
				c-0.23926,0-0.65625-0.04883-0.86426-0.1123l0.24023-1.40918C341.21191,108.40918,341.43555,108.44141,341.58008,108.44141z"/>
		</g>
	</g>
	<g>
		<g>
			<path class="st2" d="M770.5,140c0,2.75-2.25,5-5,5h-160c-2.75,0-5-2.25-5-5V45c0-2.75,2.25-5,5-5h160c2.75,0,5,2.25,5,5V140z"/>
			<path class="st4" d="M770.5,140c0,2.75-2.25,5-5,5h-160c-2.75,0-5-2.25-5-5V45c0-2.75,2.25-5,5-5h160c2.75,0,5,2.25,5,5V140z"/>
		</g>
		<g>
			<rect x="607.53223" y="60.04076" class="st5" width="155.93559" height="74.36733"/>
			<path class="st6" d="M622.90918,60.03613h1.77637v7.10742c0,1.4248,0.70508,2.19238,1.9375,2.19238
				s1.93652-0.76758,1.93652-2.19238v-7.10742h1.77637v7.0918c0,2.41602-1.4082,3.77734-3.71289,3.77734
				c-2.30566,0-3.71387-1.36133-3.71387-3.77734V60.03613z"/>
			<path class="st6" d="M632.41309,68.67969c0.46387,0.5127,1.28027,0.96094,2.08105,0.96094
				c0.7998,0,1.28027-0.36816,1.28027-0.96094c0-0.63965-0.67285-0.92773-1.45703-1.21582
				c-1.08789-0.38477-2.36914-0.84863-2.36914-2.46484c0-1.20117,0.96094-2.20898,2.65723-2.20898
				c1.07227,0,1.9375,0.39941,2.54492,0.99219l-0.67188,1.08789c-0.38379-0.46387-1.07227-0.81641-1.84082-0.81641
				c-0.71973,0-1.18457,0.35254-1.18457,0.84863c0,0.57617,0.64062,0.84863,1.40918,1.12109
				c1.10449,0.39941,2.43262,0.87988,2.43262,2.57617c0,1.3291-1.07227,2.30566-2.76953,2.30566
				c-1.18457,0-2.17676-0.40039-2.83301-1.10449L632.41309,68.67969z"/>
			<path class="st6" d="M641.64648,62.79004c2.09668,0,3.2168,1.77637,3.2168,4.11328v0.46387h-4.91406
				c0.06445,1.26465,0.76855,2.22559,2.0166,2.22559c0.6084,0,1.29688-0.30469,1.74512-0.83301l0.76855,0.96094
				c-0.65625,0.75195-1.63281,1.18457-2.67383,1.18457c-2.12891,0-3.47266-1.66504-3.47266-4.06641
				C638.33301,64.59863,639.58105,62.79004,641.64648,62.79004z M639.93359,66.23145h3.37695
				c-0.01562-0.96094-0.44824-2.14551-1.68066-2.14551C640.42969,64.08594,639.98145,65.30273,639.93359,66.23145z"/>
			<path class="st6" d="M649.77246,60.03613h3.63379c2.09668,0,3.15332,1.53711,3.15332,3.31348
				c0,1.79297-1.05664,3.33008-3.15332,3.33008h-1.85742v4.0332h-1.77637V60.03613z M653.19824,61.58887h-1.64941v3.52148h1.64941
				c0.94434,0,1.55176-0.7041,1.55176-1.76074C654.75,62.29395,654.14258,61.58887,653.19824,61.58887z"/>
			<path class="st6" d="M657.22852,66.83887c0-2.17676,1.15234-4.04883,3.34473-4.04883c2.19336,0,3.3457,1.87207,3.3457,4.04883
				c0,2.17773-1.15234,4.06641-3.3457,4.06641C658.38086,70.90527,657.22852,69.0166,657.22852,66.83887z M662.27051,66.83887
				c0-1.39258-0.52832-2.64062-1.69727-2.64062c-1.16797,0-1.69629,1.24805-1.69629,2.64062s0.52832,2.65723,1.69629,2.65723
				C661.74219,69.49609,662.27051,68.23145,662.27051,66.83887z"/>
			<path class="st6" d="M665.41992,60.03613h1.60059v10.67676h-1.60059V60.03613z"/>
			<path class="st6" d="M668.7002,60.70898c0-0.56055,0.46387-1.00879,1.00879-1.00879c0.54395,0,0.99219,0.44824,0.99219,1.00879
				c0,0.54395-0.44824,0.99219-0.99219,0.99219C669.16406,61.70117,668.7002,61.25293,668.7002,60.70898z M668.9082,62.98145
				h1.60059v7.73145h-1.60059V62.98145z"/>
			<path class="st6" d="M675.40527,62.79004c1.15332,0,1.88965,0.46387,2.35352,1.04004l-0.81641,1.08887
				c-0.38379-0.49707-0.81641-0.7207-1.37695-0.7207c-1.21582,0-1.9043,1.16895-1.9043,2.64062
				c0,1.47266,0.68848,2.65723,1.9043,2.65723c0.56055,0,0.99316-0.24023,1.37695-0.71973l0.81641,1.08789
				c-0.46387,0.57617-1.2002,1.04102-2.35352,1.04102c-2.06445,0-3.39258-1.72852-3.39258-4.06641
				C672.0127,64.50195,673.34082,62.79004,675.40527,62.79004z"/>
			<path class="st6" d="M679.5166,72.44141c0.43164,0,0.7041-0.16016,0.87988-0.63965l0.32031-0.92871l-2.59277-7.8916h1.69629
				l1.71289,5.81055l1.72852-5.81055h1.69727l-3.05762,9.18848c-0.43262,1.2959-1.18457,1.68066-2.27246,1.68066
				c-0.24023,0-0.65723-0.04883-0.86523-0.1123l0.24023-1.40918C679.14844,72.40918,679.37207,72.44141,679.5166,72.44141z"/>
			<path class="st6" d="M688.9873,65.38281c0-3.21777,1.68066-5.52246,4.30566-5.52246c1.90527,0,2.86523,1.16895,3.42578,2.35352
				l-1.47266,0.65625c-0.36816-0.84863-1.02441-1.44141-1.95312-1.44141c-1.52051,0-2.49707,1.66504-2.49707,3.9541
				c0,2.27246,0.97656,3.9375,2.49707,3.9375c0.97656,0,1.63281-0.67188,1.96875-1.56836l1.47266,0.65625
				c-0.54395,1.24805-1.50391,2.49707-3.44141,2.49707C690.66797,70.90527,688.9873,68.58398,688.9873,65.38281z"/>
			<path class="st6" d="M697.67578,66.83887c0-2.17676,1.15234-4.04883,3.34473-4.04883c2.19336,0,3.3457,1.87207,3.3457,4.04883
				c0,2.17773-1.15234,4.06641-3.3457,4.06641C698.82812,70.90527,697.67578,69.0166,697.67578,66.83887z M702.71777,66.83887
				c0-1.39258-0.52832-2.64062-1.69727-2.64062c-1.16797,0-1.69629,1.24805-1.69629,2.64062s0.52832,2.65723,1.69629,2.65723
				C702.18945,69.49609,702.71777,68.23145,702.71777,66.83887z"/>
			<path class="st6" d="M710.14062,65.44629c0-0.91211-0.41602-1.24805-1.10449-1.24805c-0.6875,0-1.28027,0.52832-1.56836,1.07227
				v5.44238h-1.60059v-7.73145h1.60059v1.04102c0.41602-0.625,1.28027-1.23242,2.24121-1.23242
				c1.39258,0,2.03223,0.76758,2.03223,2.09668v5.82617h-1.60059V65.44629z"/>
			<path class="st6" d="M712.71484,62.98145h1.69629l1.71289,5.82715l1.72852-5.82715h1.69727l-2.56152,7.73145h-1.72852
				L712.71484,62.98145z"/>
			<path class="st6" d="M723.43652,62.79004c2.09668,0,3.2168,1.77637,3.2168,4.11328v0.46387h-4.91406
				c0.06445,1.26465,0.76855,2.22559,2.0166,2.22559c0.6084,0,1.29688-0.30469,1.74512-0.83301l0.76855,0.96094
				c-0.65625,0.75195-1.63281,1.18457-2.67383,1.18457c-2.12891,0-3.47266-1.66504-3.47266-4.06641
				C720.12305,64.59863,721.37109,62.79004,723.43652,62.79004z M721.72363,66.23145h3.37695
				c-0.01562-0.96094-0.44824-2.14551-1.68066-2.14551C722.21973,64.08594,721.77148,65.30273,721.72363,66.23145z"/>
			<path class="st6" d="M728.09082,62.98145h1.60059v1.13672c0.44824-0.75195,1.26465-1.3125,2.12891-1.3125v1.58496
				c-0.12793-0.03223-0.27246-0.04785-0.41602-0.04785c-0.65625,0-1.39258,0.49609-1.71289,1.07227v5.29785h-1.60059V62.98145z"/>
			<path class="st6" d="M733.30664,68.98438v-4.61035h-1.00879v-1.39258h1.00879v-2.1123h1.60059v2.1123h1.28027v1.39258h-1.28027
				v4.27441c0,0.52832,0.17578,0.84766,0.59277,0.84766c0.25586,0,0.49609-0.11133,0.60742-0.25586l0.38477,1.2002
				c-0.28809,0.28809-0.73633,0.46484-1.39258,0.46484C733.88281,70.90527,733.30664,70.24902,733.30664,68.98438z"/>
			<path class="st6" d="M740.47656,62.79004c2.09668,0,3.2168,1.77637,3.2168,4.11328v0.46387h-4.91406
				c0.06445,1.26465,0.76855,2.22559,2.0166,2.22559c0.6084,0,1.29688-0.30469,1.74512-0.83301l0.76855,0.96094
				c-0.65625,0.75195-1.63281,1.18457-2.67383,1.18457c-2.12891,0-3.47266-1.66504-3.47266-4.06641
				C737.16309,64.59863,738.41113,62.79004,740.47656,62.79004z M738.76367,66.23145h3.37695
				c-0.01562-0.96094-0.44824-2.14551-1.68066-2.14551C739.25977,64.08594,738.81152,65.30273,738.76367,66.23145z"/>
			<path class="st6" d="M745.13086,62.98145h1.60059v1.13672c0.44824-0.75195,1.26465-1.3125,2.12891-1.3125v1.58496
				c-0.12793-0.03223-0.27246-0.04785-0.41602-0.04785c-0.65625,0-1.39258,0.49609-1.71289,1.07227v5.29785h-1.60059V62.98145z"/>
			<path class="st6" d="M610.23828,86.98438v-4.61035h-1.00879v-1.39258h1.00879v-2.1123h1.60059v2.1123h1.28027v1.39258h-1.28027
				v4.27441c0,0.52832,0.17578,0.84766,0.59277,0.84766c0.25586,0,0.49609-0.11133,0.60742-0.25586l0.38477,1.2002
				c-0.28809,0.28809-0.73633,0.46484-1.39258,0.46484C610.81445,88.90527,610.23828,88.24902,610.23828,86.98438z"/>
			<path class="st6" d="M614.09375,84.83887c0-2.17676,1.15234-4.04883,3.34473-4.04883c2.19336,0,3.3457,1.87207,3.3457,4.04883
				c0,2.17773-1.15234,4.06641-3.3457,4.06641C615.24609,88.90527,614.09375,87.0166,614.09375,84.83887z M619.13574,84.83887
				c0-1.39258-0.52832-2.64062-1.69727-2.64062c-1.16797,0-1.69629,1.24805-1.69629,2.64062s0.52832,2.65723,1.69629,2.65723
				C618.60742,87.49609,619.13574,86.23145,619.13574,84.83887z"/>
			<path class="st6" d="M625.96484,86.98438v-4.61035h-1.00879v-1.39258h1.00879v-2.1123h1.60059v2.1123h1.28027v1.39258h-1.28027
				v4.27441c0,0.52832,0.17578,0.84766,0.59277,0.84766c0.25586,0,0.49609-0.11133,0.60742-0.25586l0.38477,1.2002
				c-0.28809,0.28809-0.73633,0.46484-1.39258,0.46484C626.54102,88.90527,625.96484,88.24902,625.96484,86.98438z"/>
			<path class="st6" d="M630.2041,80.98145h1.60059v1.13672c0.44824-0.75195,1.26465-1.3125,2.12891-1.3125v1.58496
				c-0.12793-0.03223-0.27246-0.04785-0.41602-0.04785c-0.65625,0-1.39258,0.49609-1.71289,1.07227v5.29785h-1.60059V80.98145z"/>
			<path class="st6" d="M639.13379,87.92871c-0.46484,0.63965-1.24902,0.97656-2.0332,0.97656
				c-1.24805,0-2.36914-0.92871-2.36914-2.57715c0-1.66504,1.12109-2.51367,2.36914-2.51367
				c0.78418,0,1.58496,0.30469,2.0332,0.92871v-1.12012c0-0.92871-0.54492-1.47266-1.50488-1.47266
				c-0.68848,0-1.32812,0.27148-1.9209,0.87988l-0.62402-1.12012c0.78418-0.78418,1.84082-1.12012,2.83301-1.12012
				c1.61621,0,2.80078,0.75195,2.80078,2.64062v5.28223h-1.58398V87.92871z M639.13379,85.78418
				c-0.30469-0.54492-0.88086-0.86523-1.45703-0.86523c-0.83203,0-1.34473,0.6084-1.34473,1.44141
				c0,0.83203,0.5127,1.44043,1.34473,1.44043c0.57617,0,1.15234-0.32031,1.45703-0.84863V85.78418z"/>
			<path class="st6" d="M646.87695,83.44629c0-0.91211-0.41602-1.24805-1.10449-1.24805c-0.6875,0-1.28027,0.52832-1.56836,1.07227
				v5.44238h-1.60059v-7.73145h1.60059v1.04102c0.41602-0.625,1.28027-1.23242,2.24121-1.23242
				c1.39258,0,2.03223,0.76758,2.03223,2.09668v5.82617h-1.60059V83.44629z"/>
			<path class="st6" d="M650.47559,86.67969c0.46387,0.5127,1.28027,0.96094,2.08105,0.96094
				c0.7998,0,1.28027-0.36816,1.28027-0.96094c0-0.63965-0.67285-0.92773-1.45703-1.21582
				c-1.08789-0.38477-2.36914-0.84863-2.36914-2.46484c0-1.20117,0.96094-2.20898,2.65723-2.20898
				c1.07227,0,1.9375,0.39941,2.54492,0.99219l-0.67188,1.08789c-0.38379-0.46387-1.07227-0.81641-1.84082-0.81641
				c-0.71973,0-1.18457,0.35254-1.18457,0.84863c0,0.57617,0.64062,0.84863,1.40918,1.12109
				c1.10449,0.39941,2.43262,0.87988,2.43262,2.57617c0,1.3291-1.07227,2.30566-2.76953,2.30566
				c-1.18457,0-2.17676-0.40039-2.83301-1.10449L650.47559,86.67969z"/>
			<path class="st6" d="M656.7793,78.03613h1.60059v10.67676h-1.60059V78.03613z"/>
			<path class="st6" d="M664.26855,87.92871c-0.46484,0.63965-1.24902,0.97656-2.0332,0.97656
				c-1.24805,0-2.36914-0.92871-2.36914-2.57715c0-1.66504,1.12109-2.51367,2.36914-2.51367
				c0.78418,0,1.58496,0.30469,2.0332,0.92871v-1.12012c0-0.92871-0.54492-1.47266-1.50488-1.47266
				c-0.68848,0-1.32812,0.27148-1.9209,0.87988l-0.62402-1.12012c0.78418-0.78418,1.84082-1.12012,2.83301-1.12012
				c1.61621,0,2.80078,0.75195,2.80078,2.64062v5.28223h-1.58398V87.92871z M664.26855,85.78418
				c-0.30469-0.54492-0.88086-0.86523-1.45703-0.86523c-0.83203,0-1.34473,0.6084-1.34473,1.44141
				c0,0.83203,0.5127,1.44043,1.34473,1.44043c0.57617,0,1.15234-0.32031,1.45703-0.84863V85.78418z"/>
			<path class="st6" d="M668.02637,86.98438v-4.61035h-1.00879v-1.39258h1.00879v-2.1123h1.60059v2.1123h1.28027v1.39258h-1.28027
				v4.27441c0,0.52832,0.17578,0.84766,0.59277,0.84766c0.25586,0,0.49609-0.11133,0.60742-0.25586l0.38477,1.2002
				c-0.28809,0.28809-0.73633,0.46484-1.39258,0.46484C668.60254,88.90527,668.02637,88.24902,668.02637,86.98438z"/>
			<path class="st6" d="M675.19629,80.79004c2.09668,0,3.2168,1.77637,3.2168,4.11328v0.46387h-4.91406
				c0.06445,1.26465,0.76855,2.22559,2.0166,2.22559c0.6084,0,1.29688-0.30469,1.74512-0.83301l0.76855,0.96094
				c-0.65625,0.75195-1.63281,1.18457-2.67383,1.18457c-2.12891,0-3.47266-1.66504-3.47266-4.06641
				C671.88281,82.59863,673.13086,80.79004,675.19629,80.79004z M673.4834,84.23145h3.37695
				c-0.01562-0.96094-0.44824-2.14551-1.68066-2.14551C673.97949,82.08594,673.53125,83.30273,673.4834,84.23145z"/>
			<path class="st6" d="M683.32227,78.03613h5.84277v1.55273h-4.06641v2.89746h3.9541v1.56836h-3.9541v4.6582h-1.77637V78.03613z"/>
			<path class="st6" d="M691.53027,86.07227c0.54395,0.7998,1.26465,1.24805,2.24121,1.24805
				c1.08789,0,1.74414-0.89648,1.74414-1.95312c0-1.24805-0.62402-1.96875-1.66406-1.96875
				c-0.7207,0-1.28027,0.27246-1.8252,0.92871l-1.2959-0.36816v-5.92285h5.98633v1.55273h-4.20996v3.16992
				c0.40039-0.5127,1.12012-0.89648,1.95312-0.89648c1.58398,0,2.84863,1.23242,2.84863,3.45703
				c0,2.09668-1.39258,3.58594-3.48926,3.58594c-1.61621,0-2.65723-0.64062-3.39355-1.71289L691.53027,86.07227z"/>
			<path class="st6" d="M707.41992,86.59961h-3.66504l-0.57617,2.11328h-1.84082l3.18555-10.67676h2.12793l3.18555,10.67676
				h-1.84082L707.41992,86.59961z M704.12305,85.03125h2.94531l-1.47266-5.41016L704.12305,85.03125z"/>
			<path class="st6" d="M715.21191,87.68848c-0.46387,0.76855-1.2168,1.2168-1.98535,1.2168
				c-1.72852,0-2.81641-1.56934-2.81641-4.0498c0-2.44922,1.07227-4.06543,2.81641-4.06543
				c0.75293,0,1.52148,0.39941,1.98535,1.23242v-3.98633h1.60059v10.67676h-1.60059V87.68848z M715.21191,83.25488
				c-0.27246-0.57617-0.89648-1.05664-1.50488-1.05664c-1.10449,0-1.64844,1.15234-1.64844,2.65723
				c0,1.47266,0.54395,2.64062,1.64844,2.64062c0.6084,0,1.23242-0.47949,1.50488-1.05566V83.25488z"/>
			<path class="st6" d="M717.78516,80.98145h1.69629l1.71289,5.82715l1.72852-5.82715h1.69727l-2.56152,7.73145h-1.72852
				L717.78516,80.98145z"/>
			<path class="st6" d="M729.5791,87.92871c-0.46484,0.63965-1.24902,0.97656-2.0332,0.97656
				c-1.24805,0-2.36914-0.92871-2.36914-2.57715c0-1.66504,1.12109-2.51367,2.36914-2.51367
				c0.78418,0,1.58496,0.30469,2.0332,0.92871v-1.12012c0-0.92871-0.54492-1.47266-1.50488-1.47266
				c-0.68848,0-1.32812,0.27148-1.9209,0.87988l-0.62402-1.12012c0.78418-0.78418,1.84082-1.12012,2.83301-1.12012
				c1.61621,0,2.80078,0.75195,2.80078,2.64062v5.28223h-1.58398V87.92871z M729.5791,85.78418
				c-0.30469-0.54492-0.88086-0.86523-1.45703-0.86523c-0.83203,0-1.34473,0.6084-1.34473,1.44141
				c0,0.83203,0.5127,1.44043,1.34473,1.44043c0.57617,0,1.15234-0.32031,1.45703-0.84863V85.78418z"/>
			<path class="st6" d="M737.32227,83.44629c0-0.91211-0.41602-1.24805-1.10449-1.24805c-0.6875,0-1.28027,0.52832-1.56836,1.07227
				v5.44238h-1.60059v-7.73145h1.60059v1.04102c0.41602-0.625,1.28027-1.23242,2.24121-1.23242
				c1.39258,0,2.03223,0.76758,2.03223,2.09668v5.82617h-1.60059V83.44629z"/>
			<path class="st6" d="M743.81738,80.79004c1.15332,0,1.88965,0.46387,2.35352,1.04004l-0.81641,1.08887
				c-0.38379-0.49707-0.81641-0.7207-1.37695-0.7207c-1.21582,0-1.9043,1.16895-1.9043,2.64062
				c0,1.47266,0.68848,2.65723,1.9043,2.65723c0.56055,0,0.99316-0.24023,1.37695-0.71973l0.81641,1.08789
				c-0.46387,0.57617-1.2002,1.04102-2.35352,1.04102c-2.06445,0-3.39258-1.72852-3.39258-4.06641
				C740.4248,82.50195,741.75293,80.79004,743.81738,80.79004z"/>
			<path class="st6" d="M750.37793,80.79004c2.09668,0,3.2168,1.77637,3.2168,4.11328v0.46387h-4.91406
				c0.06445,1.26465,0.76855,2.22559,2.0166,2.22559c0.6084,0,1.29688-0.30469,1.74512-0.83301l0.76855,0.96094
				c-0.65625,0.75195-1.63281,1.18457-2.67383,1.18457c-2.12891,0-3.47266-1.66504-3.47266-4.06641
				C747.06445,82.59863,748.3125,80.79004,750.37793,80.79004z M748.66504,84.23145h3.37695
				c-0.01562-0.96094-0.44824-2.14551-1.68066-2.14551C749.16113,82.08594,748.71289,83.30273,748.66504,84.23145z"/>
			<path class="st6" d="M759.4502,87.68848c-0.46387,0.76855-1.2168,1.2168-1.98535,1.2168
				c-1.72852,0-2.81641-1.56934-2.81641-4.0498c0-2.44922,1.07227-4.06543,2.81641-4.06543
				c0.75293,0,1.52148,0.39941,1.98535,1.23242v-3.98633h1.60059v10.67676h-1.60059V87.68848z M759.4502,83.25488
				c-0.27246-0.57617-0.89648-1.05664-1.50488-1.05664c-1.10449,0-1.64844,1.15234-1.64844,2.65723
				c0,1.47266,0.54395,2.64062,1.64844,2.64062c0.6084,0,1.23242-0.47949,1.50488-1.05566V83.25488z"/>
			<path class="st6" d="M614.21582,99.0459l-1.52051,7.66699h-1.85645l-2.41699-10.67676h1.9043l1.53711,7.97168l1.64844-7.97168
				h1.4248l1.66504,7.97168l1.52051-7.97168h1.9043l-2.41699,10.67676h-1.85645L614.21582,99.0459z"/>
			<path class="st6" d="M625.86426,104.59961h-3.66504l-0.57617,2.11328h-1.84082l3.18555-10.67676h2.12793l3.18555,10.67676
				h-1.84082L625.86426,104.59961z M622.56738,103.03125h2.94531l-1.47266-5.41016L622.56738,103.03125z"/>
			<path class="st6" d="M629.35059,96.03613h5.84277v1.55273h-4.06641v2.89746h3.9541v1.56836h-3.9541v4.6582h-1.77637V96.03613z"/>
			<path class="st6" d="M640.08594,109.6582V98.98145h1.60059v1.02441c0.44824-0.76758,1.2002-1.21582,1.98535-1.21582
				c1.74414,0,2.81641,1.55273,2.81641,4.04883c0,2.46582-1.07227,4.06641-2.81641,4.06641
				c-0.76855,0-1.52148-0.40039-1.98535-1.23242v3.98535H640.08594z M643.19141,100.19824
				c-0.6084,0-1.23242,0.46387-1.50488,1.05664v3.16895c0.27246,0.57617,0.89648,1.07227,1.50488,1.07227
				c1.10449,0,1.64844-1.16797,1.64844-2.65723C644.83984,101.35059,644.2959,100.19824,643.19141,100.19824z"/>
			<path class="st6" d="M647.58984,102.83887c0-2.17676,1.15234-4.04883,3.34473-4.04883c2.19336,0,3.3457,1.87207,3.3457,4.04883
				c0,2.17773-1.15234,4.06641-3.3457,4.06641C648.74219,106.90527,647.58984,105.0166,647.58984,102.83887z M652.63184,102.83887
				c0-1.39258-0.52832-2.64062-1.69727-2.64062c-1.16797,0-1.69629,1.24805-1.69629,2.64062s0.52832,2.65723,1.69629,2.65723
				C652.10352,105.49609,652.63184,104.23145,652.63184,102.83887z"/>
			<path class="st6" d="M655.78125,96.03613h1.60059v10.67676h-1.60059V96.03613z"/>
			<path class="st6" d="M659.06055,96.70898c0-0.56055,0.46387-1.00879,1.00879-1.00879c0.54395,0,0.99219,0.44824,0.99219,1.00879
				c0,0.54395-0.44824,0.99219-0.99219,0.99219C659.52441,97.70117,659.06055,97.25293,659.06055,96.70898z M659.26855,98.98145
				h1.60059v7.73145h-1.60059V98.98145z"/>
			<path class="st6" d="M665.76562,98.79004c1.15332,0,1.88965,0.46387,2.35352,1.04004l-0.81641,1.08887
				c-0.38379-0.49707-0.81641-0.7207-1.37695-0.7207c-1.21582,0-1.9043,1.16895-1.9043,2.64062
				c0,1.47266,0.68848,2.65723,1.9043,2.65723c0.56055,0,0.99316-0.24023,1.37695-0.71973l0.81641,1.08789
				c-0.46387,0.57617-1.2002,1.04102-2.35352,1.04102c-2.06445,0-3.39258-1.72852-3.39258-4.06641
				C662.37305,100.50195,663.70117,98.79004,665.76562,98.79004z"/>
			<path class="st6" d="M669.87695,108.44141c0.43164,0,0.7041-0.16016,0.87988-0.63965l0.32031-0.92871l-2.59277-7.8916h1.69629
				l1.71289,5.81055l1.72852-5.81055h1.69727l-3.05762,9.18848c-0.43262,1.2959-1.18457,1.68066-2.27344,1.68066
				c-0.23926,0-0.65625-0.04883-0.86426-0.1123l0.24023-1.40918C669.50879,108.40918,669.73242,108.44141,669.87695,108.44141z"/>
			<path class="st6" d="M679.95605,104.98438v-4.61035h-1.00879v-1.39258h1.00879v-2.1123h1.60059v2.1123h1.28027v1.39258h-1.28027
				v4.27441c0,0.52832,0.17578,0.84766,0.59277,0.84766c0.25586,0,0.49609-0.11133,0.60742-0.25586l0.38477,1.2002
				c-0.28809,0.28809-0.73633,0.46484-1.39258,0.46484C680.53223,106.90527,679.95605,106.24902,679.95605,104.98438z"/>
			<path class="st6" d="M683.8125,102.83887c0-2.17676,1.15234-4.04883,3.34473-4.04883c2.19336,0,3.3457,1.87207,3.3457,4.04883
				c0,2.17773-1.15234,4.06641-3.3457,4.06641C684.96484,106.90527,683.8125,105.0166,683.8125,102.83887z M688.85449,102.83887
				c0-1.39258-0.52832-2.64062-1.69727-2.64062c-1.16797,0-1.69629,1.24805-1.69629,2.64062s0.52832,2.65723,1.69629,2.65723
				C688.32617,105.49609,688.85449,104.23145,688.85449,102.83887z"/>
			<path class="st6" d="M697.25195,99.33398v7.37891h-1.77637V96.03613h1.79297l3.85742,7.10742v-7.10742h1.77637v10.67676h-1.69629
				L697.25195,99.33398z"/>
			<path class="st6" d="M708.90039,95.86035c1.72949,0,2.78516,1.02441,3.39355,2.27344l-1.44043,0.67188
				c-0.38379-0.78418-1.02441-1.37695-1.95312-1.37695c-1.52051,0-2.54492,1.52148-2.54492,3.9541
				c0,2.41699,1.02441,3.95312,2.54492,3.95312c0.78516,0,1.4248-0.36816,1.77734-0.76758v-1.98535h-2.24121v-1.55273h3.92188
				v4.24219c-0.84863,1.00781-1.98535,1.64844-3.45801,1.64844c-2.625,0-4.35352-2.24121-4.35352-5.53809
				C704.54688,98.06934,706.27539,95.86035,708.90039,95.86035z"/>
			<path class="st6" d="M714.16309,96.03613h1.77637v10.67676h-1.77637V96.03613z"/>
			<path class="st6" d="M719.76367,99.33398v7.37891h-1.77637V96.03613h1.79297l3.85742,7.10742v-7.10742h1.77637v10.67676h-1.69629
				L719.76367,99.33398z"/>
			<path class="st6" d="M730.70801,102.64746l-2.19238,4.06543h-2.04883l3.15332-5.45801l-2.96191-5.21875h2.0332l2.0166,3.8418
				l2.01758-3.8418h2.04883l-2.96191,5.20215l3.15332,5.47461h-2.04883L730.70801,102.64746z"/>
			<path class="st6" d="M744.5,104.59961h-3.66504l-0.57617,2.11328h-1.84082l3.18555-10.67676h2.12793l3.18555,10.67676h-1.84082
				L744.5,104.59961z M741.20312,103.03125h2.94531l-1.47266-5.41016L741.20312,103.03125z"/>
			<path class="st6" d="M747.90625,109.6582V98.98145h1.60059v1.02441c0.44824-0.76758,1.2002-1.21582,1.98535-1.21582
				c1.74414,0,2.81641,1.55273,2.81641,4.04883c0,2.46582-1.07227,4.06641-2.81641,4.06641
				c-0.76855,0-1.52148-0.40039-1.98535-1.23242v3.98535H747.90625z M751.01172,100.19824
				c-0.6084,0-1.23242,0.46387-1.50488,1.05664v3.16895c0.27246,0.57617,0.89648,1.07227,1.50488,1.07227
				c1.10449,0,1.64844-1.16797,1.64844-2.65723C752.66016,101.35059,752.11621,100.19824,751.01172,100.19824z"/>
			<path class="st6" d="M755.79395,109.6582V98.98145h1.60059v1.02441c0.44824-0.76758,1.2002-1.21582,1.98535-1.21582
				c1.74414,0,2.81641,1.55273,2.81641,4.04883c0,2.46582-1.07227,4.06641-2.81641,4.06641
				c-0.76855,0-1.52148-0.40039-1.98535-1.23242v3.98535H755.79395z M758.89941,100.19824
				c-0.6084,0-1.23242,0.46387-1.50488,1.05664v3.16895c0.27246,0.57617,0.89648,1.07227,1.50488,1.07227
				c1.10449,0,1.64844-1.16797,1.64844-2.65723C760.54785,101.35059,760.00391,100.19824,758.89941,100.19824z"/>
			<path class="st6" d="M644.62109,114.03613h3.63379c2.09668,0,3.15332,1.53711,3.15332,3.31348
				c0,1.79297-1.05664,3.33008-3.15332,3.33008h-1.85742v4.0332h-1.77637V114.03613z M648.04688,115.58887h-1.64941v3.52148h1.64941
				c0.94434,0,1.55176-0.7041,1.55176-1.76074C649.59863,116.29395,648.99121,115.58887,648.04688,115.58887z"/>
			<path class="st6" d="M652.74902,116.98145h1.60059v1.13672c0.44824-0.75195,1.26465-1.3125,2.12891-1.3125v1.58496
				c-0.12793-0.03223-0.27246-0.04785-0.41602-0.04785c-0.65625,0-1.39258,0.49609-1.71289,1.07227v5.29785h-1.60059V116.98145z"/>
			<path class="st6" d="M657.29297,120.83887c0-2.17676,1.15234-4.04883,3.34473-4.04883c2.19336,0,3.3457,1.87207,3.3457,4.04883
				c0,2.17773-1.15234,4.06641-3.3457,4.06641C658.44531,124.90527,657.29297,123.0166,657.29297,120.83887z M662.33496,120.83887
				c0-1.39258-0.52832-2.64062-1.69727-2.64062c-1.16797,0-1.69629,1.24805-1.69629,2.64062s0.52832,2.65723,1.69629,2.65723
				C661.80664,123.49609,662.33496,122.23145,662.33496,120.83887z"/>
			<path class="st6" d="M665.77246,122.98438v-4.61035h-1.00879v-1.39258h1.00879v-2.1123h1.60059v2.1123h1.28027v1.39258h-1.28027
				v4.27441c0,0.52832,0.17578,0.84766,0.59277,0.84766c0.25586,0,0.49609-0.11133,0.60742-0.25586l0.38477,1.2002
				c-0.28809,0.28809-0.73633,0.46484-1.39258,0.46484C666.34863,124.90527,665.77246,124.24902,665.77246,122.98438z"/>
			<path class="st6" d="M672.94238,116.79004c2.09668,0,3.2168,1.77637,3.2168,4.11328v0.46387h-4.91406
				c0.06445,1.26465,0.76855,2.22559,2.0166,2.22559c0.6084,0,1.29688-0.30469,1.74512-0.83301l0.76855,0.96094
				c-0.65625,0.75195-1.63281,1.18457-2.67383,1.18457c-2.12891,0-3.47266-1.66504-3.47266-4.06641
				C669.62891,118.59863,670.87695,116.79004,672.94238,116.79004z M671.22949,120.23145h3.37695
				c-0.01562-0.96094-0.44824-2.14551-1.68066-2.14551C671.72559,118.08594,671.27734,119.30273,671.22949,120.23145z"/>
			<path class="st6" d="M680.60547,116.79004c1.15332,0,1.88965,0.46387,2.35352,1.04004l-0.81641,1.08887
				c-0.38379-0.49707-0.81641-0.7207-1.37695-0.7207c-1.21582,0-1.9043,1.16895-1.9043,2.64062
				c0,1.47266,0.68848,2.65723,1.9043,2.65723c0.56055,0,0.99316-0.24023,1.37695-0.71973l0.81641,1.08789
				c-0.46387,0.57617-1.2002,1.04102-2.35352,1.04102c-2.06445,0-3.39258-1.72852-3.39258-4.06641
				C677.21289,118.50195,678.54102,116.79004,680.60547,116.79004z"/>
			<path class="st6" d="M684.52441,122.98438v-4.61035h-1.00879v-1.39258h1.00879v-2.1123h1.60059v2.1123h1.28027v1.39258H686.125
				v4.27441c0,0.52832,0.17578,0.84766,0.59277,0.84766c0.25586,0,0.49609-0.11133,0.60742-0.25586l0.38477,1.2002
				c-0.28809,0.28809-0.73633,0.46484-1.39258,0.46484C685.10059,124.90527,684.52441,124.24902,684.52441,122.98438z"/>
			<path class="st6" d="M692.15625,127.6582v-10.67676h1.60059v1.02441c0.44824-0.76758,1.2002-1.21582,1.98535-1.21582
				c1.74414,0,2.81641,1.55273,2.81641,4.04883c0,2.46582-1.07227,4.06641-2.81641,4.06641
				c-0.76855,0-1.52148-0.40039-1.98535-1.23242v3.98535H692.15625z M695.26172,118.19824
				c-0.6084,0-1.23242,0.46387-1.50488,1.05664v3.16895c0.27246,0.57617,0.89648,1.07227,1.50488,1.07227
				c1.10449,0,1.64844-1.16797,1.64844-2.65723C696.91016,119.35059,696.36621,118.19824,695.26172,118.19824z"/>
			<path class="st6" d="M699.66016,120.83887c0-2.17676,1.15234-4.04883,3.34473-4.04883c2.19336,0,3.3457,1.87207,3.3457,4.04883
				c0,2.17773-1.15234,4.06641-3.3457,4.06641C700.8125,124.90527,699.66016,123.0166,699.66016,120.83887z M704.70215,120.83887
				c0-1.39258-0.52832-2.64062-1.69727-2.64062c-1.16797,0-1.69629,1.24805-1.69629,2.64062s0.52832,2.65723,1.69629,2.65723
				C704.17383,123.49609,704.70215,122.23145,704.70215,120.83887z"/>
			<path class="st6" d="M707.85156,114.03613h1.60059v10.67676h-1.60059V114.03613z"/>
			<path class="st6" d="M711.13086,114.70898c0-0.56055,0.46387-1.00879,1.00879-1.00879c0.54395,0,0.99219,0.44824,0.99219,1.00879
				c0,0.54395-0.44824,0.99219-0.99219,0.99219C711.59473,115.70117,711.13086,115.25293,711.13086,114.70898z M711.33887,116.98145
				h1.60059v7.73145h-1.60059V116.98145z"/>
			<path class="st6" d="M717.83594,116.79004c1.15332,0,1.88965,0.46387,2.35352,1.04004l-0.81641,1.08887
				c-0.38379-0.49707-0.81641-0.7207-1.37695-0.7207c-1.21582,0-1.9043,1.16895-1.9043,2.64062
				c0,1.47266,0.68848,2.65723,1.9043,2.65723c0.56055,0,0.99316-0.24023,1.37695-0.71973l0.81641,1.08789
				c-0.46387,0.57617-1.2002,1.04102-2.35352,1.04102c-2.06445,0-3.39258-1.72852-3.39258-4.06641
				C714.44336,118.50195,715.77148,116.79004,717.83594,116.79004z"/>
			<path class="st6" d="M721.94727,126.44141c0.43164,0,0.7041-0.16016,0.87988-0.63965l0.32031-0.92871l-2.59277-7.8916h1.69629
				l1.71289,5.81055l1.72852-5.81055h1.69727l-3.05762,9.18848c-0.43262,1.2959-1.18457,1.68066-2.27344,1.68066
				c-0.23926,0-0.65625-0.04883-0.86426-0.1123l0.24023-1.40918C721.5791,126.40918,721.80273,126.44141,721.94727,126.44141z"/>
		</g>
	</g>
	<g>
		<rect x="427" y="60.04065" class="st5" width="120" height="37.72674"/>
		<path class="st6" d="M462.5918,59.93652h3.63379c2.09668,0,3.15332,1.53711,3.15332,3.31348
			c0,1.79297-1.05664,3.33008-3.15332,3.33008h-1.85742v4.0332h-1.77637V59.93652z M466.01758,61.48926h-1.64941v3.52148h1.64941
			c0.94434,0,1.55176-0.7041,1.55176-1.76074C467.56934,62.19434,466.96191,61.48926,466.01758,61.48926z"/>
		<path class="st6" d="M470.04785,66.73926c0-2.17676,1.15234-4.04883,3.34473-4.04883c2.19336,0,3.3457,1.87207,3.3457,4.04883
			c0,2.17773-1.15234,4.06641-3.3457,4.06641C471.2002,70.80566,470.04785,68.91699,470.04785,66.73926z M475.08984,66.73926
			c0-1.39258-0.52832-2.64062-1.69727-2.64062c-1.16797,0-1.69629,1.24805-1.69629,2.64062s0.52832,2.65723,1.69629,2.65723
			C474.56152,69.39648,475.08984,68.13184,475.08984,66.73926z"/>
		<path class="st6" d="M478.23926,59.93652h1.60059v10.67676h-1.60059V59.93652z"/>
		<path class="st6" d="M481.51953,60.60938c0-0.56055,0.46387-1.00879,1.00879-1.00879c0.54395,0,0.99219,0.44824,0.99219,1.00879
			c0,0.54395-0.44824,0.99219-0.99219,0.99219C481.9834,61.60156,481.51953,61.15332,481.51953,60.60938z M481.72754,62.88184
			h1.60059v7.73145h-1.60059V62.88184z"/>
		<path class="st6" d="M488.22461,62.69043c1.15332,0,1.88965,0.46387,2.35352,1.04004l-0.81641,1.08887
			c-0.38379-0.49707-0.81641-0.7207-1.37695-0.7207c-1.21582,0-1.9043,1.16895-1.9043,2.64062
			c0,1.47266,0.68848,2.65723,1.9043,2.65723c0.56055,0,0.99316-0.24023,1.37695-0.71973l0.81641,1.08789
			c-0.46387,0.57617-1.2002,1.04102-2.35352,1.04102c-2.06445,0-3.39258-1.72949-3.39258-4.06641
			S486.16016,62.69043,488.22461,62.69043z"/>
		<path class="st6" d="M492.33594,72.3418c0.43164,0,0.7041-0.16016,0.87988-0.63965l0.32031-0.92871l-2.59277-7.8916h1.69629
			l1.71289,5.81055l1.72852-5.81055h1.69727l-3.05762,9.18848c-0.43262,1.2959-1.18457,1.68066-2.27246,1.68066
			c-0.24023,0-0.65723-0.04883-0.86523-0.1123l0.24023-1.40918C491.96777,72.30957,492.19141,72.3418,492.33594,72.3418z"/>
		<path class="st6" d="M501.91895,60.60938c0-0.56055,0.46387-1.00879,1.00879-1.00879c0.54395,0,0.99219,0.44824,0.99219,1.00879
			c0,0.54395-0.44824,0.99219-0.99219,0.99219C502.38281,61.60156,501.91895,61.15332,501.91895,60.60938z M502.12695,62.88184
			h1.60059v7.73145h-1.60059V62.88184z"/>
		<path class="st6" d="M509.8877,65.34668c0-0.91211-0.41602-1.24805-1.10449-1.24805c-0.6875,0-1.28027,0.52832-1.56836,1.07227
			v5.44238h-1.60059v-7.73145h1.60059v1.04102c0.41602-0.625,1.28027-1.23242,2.24121-1.23242
			c1.39258,0,2.03223,0.76758,2.03223,2.09668v5.82617h-1.60059V65.34668z"/>
		<path class="st6" d="M455.78516,84.54785l-2.19238,4.06543h-2.04883l3.15332-5.45801l-2.96191-5.21875h2.0332l2.0166,3.8418
			l2.01758-3.8418h2.04883l-2.96191,5.20215l3.15332,5.47461h-2.04883L455.78516,84.54785z"/>
		<path class="st6" d="M468.71484,80.85059l-2.59277,7.7627h-0.68848l-2.56152-7.7627v7.7627h-1.77637V77.93652h2.40137
			l2.28809,6.89941l2.30566-6.89941h2.38477v10.67676h-1.76074V80.85059z"/>
		<path class="st6" d="M472.50391,77.93652h1.77637v9.1084h3.69824v1.56836h-5.47461V77.93652z"/>
		<path class="st6" d="M483.0791,82.27441h-1.00879v-1.39258h1.00879v-0.71973c0-1.53711,0.86426-2.38477,2.09668-2.38477
			c0.44824,0,0.84863,0.08008,1.16895,0.23926l-0.32031,1.23242c-0.16016-0.0791-0.32031-0.11133-0.49609-0.11133
			c-0.52832,0-0.84863,0.35156-0.84863,1.02441v0.71973h1.28027v1.39258h-1.28027v6.33887h-1.60059V82.27441z"/>
		<path class="st6" d="M486.75879,84.73926c0-2.17676,1.15234-4.04883,3.34473-4.04883c2.19336,0,3.3457,1.87207,3.3457,4.04883
			c0,2.17773-1.15234,4.06641-3.3457,4.06641C487.91113,88.80566,486.75879,86.91699,486.75879,84.73926z M491.80078,84.73926
			c0-1.39258-0.52832-2.64062-1.69727-2.64062c-1.16797,0-1.69629,1.24805-1.69629,2.64062s0.52832,2.65723,1.69629,2.65723
			C491.27246,87.39648,491.80078,86.13184,491.80078,84.73926z"/>
		<path class="st6" d="M494.9502,80.88184h1.60059v1.13672c0.44824-0.75195,1.26465-1.3125,2.12891-1.3125v1.58496
			c-0.12793-0.03223-0.27246-0.04785-0.41602-0.04785c-0.65625,0-1.39258,0.49609-1.71289,1.07227v5.29785h-1.60059V80.88184z"/>
		<path class="st6" d="M507.94531,83.23535c0-0.7207-0.28809-1.13672-0.96094-1.13672c-0.63965,0-1.21582,0.56055-1.47168,1.07227
			v5.44238h-1.60156v-5.37793c0-0.7041-0.28809-1.13672-0.95996-1.13672c-0.64062,0-1.2002,0.56055-1.47266,1.07227v5.44238
			h-1.60059v-7.73145h1.60059v1.04102c0.30469-0.54492,1.18457-1.23242,2.14453-1.23242c0.97656,0,1.63281,0.49609,1.80957,1.36035
			c0.36816-0.68848,1.26367-1.36035,2.22461-1.36035c1.16797,0,1.88867,0.62402,1.88867,2.03223v5.89062h-1.60059V83.23535z"/>
		<path class="st6" d="M515.43164,87.8291c-0.46484,0.63965-1.24902,0.97656-2.0332,0.97656
			c-1.24805,0-2.36914-0.92871-2.36914-2.57715c0-1.66504,1.12109-2.51367,2.36914-2.51367
			c0.78418,0,1.58496,0.30469,2.0332,0.92871v-1.12012c0-0.92871-0.54492-1.47266-1.50488-1.47266
			c-0.68848,0-1.32812,0.27148-1.9209,0.87988l-0.62402-1.12012c0.78418-0.78418,1.84082-1.12012,2.83301-1.12012
			c1.61621,0,2.80078,0.75195,2.80078,2.64062v5.28223h-1.58398V87.8291z M515.43164,85.68457
			c-0.30469-0.54492-0.88086-0.86523-1.45703-0.86523c-0.83203,0-1.34473,0.6084-1.34473,1.44141
			c0,0.83203,0.5127,1.44043,1.34473,1.44043c0.57617,0,1.15234-0.32031,1.45703-0.84863V85.68457z"/>
		<path class="st6" d="M519.18945,86.88477v-4.61035h-1.00879v-1.39258h1.00879v-2.1123h1.60059v2.1123h1.28027v1.39258h-1.28027
			v4.27441c0,0.52734,0.17578,0.84766,0.59277,0.84766c0.25586,0,0.49609-0.11133,0.60742-0.25586l0.38477,1.2002
			c-0.28809,0.28809-0.73633,0.46484-1.39258,0.46484C519.76562,88.80566,519.18945,88.14941,519.18945,86.88477z"/>
	</g>
	<path class="st1" d="M944,100.02505V40H824v73.45309c16.9895,10.61843,41.65607,11.46494,60,0s42.59973-10.87518,60,0V100.02505z"
		/>
	<g>
		<rect x="824" y="60.04065" class="st5" width="120" height="37.72674"/>
		<path class="st6" d="M859.5918,59.93652h3.63379c2.09668,0,3.15332,1.53711,3.15332,3.31348
			c0,1.79297-1.05664,3.33008-3.15332,3.33008h-1.85742v4.0332h-1.77637V59.93652z M863.01758,61.48926h-1.64941v3.52148h1.64941
			c0.94434,0,1.55176-0.7041,1.55176-1.76074C864.56934,62.19434,863.96191,61.48926,863.01758,61.48926z"/>
		<path class="st6" d="M867.04785,66.73926c0-2.17676,1.15234-4.04883,3.34473-4.04883c2.19336,0,3.3457,1.87207,3.3457,4.04883
			c0,2.17773-1.15234,4.06641-3.3457,4.06641C868.2002,70.80566,867.04785,68.91699,867.04785,66.73926z M872.08984,66.73926
			c0-1.39258-0.52832-2.64062-1.69727-2.64062c-1.16797,0-1.69629,1.24805-1.69629,2.64062s0.52832,2.65723,1.69629,2.65723
			C871.56152,69.39648,872.08984,68.13184,872.08984,66.73926z"/>
		<path class="st6" d="M875.23926,59.93652h1.60059v10.67676h-1.60059V59.93652z"/>
		<path class="st6" d="M878.51953,60.60938c0-0.56055,0.46387-1.00879,1.00879-1.00879c0.54395,0,0.99219,0.44824,0.99219,1.00879
			c0,0.54395-0.44824,0.99219-0.99219,0.99219C878.9834,61.60156,878.51953,61.15332,878.51953,60.60938z M878.72754,62.88184
			h1.60059v7.73145h-1.60059V62.88184z"/>
		<path class="st6" d="M885.22461,62.69043c1.15332,0,1.88965,0.46387,2.35352,1.04004l-0.81641,1.08887
			c-0.38379-0.49707-0.81641-0.7207-1.37695-0.7207c-1.21582,0-1.9043,1.16895-1.9043,2.64062
			c0,1.47266,0.68848,2.65723,1.9043,2.65723c0.56055,0,0.99316-0.24023,1.37695-0.71973l0.81641,1.08789
			c-0.46387,0.57617-1.2002,1.04102-2.35352,1.04102c-2.06445,0-3.39258-1.72949-3.39258-4.06641
			S883.16016,62.69043,885.22461,62.69043z"/>
		<path class="st6" d="M889.33594,72.3418c0.43164,0,0.7041-0.16016,0.87988-0.63965l0.32031-0.92871l-2.59277-7.8916h1.69629
			l1.71289,5.81055l1.72852-5.81055h1.69727l-3.05762,9.18848c-0.43262,1.2959-1.18457,1.68066-2.27246,1.68066
			c-0.24023,0-0.65723-0.04883-0.86523-0.1123l0.24023-1.40918C888.96777,72.30957,889.19141,72.3418,889.33594,72.3418z"/>
		<path class="st6" d="M898.91895,60.60938c0-0.56055,0.46387-1.00879,1.00879-1.00879c0.54395,0,0.99219,0.44824,0.99219,1.00879
			c0,0.54395-0.44824,0.99219-0.99219,0.99219C899.38281,61.60156,898.91895,61.15332,898.91895,60.60938z M899.12695,62.88184
			h1.60059v7.73145h-1.60059V62.88184z"/>
		<path class="st6" d="M906.8877,65.34668c0-0.91211-0.41602-1.24805-1.10449-1.24805c-0.6875,0-1.28027,0.52832-1.56836,1.07227
			v5.44238h-1.60059v-7.73145h1.60059v1.04102c0.41602-0.625,1.28027-1.23242,2.24121-1.23242
			c1.39258,0,2.03223,0.76758,2.03223,2.09668v5.82617h-1.60059V65.34668z"/>
		<path class="st6" d="M845.99219,86.53223c0.36816,0.41602,0.83203,0.68848,1.4248,0.68848
			c0.94434,0,1.52051-0.57617,1.52051-1.60059v-7.68359h1.77637v7.73145c0,2.16113-1.3125,3.1377-3.13672,3.1377
			c-0.86523,0-1.64941-0.25684-2.27344-0.88086L845.99219,86.53223z"/>
		<path class="st6" d="M852.96777,86.06836c0.57715,0.65625,1.48926,1.15234,2.5459,1.15234
			c1.10449,0,1.66406-0.65625,1.66406-1.4082c0-0.96094-0.89648-1.37695-1.9209-1.84082
			c-1.32812-0.57617-2.86523-1.23242-2.86523-3.2334c0-1.66504,1.29688-2.97754,3.31348-2.97754
			c1.24902,0,2.30566,0.41602,3.07324,1.15234l-0.86426,1.34473c-0.62402-0.62402-1.4248-0.91211-2.25684-0.91211
			c-0.86426,0-1.45605,0.51172-1.45605,1.2959c0,0.81641,0.84766,1.20117,1.83984,1.64941
			c1.36133,0.6084,2.94531,1.3125,2.94531,3.37695c0,1.74512-1.18457,3.1377-3.47266,3.1377
			c-1.52148,0-2.65723-0.52832-3.44141-1.36133L852.96777,86.06836z"/>
		<path class="st6" d="M864.39355,77.76074c2.70508,0,4.27344,2.38477,4.27344,5.52246c0,3.13672-1.56836,5.52246-4.27344,5.52246
			s-4.27441-2.38574-4.27441-5.52246C860.11914,80.14551,861.68848,77.76074,864.39355,77.76074z M864.39355,79.3291
			c-1.60156,0-2.46582,1.71289-2.46582,3.9541c0,2.20898,0.86426,3.9375,2.46582,3.9375c1.58398,0,2.46484-1.72852,2.46484-3.9375
			C866.8584,81.04199,865.97754,79.3291,864.39355,79.3291z"/>
		<path class="st6" d="M872.08789,81.23438v7.37891h-1.77637V77.93652h1.79297l3.85742,7.10742v-7.10742h1.77637v10.67676h-1.69629
			L872.08789,81.23438z"/>
		<path class="st6" d="M883.41504,82.27441h-1.00879v-1.39258h1.00879v-0.71973c0-1.53711,0.86426-2.38477,2.09668-2.38477
			c0.44824,0,0.84863,0.08008,1.16895,0.23926l-0.32031,1.23242c-0.16016-0.0791-0.32031-0.11133-0.49609-0.11133
			c-0.52832,0-0.84863,0.35156-0.84863,1.02441v0.71973h1.28027v1.39258h-1.28027v6.33887h-1.60059V82.27441z"/>
		<path class="st6" d="M887.09473,84.73926c0-2.17676,1.15234-4.04883,3.34473-4.04883c2.19336,0,3.3457,1.87207,3.3457,4.04883
			c0,2.17773-1.15234,4.06641-3.3457,4.06641C888.24707,88.80566,887.09473,86.91699,887.09473,84.73926z M892.13672,84.73926
			c0-1.39258-0.52832-2.64062-1.69727-2.64062c-1.16797,0-1.69629,1.24805-1.69629,2.64062s0.52832,2.65723,1.69629,2.65723
			C891.6084,87.39648,892.13672,86.13184,892.13672,84.73926z"/>
		<path class="st6" d="M895.28613,80.88184h1.60059v1.13672c0.44824-0.75195,1.26465-1.3125,2.12891-1.3125v1.58496
			c-0.12793-0.03223-0.27246-0.04785-0.41602-0.04785c-0.65625,0-1.39258,0.49609-1.71289,1.07227v5.29785h-1.60059V80.88184z"/>
		<path class="st6" d="M908.28125,83.23535c0-0.7207-0.28809-1.13672-0.96094-1.13672c-0.63965,0-1.21582,0.56055-1.47168,1.07227
			v5.44238h-1.60156v-5.37793c0-0.7041-0.28809-1.13672-0.95996-1.13672c-0.64062,0-1.2002,0.56055-1.47266,1.07227v5.44238
			h-1.60059v-7.73145h1.60059v1.04102c0.30469-0.54492,1.18457-1.23242,2.14453-1.23242c0.97656,0,1.63281,0.49609,1.80957,1.36035
			c0.36816-0.68848,1.26367-1.36035,2.22461-1.36035c1.16797,0,1.88867,0.62402,1.88867,2.03223v5.89062h-1.60059V83.23535z"/>
		<path class="st6" d="M915.76758,87.8291c-0.46484,0.63965-1.24902,0.97656-2.0332,0.97656
			c-1.24805,0-2.36914-0.92871-2.36914-2.57715c0-1.66504,1.12109-2.51367,2.36914-2.51367
			c0.78418,0,1.58496,0.30469,2.0332,0.92871v-1.12012c0-0.92871-0.54492-1.47266-1.50488-1.47266
			c-0.68848,0-1.32812,0.27148-1.9209,0.87988l-0.62402-1.12012c0.78418-0.78418,1.84082-1.12012,2.83301-1.12012
			c1.61621,0,2.80078,0.75195,2.80078,2.64062v5.28223h-1.58398V87.8291z M915.76758,85.68457
			c-0.30469-0.54492-0.88086-0.86523-1.45703-0.86523c-0.83203,0-1.34473,0.6084-1.34473,1.44141
			c0,0.83203,0.5127,1.44043,1.34473,1.44043c0.57617,0,1.15234-0.32031,1.45703-0.84863V85.68457z"/>
		<path class="st6" d="M919.52539,86.88477v-4.61035h-1.00879v-1.39258h1.00879v-2.1123h1.60059v2.1123h1.28027v1.39258h-1.28027
			v4.27441c0,0.52734,0.17578,0.84766,0.59277,0.84766c0.25586,0,0.49609-0.11133,0.60742-0.25586l0.38477,1.2002
			c-0.28809,0.28809-0.73633,0.46484-1.39258,0.46484C920.10156,88.80566,919.52539,88.14941,919.52539,86.88477z"/>
	</g>
	<g>
		<g>
			<line class="st27" x1="590.50006" y1="80.8687" x2="585.73541" y2="85.63335"/>
			<line class="st27" x1="590.50006" y1="80.8687" x2="585.73541" y2="76.10405"/>
		</g>
		<line class="st27" x1="557.00012" y1="80.86884" x2="590.50006" y2="80.8687"/>
	</g>
	<g>
		<g>
			<line class="st27" x1="814" y1="80.8687" x2="809.23535" y2="85.63335"/>
			<line class="st27" x1="814" y1="80.8687" x2="809.23535" y2="76.10405"/>
		</g>
		<line class="st27" x1="780.50012" y1="80.86884" x2="814" y2="80.8687"/>
	</g>
	<g>
		<g>
			<line class="st27" x1="416.99991" y1="80.8687" x2="412.23526" y2="85.63335"/>
			<line class="st27" x1="416.99991" y1="80.8687" x2="412.23526" y2="76.10405"/>
		</g>
		<line class="st27" x1="383.5" y1="80.86884" x2="416.99991" y2="80.8687"/>
	</g>
	<g>
		<circle class="st40" cx="80" cy="39.9796" r="12"/>
		<g>
			<rect x="70.86697" y="32.43806" class="st5" width="16.26607" height="15.08308"/>
			<path class="st2" d="M79.04053,35.31641l-2.04004,2.14062l-1.30078-1.36035l3.62109-3.66113h1.91992v13.34277h-2.2002V35.31641z"
				/>
		</g>
	</g>
	<g>
		<circle class="st40" cx="253.49991" cy="40.02037" r="12.00002"/>
		<g>
			<rect x="245.36688" y="32.47882" class="st5" width="16.26611" height="15.08313"/>
			<path class="st2" d="M249.36426,43.9834c4.66113-4.86035,5.88184-6.16113,5.88184-7.86133
				c0-1.2002-0.88086-1.91992-1.9209-1.91992c-1.21973,0-2.16016,0.58008-2.84082,1.58008l-1.36035-1.38086
				c1.00098-1.40039,2.44141-2.16016,4.22168-2.16016c2.33984,0,4.16016,1.45996,4.16016,3.86133
				c0,2.12012-1.5,3.95996-4.90039,7.72168h4.96094v1.95996h-8.20215V43.9834z"/>
		</g>
	</g>
	<g>
		<circle class="st40" cx="600.5" cy="40.02037" r="12.00001"/>
		<g>
			<rect x="592.367" y="32.47882" class="st5" width="16.2661" height="15.08313"/>
			<path class="st2" d="M597.36133,42.46484c0.66016,0.93945,1.67969,1.58008,2.86035,1.58008c1.5,0,2.2002-0.83984,2.2002-2.10059
				c0-1.5-1-2-2.32031-2c-0.41992,0-0.98047,0-1.16016,0.04004V37.9834c0.2002,0.02051,0.78027,0.02051,1.12012,0.02051
				c1.25977,0,2.18066-0.60059,2.18066-1.84082c0-1.32031-0.86035-1.95996-2.08105-1.95996c-1.12012,0-2,0.54004-2.68066,1.43945
				l-1.2998-1.28027c0.87988-1.2998,2.32031-2.12012,4.14062-2.12012c2.4209,0,4.12109,1.2207,4.12109,3.58105
				c0,1.58008-1.14062,2.78027-2.46094,3.06055c1.28027,0.2002,2.64062,1.40039,2.64062,3.26074
				c0,2.26074-1.62012,3.88086-4.30078,3.88086c-2.04004,0-3.54004-0.98047-4.32031-2.18066L597.36133,42.46484z"/>
		</g>
	</g>
</g>
<g id="Icons">
</g>
</svg>
