<svg width="598" height="102" xmlns="http://www.w3.org/2000/svg" xmlns:xlink="http://www.w3.org/1999/xlink" xml:space="preserve" overflow="hidden"><defs><clipPath id="clip0"><rect x="341" y="45" width="598" height="102"/></clipPath></defs><g clip-path="url(#clip0)" transform="translate(-341 -45)"><path d="M592.889 62.5621 593.494 62.5621 593.494 61.2154 593.973 61.2154C594.288 61.2154 594.517 61.2461 594.645 61.3275 594.856 61.4514 594.964 61.7171 594.964 62.1109L594.964 62.3871 594.978 62.4901C594.985 62.5127 594.985 62.5221 594.988 62.533 594.991 62.5497 594.991 62.5546 595 62.5621L595.562 62.5621 595.541 62.5238C595.524 62.498 595.514 62.4394 595.514 62.3489 595.507 62.2521 595.507 62.1695 595.507 62.093L595.507 61.838C595.507 61.6665 595.441 61.4915 595.318 61.3042 595.191 61.1235 594.991 61.0163 594.721 60.9689 594.935 60.9332 595.102 60.8764 595.219 60.8074 595.448 60.6632 595.554 60.4289 595.554 60.1295 595.554 59.6986 595.383 59.4041 595.024 59.2597 594.826 59.1784 594.517 59.1371 594.087 59.1371L592.889 59.1371 592.889 62.5621ZM594.61 60.7156C594.488 60.7679 594.295 60.792 594.034 60.792L593.494 60.792 593.494 59.5451 594.009 59.5451C594.344 59.5451 594.586 59.5927 594.737 59.6788 594.891 59.7646 594.964 59.9304 594.964 60.1788 594.964 60.4437 594.85 60.6175 594.61 60.7156M596.366 58.657C595.751 58.0499 595.015 57.7492 594.144 57.7492 593.292 57.7492 592.55 58.0499 591.949 58.657 591.333 59.2659 591.035 60.0024 591.035 60.8672 591.035 61.7306 591.33 62.4702 591.938 63.0762 592.54 63.6911 593.284 63.9963 594.144 63.9963 595.015 63.9963 595.751 63.6911 596.366 63.0762 596.971 62.4672 597.281 61.7245 597.281 60.8672 597.281 59.9964 596.971 59.2659 596.366 58.657M596.049 58.9671C596.576 59.481 596.834 60.122 596.834 60.8672 596.834 61.6049 596.576 62.2508 596.049 62.7765 595.53 63.2998 594.894 63.5685 594.144 63.5685 593.402 63.5685 592.769 63.2998 592.242 62.7765 591.727 62.2508 591.462 61.6049 591.462 60.8672 591.462 60.122 591.727 59.481 592.242 58.9671 592.775 58.4321 593.406 58.1695 594.144 58.1695 594.891 58.1695 595.524 58.4321 596.049 58.9671" fill="#999999" transform="matrix(1 0 0 1.00476 341 45)"/><path d="M133.499 32.0044 133.499 63.9965 128.257 63.9965 115.695 42.3517 115.695 63.9965 110.498 63.9965 110.498 32.0044 115.695 32.0044 128.257 53.784 128.257 32.0044 133.499 32.0044Z" transform="matrix(1 0 0 1.00476 341 45)"/><path d="M157.587 43.391 157.587 41.9001C157.587 38.5559 155.056 36.5229 150.628 36.5229 146.154 36.5229 143.625 38.5559 143.625 41.9001L143.625 54.1008C143.625 57.4443 146.154 59.4782 150.583 59.4782 155.056 59.4782 157.587 57.4443 157.587 54.1008L157.587 52.0669 150.403 52.0669 150.403 46.9157 163.145 46.9157 163.145 54.4167C163.145 60.6074 158.582 64.6292 150.628 64.6292 142.675 64.6292 138.067 60.6074 138.067 54.4167L138.067 41.5842C138.067 35.3929 142.63 31.3717 150.583 31.3717 158.582 31.3717 163.145 35.3929 163.145 41.5842L163.145 43.391 157.587 43.391Z" transform="matrix(1 0 0 1.00476 341 45)"/><path d="M167.713 32.0044 173.271 32.0044 173.271 63.9965 167.713 63.9965 167.713 32.0044Z" transform="matrix(1 0 0 1.00476 341 45)"/><path d="M200.746 32.0044 200.746 63.9965 195.503 63.9965 182.942 42.3517 182.942 63.9965 177.746 63.9965 177.746 32.0044 182.942 32.0044 195.503 53.784 195.503 32.0044 200.746 32.0044Z" transform="matrix(1 0 0 1.00476 341 45)"/><path d="M219.728 48.1357 229.443 63.9965 222.981 63.9965 216.294 53.0156 209.471 63.9965 203.325 63.9965 213.04 47.729 203.415 32.0044 209.876 32.0044 216.565 42.8939 223.433 32.0044 229.668 32.0044 219.728 48.1357Z" transform="matrix(1 0 0 1.00476 341 45)"/><path d="M270.117 63.9965 265.055 63.9965 265.055 40.7701 257.735 63.9965 253.668 63.9965 246.347 40.7701 246.347 63.9965 241.287 63.9965 241.287 32.0044 248.2 32.0044 255.701 53.6035 263.202 32.0044 270.117 32.0044 270.117 63.9965Z" transform="matrix(1 0 0 1.00476 341 45)"/><path d="M293.889 41.0412 293.889 63.9965 290.274 63.9965 289.369 62.1888C287.698 63.861 285.303 64.6292 282.5 64.6292 276.988 64.6292 273.554 61.7823 273.554 54.9589L273.554 50.0788C273.554 43.2555 276.988 40.4093 282.5 40.4093 285.303 40.4093 287.698 41.1768 289.369 42.8488L290.274 41.0412 293.889 41.0412ZM288.51 55.5916 288.51 49.446C288.15 46.7354 286.388 45.4248 283.677 45.4248 280.649 45.4248 278.933 46.9608 278.933 50.3499L278.933 54.6878C278.933 58.0771 280.649 59.6136 283.677 59.6136 286.342 59.6136 288.15 58.3033 288.51 55.5916Z" transform="matrix(1 0 0 1.00476 341 45)"/><path d="M317.614 50.6666 317.614 63.9965 312.237 63.9965 312.237 50.6209C312.237 47.0962 310.384 45.4248 307.673 45.4248 305.188 45.4248 303.019 46.9157 302.883 49.9433L302.883 63.9965 297.552 63.9965 297.552 41.0412 301.03 41.0412 302.025 43.0294C303.743 41.2674 306.227 40.4093 308.938 40.4093 314.226 40.4093 317.614 43.4367 317.614 50.6666Z" transform="matrix(1 0 0 1.00476 341 45)"/><path d="M340.979 41.0412 340.979 63.9965 337.364 63.9965 336.46 62.1888C334.788 63.861 332.394 64.6292 329.592 64.6292 324.08 64.6292 320.645 61.7823 320.645 54.9589L320.645 50.0788C320.645 43.2555 324.08 40.4093 329.592 40.4093 332.394 40.4093 334.788 41.1768 336.46 42.8488L337.364 41.0412 340.979 41.0412ZM335.602 55.5916 335.602 49.446C335.24 46.7354 333.478 45.4248 330.765 45.4248 327.739 45.4248 326.021 46.9608 326.021 50.3499L326.021 54.6878C326.021 58.0771 327.739 59.6136 330.765 59.6136 333.432 59.6136 335.24 58.3033 335.602 55.5916Z" transform="matrix(1 0 0 1.00476 341 45)"/><path d="M364.344 41.0412 364.344 66.1651C364.344 71.1358 361.09 75.0222 354.267 75.0222 347.625 75.0222 344.642 71.4069 344.416 67.2952L349.794 67.2952C350.02 69.0571 351.691 70.0515 354.222 70.0515 356.933 70.0515 358.967 68.7411 358.967 65.9846L358.967 62.9121C357.385 64.0872 355.307 64.6292 352.956 64.6292 347.444 64.6292 344.01 61.7823 344.01 54.9589L344.01 50.0788C344.01 43.2555 347.444 40.4093 352.956 40.4093 355.759 40.4093 358.154 41.1768 359.825 42.8488L360.729 41.0412 364.344 41.0412ZM358.967 55.5916 358.967 49.446C358.605 46.7354 356.843 45.4248 354.132 45.4248 351.104 45.4248 349.386 46.9608 349.386 50.3499L349.386 54.7335C349.386 58.0771 351.104 59.6136 354.132 59.6136 356.797 59.6136 358.605 58.3033 358.967 55.5916Z" transform="matrix(1 0 0 1.00476 341 45)"/><path d="M386.985 49.0852 386.985 54.1456 372.525 54.1456 372.525 54.8234C372.525 58.4836 374.242 60.1558 377.314 60.1558 379.619 60.1558 381.562 58.9809 381.562 57.0376L381.562 56.676 386.941 56.676C386.941 61.6467 383.099 64.6292 377.314 64.6292 370.763 64.6292 367.147 60.6531 367.147 54.6429L367.147 50.2601C367.147 44.2499 370.763 40.4093 377.178 40.4093 383.053 40.4093 386.985 44.0688 386.985 49.0852ZM381.518 50.0339 381.518 49.1301C381.518 46.283 380.117 44.8827 377.27 44.8827 374.062 44.8827 372.57 46.6897 372.525 50.0339L381.518 50.0339Z" transform="matrix(1 0 0 1.00476 341 45)"/><path d="M421.826 50.6666 421.826 63.9965 416.451 63.9965 416.451 50.3955C416.451 47.0513 414.869 45.4248 412.655 45.4248 410.621 45.4248 408.904 46.7354 408.632 49.6722L408.632 50.4404 408.632 63.9965 403.255 63.9965 403.255 50.3955C403.255 47.0513 401.674 45.4248 399.459 45.4248 397.335 45.4248 395.529 46.9608 395.394 49.9433L395.394 63.9965 390.061 63.9965 390.061 41.0412 393.541 41.0412 394.444 42.8939C396.025 41.2225 398.195 40.4093 400.363 40.4093 403.39 40.4093 405.696 41.4029 407.051 43.6172 408.632 41.4479 411.073 40.4093 413.557 40.4093 418.8 40.4093 421.826 43.4817 421.826 50.6666Z" transform="matrix(1 0 0 1.00476 341 45)"/><path d="M444.425 49.0852 444.425 54.1456 429.965 54.1456 429.965 54.8234C429.965 58.4836 431.683 60.1558 434.754 60.1558 437.059 60.1558 439.003 58.9809 439.003 57.0376L439.003 56.676 444.381 56.676C444.381 61.6467 440.539 64.6292 434.754 64.6292 428.204 64.6292 424.588 60.6531 424.588 54.6429L424.588 50.2601C424.588 44.2499 428.204 40.4093 434.619 40.4093 440.493 40.4093 444.425 44.0688 444.425 49.0852ZM438.957 50.0339 438.957 49.1301C438.957 46.283 437.557 44.8827 434.71 44.8827 431.502 44.8827 430.01 46.6897 429.965 50.0339L438.957 50.0339Z" transform="matrix(1 0 0 1.00476 341 45)"/><path d="M467.338 50.6666 467.338 63.9965 461.961 63.9965 461.961 50.6209C461.961 47.0962 460.108 45.4248 457.397 45.4248 454.911 45.4248 452.743 46.9157 452.607 49.9433L452.607 63.9965 447.275 63.9965 447.275 41.0412 450.754 41.0412 451.749 43.0294C453.466 41.2674 455.95 40.4093 458.661 40.4093 463.95 40.4093 467.338 43.4367 467.338 50.6666Z" transform="matrix(1 0 0 1.00476 341 45)"/><path d="M483.563 59.0258 483.563 63.9965 480.31 63.9965C474.887 63.9965 472.131 61.1952 472.131 55.3656L472.131 46.0119 469.059 46.0119 469.059 41.0412 472.131 41.0412 472.131 34.4897 477.509 34.4897 477.509 41.0412 483.247 41.0412 483.247 46.0119 477.509 46.0119 477.509 54.3262C477.509 57.5798 478.819 59.0258 481.439 59.0258L483.563 59.0258Z" transform="matrix(1 0 0 1.00476 341 45)"/><path d="M493.507 54.4616 493.507 53.2875 499.065 53.2875 499.065 54.7784C499.065 57.6704 502.047 59.523 506.024 59.523 509.367 59.523 512.305 58.0322 512.305 55.0495 512.305 48 494.23 52.022 494.23 40.5898 494.23 35.574 497.618 31.3717 505.618 31.3717 513.481 31.3717 517.275 35.3029 517.275 40.8607L517.275 42.3067 511.718 42.3067 511.718 40.7252C511.718 38.2398 509.231 36.5229 505.526 36.5229 502.138 36.5229 499.788 38.0138 499.788 40.4541 499.788 46.3287 517.863 43.1656 517.908 54.7784 517.908 60.3363 513.752 64.6292 505.889 64.6292 498.071 64.6292 493.507 60.4269 493.507 54.4616Z" transform="matrix(1 0 0 1.00476 341 45)"/><path d="M539.872 41.0412 539.872 63.9965 536.347 63.9965 535.443 62.1439C533.817 63.8161 531.557 64.6292 529.027 64.6292 523.831 64.6292 520.531 61.6018 520.531 54.4167L520.531 41.0412 525.91 41.0412 525.91 54.4167C525.91 57.9414 527.4 59.6136 530.112 59.6136 532.461 59.6136 534.404 58.122 534.495 55.0945L534.495 41.0412 539.872 41.0412Z" transform="matrix(1 0 0 1.00476 341 45)"/><path d="M543.488 32.3653 549.002 32.3653 549.002 38.1043 543.488 38.1043 543.488 32.3653ZM543.58 41.0412 548.958 41.0412 548.958 63.9965 543.58 63.9965 543.58 41.0412Z" transform="matrix(1 0 0 1.00476 341 45)"/><path d="M566.582 59.0258 566.582 63.9965 563.329 63.9965C557.905 63.9965 555.15 61.1952 555.15 55.3656L555.15 46.0119 552.076 46.0119 552.076 41.0412 555.15 41.0412 555.15 34.4897 560.526 34.4897 560.526 41.0412 566.265 41.0412 566.265 46.0119 560.526 46.0119 560.526 54.3262C560.526 57.5798 561.838 59.0258 564.458 59.0258L566.582 59.0258Z" transform="matrix(1 0 0 1.00476 341 45)"/><path d="M588.229 49.0852 588.229 54.1456 573.769 54.1456 573.769 54.8234C573.769 58.4836 575.485 60.1558 578.558 60.1558 580.863 60.1558 582.806 58.9809 582.806 57.0376L582.806 56.676 588.183 56.676C588.183 61.6467 584.343 64.6294 578.558 64.6294 572.007 64.6294 568.39 60.6531 568.39 54.6429L568.39 50.2601C568.39 44.2499 572.007 40.4093 578.421 40.4093 584.297 40.4093 588.229 44.0686 588.229 49.0852ZM582.761 50.0339 582.761 49.1301C582.761 46.283 581.361 44.8827 578.513 44.8827 575.306 44.8827 573.814 46.6897 573.769 50.0339L582.761 50.0339Z" transform="matrix(1 0 0 1.00476 341 45)"/><path d="M360.199 83.7958 360.199 86.1705C359.86 86.0792 359.498 86.0125 359.136 86.0125 357.758 86.0125 356.536 86.8025 356.536 88.5437L356.536 95.4616 353.87 95.4616 353.87 83.9771 355.678 83.9771 356.197 85.0166C357.103 84.18 358.369 83.7509 359.634 83.7509 359.837 83.7509 360.02 83.7743 360.199 83.7958Z" fill="#999999" transform="matrix(1 0 0 1.00476 341 45)"/><path d="M120.06 92.0259 114.228 92.0259 113.12 95.4616 110.384 95.4616 115.177 79.4555 119.133 79.4555 123.903 95.4616 121.145 95.4616 120.06 92.0259ZM115.019 89.4483 119.269 89.4483 117.144 82.3724 115.019 89.4483Z" fill="#999999" transform="matrix(1 0 0 1.00476 341 45)"/><path d="M137.171 83.9322 137.171 85.537C137.171 88.2726 135.227 90.0137 132.085 90.0137L128.355 90.0137 128.355 95.4616 125.574 95.4616 125.574 79.4555 132.062 79.4555C135.204 79.4555 137.171 81.1967 137.171 83.9322ZM134.391 83.864C134.391 82.6883 133.645 82.0331 132.265 82.0331L128.355 82.0331 128.355 87.4362 132.243 87.4362C133.621 87.4362 134.391 86.7809 134.391 85.6052L134.391 83.864Z" fill="#999999" transform="matrix(1 0 0 1.00476 341 45)"/><path d="M139.413 79.4555 142.193 79.4555 142.193 95.4616 139.413 95.4616 139.413 79.4555Z" fill="#999999" transform="matrix(1 0 0 1.00476 341 45)"/><path d="M148.745 90.6689 148.745 84.2482C148.745 81.1516 151.028 79.1395 155.007 79.1395 159.008 79.1395 161.29 81.1516 161.29 84.2482L161.29 85.4921 158.375 85.4921 158.375 84.4062C158.375 82.7332 157.29 81.7171 155.029 81.7171 152.701 81.7171 151.525 82.7332 151.525 84.4062L151.525 90.5109C151.525 92.1838 152.678 93.2 155.007 93.2 157.29 93.2 158.375 92.1838 158.375 90.5109L158.375 89.4034 161.29 89.4034 161.29 90.6689C161.29 93.7654 159.008 95.7775 155.029 95.7775 151.05 95.7775 148.745 93.7654 148.745 90.6689Z" fill="#999999" transform="matrix(1 0 0 1.00476 341 45)"/><path d="M163.053 90.8951 163.053 88.5437C163.053 85.537 164.861 83.6612 168.117 83.6612 171.394 83.6612 173.203 85.537 173.203 88.5437L173.203 90.8951C173.203 93.9017 171.394 95.7775 168.14 95.7775 164.885 95.7775 163.053 93.9017 163.053 90.8951ZM170.512 90.8037 170.512 88.6334C170.512 87.0069 169.789 86.1474 168.14 86.1474 166.49 86.1474 165.744 87.0069 165.744 88.6334L165.744 90.8037C165.744 92.4318 166.49 93.2915 168.117 93.2915 169.767 93.2915 170.512 92.4318 170.512 90.8037Z" fill="#999999" transform="matrix(1 0 0 1.00476 341 45)"/><path d="M184.934 88.793 184.934 95.4616 182.244 95.4616 182.244 88.7699C182.244 87.0069 181.316 86.1705 179.96 86.1705 178.718 86.1705 177.631 86.9156 177.565 88.4306L177.565 95.4616 174.897 95.4616 174.897 83.9771 176.637 83.9771 177.135 84.9715C177.995 84.0902 179.237 83.6612 180.593 83.6612 183.239 83.6612 184.934 85.176 184.934 88.793Z" fill="#999999" transform="matrix(1 0 0 1.00476 341 45)"/><path d="M197.028 88.793 197.028 95.4616 194.337 95.4616 194.337 88.7699C194.337 87.0069 193.409 86.1705 192.053 86.1705 190.81 86.1705 189.726 86.9156 189.658 88.4306L189.658 95.4616 186.99 95.4616 186.99 83.9771 188.73 83.9771 189.228 84.9715C190.086 84.0902 191.33 83.6612 192.686 83.6612 195.332 83.6612 197.028 85.176 197.028 88.793Z" fill="#999999" transform="matrix(1 0 0 1.00476 341 45)"/><path d="M208.623 88.0015 208.623 90.5326 201.39 90.5326 201.39 90.8719C201.39 92.7029 202.248 93.5393 203.785 93.5393 204.938 93.5393 205.91 92.9522 205.91 91.9794L205.91 91.7997 208.6 91.7997C208.6 94.2859 206.678 95.7775 203.785 95.7775 200.508 95.7775 198.698 93.7886 198.698 90.782L198.698 88.5885C198.698 85.5819 200.508 83.6612 203.718 83.6612 206.656 83.6612 208.623 85.4921 208.623 88.0015ZM205.888 88.4754 205.888 88.0232C205.888 86.5996 205.187 85.8994 203.763 85.8994 202.157 85.8994 201.412 86.8025 201.39 88.4754L205.888 88.4754Z" fill="#999999" transform="matrix(1 0 0 1.00476 341 45)"/><path d="M210.317 90.8951 210.317 88.5437C210.317 85.537 212.125 83.6612 215.313 83.6612 218.295 83.6612 220.196 85.4921 220.196 88.3408L220.196 88.6119 217.483 88.6119 217.483 88.2726C217.483 86.894 216.67 86.1474 215.313 86.1474 213.752 86.1474 213.007 87.0069 213.007 88.6334L213.007 90.8037C213.007 92.4318 213.752 93.2915 215.313 93.2915 216.646 93.2915 217.483 92.5231 217.483 91.1661L217.483 90.8268 220.196 90.8268 220.196 91.0979C220.196 93.9466 218.295 95.7775 215.313 95.7775 212.147 95.7775 210.317 93.9017 210.317 90.8951Z" fill="#999999" transform="matrix(1 0 0 1.00476 341 45)"/><path d="M228.807 92.9739 228.807 95.4616 227.18 95.4616C224.467 95.4616 223.087 94.0597 223.087 91.143L223.087 86.4633 221.55 86.4633 221.55 83.9771 223.087 83.9771 223.087 80.6994 225.778 80.6994 225.778 83.9771 228.649 83.9771 228.649 86.4633 225.778 86.4633 225.778 90.624C225.778 92.2505 226.433 92.9739 227.744 92.9739L228.807 92.9739Z" fill="#999999" transform="matrix(1 0 0 1.00476 341 45)"/><path d="M230.931 79.6368 233.69 79.6368 233.69 82.5086 230.931 82.5086 230.931 79.6368ZM230.976 83.9771 233.666 83.9771 233.666 95.4616 230.976 95.4616 230.976 83.9771Z" fill="#999999" transform="matrix(1 0 0 1.00476 341 45)"/><path d="M245.827 83.9771 242.369 95.4616 238.819 95.4616 235.361 83.9771 238.142 83.9771 240.674 92.6578 243.047 83.9771 245.827 83.9771Z" fill="#999999" transform="matrix(1 0 0 1.00476 341 45)"/><path d="M247.272 79.6368 250.031 79.6368 250.031 82.5086 247.272 82.5086 247.272 79.6368ZM247.318 83.9771 250.008 83.9771 250.008 95.4616 247.318 95.4616 247.318 83.9771Z" fill="#999999" transform="matrix(1 0 0 1.00476 341 45)"/><path d="M259.185 92.9739 259.185 95.4616 257.557 95.4616C254.845 95.4616 253.466 94.0597 253.466 91.143L253.466 86.4633 251.929 86.4633 251.929 83.9771 253.466 83.9771 253.466 80.6994 256.157 80.6994 256.157 83.9771 259.028 83.9771 259.028 86.4633 256.157 86.4633 256.157 90.624C256.157 92.2505 256.812 92.9739 258.122 92.9739L259.185 92.9739Z" fill="#999999" transform="matrix(1 0 0 1.00476 341 45)"/><path d="M270.578 83.9771 270.578 96.5459C270.578 99.0337 268.973 100.978 265.65 100.978 262.441 100.978 260.971 99.1684 260.88 97.1114L263.57 97.1114C263.661 97.9927 264.452 98.49 265.606 98.49 266.916 98.49 267.888 97.8347 267.888 96.4561L267.888 94.9411C267.143 95.5065 266.192 95.7775 265.154 95.7775 262.554 95.7775 260.88 94.2627 260.88 90.6689L260.88 83.9771 263.57 83.9771 263.57 90.6689C263.57 92.4318 264.318 93.2682 265.696 93.2682 266.849 93.2682 267.822 92.5231 267.888 91.0081L267.888 83.9771 270.578 83.9771Z" fill="#999999" transform="matrix(1 0 0 1.00476 341 45)"/><path d="M292.075 95.4616 289.541 95.4616 289.541 83.8423 285.88 95.4616 283.845 95.4616 280.184 83.8423 280.184 95.4616 277.651 95.4616 277.651 79.4555 281.111 79.4555 284.862 90.2615 288.615 79.4555 292.075 79.4555 292.075 95.4616Z" fill="#999999" transform="matrix(1 0 0 1.00476 341 45)"/><path d="M304.188 83.9771 304.188 95.4616 302.38 95.4616 301.928 94.557C301.092 95.3935 299.893 95.7775 298.492 95.7775 295.734 95.7775 294.016 94.3541 294.016 90.9399L294.016 88.4988C294.016 85.0846 295.734 83.6612 298.492 83.6612 299.893 83.6612 301.092 84.0453 301.928 84.8817L302.38 83.9771 304.188 83.9771ZM301.498 91.2561 301.498 88.1828C301.317 86.8258 300.436 86.1705 299.079 86.1705 297.566 86.1705 296.706 86.9389 296.706 88.6334L296.706 90.8037C296.706 92.4998 297.566 93.2682 299.079 93.2682 300.413 93.2682 301.317 92.6129 301.498 91.2561Z" fill="#999999" transform="matrix(1 0 0 1.00476 341 45)"/><path d="M316.348 88.793 316.348 95.4616 313.66 95.4616 313.66 88.7699C313.66 87.0069 312.733 86.1705 311.377 86.1705 310.132 86.1705 309.049 86.9156 308.98 88.4306L308.98 95.4616 306.312 95.4616 306.312 83.9771 308.052 83.9771 308.551 84.9715C309.409 84.0902 310.654 83.6612 312.01 83.6612 314.654 83.6612 316.348 85.176 316.348 88.793Z" fill="#999999" transform="matrix(1 0 0 1.00476 341 45)"/><path d="M328.329 83.9771 328.329 95.4616 326.519 95.4616 326.067 94.557C325.231 95.3935 324.034 95.7775 322.631 95.7775 319.874 95.7775 318.155 94.3541 318.155 90.9399L318.155 88.4988C318.155 85.0846 319.874 83.6612 322.631 83.6612 324.034 83.6612 325.231 84.0453 326.067 84.8817L326.519 83.9771 328.329 83.9771ZM325.639 91.2561 325.639 88.1828C325.458 86.8258 324.576 86.1705 323.218 86.1705 321.705 86.1705 320.845 86.9389 320.845 88.6334L320.845 90.8037C320.845 92.4998 321.705 93.2682 323.218 93.2682 324.552 93.2682 325.458 92.6129 325.639 91.2561Z" fill="#999999" transform="matrix(1 0 0 1.00476 341 45)"/><path d="M340.332 83.9771 340.332 96.5459C340.332 99.0337 338.704 100.978 335.291 100.978 331.966 100.978 330.475 99.1684 330.361 97.1114L333.053 97.1114C333.165 97.9927 334.001 98.49 335.267 98.49 336.625 98.49 337.642 97.8347 337.642 96.4561L337.642 94.9194C336.85 95.5065 335.81 95.7775 334.634 95.7775 331.876 95.7775 330.158 94.3541 330.158 90.9399L330.158 88.4988C330.158 85.0846 331.876 83.6612 334.634 83.6612 336.035 83.6612 337.234 84.0453 338.071 84.8817L338.524 83.9771 340.332 83.9771ZM337.642 91.2561 337.642 88.1828C337.461 86.8258 336.579 86.1705 335.223 86.1705 333.708 86.1705 332.85 86.9389 332.85 88.6334L332.85 90.8268C332.85 92.4998 333.708 93.2682 335.223 93.2682 336.557 93.2682 337.461 92.6129 337.642 91.2561Z" fill="#999999" transform="matrix(1 0 0 1.00476 341 45)"/><path d="M352.04 88.0015 352.04 90.5326 344.806 90.5326 344.806 90.8719C344.806 92.7029 345.666 93.5393 347.203 93.5393 348.355 93.5393 349.327 92.9522 349.327 91.9794L349.327 91.7997 352.017 91.7997C352.017 94.2859 350.096 95.7775 347.203 95.7775 343.925 95.7775 342.115 93.7886 342.115 90.782L342.115 88.5885C342.115 85.5819 343.925 83.6612 347.135 83.6612 350.073 83.6612 352.04 85.4921 352.04 88.0015ZM349.305 88.4754 349.305 88.0232C349.305 86.5996 348.604 85.8994 347.179 85.8994 345.574 85.8994 344.829 86.8025 344.806 88.4754L349.305 88.4754Z" fill="#999999" transform="matrix(1 0 0 1.00476 341 45)"/><path d="M2.18621 71.1923C2.62302 71.9499 3.23881 72.5409 3.94918 72.9417L40.0148 93.7642 40.016 93.7631C40.7195 94.1772 41.538 94.4148 42.4128 94.4148 43.2874 94.4148 44.107 94.1772 44.8096 93.7631L80.8764 72.9406C81.5867 72.5398 82.2003 71.9499 82.6382 71.1923 83.0762 70.4346 83.2798 69.6072 83.2721 68.7909L83.2721 27.1462 83.2709 27.1451C83.2776 26.3299 83.0739 25.5014 82.6371 24.7437 82.1992 23.9861 81.5834 23.3962 80.874 22.9943L44.8073 2.17191 44.8073 2.17079C44.1048 1.7565 43.2863 1.51896 42.4117 1.51896 41.538 1.51896 40.7195 1.7565 40.0171 2.17079L40.0171 2.17191 3.95143 22.9943C3.24106 23.3962 2.62527 23.9861 2.18733 24.7437 1.75052 25.5014 1.54676 26.3299 1.55351 27.1451L1.55239 27.1462 1.55239 68.7909C1.54451 69.6072 1.74827 70.4346 2.18508 71.1923" fill="#FFFFFF" transform="matrix(1 0 0 1.00476 341 45)"/><path d="M28.675 55.8984C28.8242 56.1571 29.0344 56.359 29.2771 56.4958L41.5935 63.6067 41.5938 63.6064C41.8341 63.7478 42.1136 63.829 42.4123 63.829 42.7112 63.829 42.991 63.7478 43.231 63.6064L55.5477 56.4955C55.7902 56.3586 55.9998 56.1571 56.1493 55.8984 56.2989 55.6397 56.3686 55.357 56.3659 55.0783L56.3659 40.8566 56.3654 40.8563C56.3678 40.5779 56.2981 40.2949 56.149 40.0362 55.9995 39.7775 55.7891 39.576 55.5469 39.4387L43.2302 32.3279 43.2302 32.3274C42.9902 32.1859 42.7107 32.1048 42.412 32.1048 42.1136 32.1048 41.8341 32.1859 41.5943 32.3274L41.5943 32.3279 29.2779 39.4387C29.0352 39.576 28.825 39.7775 28.6754 40.0362 28.5262 40.2949 28.4567 40.5779 28.4589 40.8563L28.4586 40.8566 28.4586 55.0783C28.4559 55.357 28.5254 55.6397 28.6747 55.8984" fill="#009639" transform="matrix(1 0 0 1.00476 341 45)"/><path d="M72.7484 33.3224C72.7484 36.06 70.5291 38.2793 67.7915 38.2793 65.0538 38.2793 62.8346 36.06 62.8346 33.3224 62.8346 30.5848 65.0538 28.3655 67.7915 28.3655 70.5291 28.3655 72.7484 30.5848 72.7484 33.3224Z" fill="#009639" transform="matrix(1 0 0 1.00476 341 45)"/><path d="M42.4122 47.9669 42.4122 70.9287" stroke="#009639" stroke-width="1.58621" stroke-miterlimit="10" fill="none" transform="matrix(1 0 0 1.00476 341 45)"/><path d="M42.4122 47.9669 42.4122 25.0051" stroke="#009639" stroke-width="1.58621" stroke-miterlimit="10" fill="none" transform="matrix(1 0 0 1.00476 341 45)"/><path d="M48.3604 19.85C48.3604 23.1351 45.6973 25.7982 42.4122 25.7982 39.127 25.7982 36.4639 23.1351 36.4639 19.85 36.4639 16.5648 39.127 13.9017 42.4122 13.9017 45.6973 13.9017 48.3604 16.5648 48.3604 19.85Z" fill="#009639" transform="matrix(1 0 0 1.00476 341 45)"/><path d="M48.3604 76.0838C48.3604 79.369 45.6973 82.0321 42.4122 82.0321 39.127 82.0321 36.4639 79.369 36.4639 76.0838 36.4639 72.7987 39.127 70.1356 42.4122 70.1356 45.6973 70.1356 48.3604 72.7987 48.3604 76.0838Z" fill="#009639" transform="matrix(1 0 0 1.00476 341 45)"/><path d="M21.9897 33.3224C21.9897 36.06 19.7705 38.2793 17.0328 38.2793 14.2952 38.2793 12.076 36.06 12.076 33.3224 12.076 30.5848 14.2952 28.3655 17.0328 28.3655 19.7705 28.3655 21.9897 30.5848 21.9897 33.3224Z" fill="#009639" transform="matrix(1 0 0 1.00476 341 45)"/><path d="M72.7484 62.6114C72.7484 65.349 70.5291 67.5683 67.7915 67.5683 65.0538 67.5683 62.8346 65.349 62.8346 62.6114 62.8346 59.8738 65.0538 57.6545 67.7915 57.6545 70.5291 57.6545 72.7484 59.8738 72.7484 62.6114Z" fill="#009639" transform="matrix(1 0 0 1.00476 341 45)"/><path d="M21.9897 62.6114C21.9897 65.349 19.7705 67.5683 17.0328 67.5683 14.2952 67.5683 12.076 65.349 12.076 62.6114 12.076 59.8738 14.2952 57.6545 17.0328 57.6545 19.7705 57.6545 21.9897 59.8738 21.9897 62.6114Z" fill="#009639" transform="matrix(1 0 0 1.00476 341 45)"/><path d="M42.4122 47.9669 64.1832 60.5363" stroke="#009639" stroke-width="1.58621" stroke-miterlimit="10" fill="none" transform="matrix(1 0 0 1.00476 341 45)"/><path d="M42.4122 47.9669 20.6412 60.5363" stroke="#009639" stroke-width="1.58621" stroke-miterlimit="10" fill="none" transform="matrix(1 0 0 1.00476 341 45)"/><path d="M42.4122 47.9669 64.1832 35.3975" stroke="#009639" stroke-width="1.58618" stroke-miterlimit="10" fill="none" transform="matrix(1 0 0 1.00476 341 45)"/><path d="M42.4122 47.9669 20.6412 35.3975" stroke="#009639" stroke-width="1.58621" stroke-miterlimit="10" fill="none" transform="matrix(1 0 0 1.00476 341 45)"/><path d="M84.1048 26.7201C84.1116 25.8885 83.9037 25.0429 83.458 24.2699 83.0111 23.4968 82.3827 22.8948 81.659 22.4846L44.8562 1.23735 44.8562 1.23622C44.1394 0.813469 43.3042 0.571034 42.4117 0.571034 41.5202 0.571034 40.6851 0.813469 39.9681 1.23622L39.9681 1.23735 3.16654 22.4846C2.44166 22.8948 1.81327 23.4968 1.36642 24.2699 0.920685 25.0429 0.712803 25.8885 0.719714 26.7201L0.718509 26.7212 0.718509 69.216C0.710473 70.0488 0.918434 70.8931 1.36417 71.6663L1.36529 71.6663C1.81104 72.4394 2.43941 73.0424 3.16423 73.4515L39.9659 94.6988 39.967 94.6977C40.6851 95.1204 41.5202 95.3628 42.4128 95.3628 43.3054 95.3628 44.1416 95.1204 44.8586 94.6977L81.6614 73.4503C82.3862 73.0413 83.0124 72.4394 83.4592 71.6663 83.9061 70.8931 84.1139 70.0488 84.1059 69.216L84.1059 26.7212 84.1048 26.7201ZM82.5211 68.4082C82.5288 69.2095 82.3287 70.0217 81.8989 70.7654 81.469 71.5092 80.8667 72.0882 80.1694 72.4817L44.7656 92.9214C44.0759 93.3281 43.2714 93.5611 42.4128 93.5611 41.5542 93.5611 40.7508 93.3281 40.0601 92.9214L40.0589 92.9224 4.6561 72.4828C3.95878 72.0893 3.35426 71.5092 2.92549 70.7654L2.92444 70.7654C2.49566 70.0217 2.29565 69.2095 2.30336 68.4082L2.30336 27.5288 2.30449 27.5277C2.29783 26.7277 2.49783 25.9143 2.92662 25.1706 3.35651 24.4268 3.96103 23.8478 4.65828 23.4533L40.0611 3.01354 40.0611 3.01249C40.7508 2.6058 41.5542 2.37262 42.4117 2.37262 43.2703 2.37262 44.0737 2.6058 44.7632 3.01249L44.7632 3.01354 80.1672 23.4533C80.8634 23.8478 81.4679 24.4268 81.8978 25.1706 82.3265 25.9143 82.5267 26.7277 82.52 27.5277L82.5211 27.5288 82.5211 68.4082Z" fill="#009639" transform="matrix(1 0 0 1.00476 341 45)"/></g></svg>