<svg width="1280" height="720" xmlns="http://www.w3.org/2000/svg" xmlns:xlink="http://www.w3.org/1999/xlink" overflow="hidden"><defs><clipPath id="clip0"><rect x="0" y="0" width="1280" height="720"/></clipPath><clipPath id="clip1"><rect x="20" y="247" width="87" height="86"/></clipPath><clipPath id="clip2"><rect x="20" y="247" width="87" height="86"/></clipPath><clipPath id="clip3"><rect x="20" y="247" width="87" height="86"/></clipPath><clipPath id="clip4"><rect x="20" y="455" width="87" height="87"/></clipPath><clipPath id="clip5"><rect x="20" y="455" width="87" height="87"/></clipPath><clipPath id="clip6"><rect x="20" y="455" width="87" height="87"/></clipPath><clipPath id="clip7"><rect x="404" y="200" width="51" height="51"/></clipPath><clipPath id="clip8"><rect x="404" y="200" width="51" height="51"/></clipPath><clipPath id="clip9"><rect x="404" y="200" width="51" height="51"/></clipPath><clipPath id="clip10"><rect x="491" y="171" width="42" height="42"/></clipPath><clipPath id="clip11"><rect x="491" y="171" width="42" height="42"/></clipPath><clipPath id="clip12"><rect x="491" y="171" width="42" height="42"/></clipPath><clipPath id="clip13"><rect x="491" y="204" width="42" height="42"/></clipPath><clipPath id="clip14"><rect x="491" y="204" width="42" height="42"/></clipPath><clipPath id="clip15"><rect x="491" y="204" width="42" height="42"/></clipPath><clipPath id="clip16"><rect x="491" y="238" width="42" height="41"/></clipPath><clipPath id="clip17"><rect x="491" y="238" width="42" height="41"/></clipPath><clipPath id="clip18"><rect x="491" y="238" width="42" height="41"/></clipPath><clipPath id="clip19"><rect x="230" y="371" width="51" height="51"/></clipPath><clipPath id="clip20"><rect x="230" y="371" width="51" height="51"/></clipPath><clipPath id="clip21"><rect x="230" y="371" width="51" height="51"/></clipPath><clipPath id="clip22"><rect x="637" y="371" width="51" height="51"/></clipPath><clipPath id="clip23"><rect x="637" y="371" width="51" height="51"/></clipPath><clipPath id="clip24"><rect x="637" y="371" width="51" height="51"/></clipPath><clipPath id="clip25"><rect x="810" y="346" width="100" height="100"/></clipPath><clipPath id="clip26"><rect x="810" y="346" width="100" height="100"/></clipPath><clipPath id="clip27"><rect x="810" y="346" width="100" height="100"/></clipPath><clipPath id="clip28"><rect x="404" y="533" width="51" height="51"/></clipPath><clipPath id="clip29"><rect x="404" y="533" width="51" height="51"/></clipPath><clipPath id="clip30"><rect x="404" y="533" width="51" height="51"/></clipPath><clipPath id="clip31"><rect x="491" y="504" width="42" height="41"/></clipPath><clipPath id="clip32"><rect x="491" y="504" width="42" height="41"/></clipPath><clipPath id="clip33"><rect x="491" y="504" width="42" height="41"/></clipPath><clipPath id="clip34"><rect x="491" y="537" width="42" height="42"/></clipPath><clipPath id="clip35"><rect x="491" y="537" width="42" height="42"/></clipPath><clipPath id="clip36"><rect x="491" y="537" width="42" height="42"/></clipPath><clipPath id="clip37"><rect x="491" y="571" width="42" height="41"/></clipPath><clipPath id="clip38"><rect x="491" y="571" width="42" height="41"/></clipPath><clipPath id="clip39"><rect x="491" y="571" width="42" height="41"/></clipPath><clipPath id="clip40"><rect x="14" y="51" width="98" height="99"/></clipPath><clipPath id="clip41"><rect x="14" y="51" width="98" height="99"/></clipPath><clipPath id="clip42"><rect x="14" y="51" width="98" height="99"/></clipPath><clipPath id="clip43"><rect x="947" y="357" width="29" height="29"/></clipPath><clipPath id="clip44"><rect x="947" y="357" width="29" height="29"/></clipPath><clipPath id="clip45"><rect x="947" y="357" width="29" height="29"/></clipPath><clipPath id="clip46"><rect x="947" y="102" width="29" height="29"/></clipPath><clipPath id="clip47"><rect x="947" y="102" width="29" height="29"/></clipPath><clipPath id="clip48"><rect x="947" y="102" width="29" height="29"/></clipPath></defs><g clip-path="url(#clip0)"><rect x="0" y="0" width="1280" height="720" fill="#FFFFFF"/><rect x="961" y="0" width="319" height="720" fill="#16759E"/><path d="M1255.61 698.394C1255.77 698.557 1255.86 698.759 1255.86 698.997 1255.86 699.235 1255.77 699.443 1255.61 699.612 1255.44 699.78 1255.23 699.867 1255 699.867 1254.76 699.867 1254.56 699.78 1254.39 699.612 1254.22 699.443 1254.14 699.235 1254.14 698.997 1254.14 698.759 1254.22 698.557 1254.39 698.394 1254.56 698.22 1254.76 698.133 1255 698.133 1255.23 698.133 1255.44 698.22 1255.61 698.394ZM1255.71 698.29C1255.51 698.099 1255.28 698 1255 698 1254.72 698 1254.49 698.099 1254.3 698.29 1254.1 698.487 1254 698.725 1254 698.997 1254 699.275 1254.1 699.513 1254.29 699.71 1254.48 699.907 1254.72 700 1255 700 1255.28 700 1255.51 699.907 1255.71 699.71 1255.9 699.513 1256 699.275 1256 698.997 1256 698.719 1255.9 698.487 1255.71 698.29ZM1255.15 698.951C1255.11 698.968 1255.04 698.974 1254.96 698.974 1254.79 698.974 1254.79 698.974 1254.79 698.974 1254.79 698.58 1254.79 698.58 1254.79 698.58 1254.95 698.58 1254.95 698.58 1254.95 698.58 1255.06 698.58 1255.14 698.591 1255.19 698.62 1255.23 698.649 1255.26 698.701 1255.26 698.777 1255.26 698.864 1255.22 698.922 1255.15 698.951ZM1254.6 699.542C1254.79 699.542 1254.79 699.542 1254.79 699.542 1254.79 699.113 1254.79 699.113 1254.79 699.113 1254.94 699.113 1254.94 699.113 1254.94 699.113 1255.04 699.113 1255.11 699.119 1255.16 699.148 1255.22 699.188 1255.26 699.27 1255.26 699.397 1255.26 699.484 1255.26 699.484 1255.26 699.484 1255.26 699.519 1255.26 699.519 1255.26 699.519 1255.26 699.525 1255.26 699.53 1255.26 699.536 1255.27 699.536 1255.27 699.542 1255.27 699.542 1255.45 699.542 1255.45 699.542 1255.45 699.542 1255.44 699.53 1255.44 699.53 1255.44 699.53 1255.44 699.525 1255.44 699.501 1255.43 699.472 1255.43 699.443 1255.43 699.414 1255.43 699.391 1255.43 699.31 1255.43 699.31 1255.43 699.31 1255.43 699.258 1255.41 699.2 1255.37 699.142 1255.33 699.084 1255.27 699.049 1255.18 699.032 1255.25 699.02 1255.3 699.003 1255.34 698.98 1255.41 698.933 1255.45 698.858 1255.45 698.765 1255.45 698.626 1255.39 698.533 1255.28 698.487 1255.22 698.458 1255.11 698.446 1254.98 698.446 1254.6 698.446 1254.6 698.446 1254.6 698.446L1254.6 699.542Z" fill="#FFFFFF" fill-rule="evenodd"/><path d="M1254.81 680.659C1254.66 681.318 1254.59 682 1254.43 682.699 1252.56 682.443 1250.36 682.261 1247.88 682.17 1247.69 682.824 1247.49 683.46 1247.28 684.159 1251.42 684.426 1253.43 685.557 1254.62 686.898 1255.79 688.25 1256.03 689.739 1255.96 691.131 1255.81 693.381 1254.86 694.807 1253.55 695.864 1252.23 696.903 1250.62 697.42 1249.33 697.534 1247.44 697.676 1244.9 697.21 1244.36 696.864 1244.04 696.097 1243.72 695.324 1243.37 694.483 1243.29 694.301 1243.24 694.119 1243.48 693.903 1243.84 693.534 1244.2 693.182 1244.57 692.801 1244.74 692.636 1244.92 692.477 1245.06 692.722 1245.57 693.534 1246.05 694.284 1246.53 695.034 1247.07 695.869 1247.9 696.625 1249.7 696.5 1251.23 696.358 1252.38 695.165 1252.5 693.852 1252.63 691.415 1250.27 689.688 1244.11 689.136 1245.29 685.426 1246.44 681.835 1247.36 678.983 1248.83 679.051 1250.18 679.176 1251.47 679.352 1252.43 679.477 1253.32 679.71 1254.21 679.818 1251.92 676.875 1248.42 675 1244.5 675 1237.59 675 1232 680.818 1232 688 1232 690.886 1232.9 693.545 1234.43 695.705 1234.96 695.71 1235.33 695.585 1235.37 695.347 1235.41 695.102 1235.38 694.716 1235.33 694.33 1235.08 691.778 1234.99 689.023 1235.09 686.261 1234.45 686.29 1233.88 686.318 1233.34 686.352 1233.36 685.841 1233.39 685.358 1233.43 684.858 1233.97 684.801 1234.54 684.756 1235.16 684.699 1235.19 684.261 1235.22 683.835 1235.26 683.403 1235.54 680.773 1238.21 679.159 1240.42 678.54 1241.41 678.29 1242.01 678.21 1242.49 678.188 1242.66 678.182 1242.84 678.17 1243.02 678.17 1243.48 678.17 1243.95 678.216 1244.25 678.426 1244.73 678.801 1245.2 679.17 1245.7 679.585 1245.76 679.653 1245.81 679.767 1245.69 679.96 1245.46 680.239 1245.23 680.506 1245 680.795 1244.86 680.966 1244.64 680.92 1244.45 680.869 1244.05 680.659 1243.67 680.466 1243.28 680.267 1242.58 679.943 1241.86 679.614 1241.05 679.648 1240.55 679.688 1240.06 680.222 1240.01 680.955 1239.94 682.068 1239.89 683.216 1239.86 684.455 1241.25 684.409 1242.65 684.386 1244.12 684.381 1244.12 684.727 1244.12 685.045 1244.12 685.403 1243.64 685.625 1243.18 685.852 1242.7 686.08 1241.71 686.091 1240.77 686.102 1239.82 686.119 1239.77 689.062 1239.81 692 1239.94 694.71 1239.97 695.119 1239.99 695.534 1240.1 695.812 1240.23 696.165 1241.01 696.432 1242.71 696.528 1242.72 696.841 1242.73 697.131 1242.74 697.426 1239.97 697.341 1237.32 697.068 1235.19 696.67 1237.47 699.33 1240.8 701 1244.5 701 1251.41 701 1257 695.182 1257 688 1257 685.278 1256.19 682.75 1254.81 680.659Z" fill="#FFFFFF" fill-rule="evenodd"/><text fill="#71C6EB" font-family="Calibri,Calibri_MSFontService,sans-serif" font-weight="700" font-size="107" transform="translate(973.326 110)">“<tspan fill="#FFFFFF" font-size="19" x="34.0893" y="-44">Components</tspan><tspan fill="#FFFFFF" font-family="Arial,Arial_MSFontService,sans-serif" font-weight="400" font-size="12" x="9.14612" y="512">Key:</tspan></text><path d="M982.392 623.024 988.142 623.024 993.892 623.024 999.642 623.024 1005.39 623.024 1005.39 624.024 999.642 624.024 993.892 624.024 988.142 624.024 982.392 624.024Z" fill="#FFFFFF" fill-rule="evenodd"/><path d="M1031.5 658.833 1035.5 658.833 1035.5 660.167 1031.5 660.167ZM1036.83 658.833 1040.83 658.833 1040.83 660.167 1036.83 660.167ZM1042.17 658.833 1046.17 658.833 1046.17 660.167 1042.17 660.167ZM1047.5 658.833 1051.5 658.833 1051.5 660.167 1047.5 660.167ZM1050.88 655.5 1058.88 659.5 1050.88 663.5Z" fill="#FFFFFF"/><path d="M1031 630 1051.71 630 1051.71 632 1031 632ZM1050.38 627 1058.38 631 1050.38 635Z" fill="#FFFFFF"/><text fill="#FFFFFF" font-family="Arial,Arial_MSFontService,sans-serif" font-weight="400" font-size="12" transform="translate(1069.72 663)">Egress<tspan font-size="12" x="40.6666" y="0">flow</tspan><tspan font-size="12" x="0" y="-28">Ingress</tspan><tspan font-size="12" x="42.6666" y="-28">flow</tspan><tspan font-family="Calibri,Calibri_MSFontService,sans-serif" font-size="22" x="-91.5209" y="-541">›</tspan><tspan font-family="Calibri,Calibri_MSFontService,sans-serif" font-weight="700" font-size="15" x="-73.5209" y="-541">Edge Proxy</tspan><tspan font-family="Wingdings 3,Wingdings 3_MSFontService,sans-serif" font-size="16" x="-71.7209" y="-518"></tspan><tspan font-family="Calibri,Calibri_MSFontService,sans-serif" font-size="15" x="-53.7209" y="-518">L7 Content Routing to Micro</tspan><tspan font-family="Calibri,Calibri_MSFontService,sans-serif" font-size="15" x="114.446" y="-518">-</tspan><tspan font-family="Calibri,Calibri_MSFontService,sans-serif" font-size="15" x="118.946" y="-518">Proxy</tspan><tspan font-family="Wingdings 3,Wingdings 3_MSFontService,sans-serif" font-size="16" x="-71.7209" y="-495"></tspan><tspan font-family="Calibri,Calibri_MSFontService,sans-serif" font-size="15" x="-53.7209" y="-495">WAF</tspan><tspan font-family="Wingdings,Wingdings_MSFontService,sans-serif" font-size="15" x="-52.8542" y="-474"></tspan><tspan font-family="Calibri,Calibri_MSFontService,sans-serif" font-size="13" x="-34.8542" y="-474">OWASP top10</tspan><tspan font-family="Wingdings,Wingdings_MSFontService,sans-serif" font-size="15" x="-52.8542" y="-452"></tspan><tspan font-family="Calibri,Calibri_MSFontService,sans-serif" font-size="13" x="-34.8542" y="-452">Virtual Patching</tspan><tspan font-family="Wingdings,Wingdings_MSFontService,sans-serif" font-size="15" x="-52.8542" y="-431"></tspan><tspan font-family="Calibri,Calibri_MSFontService,sans-serif" font-size="13" x="-34.8542" y="-431">OpenAPI</tspan><tspan font-family="Calibri,Calibri_MSFontService,sans-serif" font-size="13" x="15.4791" y="-431">spec file (swagger) import</tspan><tspan font-family="Wingdings 3,Wingdings 3_MSFontService,sans-serif" font-size="16" x="-71.7209" y="-408"></tspan><tspan font-family="Calibri,Calibri_MSFontService,sans-serif" font-size="15" x="-53.7209" y="-408">E</tspan><tspan font-family="Calibri,Calibri_MSFontService,sans-serif" font-size="15" x="-46.5542" y="-408">nterprise</tspan><tspan font-family="Calibri,Calibri_MSFontService,sans-serif" font-size="15" x="10.9458" y="-408">level security features</tspan><tspan font-family="Wingdings,Wingdings_MSFontService,sans-serif" font-size="15" x="-52.8542" y="-387"></tspan><tspan font-family="Calibri,Calibri_MSFontService,sans-serif" font-size="13" x="-34.8542" y="-387">Threat Campaign</tspan><tspan font-family="Wingdings,Wingdings_MSFontService,sans-serif" font-size="15" x="-52.8542" y="-365"></tspan><tspan font-family="Calibri,Calibri_MSFontService,sans-serif" font-size="13" x="-34.8542" y="-365">Bot Protection</tspan><tspan font-family="Wingdings,Wingdings_MSFontService,sans-serif" font-size="15" x="-52.8542" y="-344"></tspan><tspan font-family="Calibri,Calibri_MSFontService,sans-serif" font-size="13" x="-34.8542" y="-344">DeviceID</tspan><tspan font-family="Wingdings,Wingdings_MSFontService,sans-serif" font-size="15" x="-52.8542" y="-323"></tspan><tspan font-family="Calibri,Calibri_MSFontService,sans-serif" font-size="13" x="-34.8542" y="-323">IP blacklist</tspan><tspan font-family="Calibri,Calibri_MSFontService,sans-serif" font-size="22" x="-91.5209" y="-284">›</tspan><tspan font-family="Calibri,Calibri_MSFontService,sans-serif" font-weight="700" font-size="15" x="-73.5209" y="-284">Micro Proxy</tspan><tspan font-family="Wingdings 3,Wingdings 3_MSFontService,sans-serif" font-size="16" x="-71.7209" y="-261"></tspan><tspan font-family="Calibri,Calibri_MSFontService,sans-serif" font-size="15" x="-53.7209" y="-261">API GW</tspan><tspan font-family="Wingdings,Wingdings_MSFontService,sans-serif" font-size="15" x="-52.8542" y="-240"></tspan><tspan font-family="Calibri,Calibri_MSFontService,sans-serif" font-size="13" x="-34.8542" y="-240">L7 Content Routing to Micro</tspan><tspan font-family="Calibri,Calibri_MSFontService,sans-serif" font-size="13" x="118.646" y="-240">-</tspan><tspan font-family="Calibri,Calibri_MSFontService,sans-serif" font-size="13" x="122.646" y="-240">Services</tspan><tspan font-family="Wingdings,Wingdings_MSFontService,sans-serif" font-size="15" x="-52.8542" y="-218"></tspan><tspan font-family="Calibri,Calibri_MSFontService,sans-serif" font-size="13" x="-34.8542" y="-218">Authentication, Authorization</tspan><tspan font-family="Wingdings,Wingdings_MSFontService,sans-serif" font-size="15" x="-52.8542" y="-197"></tspan><tspan font-family="Calibri,Calibri_MSFontService,sans-serif" font-size="13" x="-34.8542" y="-197">Rate limiting</tspan></text><path d="M165.5 133.142C165.5 116.771 178.771 103.5 195.142 103.5L722.858 103.5C739.229 103.5 752.5 116.771 752.5 133.142L752.5 620.858C752.5 637.229 739.229 650.5 722.858 650.5L195.142 650.5C178.771 650.5 165.5 637.229 165.5 620.858Z" stroke="#C6C6C6" stroke-width="1.33333" stroke-miterlimit="8" stroke-dasharray="1.33333 1.33333" fill="#555555" fill-rule="evenodd"/><text fill="#FFFFFF" font-family="Arial,Arial_MSFontService,sans-serif" font-weight="700" font-size="21" transform="translate(183.034 145)">Environment</text><g clip-path="url(#clip1)"><g clip-path="url(#clip2)"><g clip-path="url(#clip3)"><path d="M60.7418 55.5646 52.8126 65.3686" stroke="#000000" stroke-width="1.72" stroke-linecap="round" stroke-linejoin="round" fill="none" transform="matrix(1.01163 0 0 1 20 247)"/><path d="M52.675 55.5646 60.6128 65.3686" stroke="#000000" stroke-width="1.72" stroke-linecap="round" stroke-linejoin="round" fill="none" transform="matrix(1.01163 0 0 1 20 247)"/><path d="M65.5148 60.4666C65.5148 65.3255 61.572 69.2644 56.7084 69.2644 51.8448 69.2644 47.902 65.3255 47.902 60.4666 47.902 55.6077 51.8448 51.6688 56.7084 51.6688 61.572 51.6688 65.5148 55.6077 65.5148 60.4666Z" stroke="#000000" stroke-width="1.72" stroke-linecap="round" stroke-linejoin="round" fill="none" transform="matrix(1.01163 0 0 1 20 247)"/><path d="M29.627 34.9332 24.1832 34.9332C16.109 34.8761 9.51728 41.3753 9.46026 49.4495 9.46017 49.464 9.46009 49.4785 9.46 49.493L9.46 64.5" stroke="#000000" stroke-width="1.72" stroke-linecap="round" stroke-linejoin="round" fill="none" transform="matrix(1.01163 0 0 1 20 247)"/><path d="M76.54 75.25 76.54 63.1498C76.6789 55.1288 70.2893 48.514 62.2683 48.3751 62.2668 48.3751 62.2655 48.375 62.264 48.375L50.9378 48.375C42.8636 48.3179 36.2719 54.8171 36.2149 62.8913 36.2148 62.9058 36.2147 62.9203 36.2146 62.9348 36.2103 63.0064 36.2103 63.0782 36.2146 63.1498L36.2146 75.25" stroke="#000000" stroke-width="1.72" stroke-linecap="round" stroke-linejoin="round" fill="none" transform="matrix(1.01163 0 0 1 20 247)"/><path d="M41.6584 22.8416C41.6584 29.5196 36.241 34.9332 29.5582 34.9332 22.8754 34.9332 17.458 29.5196 17.458 22.8416 17.458 16.1636 22.8754 10.75 29.5582 10.75 36.241 10.75 41.6584 16.1636 41.6584 22.8416Z" stroke="#000000" stroke-width="1.72" stroke-linecap="round" stroke-linejoin="round" fill="none" transform="matrix(1.01163 0 0 1 20 247)"/><path d="M68.542 36.2834C68.542 42.9614 63.1246 48.375 56.4418 48.375 49.759 48.375 44.3416 42.9614 44.3416 36.2834 44.3416 29.6054 49.759 24.1918 56.4418 24.1918 63.1246 24.1918 68.542 29.6054 68.542 36.2834Z" stroke="#000000" stroke-width="1.72" stroke-linecap="round" stroke-linejoin="round" fill="none" transform="matrix(1.01163 0 0 1 20 247)"/><path d="M35.4062 40.0416 35.4062 40.0416 28.38 50.3874 24.7508 45.2876" stroke="#000000" stroke-width="1.72" stroke-linecap="round" stroke-linejoin="round" fill="none" transform="matrix(1.01163 0 0 1 20 247)"/><path d="M38.6656 46.827C38.6656 51.6859 34.7228 55.6248 29.8592 55.6248 24.9956 55.6248 21.0528 51.6859 21.0528 46.827 21.0528 41.9681 24.9956 38.0292 29.8592 38.0292 34.7228 38.0292 38.6656 41.9681 38.6656 46.827Z" stroke="#000000" stroke-width="1.72" stroke-linecap="round" stroke-linejoin="round" fill="none" transform="matrix(1.01163 0 0 1 20 247)"/></g></g></g><g clip-path="url(#clip4)"><g clip-path="url(#clip5)"><g clip-path="url(#clip6)"><path d="M74.288 487.26C71.9803 483.304 67.685 480.938 63.1085 481.1 58.6657 481.104 54.5521 483.443 52.277 487.26" stroke="#000000" stroke-width="1.74" stroke-linecap="round" stroke-linejoin="round" fill="none"/><path d="M72.2 486.233 68.72 495.124 68.72 495.124C67.9211 497.089 66.0126 498.375 63.8915 498.378L62.3951 498.378C60.274 498.375 58.3655 497.089 57.5666 495.124L57.5666 495.124 54.0083 486.233" stroke="#000000" stroke-width="1.74" stroke-linecap="round" stroke-linejoin="round" fill="none"/><path d="M53.93 502.702 49.58 498.5C49.4709 498.394 49.3849 498.267 49.3277 498.126L45.1517 488.338 45.1517 488.286C44.5674 486.654 44.7495 484.845 45.6476 483.362L54.5129 468.92C56.3378 465.847 59.6393 463.956 63.2129 463.935" stroke="#000000" stroke-width="1.74" stroke-linecap="round" stroke-linejoin="round" fill="none"/><path d="M40.5494 531.647C40.4276 531.647 38.2439 530.777 38.1134 530.777L33.7634 529.159C30.3585 527.838 28.5352 524.127 29.57 520.624L35.4425 500.571C35.9756 498.763 37.1555 497.214 38.7572 496.221L46.1 491.627" stroke="#000000" stroke-width="1.74" stroke-linecap="round" stroke-linejoin="round" fill="none"/><path d="M84.38 529.568C84.38 529.568 85.9112 530.055 85.9112 531.247 85.9112 532.439 84.38 532.987 84.38 532.987L42.2111 532.987 42.0197 532.987C42.0197 532.987 40.4885 532.491 40.4885 531.247 40.4885 530.003 42.0197 529.576 42.0197 529.576L84.38 529.576 84.38 503.294 42.0197 503.294 42.0197 525.209" stroke="#000000" stroke-width="1.74" stroke-linecap="round" stroke-linejoin="round" fill="none"/><path d="M72.5393 502.702 76.8893 498.5C76.9956 498.392 77.0811 498.265 77.1416 498.126L81.2915 488.338 81.2915 488.286C81.8848 486.655 81.7022 484.842 80.7956 483.362L71.9651 468.92C70.1389 465.849 66.8383 463.957 63.2651 463.935" stroke="#000000" stroke-width="1.74" stroke-linecap="round" stroke-linejoin="round" fill="none"/><path d="M92.6798 529.133C96.0991 527.839 97.9508 524.136 96.9341 520.624L91.0703 500.571C90.5335 498.762 89.3507 497.214 87.7469 496.221L80.3432 491.627" stroke="#000000" stroke-width="1.74" stroke-linecap="round" stroke-linejoin="round" fill="none"/></g></g></g><path d="M377 162.284C377 155.5 382.5 150 389.284 150L531.716 150C538.5 150 544 155.5 544 162.284L544 273.716C544 280.5 538.5 286 531.716 286L389.284 286C382.5 286 377 280.5 377 273.716Z" fill="#292929" fill-rule="evenodd"/><text fill="#FFFFFF" font-family="Arial,Arial_MSFontService,sans-serif" font-weight="700" font-size="21" transform="translate(417.253 177)">SPOKE<tspan fill="#292929" font-size="21" x="74.5" y="0">_</tspan></text><path d="M405 207.167C405 202.656 408.656 199 413.167 199L445.833 199C450.344 199 454 202.656 454 207.167L454 242.833C454 247.344 450.344 251 445.833 251L413.167 251C408.656 251 405 247.344 405 242.833Z" fill="#1DB14B" fill-rule="evenodd"/><g clip-path="url(#clip7)"><g clip-path="url(#clip8)"><g clip-path="url(#clip9)"><path d="M433.335 214.367C428.023 212.251 422.002 214.843 419.887 220.155 417.771 225.467 420.363 231.488 425.675 233.604 430.987 235.719 437.008 233.127 439.124 227.815 440.781 223.653 439.573 218.896 436.13 216.029L436.13 216.029 427.97 228.392 423.543 222.557" stroke="#FFFFFF" stroke-width="1.02" stroke-linejoin="round" fill="none"/><path d="M439.358 209.532 437.283 209.624 437.283 209.624 432.325 205.819C430.805 204.566 428.619 204.534 427.062 205.743L421.717 209.624 419.642 209.532C415.73 209.338 412.67 208.231 412.67 213.597 412.67 218.962 413.394 227.662 413.394 227.662 413.394 227.662 412.961 234.19 420.534 239.698 427.016 244.441 429.5 246.155 429.5 246.155L429.5 246.155C429.5 246.155 432.009 244.441 438.512 239.698 446.065 234.19 445.652 227.662 445.652 227.662 445.652 227.662 446.33 218.962 446.33 213.597 446.33 208.231 443.27 209.338 439.358 209.517" stroke="#FFFFFF" stroke-width="1.02" stroke-linejoin="round" fill="none"/></g></g></g><text fill="#FFFFFF" font-family="Arial,Arial_MSFontService,sans-serif" font-weight="400" font-size="14" transform="translate(391.707 265)">Micro Proxy</text><g clip-path="url(#clip10)"><g clip-path="url(#clip11)"><g clip-path="url(#clip12)"><path d="M510.32 203.117 521.45 203.117C524.727 203.12 527.386 200.468 527.393 197.191L527.393 181.231C527.386 177.954 524.723 175.302 521.446 175.309 521.444 175.309 521.443 175.309 521.442 175.309L505.402 175.309C502.122 175.3 499.455 177.951 499.446 181.231L499.446 196.141" stroke="#FFFFFF" stroke-width="0.84" stroke-linejoin="round" fill="none"/><path d="M508.724 190.249C508.29 190.71 507.677 190.961 507.044 190.937 506.117 190.977 505.333 190.258 505.294 189.331 505.293 189.316 505.293 189.301 505.293 189.287 505.288 188.384 506.016 187.649 506.918 187.645 506.96 187.644 507.002 187.646 507.044 187.649 507.678 187.61 508.296 187.86 508.724 188.329L508.724 187.43C508.724 186.763 508.182 186.38 507.464 186.38 506.876 186.374 506.315 186.627 505.931 187.073L505.561 186.54C506.076 185.985 506.804 185.679 507.561 185.7 508.619 185.7 509.501 186.17 509.501 187.38L509.501 190.803 508.724 190.803ZM508.724 188.825C508.386 188.417 507.875 188.193 507.346 188.22 506.747 188.136 506.193 188.555 506.109 189.154 506.026 189.754 506.444 190.308 507.044 190.391 507.144 190.405 507.246 190.405 507.346 190.391 507.877 190.415 508.388 190.186 508.724 189.774Z" stroke="#FFFFFF" stroke-width="0.42"/><path d="M510.971 192.71 510.971 185.834 511.748 185.834 511.748 186.578C512.139 186.039 512.763 185.719 513.428 185.713 514.743 185.713 515.654 186.7 515.654 188.321 515.654 189.942 514.743 190.937 513.428 190.937 512.758 190.938 512.13 190.61 511.748 190.06L511.748 192.71ZM513.239 186.41C512.643 186.419 512.088 186.715 511.748 187.204L511.748 189.451C512.093 189.946 512.657 190.243 513.26 190.249 514.264 190.249 514.869 189.409 514.869 188.321 514.869 187.233 514.243 186.401 513.26 186.401Z" stroke="#FFFFFF" stroke-width="0.42"/><path d="M516.834 192.71 516.834 185.834 517.611 185.834 517.611 186.578C518.002 186.039 518.626 185.719 519.291 185.713 520.606 185.713 521.521 186.7 521.521 188.321 521.521 189.942 520.606 190.937 519.291 190.937 518.621 190.938 517.994 190.61 517.611 190.06L517.611 192.71ZM519.102 186.41C518.506 186.419 517.952 186.715 517.611 187.204L517.611 189.451C517.95 189.943 518.505 190.243 519.102 190.257 520.11 190.257 520.711 189.417 520.711 188.329 520.711 187.241 520.11 186.401 519.102 186.401Z" stroke="#FFFFFF" stroke-width="0.42"/><path d="M499.803 205.499 502.987 202.311" stroke="#FFFFFF" stroke-width="0.63" stroke-linejoin="round" fill="none"/><path d="M504.054 204.445 504.054 201.24 500.853 201.24" stroke="#FFFFFF" stroke-width="0.63" stroke-linejoin="round" fill="none"/><path d="M503.52 194.864C499.7 194.863 496.602 197.959 496.6 201.779 496.6 203.32 497.114 204.817 498.06 206.032 496.452 203.76 496.99 200.615 499.261 199.007 501.533 197.398 504.679 197.936 506.287 200.208 507.895 202.48 507.358 205.625 505.086 207.233 503.341 208.469 501.006 208.469 499.261 207.233 502.272 209.585 506.619 209.051 508.971 206.04 511.323 203.029 510.788 198.682 507.777 196.33 506.561 195.381 505.063 194.865 503.52 194.864Z" stroke="#FFFFFF" stroke-width="0.84" stroke-linejoin="round" fill="none"/></g></g></g><g clip-path="url(#clip13)"><g clip-path="url(#clip14)"><g clip-path="url(#clip15)"><path d="M510.32 236.117 521.45 236.117C524.727 236.12 527.386 233.468 527.393 230.191L527.393 214.231C527.386 210.954 524.723 208.302 521.446 208.309 521.444 208.309 521.443 208.309 521.442 208.309L505.402 208.309C502.122 208.3 499.455 210.951 499.446 214.231L499.446 229.141" stroke="#FFFFFF" stroke-width="0.84" stroke-linejoin="round" fill="none"/><path d="M508.724 223.249C508.29 223.71 507.677 223.961 507.044 223.937 506.117 223.977 505.333 223.258 505.294 222.331 505.293 222.316 505.293 222.301 505.293 222.287 505.288 221.384 506.016 220.649 506.918 220.645 506.96 220.644 507.002 220.646 507.044 220.649 507.678 220.61 508.296 220.86 508.724 221.329L508.724 220.43C508.724 219.763 508.182 219.38 507.464 219.38 506.876 219.374 506.315 219.627 505.931 220.073L505.561 219.54C506.076 218.985 506.804 218.679 507.561 218.7 508.619 218.7 509.501 219.17 509.501 220.38L509.501 223.803 508.724 223.803ZM508.724 221.825C508.386 221.417 507.875 221.193 507.346 221.22 506.747 221.136 506.193 221.555 506.109 222.154 506.026 222.754 506.444 223.308 507.044 223.391 507.144 223.405 507.246 223.405 507.346 223.391 507.877 223.415 508.388 223.186 508.724 222.774Z" stroke="#FFFFFF" stroke-width="0.42"/><path d="M510.971 225.71 510.971 218.834 511.748 218.834 511.748 219.578C512.139 219.039 512.763 218.719 513.428 218.713 514.743 218.713 515.654 219.7 515.654 221.321 515.654 222.942 514.743 223.937 513.428 223.937 512.758 223.938 512.13 223.61 511.748 223.06L511.748 225.71ZM513.239 219.41C512.643 219.419 512.088 219.715 511.748 220.204L511.748 222.451C512.093 222.946 512.657 223.243 513.26 223.249 514.264 223.249 514.869 222.409 514.869 221.321 514.869 220.233 514.243 219.401 513.26 219.401Z" stroke="#FFFFFF" stroke-width="0.42"/><path d="M516.834 225.71 516.834 218.834 517.611 218.834 517.611 219.578C518.002 219.039 518.626 218.719 519.291 218.713 520.606 218.713 521.521 219.7 521.521 221.321 521.521 222.942 520.606 223.937 519.291 223.937 518.621 223.938 517.994 223.61 517.611 223.06L517.611 225.71ZM519.102 219.41C518.506 219.419 517.952 219.715 517.611 220.204L517.611 222.451C517.95 222.943 518.505 223.243 519.102 223.257 520.11 223.257 520.711 222.417 520.711 221.329 520.711 220.241 520.11 219.401 519.102 219.401Z" stroke="#FFFFFF" stroke-width="0.42"/><path d="M499.803 238.499 502.987 235.311" stroke="#FFFFFF" stroke-width="0.63" stroke-linejoin="round" fill="none"/><path d="M504.054 237.445 504.054 234.24 500.853 234.24" stroke="#FFFFFF" stroke-width="0.63" stroke-linejoin="round" fill="none"/><path d="M503.52 227.864C499.7 227.863 496.602 230.959 496.6 234.779 496.6 236.32 497.114 237.817 498.06 239.032 496.452 236.76 496.99 233.615 499.261 232.007 501.533 230.398 504.679 230.936 506.287 233.208 507.895 235.48 507.358 238.625 505.086 240.233 503.341 241.469 501.006 241.469 499.261 240.233 502.272 242.585 506.619 242.051 508.971 239.04 511.323 236.029 510.788 231.682 507.777 229.33 506.561 228.381 505.063 227.865 503.52 227.864Z" stroke="#FFFFFF" stroke-width="0.84" stroke-linejoin="round" fill="none"/></g></g></g><g clip-path="url(#clip16)"><g clip-path="url(#clip17)"><g clip-path="url(#clip18)"><path d="M18.86 31.3527 29.725 31.3527C32.9236 31.355 35.5197 28.7662 35.5265 25.5676L35.5265 9.9876C35.5197 6.78804 32.9205 4.19979 29.7209 4.2066 29.7195 4.2066 29.7182 4.2066 29.7168 4.2066L14.0589 4.2066C10.8571 4.19754 8.25416 6.78575 8.2451 9.98756L8.2451 24.5426" stroke="#FFFFFF" stroke-width="0.82" stroke-linejoin="round" fill="none" transform="matrix(1.02439 0 0 1 491 238)"/><path d="M17.302 18.7903C16.8782 19.2409 16.2802 19.4861 15.662 19.4627 14.7571 19.5013 13.9922 18.799 13.9536 17.8941 13.953 17.8799 13.9525 17.8656 13.9523 17.8514 13.9478 16.9706 14.6581 16.2529 15.539 16.2483 15.58 16.2481 15.621 16.2494 15.662 16.2524 16.281 16.2144 16.8839 16.4585 17.302 16.9166L17.302 16.0392C17.302 15.3873 16.7731 15.0142 16.072 15.0142 15.4977 15.0075 14.9499 15.2552 14.5755 15.6907L14.2147 15.17C14.717 14.6286 15.4281 14.3298 16.1663 14.35 17.1995 14.35 18.0605 14.8092 18.0605 15.99L18.0605 19.3315 17.302 19.3315ZM17.302 17.4004C16.9718 17.0027 16.4735 16.7839 15.9572 16.81 15.3718 16.7284 14.8312 17.1368 14.7496 17.7221 14.668 18.3074 15.0764 18.8481 15.6617 18.9297 15.7597 18.9434 15.8592 18.9434 15.9572 18.9297 16.4756 18.9529 16.9743 18.7293 17.302 18.327Z" stroke="#FFFFFF" stroke-width="0.41" transform="matrix(1.02439 0 0 1 491 238)"/><path d="M19.4955 21.1929 19.4955 14.4812 20.254 14.4812 20.254 15.2069C20.636 14.6814 21.2444 14.3681 21.894 14.3623 23.1773 14.3623 24.067 15.3258 24.067 16.9084 24.067 18.491 23.1773 19.4627 21.894 19.4627 21.24 19.4629 20.6273 19.1428 20.254 18.6058L20.254 21.1929ZM21.7095 15.0429C21.128 15.052 20.5863 15.3404 20.254 15.8178L20.254 18.0113C20.591 18.4945 21.141 18.7848 21.73 18.7903 22.7099 18.7903 23.3003 17.9703 23.3003 16.9084 23.3003 15.8465 22.6894 15.0347 21.73 15.0347Z" stroke="#FFFFFF" stroke-width="0.41" transform="matrix(1.02439 0 0 1 491 238)"/><path d="M25.2191 21.1929 25.2191 14.4812 25.9776 14.4812 25.9776 15.2069C26.3596 14.6814 26.968 14.3681 27.6176 14.3623 28.9009 14.3623 29.7947 15.3258 29.7947 16.9084 29.7947 18.491 28.9009 19.4627 27.6176 19.4627 26.9636 19.4629 26.3509 19.1428 25.9776 18.6058L25.9776 21.1929ZM27.4331 15.0429C26.8516 15.052 26.3099 15.3404 25.9776 15.8178L25.9776 18.0113C26.3086 18.4918 26.8498 18.7845 27.4331 18.7985 28.4171 18.7985 29.0034 17.9785 29.0034 16.9166 29.0034 15.8547 28.4171 15.0347 27.4331 15.0347Z" stroke="#FFFFFF" stroke-width="0.41" transform="matrix(1.02439 0 0 1 491 238)"/><path d="M8.5936 33.6774 11.7014 30.5655" stroke="#FFFFFF" stroke-width="0.615" stroke-linejoin="round" fill="none" transform="matrix(1.02439 0 0 1 491 238)"/><path d="M12.7428 32.6483 12.7428 29.52 9.6186 29.52" stroke="#FFFFFF" stroke-width="0.615" stroke-linejoin="round" fill="none" transform="matrix(1.02439 0 0 1 491 238)"/><path d="M12.2221 23.2962C8.4927 23.2948 5.46833 26.3171 5.46698 30.0465 5.46645 31.5504 5.968 33.0116 6.8921 34.1981 5.32201 31.9804 5.84701 28.9098 8.0647 27.3397 10.2824 25.7696 13.353 26.2946 14.9231 28.5123 16.4932 30.73 15.9682 33.8006 13.7505 35.3707 12.0471 36.5767 9.76813 36.5767 8.0647 35.3707 11.0039 37.6663 15.2475 37.1446 17.5431 34.2055 19.8388 31.2664 19.3171 27.0227 16.3779 24.7271 15.191 23.8 13.7282 23.2964 12.2221 23.2962Z" stroke="#FFFFFF" stroke-width="0.82" stroke-linejoin="round" fill="none" transform="matrix(1.02439 0 0 1 491 238)"/></g></g></g><path d="M180 335.283C180 328.499 185.499 323 192.283 323L317.717 323C324.5 323 330 328.499 330 335.283L330 446.717C330 453.5 324.5 459 317.717 459L192.283 459C185.499 459 180 453.5 180 446.717Z" fill="#292929" fill-rule="evenodd"/><text fill="#FFFFFF" font-family="Arial,Arial_MSFontService,sans-serif" font-weight="700" font-size="21" transform="translate(232.112 349)">HUB</text><path d="M231 378C231 373.582 234.582 370 239 370L271 370C275.418 370 279 373.582 279 378L279 415C279 419.418 275.418 423 271 423L239 423C234.582 423 231 419.418 231 415Z" fill="#1D9CD3" fill-rule="evenodd"/><g clip-path="url(#clip19)"><g clip-path="url(#clip20)"><g clip-path="url(#clip21)"><path d="M259.335 385.367C254.023 383.251 248.002 385.843 245.887 391.155 243.771 396.467 246.363 402.488 251.675 404.604 256.987 406.719 263.008 404.127 265.124 398.815 266.781 394.653 265.573 389.896 262.13 387.029L262.13 387.029 253.97 399.392 249.543 393.557" stroke="#FFFFFF" stroke-width="1.02" stroke-linejoin="round" fill="none"/><path d="M265.358 380.532 263.283 380.624 263.283 380.624 258.325 376.819C256.805 375.566 254.619 375.534 253.062 376.743L247.717 380.624 245.642 380.532C241.73 380.338 238.67 379.231 238.67 384.597 238.67 389.962 239.394 398.662 239.394 398.662 239.394 398.662 238.961 405.19 246.534 410.698 253.016 415.441 255.5 417.155 255.5 417.155L255.5 417.155C255.5 417.155 258.009 415.441 264.512 410.698 272.065 405.19 271.652 398.662 271.652 398.662 271.652 398.662 272.33 389.962 272.33 384.597 272.33 379.231 269.27 380.338 265.358 380.517" stroke="#FFFFFF" stroke-width="1.02" stroke-linejoin="round" fill="none"/></g></g></g><path d="M587 335.283C587 328.499 592.5 323 599.283 323L724.717 323C731.5 323 737 328.499 737 335.283L737 446.717C737 453.5 731.5 459 724.717 459L599.283 459C592.5 459 587 453.5 587 446.717Z" fill="#292929" fill-rule="evenodd"/><text fill="#FFFFFF" font-family="Arial,Arial_MSFontService,sans-serif" font-weight="700" font-size="21" transform="translate(639.223 349)">HUB</text><path d="M638 378C638 373.582 641.582 370 646 370L678 370C682.418 370 686 373.582 686 378L686 415C686 419.418 682.418 423 678 423L646 423C641.582 423 638 419.418 638 415Z" fill="#878787" fill-rule="evenodd"/><g clip-path="url(#clip22)"><g clip-path="url(#clip23)"><g clip-path="url(#clip24)"><path d="M666.335 385.367C661.023 383.251 655.002 385.843 652.887 391.155 650.771 396.467 653.363 402.488 658.675 404.604 663.987 406.719 670.008 404.127 672.124 398.815 673.781 394.653 672.573 389.896 669.13 387.029L669.13 387.029 660.97 399.392 656.543 393.557" stroke="#FFFFFF" stroke-width="1.02" stroke-linejoin="round" fill="none"/><path d="M672.358 380.532 670.283 380.624 670.283 380.624 665.325 376.819C663.805 375.566 661.619 375.534 660.062 376.743L654.717 380.624 652.642 380.532C648.73 380.338 645.67 379.231 645.67 384.597 645.67 389.962 646.394 398.662 646.394 398.662 646.394 398.662 645.961 405.19 653.534 410.698 660.016 415.441 662.5 417.155 662.5 417.155L662.5 417.155C662.5 417.155 665.009 415.441 671.512 410.698 679.065 405.19 678.652 398.662 678.652 398.662 678.652 398.662 679.33 389.962 679.33 384.597 679.33 379.231 676.27 380.338 672.358 380.517" stroke="#FFFFFF" stroke-width="1.02" stroke-linejoin="round" fill="none"/></g></g></g><path d="M800.5 281.057C800.5 277.436 803.436 274.5 807.057 274.5L914.943 274.5C918.564 274.5 921.5 277.436 921.5 281.057L921.5 462.943C921.5 466.564 918.564 469.5 914.943 469.5L807.057 469.5C803.436 469.5 800.5 466.564 800.5 462.943Z" stroke="#C6C6C6" stroke-width="1.33333" stroke-miterlimit="8" stroke-dasharray="1.33333 1.33333" fill="#AFAFAF" fill-rule="evenodd"/><text fill="#FFFFFF" font-family="Arial,Arial_MSFontService,sans-serif" font-weight="700" font-size="21" transform="translate(818.385 308)">External<tspan font-size="21" x="-1.7533" y="25">Services</tspan></text><g clip-path="url(#clip25)"><g clip-path="url(#clip26)"><g clip-path="url(#clip27)"><path d="M893.6 434 826.4 434C824 434 822 432 822 429.6L822 362.4C822 360 824 358 826.4 358L893.6 358C896 358 898 360 898 362.4L898 429.6C898 432 896 434 893.6 434Z" stroke="#FFFFFF" stroke-width="2" stroke-miterlimit="10" fill="none"/><path d="M878.5 394.2 878.5 397.9" stroke="#FFFFFF" stroke-width="1.5" stroke-linejoin="round" stroke-miterlimit="10" fill="none"/><path d="M873.5 394.2 873.5 397.9" stroke="#FFFFFF" stroke-width="1.5" stroke-linejoin="round" stroke-miterlimit="10" fill="none"/><path d="M868.4 394.2 868.4 397.9" stroke="#FFFFFF" stroke-width="1.5" stroke-linejoin="round" stroke-miterlimit="10" fill="none"/><path d="M841 394.9C841.5 394.9 841.8 395.3 841.8 395.7 841.8 396.1 841.4 396.5 841 396.5 840.5 396.5 840.2 396.1 840.2 395.7 840.2 395.3 840.6 394.9 841 394.9M841 393.4C839.7 393.4 838.7 394.5 838.7 395.7 838.7 396.9 839.8 398 841 398 842.3 398 843.3 396.9 843.3 395.7 843.3 394.5 842.3 393.4 841 393.4L841 393.4Z" stroke="#FFFFFF"/><path d="M881.9 391.5 838.1 391.5C837.2 391.5 836.4 392.3 836.4 393.2L836.4 398.7C836.4 399.6 837.2 400.4 838.1 400.4L881.9 400.4C882.8 400.4 883.6 399.6 883.6 398.7L883.6 393.2C883.6 392.3 882.8 391.5 881.9 391.5Z" stroke="#FFFFFF" stroke-width="1.5" stroke-miterlimit="10" fill="none"/><path d="M870.7 422.3 870.7 424.4C870.7 427.2 866.1 429.4 860.1 429.4 854.1 429.4 849.4 427.1 849.4 424.4L849.4 420 849.4 418.3C849.4 419.5 850.3 420.3 851.9 421.2 853.9 422.3 856.7 423 860.1 423 863.5 423 866.2 422.3 868.2 421.2 869.8 420.3 870.7 419.2 870.7 418L870.7 416.6 870.7 414.3C870.7 414.9 870.4 415.6 869.9 416.1 868.3 418 864.7 419.3 860 419.3 855.3 419.3 851.6 418 850 416.1 849.5 415.5 849.2 414.9 849.2 414.3L849.2 413.4 849.2 410.3 849.2 409.2C849.2 410.2 849.9 410.7 851 411.5 852.1 412.3 853.7 412.9 855.6 413.3 857 413.6 858.3 413.8 859.9 413.8 861.5 413.8 862.7 413.6 864.1 413.3 866 412.9 867.6 412.3 868.7 411.5 869.8 410.7 870.5 409.8 870.5 408.8 870.5 406 865.9 403.8 859.9 403.8 855.2 403.8 851.5 405.1 849.9 407" stroke="#FFFFFF" stroke-width="1.5" stroke-linejoin="round" stroke-miterlimit="10" fill="none"/><path d="M853 387.4 867 387.4C869.9 387.4 872.2 385.1 872.2 382.2L872.2 368.4C872.2 365.5 869.9 363.2 867 363.2L853 363.2C850.1 363.2 847.8 365.5 847.8 368.4L847.8 382.3C847.9 385.1 850.2 387.4 853 387.4Z" stroke="#FFFFFF" stroke-width="1.5" stroke-linejoin="round" stroke-miterlimit="10" fill="none"/><path d="M852.1 373.4C852.2 372.2 853 371.7 854.1 371.7 855 371.7 855.9 372 855.9 373.3L855.9 375.9C855.9 376.1 856 376.3 856.3 376.3 856.4 376.3 856.4 376.3 856.5 376.3L856.5 376.8C856.4 376.8 856.3 376.8 856.1 376.8 855.5 376.8 855.4 376.5 855.4 375.9L855.4 375.9C855 376.5 854.5 376.9 853.6 376.9 852.7 376.9 851.9 376.4 851.9 375.4 851.9 374 853.3 374 854.6 373.8 855.1 373.7 855.4 373.7 855.4 373.1 855.4 372.3 854.8 372.1 854.1 372.1 853.3 372.1 852.8 372.4 852.8 373.3L852.1 373.3ZM855.3 374.1 855.3 374.1C855.2 374.2 854.9 374.3 854.8 374.3 853.8 374.5 852.5 374.5 852.5 375.4 852.5 376 853 376.4 853.6 376.4 854.5 376.4 855.3 375.8 855.3 374.8L855.3 374.1Z" stroke="#FFFFFF" stroke-width="0.5" stroke-miterlimit="10"/><path d="M857.6 371.8 858.2 371.8 858.2 372.7 858.2 372.7C858.5 372 859.2 371.6 860 371.6 861.5 371.6 862.2 372.8 862.2 374.2 862.2 375.6 861.5 376.8 860 376.8 859.3 376.8 858.5 376.4 858.3 375.7L858.3 375.7 858.3 378.5 857.7 378.5 857.7 371.8ZM860 372.2C858.7 372.2 858.3 373.2 858.3 374.3 858.3 375.3 858.8 376.4 860 376.4 861.2 376.4 861.6 375.3 861.6 374.3 861.6 373.3 861.1 372.2 860 372.2Z" stroke="#FFFFFF" stroke-width="0.5" stroke-miterlimit="10"/><path d="M863.4 371.8 864 371.8 864 372.7 864 372.7C864.3 372 865 371.6 865.8 371.6 867.3 371.6 868 372.8 868 374.2 868 375.6 867.3 376.8 865.8 376.8 865.1 376.8 864.3 376.4 864.1 375.7L864.1 375.7 864.1 378.5 863.5 378.5 863.5 371.8ZM865.7 372.2C864.4 372.2 864 373.2 864 374.3 864 375.3 864.5 376.4 865.7 376.4 866.9 376.4 867.3 375.3 867.3 374.3 867.3 373.3 866.9 372.2 865.7 372.2Z" stroke="#FFFFFF" stroke-width="0.5" stroke-miterlimit="10"/></g></g></g><path d="M107.5 289.833 149.656 289.833 149.656 396.963 148.99 396.296 223.813 396.296 223.813 397.629 148.323 397.629 148.323 290.5 148.99 291.167 107.5 291.167ZM222.48 392.963 230.48 396.963 222.48 400.963Z" fill="#DCDCDC"/><path d="M0-0.666667 42.1564-0.666667 42.1564 101.697 41.4898 101.03 116.313 101.03 116.313 102.364 40.8231 102.364 40.8231 0 41.4898 0.666667 0 0.666667ZM114.98 97.697 122.98 101.697 114.98 105.697Z" fill="#DCDCDC" transform="matrix(1 0 0 -1 107.5 498.197)"/><path d="M0-0.666667 62.4346-0.666667 62.4346 171.286 61.768 170.619 116.869 170.619 116.869 171.952 61.1013 171.952 61.1013 0 61.768 0.666667 0 0.666667ZM115.536 167.286 123.536 171.286 115.536 175.286Z" fill="#DCDCDC" transform="matrix(1 0 0 -1 281.5 396.786)"/><path d="M0-0.666667 18.8321-0.666667 18.8321 33.3407 18.1654 32.674 29.6641 32.674 29.6641 34.0073 17.4987 34.0073 17.4987 0 18.1654 0.666667 0 0.666667ZM28.3308 29.3407 36.3308 33.3407 28.3308 37.3407Z" fill="#DCDCDC" transform="matrix(1 0 0 -1 455.5 225.841)"/><path d="M0-0.666667 18.8321-0.666667 18.8321 0.0616273 18.1655-0.605039 29.6641-0.605039 29.6641 0.728294 17.4988 0.728294 17.4988 0 18.1655 0.666667 0 0.666667ZM28.3308-3.93837 36.3308 0.0616273 28.3308 4.06163Z" fill="#DCDCDC" transform="matrix(1 0 0 -1 455.5 225.562)"/><path d="M455.5 224.833 474.332 224.833 474.332 258.717 473.665 258.051 485.164 258.051 485.164 259.384 472.999 259.384 472.999 225.5 473.665 226.167 455.5 226.167ZM483.831 254.717 491.831 258.717 483.831 262.717Z" fill="#DCDCDC"/><path d="M377 495.284C377 488.5 382.5 483 389.284 483L531.716 483C538.5 483 544 488.5 544 495.284L544 606.716C544 613.5 538.5 619 531.716 619L389.284 619C382.5 619 377 613.5 377 606.716Z" fill="#292929" fill-rule="evenodd"/><text fill="#FFFFFF" font-family="Arial,Arial_MSFontService,sans-serif" font-weight="700" font-size="21" transform="translate(417.253 510)">SPOKE<tspan fill="#292929" font-size="21" x="74.5" y="0">_</tspan></text><path d="M405 540.167C405 535.656 408.656 532 413.167 532L445.833 532C450.344 532 454 535.656 454 540.167L454 575.833C454 580.344 450.344 584 445.833 584L413.167 584C408.656 584 405 580.344 405 575.833Z" fill="#1DB14B" fill-rule="evenodd"/><g clip-path="url(#clip28)"><g clip-path="url(#clip29)"><g clip-path="url(#clip30)"><path d="M433.335 547.367C428.023 545.251 422.002 547.843 419.887 553.155 417.771 558.467 420.363 564.488 425.675 566.604 430.987 568.719 437.008 566.127 439.124 560.815 440.781 556.653 439.573 551.896 436.13 549.029L436.13 549.029 427.97 561.392 423.543 555.557" stroke="#FFFFFF" stroke-width="1.02" stroke-linejoin="round" fill="none"/><path d="M439.358 542.532 437.283 542.624 437.283 542.624 432.325 538.819C430.805 537.566 428.619 537.534 427.062 538.743L421.717 542.624 419.642 542.532C415.73 542.338 412.67 541.231 412.67 546.597 412.67 551.962 413.394 560.662 413.394 560.662 413.394 560.662 412.961 567.19 420.534 572.698 427.016 577.441 429.5 579.155 429.5 579.155L429.5 579.155C429.5 579.155 432.009 577.441 438.512 572.698 446.065 567.19 445.652 560.662 445.652 560.662 445.652 560.662 446.33 551.962 446.33 546.597 446.33 541.231 443.27 542.338 439.358 542.517" stroke="#FFFFFF" stroke-width="1.02" stroke-linejoin="round" fill="none"/></g></g></g><text fill="#FFFFFF" font-family="Arial,Arial_MSFontService,sans-serif" font-weight="400" font-size="14" transform="translate(391.707 598)">Micro Proxy</text><g clip-path="url(#clip31)"><g clip-path="url(#clip32)"><g clip-path="url(#clip33)"><path d="M18.86 31.3527 29.725 31.3527C32.9236 31.355 35.5197 28.7662 35.5265 25.5676L35.5265 9.9876C35.5197 6.78804 32.9205 4.19979 29.7209 4.2066 29.7195 4.2066 29.7182 4.2066 29.7168 4.2066L14.0589 4.2066C10.8571 4.19754 8.25416 6.78575 8.2451 9.98756L8.2451 24.5426" stroke="#FFFFFF" stroke-width="0.82" stroke-linejoin="round" fill="none" transform="matrix(1.02439 0 0 1 491 504)"/><path d="M17.302 18.7903C16.8782 19.2409 16.2802 19.4861 15.662 19.4627 14.7571 19.5013 13.9922 18.799 13.9536 17.8941 13.953 17.8799 13.9525 17.8656 13.9523 17.8514 13.9478 16.9706 14.6581 16.2529 15.539 16.2483 15.58 16.2481 15.621 16.2494 15.662 16.2524 16.281 16.2144 16.8839 16.4585 17.302 16.9166L17.302 16.0392C17.302 15.3873 16.7731 15.0142 16.072 15.0142 15.4977 15.0075 14.9499 15.2552 14.5755 15.6907L14.2147 15.17C14.717 14.6286 15.4281 14.3298 16.1663 14.35 17.1995 14.35 18.0605 14.8092 18.0605 15.99L18.0605 19.3315 17.302 19.3315ZM17.302 17.4004C16.9718 17.0027 16.4735 16.7839 15.9572 16.81 15.3718 16.7284 14.8312 17.1368 14.7496 17.7221 14.668 18.3074 15.0764 18.8481 15.6617 18.9297 15.7597 18.9434 15.8592 18.9434 15.9572 18.9297 16.4756 18.9529 16.9743 18.7293 17.302 18.327Z" stroke="#FFFFFF" stroke-width="0.41" transform="matrix(1.02439 0 0 1 491 504)"/><path d="M19.4955 21.1929 19.4955 14.4812 20.254 14.4812 20.254 15.2069C20.636 14.6814 21.2444 14.3681 21.894 14.3623 23.1773 14.3623 24.067 15.3258 24.067 16.9084 24.067 18.491 23.1773 19.4627 21.894 19.4627 21.24 19.4629 20.6273 19.1428 20.254 18.6058L20.254 21.1929ZM21.7095 15.0429C21.128 15.052 20.5863 15.3404 20.254 15.8178L20.254 18.0113C20.591 18.4945 21.141 18.7848 21.73 18.7903 22.7099 18.7903 23.3003 17.9703 23.3003 16.9084 23.3003 15.8465 22.6894 15.0347 21.73 15.0347Z" stroke="#FFFFFF" stroke-width="0.41" transform="matrix(1.02439 0 0 1 491 504)"/><path d="M25.2191 21.1929 25.2191 14.4812 25.9776 14.4812 25.9776 15.2069C26.3596 14.6814 26.968 14.3681 27.6176 14.3623 28.9009 14.3623 29.7947 15.3258 29.7947 16.9084 29.7947 18.491 28.9009 19.4627 27.6176 19.4627 26.9636 19.4629 26.3509 19.1428 25.9776 18.6058L25.9776 21.1929ZM27.4331 15.0429C26.8516 15.052 26.3099 15.3404 25.9776 15.8178L25.9776 18.0113C26.3086 18.4918 26.8498 18.7845 27.4331 18.7985 28.4171 18.7985 29.0034 17.9785 29.0034 16.9166 29.0034 15.8547 28.4171 15.0347 27.4331 15.0347Z" stroke="#FFFFFF" stroke-width="0.41" transform="matrix(1.02439 0 0 1 491 504)"/><path d="M8.5936 33.6774 11.7014 30.5655" stroke="#FFFFFF" stroke-width="0.615" stroke-linejoin="round" fill="none" transform="matrix(1.02439 0 0 1 491 504)"/><path d="M12.7428 32.6483 12.7428 29.52 9.6186 29.52" stroke="#FFFFFF" stroke-width="0.615" stroke-linejoin="round" fill="none" transform="matrix(1.02439 0 0 1 491 504)"/><path d="M12.2221 23.2962C8.4927 23.2948 5.46833 26.3171 5.46698 30.0465 5.46645 31.5504 5.968 33.0116 6.8921 34.1981 5.32201 31.9804 5.84701 28.9098 8.0647 27.3397 10.2824 25.7696 13.353 26.2946 14.9231 28.5123 16.4932 30.73 15.9682 33.8006 13.7505 35.3707 12.0471 36.5767 9.76813 36.5767 8.0647 35.3707 11.0039 37.6663 15.2475 37.1446 17.5431 34.2055 19.8388 31.2664 19.3171 27.0227 16.3779 24.7271 15.191 23.8 13.7282 23.2964 12.2221 23.2962Z" stroke="#FFFFFF" stroke-width="0.82" stroke-linejoin="round" fill="none" transform="matrix(1.02439 0 0 1 491 504)"/></g></g></g><g clip-path="url(#clip34)"><g clip-path="url(#clip35)"><g clip-path="url(#clip36)"><path d="M510.32 569.117 521.45 569.117C524.727 569.12 527.386 566.468 527.393 563.191L527.393 547.231C527.386 543.954 524.723 541.302 521.446 541.309 521.444 541.309 521.443 541.309 521.442 541.309L505.402 541.309C502.122 541.3 499.455 543.951 499.446 547.231L499.446 562.141" stroke="#FFFFFF" stroke-width="0.84" stroke-linejoin="round" fill="none"/><path d="M508.724 556.249C508.29 556.71 507.677 556.961 507.044 556.937 506.117 556.977 505.333 556.258 505.294 555.331 505.293 555.316 505.293 555.301 505.293 555.287 505.288 554.384 506.016 553.649 506.918 553.645 506.96 553.644 507.002 553.646 507.044 553.649 507.678 553.61 508.296 553.86 508.724 554.329L508.724 553.43C508.724 552.763 508.182 552.38 507.464 552.38 506.876 552.374 506.315 552.627 505.931 553.073L505.561 552.54C506.076 551.985 506.804 551.679 507.561 551.7 508.619 551.7 509.501 552.17 509.501 553.38L509.501 556.803 508.724 556.803ZM508.724 554.825C508.386 554.417 507.875 554.193 507.346 554.22 506.747 554.136 506.193 554.555 506.109 555.154 506.026 555.754 506.444 556.308 507.044 556.391 507.144 556.405 507.246 556.405 507.346 556.391 507.877 556.415 508.388 556.186 508.724 555.774Z" stroke="#FFFFFF" stroke-width="0.42"/><path d="M510.971 558.71 510.971 551.834 511.748 551.834 511.748 552.578C512.139 552.039 512.763 551.719 513.428 551.713 514.743 551.713 515.654 552.7 515.654 554.321 515.654 555.942 514.743 556.937 513.428 556.937 512.758 556.938 512.13 556.61 511.748 556.06L511.748 558.71ZM513.239 552.41C512.643 552.419 512.088 552.715 511.748 553.204L511.748 555.451C512.093 555.946 512.657 556.243 513.26 556.249 514.264 556.249 514.869 555.409 514.869 554.321 514.869 553.233 514.243 552.401 513.26 552.401Z" stroke="#FFFFFF" stroke-width="0.42"/><path d="M516.834 558.71 516.834 551.834 517.611 551.834 517.611 552.578C518.002 552.039 518.626 551.719 519.291 551.713 520.606 551.713 521.521 552.7 521.521 554.321 521.521 555.942 520.606 556.937 519.291 556.937 518.621 556.938 517.994 556.61 517.611 556.06L517.611 558.71ZM519.102 552.41C518.506 552.419 517.952 552.715 517.611 553.204L517.611 555.451C517.95 555.943 518.505 556.243 519.102 556.257 520.11 556.257 520.711 555.417 520.711 554.329 520.711 553.241 520.11 552.401 519.102 552.401Z" stroke="#FFFFFF" stroke-width="0.42"/><path d="M499.803 571.499 502.987 568.311" stroke="#FFFFFF" stroke-width="0.63" stroke-linejoin="round" fill="none"/><path d="M504.054 570.445 504.054 567.24 500.853 567.24" stroke="#FFFFFF" stroke-width="0.63" stroke-linejoin="round" fill="none"/><path d="M503.52 560.864C499.7 560.863 496.602 563.959 496.6 567.779 496.6 569.32 497.114 570.817 498.06 572.032 496.452 569.76 496.99 566.615 499.261 565.007 501.533 563.398 504.679 563.936 506.287 566.208 507.895 568.479 507.358 571.625 505.086 573.233 503.341 574.469 501.006 574.469 499.261 573.233 502.272 575.585 506.619 575.051 508.971 572.04 511.323 569.029 510.788 564.682 507.777 562.33 506.561 561.381 505.063 560.865 503.52 560.864Z" stroke="#FFFFFF" stroke-width="0.84" stroke-linejoin="round" fill="none"/></g></g></g><g clip-path="url(#clip37)"><g clip-path="url(#clip38)"><g clip-path="url(#clip39)"><path d="M18.86 31.3527 29.725 31.3527C32.9236 31.355 35.5197 28.7662 35.5265 25.5676L35.5265 9.9876C35.5197 6.78804 32.9205 4.19979 29.7209 4.2066 29.7195 4.2066 29.7182 4.2066 29.7168 4.2066L14.0589 4.2066C10.8571 4.19754 8.25416 6.78575 8.2451 9.98756L8.2451 24.5426" stroke="#FFFFFF" stroke-width="0.82" stroke-linejoin="round" fill="none" transform="matrix(1.02439 0 0 1 491 571)"/><path d="M17.302 18.7903C16.8782 19.2409 16.2802 19.4861 15.662 19.4627 14.7571 19.5013 13.9922 18.799 13.9536 17.8941 13.953 17.8799 13.9525 17.8656 13.9523 17.8514 13.9478 16.9706 14.6581 16.2529 15.539 16.2483 15.58 16.2481 15.621 16.2494 15.662 16.2524 16.281 16.2144 16.8839 16.4585 17.302 16.9166L17.302 16.0392C17.302 15.3873 16.7731 15.0142 16.072 15.0142 15.4977 15.0075 14.9499 15.2552 14.5755 15.6907L14.2147 15.17C14.717 14.6286 15.4281 14.3298 16.1663 14.35 17.1995 14.35 18.0605 14.8092 18.0605 15.99L18.0605 19.3315 17.302 19.3315ZM17.302 17.4004C16.9718 17.0027 16.4735 16.7839 15.9572 16.81 15.3718 16.7284 14.8312 17.1368 14.7496 17.7221 14.668 18.3074 15.0764 18.8481 15.6617 18.9297 15.7597 18.9434 15.8592 18.9434 15.9572 18.9297 16.4756 18.9529 16.9743 18.7293 17.302 18.327Z" stroke="#FFFFFF" stroke-width="0.41" transform="matrix(1.02439 0 0 1 491 571)"/><path d="M19.4955 21.1929 19.4955 14.4812 20.254 14.4812 20.254 15.2069C20.636 14.6814 21.2444 14.3681 21.894 14.3623 23.1773 14.3623 24.067 15.3258 24.067 16.9084 24.067 18.491 23.1773 19.4627 21.894 19.4627 21.24 19.4629 20.6273 19.1428 20.254 18.6058L20.254 21.1929ZM21.7095 15.0429C21.128 15.052 20.5863 15.3404 20.254 15.8178L20.254 18.0113C20.591 18.4945 21.141 18.7848 21.73 18.7903 22.7099 18.7903 23.3003 17.9703 23.3003 16.9084 23.3003 15.8465 22.6894 15.0347 21.73 15.0347Z" stroke="#FFFFFF" stroke-width="0.41" transform="matrix(1.02439 0 0 1 491 571)"/><path d="M25.2191 21.1929 25.2191 14.4812 25.9776 14.4812 25.9776 15.2069C26.3596 14.6814 26.968 14.3681 27.6176 14.3623 28.9009 14.3623 29.7947 15.3258 29.7947 16.9084 29.7947 18.491 28.9009 19.4627 27.6176 19.4627 26.9636 19.4629 26.3509 19.1428 25.9776 18.6058L25.9776 21.1929ZM27.4331 15.0429C26.8516 15.052 26.3099 15.3404 25.9776 15.8178L25.9776 18.0113C26.3086 18.4918 26.8498 18.7845 27.4331 18.7985 28.4171 18.7985 29.0034 17.9785 29.0034 16.9166 29.0034 15.8547 28.4171 15.0347 27.4331 15.0347Z" stroke="#FFFFFF" stroke-width="0.41" transform="matrix(1.02439 0 0 1 491 571)"/><path d="M8.5936 33.6774 11.7014 30.5655" stroke="#FFFFFF" stroke-width="0.615" stroke-linejoin="round" fill="none" transform="matrix(1.02439 0 0 1 491 571)"/><path d="M12.7428 32.6483 12.7428 29.52 9.6186 29.52" stroke="#FFFFFF" stroke-width="0.615" stroke-linejoin="round" fill="none" transform="matrix(1.02439 0 0 1 491 571)"/><path d="M12.2221 23.2962C8.4927 23.2948 5.46833 26.3171 5.46698 30.0465 5.46645 31.5504 5.968 33.0116 6.8921 34.1981 5.32201 31.9804 5.84701 28.9098 8.0647 27.3397 10.2824 25.7696 13.353 26.2946 14.9231 28.5123 16.4932 30.73 15.9682 33.8006 13.7505 35.3707 12.0471 36.5767 9.76813 36.5767 8.0647 35.3707 11.0039 37.6663 15.2475 37.1446 17.5431 34.2055 19.8388 31.2664 19.3171 27.0227 16.3779 24.7271 15.191 23.8 13.7282 23.2964 12.2221 23.2962Z" stroke="#FFFFFF" stroke-width="0.82" stroke-linejoin="round" fill="none" transform="matrix(1.02439 0 0 1 491 571)"/></g></g></g><path d="M0-0.666667 18.8321-0.666667 18.8321 33.3407 18.1654 32.674 29.6641 32.674 29.6641 34.0073 17.4987 34.0073 17.4987 0 18.1654 0.666667 0 0.666667ZM28.3308 29.3407 36.3308 33.3407 28.3308 37.3407Z" fill="#DCDCDC" transform="matrix(1 0 0 -1 455.5 558.841)"/><path d="M0-0.666667 18.8321-0.666667 18.8321 0.0616273 18.1655-0.605039 29.6641-0.605039 29.6641 0.728294 17.4988 0.728294 17.4988 0 18.1655 0.666667 0 0.666667ZM28.3308-3.93837 36.3308 0.0616273 28.3308 4.06163Z" fill="#DCDCDC" transform="matrix(1 0 0 -1 455.5 558.562)"/><path d="M455.5 557.833 474.332 557.833 474.332 591.717 473.665 591.051 485.164 591.051 485.164 592.384 472.999 592.384 472.999 558.5 473.665 559.167 455.5 559.167ZM483.831 587.717 491.831 591.717 483.831 595.717Z" fill="#DCDCDC"/><path d="M281.5 395.833 343.935 395.833 343.935 558.125 343.268 557.458 398.369 557.458 398.369 558.792 342.601 558.792 342.601 396.5 343.268 397.167 281.5 397.167ZM397.036 554.125 405.036 558.125 397.036 562.125Z" fill="#DCDCDC"/><path d="M0-0.666667 5.33333-0.666667 5.33333 0.666667 0 0.666667ZM9.33333-0.666667 14.6667-0.666667 14.6667 0.666667 9.33333 0.666667ZM18.6667-0.666667 24-0.666667 24 0.666667 18.6667 0.666667ZM28-0.666667 33.3333-0.666667 33.3333 0.666667 28 0.666667ZM37.3333-0.666667 42.6667-0.666667 42.6667 0.666667 37.3333 0.666667ZM46.6667-0.666667 52-0.666667 52 0.666667 46.6667 0.666667ZM56-0.666667 61.3333-0.666667 61.3333 0.666667 56 0.666667ZM65.3333-0.666667 70.6667-0.666667 70.6667 0.666667 65.3333 0.666667ZM74.6667-0.666667 80-0.666667 80 0.666667 74.6667 0.666667ZM84-0.666667 89.3333-0.666667 89.3333 0.666667 84 0.666667ZM93.3333-0.666667 98.6667-0.666667 98.6667 0.666667 93.3333 0.666667ZM102.667-0.666667 108-0.666667 108 0.666667 102.667 0.666667ZM112-0.666667 117.989-0.666667 117.989 0.0106037 116.656 0.0106037 116.656 0 117.323 0.666667 112 0.666667ZM117.989 4.0106 117.989 9.34394 116.656 9.34394 116.656 4.0106ZM117.989 13.3439 117.989 18.6773 116.656 18.6773 116.656 13.3439ZM117.989 22.6773 117.989 28.0106 116.656 28.0106 116.656 22.6773ZM117.989 32.0106 117.989 37.3439 116.656 37.3439 116.656 32.0106ZM117.989 41.3439 117.989 46.6773 116.656 46.6773 116.656 41.3439ZM117.989 50.6773 117.989 56.0106 116.656 56.0106 116.656 50.6773ZM117.989 60.0106 117.989 65.3439 116.656 65.3439 116.656 60.0106ZM117.989 69.3439 117.989 74.6773 116.656 74.6773 116.656 69.3439ZM117.989 78.6773 117.989 84.0106 116.656 84.0106 116.656 78.6773ZM117.989 88.0106 117.989 93.3439 116.656 93.3439 116.656 88.0106ZM117.989 97.3439 117.989 102.677 116.656 102.677 116.656 97.3439ZM117.989 106.677 117.989 112.011 116.656 112.011 116.656 106.677ZM117.989 116.011 117.989 117.829 116.656 117.829 116.656 116.011ZM121.323 116.496 117.323 124.496 113.323 116.496Z" fill="#DCDCDC" transform="matrix(1.83697e-16 1 1 -1.83697e-16 512.5 279.5)"/><path d="M511.833 504.039 511.833 498.705 513.167 498.705 513.167 504.039ZM511.833 494.705 511.833 489.372 513.167 489.372 513.167 494.705ZM511.833 485.372 511.833 480.039 513.167 480.039 513.167 485.372ZM511.833 476.039 511.833 470.705 513.167 470.705 513.167 476.039ZM511.833 466.705 511.833 461.372 513.167 461.372 513.167 466.705ZM511.833 457.372 511.833 452.039 513.167 452.039 513.167 457.372ZM511.833 448.039 511.833 442.705 513.167 442.705 513.167 448.039ZM511.833 438.705 511.833 433.372 513.167 433.372 513.167 438.705ZM511.833 429.372 511.833 424.039 513.167 424.039 513.167 429.372ZM511.833 420.039 511.833 414.705 513.167 414.705 513.167 420.039ZM511.833 410.705 511.833 405.372 513.167 405.372 513.167 410.705ZM511.833 401.372 511.833 395.833 512.961 395.833 512.961 397.167 512.5 397.167 513.167 396.5 513.167 401.372ZM516.961 395.833 522.295 395.833 522.295 397.167 516.961 397.167ZM526.295 395.833 531.628 395.833 531.628 397.167 526.295 397.167ZM535.628 395.833 540.961 395.833 540.961 397.167 535.628 397.167ZM544.961 395.833 550.295 395.833 550.295 397.167 544.961 397.167ZM554.295 395.833 559.628 395.833 559.628 397.167 554.295 397.167ZM563.628 395.833 568.961 395.833 568.961 397.167 563.628 397.167ZM572.961 395.833 578.295 395.833 578.295 397.167 572.961 397.167ZM582.295 395.833 587.628 395.833 587.628 397.167 582.295 397.167ZM591.628 395.833 596.961 395.833 596.961 397.167 591.628 397.167ZM600.961 395.833 606.295 395.833 606.295 397.167 600.961 397.167ZM610.295 395.833 615.628 395.833 615.628 397.167 610.295 397.167ZM619.628 395.833 624.961 395.833 624.961 397.167 619.628 397.167ZM628.961 395.833 630.329 395.833 630.329 397.167 628.961 397.167ZM628.996 392.5 636.996 396.5 628.996 400.5Z" fill="#DCDCDC"/><path d="M0.000267789-0.666667 5.3336-0.664524 5.33307 0.668809-0.000267789 0.666667ZM9.3336-0.662918 14.6669-0.660775 14.6664 0.672558 9.33307 0.670416ZM18.6669-0.659168 24.0003-0.657026 23.9997 0.676307 18.6664 0.674165ZM28.0003-0.655419 33.3336-0.653277 33.3331 0.680056 27.9997 0.677914ZM37.3336-0.65167 42.6669-0.649528 42.6664 0.683805 37.3331 0.681663ZM46.6669-0.647921 52.0003-0.645779 51.9997 0.687554 46.6664 0.685412ZM56.0003-0.644172 61.3336-0.64203 61.3331 0.691303 55.9997 0.689161ZM65.3336-0.640423 70.6669-0.638281 70.6664 0.695052 65.3331 0.69291ZM74.6669-0.636674 80.0003-0.634532 79.9997 0.698801 74.6664 0.696659ZM84.0003-0.632925 89.3336-0.630783 89.3331 0.70255 83.9997 0.700408ZM93.3336-0.629176 98.6669-0.627034 98.6664 0.706299 93.3331 0.704157ZM102.667-0.625427 108-0.623285 108 0.710048 102.666 0.707906ZM112-0.621678 116.176-0.620001 116.175 0.713332 112 0.711655ZM114.844-3.95387 122.842 0.0493438 114.841 4.04613Z" fill="#DCDCDC" transform="matrix(1 0 0 -1 688.5 396.549)"/><g clip-path="url(#clip40)"><g clip-path="url(#clip41)"><g clip-path="url(#clip42)"><path d="M32.977 59.2312C33.7596 60.167 34.9226 60.6999 36.1424 60.6816 37.7888 60.6816 38.759 59.8682 38.759 58.7216 38.759 57.575 37.4164 57.0752 36.0248 56.7028 34.3784 56.301 32.5752 55.8698 32.5752 53.9392 32.5752 52.4202 33.8492 51.1854 36.064 51.1854 37.3922 51.1273 38.6777 51.6623 39.5724 52.6456L38.9844 53.4002C38.2679 52.5212 37.1772 52.034 36.0444 52.087 34.5156 52.087 33.5846 52.8514 33.5846 53.8804 33.5846 54.9094 34.8684 55.3112 36.26 55.664 37.9456 56.0952 39.837 56.5656 39.837 58.6726 39.837 60.2798 38.612 61.6126 36.162 61.6126 34.7135 61.7003 33.3048 61.1188 32.34 60.0348Z" stroke="#373737" stroke-width="0.49" stroke-miterlimit="10" transform="matrix(1 0 0 1.0102 14 51)"/><path d="M48.7452 60.172C47.9035 61.1209 46.6806 61.6424 45.4132 61.593 43.5906 61.6634 42.056 60.2429 41.9856 58.4202 41.984 58.377 41.9832 58.3337 41.9832 58.2904 41.9643 56.4936 43.4056 55.0217 45.2024 55.0028 45.2727 55.002 45.343 55.0036 45.4132 55.0074 46.6791 54.9556 47.9016 55.4733 48.7452 56.4186L48.7452 54.4586C48.7452 52.9788 47.5692 52.185 46.109 52.185 44.9156 52.1602 43.7797 52.6972 43.0416 53.6354L42.4536 52.9004C43.3914 51.7987 44.7807 51.1853 46.2266 51.2344 48.1866 51.2344 49.8036 52.2144 49.8036 54.4194L49.8036 61.3872 48.7452 61.3872ZM48.7452 57.232C48.034 56.3385 46.947 55.8277 45.8052 55.8502 44.4521 55.6787 43.2161 56.6366 43.0446 57.9896 42.8731 59.3428 43.8311 60.5787 45.1842 60.7502 45.3904 60.7764 45.599 60.7764 45.8052 60.7502 46.9429 60.7844 48.0309 60.2839 48.7452 59.3978Z" stroke="#373737" stroke-width="0.49" stroke-miterlimit="10" transform="matrix(1 0 0 1.0102 14 51)"/><path d="M59.3194 60.172C58.4777 61.1209 57.2548 61.6424 55.9874 61.593 54.1648 61.6634 52.6302 60.2429 52.5599 58.4202 52.5582 58.377 52.5574 58.3337 52.5574 58.2904 52.5385 56.4936 53.9798 55.0217 55.7766 55.0028 55.8469 55.002 55.9172 55.0036 55.9874 55.0074 57.2533 54.9556 58.4758 55.4733 59.3194 56.4186L59.3194 54.4586C59.3194 52.9788 58.1434 52.185 56.6832 52.185 55.4898 52.1602 54.3539 52.6972 53.6158 53.6354L53.0278 52.9004C53.9626 51.7669 55.3717 51.1331 56.84 51.1854 58.8 51.1854 60.4072 52.1654 60.4072 54.3704L60.4072 61.3382 59.3194 61.3382ZM59.3194 57.232C58.6063 56.341 57.5205 55.8307 56.3794 55.8502 55.0263 55.7291 53.8312 56.7278 53.7101 58.0809 53.5888 59.434 54.5876 60.6291 55.9407 60.7502 56.0867 60.7632 56.2335 60.7632 56.3794 60.7502 57.5164 60.7814 58.6032 60.2815 59.3194 59.3978Z" stroke="#373737" stroke-width="0.49" stroke-miterlimit="10" transform="matrix(1 0 0 1.0102 14 51)"/><path d="M63.4354 59.2312C64.2267 60.1779 65.4066 60.7119 66.64 60.6816 68.2864 60.6816 69.2566 59.8682 69.2566 58.7216 69.2566 57.575 67.9238 57.0752 66.5224 56.7028 64.876 56.301 63.0728 55.8698 63.0728 53.9392 63.0728 52.4202 64.3468 51.1854 66.5616 51.1854 67.8903 51.1245 69.1768 51.6599 70.07 52.6456L69.482 53.4002C68.7655 52.5212 67.6748 52.034 66.542 52.087 65.023 52.087 64.0822 52.8514 64.0822 53.8804 64.0822 54.9094 65.3268 55.3112 66.64 55.664 68.3256 56.0952 70.217 56.5656 70.217 58.6726 70.217 60.2798 69.0018 61.6126 66.542 61.6126 65.1139 61.6872 63.7282 61.115 62.769 60.0544Z" stroke="#373737" stroke-width="0.49" stroke-miterlimit="10" transform="matrix(1 0 0 1.0102 14 51)"/><path d="M66.395 75.46 20.0116 75.46C13.4923 75.4735 8.19653 70.1997 8.183 63.6804 8.16947 57.1611 13.4433 51.8653 19.9626 51.8518L19.9626 51.8518C19.9029 42.2179 27.6644 34.3598 37.2982 34.3001 37.305 34.3001 37.3116 34.3 37.3184 34.3 39.7877 34.2962 42.2284 34.8278 44.4724 35.8582 48.3184 25.3411 59.9621 19.9332 70.479 23.7793 78.5564 26.7331 83.8914 34.4613 83.79 43.0612 83.7901 44.8673 83.5563 46.6659 83.0942 48.412 89.8767 52.9426 91.7021 62.1137 87.1715 68.8961 84.47 72.9403 79.9507 75.3952 75.0876 75.46L72.1476 75.46" stroke="#373737" stroke-width="2.0188" stroke-linejoin="round" fill="none" transform="matrix(1 0 0 1.0102 14 51)"/></g></g></g><path d="M0.666667-7.26619e-07 0.666764 89.6579-0.666569 89.6579-0.666667 7.26619e-07ZM4.0001 88.3245 0.000104987 96.3245-3.9999 88.3245Z" fill="#DCDCDC" transform="matrix(1 0 0 -1 63.5001 246.825)"/><path d="M947 360.667C947 358.089 949.089 356 951.667 356L970.333 356C972.911 356 975 358.089 975 360.667L975 382.333C975 384.911 972.911 387 970.333 387L951.667 387C949.089 387 947 384.911 947 382.333Z" fill="#1DB14B" fill-rule="evenodd"/><g clip-path="url(#clip43)"><g clip-path="url(#clip44)"><g clip-path="url(#clip45)"><path d="M963.681 365.169C960.66 363.966 957.236 365.44 956.034 368.461 954.831 371.481 956.304 374.905 959.325 376.108 962.346 377.311 965.769 375.837 966.972 372.816 967.915 370.45 967.228 367.745 965.27 366.115L965.27 366.115 960.63 373.144 958.113 369.827" stroke="#FFFFFF" stroke-width="0.58" stroke-linejoin="round" fill="none"/><path d="M967.106 362.42 965.925 362.472 965.925 362.472 963.107 360.309C962.242 359.596 960.999 359.578 960.114 360.265L957.075 362.472 955.894 362.42C953.67 362.31 951.93 361.681 951.93 364.731 951.93 367.782 952.342 372.73 952.342 372.73 952.342 372.73 952.095 376.442 956.402 379.574 960.088 382.271 961.5 383.245 961.5 383.245L961.5 383.245C961.5 383.245 962.927 382.271 966.624 379.574 970.919 376.442 970.684 372.73 970.684 372.73 970.684 372.73 971.07 367.782 971.07 364.731 971.07 361.681 969.33 362.31 967.106 362.411" stroke="#FFFFFF" stroke-width="0.58" stroke-linejoin="round" fill="none"/></g></g></g><path d="M947 105.667C947 103.089 949.089 101 951.667 101L970.333 101C972.911 101 975 103.089 975 105.667L975 126.333C975 128.911 972.911 131 970.333 131L951.667 131C949.089 131 947 128.911 947 126.333Z" fill="#1D9CD3" fill-rule="evenodd"/><g clip-path="url(#clip46)"><g clip-path="url(#clip47)"><g clip-path="url(#clip48)"><path d="M963.681 110.169C960.66 108.966 957.236 110.44 956.034 113.461 954.831 116.481 956.304 119.905 959.325 121.108 962.346 122.311 965.769 120.837 966.972 117.817 967.915 115.45 967.228 112.745 965.27 111.115L965.27 111.115 960.63 118.144 958.113 114.827" stroke="#FFFFFF" stroke-width="0.58" stroke-linejoin="round" fill="none"/><path d="M967.106 107.42 965.925 107.472 965.925 107.472 963.107 105.309C962.242 104.596 960.999 104.578 960.114 105.265L957.075 107.472 955.894 107.42C953.67 107.31 951.93 106.681 951.93 109.731 951.93 112.782 952.342 117.73 952.342 117.73 952.342 117.73 952.095 121.442 956.402 124.574 960.088 127.271 961.5 128.245 961.5 128.245L961.5 128.245C961.5 128.245 962.927 127.271 966.624 124.574 970.919 121.442 970.684 117.73 970.684 117.73 970.684 117.73 971.07 112.782 971.07 109.731 971.07 106.681 969.33 107.31 967.106 107.411" stroke="#FFFFFF" stroke-width="0.58" stroke-linejoin="round" fill="none"/></g></g></g><path d="M461.167 293.167 461.167 476.858 459.833 476.858 459.833 293.167ZM456.5 294.5 460.5 286.5 464.5 294.5ZM464.5 475.525 460.5 483.525 456.5 475.525Z" fill="#DCDCDC"/><path d="M417 390C417 388.343 418.343 387 420 387L501 387C502.657 387 504 388.343 504 390L504 402C504 403.657 502.657 405 501 405L420 405C418.343 405 417 403.657 417 402Z" fill="#FFFFFF" fill-rule="evenodd"/><text fill="#373737" font-family="Arial,Arial_MSFontService,sans-serif" font-weight="400" font-size="19" transform="translate(438.17 402)">cross</text><path d="M1011 683.167C1011 681.97 1011.97 681 1013.17 681L1041.83 681C1043.03 681 1044 681.97 1044 683.167L1044 691.833C1044 693.03 1043.03 694 1041.83 694L1013.17 694C1011.97 694 1011 693.03 1011 691.833Z" fill="#FFFFFF" fill-rule="evenodd"/><text fill="#16759E" font-family="Arial,Arial_MSFontService,sans-serif" font-weight="400" font-size="12" transform="translate(1013.46 691)">cross<tspan fill="#FFFFFF" font-size="12" x="56.2593" y="0">Cross services flow</tspan><tspan fill="#FFFFFF" font-size="14" x="-794.698" y="-247">Edge Proxy</tspan><tspan fill="#FFFFFF" font-size="14" x="-393.003" y="-247">Egress</tspan><tspan fill="#FFFFFF" font-size="14" x="-345.503" y="-247">Proxy</tspan></text><path d="M1044 686 1051.02 686 1051.02 688 1044 688ZM1049.69 683 1057.69 687 1049.69 691Z" fill="#FFFFFF"/><path d="M1004 687 1010.78 687" stroke="#FFFFFF" stroke-width="2" stroke-miterlimit="8" fill="none" fill-rule="evenodd"/></g></svg>