<svg id="Layer_1" data-name="Layer 1" xmlns="http://www.w3.org/2000/svg" viewBox="0 0 534.33 144"><defs><style>.cls-1{fill:#2672fb;}</style></defs><path class="cls-1" d="M71.84,36a33.89,33.89,0,0,0-22.11,7.76V53.4A30.51,30.51,0,0,1,72,43.55c15.51,0,27.46,12.16,27.46,28.5V94.59c5.13-5.45,8.38-13.31,8.38-22.54C107.79,51.3,91.76,36,71.84,36Z"/><path class="cls-1" d="M44.49,71.43V48.89A32.55,32.55,0,0,0,36,71.43c0,20.75,16,36.05,36,36.05a34.46,34.46,0,0,0,22.22-7.76V90.08a31.15,31.15,0,0,1-22.33,9.85C56.33,99.93,44.49,87.67,44.49,71.43Z"/><path class="cls-1" d="M155.66,37.15H131.34v69.18h8.18v-62h16c9.12,0,13.83,5.66,13.83,13s-4.71,12.89-13.83,12.89h-10.9v7.12h11c13.63,0,22.12-8.38,22.12-20.12S169.29,37.15,155.66,37.15Z"/><path class="cls-1" d="M236.37,52.25l6-4.51A25.4,25.4,0,0,0,221,36a24.83,24.83,0,0,0-7.54,1.15v7.76a20.21,20.21,0,0,1,7.33-1.36A18.52,18.52,0,0,1,236.37,52.25Z"/><path class="cls-1" d="M227,68.91l-7.65-3.67c-6.29-3-11.11-5.34-11.11-12.68v-13a16.71,16.71,0,0,0-8.49,14.57c0,9.75,7.55,14.57,15.62,18.45l7.75,3.67C230,79.5,234.69,82,234.69,89.45V103.6a17.64,17.64,0,0,0,8.49-15.4C243.18,78.87,237.21,73.73,227,68.91Z"/><path class="cls-1" d="M201.47,88.09l-6.08,4.51c5.34,9.11,14.57,14.88,25.26,14.88a27,27,0,0,0,8.91-1.47V98.36a27.64,27.64,0,0,1-8.81,1.57C211.84,99.93,205.66,94.48,201.47,88.09Z"/><polygon class="cls-1" points="259.13 37.16 285.44 107.48 288.37 107.48 291.31 100.35 268.14 37.16 259.13 37.16"/><polygon class="cls-1" points="335.95 82.64 340.35 93.44 361.32 37.16 352.41 37.16 335.95 82.64"/><polygon class="cls-1" points="308.81 36 290.26 82.43 294.13 93.12 310.27 52.66 332.18 107.48 335.22 107.48 337.63 100.77 311.74 36 308.81 36"/><polygon class="cls-1" points="386.28 85.52 397.28 59.95 392.99 49.78 368.67 106.9 377.26 106.9 383.13 92.86 411.43 92.86 408.29 85.52 386.28 85.52"/><polygon class="cls-1" points="398.64 36.58 395.71 43.18 422.96 106.9 431.66 106.9 401.69 36.58 398.64 36.58"/><rect class="cls-1" x="435.96" y="37.15" width="56.91" height="7.34"/><rect class="cls-1" x="460.27" y="49.62" width="8.18" height="56.7"/><path class="cls-1" d="M493,100.83h-.94v1.47H493a.71.71,0,0,0,.75-.71A.72.72,0,0,0,493,100.83Z"/><path class="cls-1" d="M493,97a5.52,5.52,0,1,0,5.37,5.53A5.49,5.49,0,0,0,493,97Zm1.34,8.31-1.41-1.87h-.8v1.87H490.8V99.69h2.25a1.86,1.86,0,0,1,2.05,1.87,1.7,1.7,0,0,1-.91,1.56l1.55,2.16Z"/></svg>